<?xml version="1.0" encoding="UTF-8" standalone="no"?>
<!-- Created with Inkscape (http://www.inkscape.org/) -->

<svg
   width="751.87976"
   height="1000"
   viewBox="0 0 751.87974 1000"
   version="1.1"
   id="svg1"
   sodipodi:docname="Coat_of_Arms_of_the_Republic_of_Bosnia_and_Herzegovina_(1992–1998).svg"
   xmlns:inkscape="http://www.inkscape.org/namespaces/inkscape"
   xmlns:sodipodi="http://sodipodi.sourceforge.net/DTD/sodipodi-0.dtd"
   xmlns="http://www.w3.org/2000/svg"
   xmlns:svg="http://www.w3.org/2000/svg">
  <sodipodi:namedview
     id="namedview1"
     pagecolor="#ffffff"
     bordercolor="#000000"
     borderopacity="0.25"
     inkscape:showpageshadow="2"
     inkscape:pageopacity="0.0"
     inkscape:pagecheckerboard="0"
     inkscape:deskcolor="#d1d1d1" />
  <defs
     id="defs1" />
  <g
     id="coat-of-arms"
     transform="matrix(0.75187971,0,0,0.75187971,-56.497495,-11.737156)">
    <path
       id="bordure_or"
       class="cls-1"
       d="M 986.02834,907.65437 C 945.13499,997.56854 895.47831,1073.5944 839.65832,1137.5187 765.095,1222.9089 675.54167,1293.1374 575.14165,1345.6104 474.74168,1293.1374 385.18766,1222.9089 310.62533,1137.5187 254.80432,1073.5944 205.14768,997.56854 164.25466,907.65437 106.54967,780.77246 76.703999,642.82586 75.141667,501.15216 V 15.610417 H 502.15833 v 0 H 1075.1417 V 501.15216 c -1.5634,141.6737 -31.4067,279.6203 -89.11336,406.50221 z"
       style="fill:#fbc11d;fill-opacity:1;fill-rule:evenodd;stroke-width:0.333353" />
    <path
       id="shield_azure"
       style="fill:#003897;fill-opacity:1;fill-rule:evenodd;stroke-width:0.333353"
       class="cls-1"
       d="m 125.14258,500.86133 c 0.78177,69.47419 8.745,138.89508 24.19177,206.64613 14.58688,64.11907 35.8937,126.71662 63.60793,186.35277 0.7933,1.72016 1.60227,3.43303 2.40342,5.14954 -0.14626,-0.32269 0.45413,0.95823 0.59811,1.2589 30.15354,63.86818 67.2314,124.58823 111.58338,179.60813 25.97059,32.2176 54.36511,62.4736 84.75678,90.5552 49.39812,45.6409 104.21576,85.3895 162.85665,118.3121 63.02844,-35.378 121.62963,-78.6591 173.84801,-128.6411 35.57773,-34.0481 68.26942,-71.1348 97.32169,-110.9047 39.50729,-53.98203 72.48357,-112.62112 99.37845,-173.83467 26.32399,-60.04699 46.21172,-122.89564 59.43873,-187.1061 12.7738,-61.95841 19.3872,-125.16768 20.0151,-188.41964 0,-144.74219 0,-289.48437 0,-434.226562 -300.00002,0 -600.00002,0 -900.00002,0 0,145.083332 0,290.166662 0,435.250002 z" />
    <path
       id="bend_argent"
       style="fill:#ffffff;fill-opacity:1;fill-rule:evenodd;stroke-width:0.333353"
       class="cls-1"
       d="m 175.14167,115.61042 v 101.578 l 639.68192,789.94198 c 29.4077,-41.85528 54.6286,-86.51968 76.2251,-132.88718 l -614.329,-758.6328 z" />
    <path
       id="fleur-de-lis_or_3"
       class="cls-1"
       d="m 925.4509,269.68998 a 35.402842,35.40687 0 0 1 -1.34719,8.79769 33.349057,33.352854 0 0 1 -8.22647,14.31311 c -3.09779,3.13486 -6.53247,5.03179 -8.42656,5.64277 a 18.440368,18.442469 0 0 1 -7.11607,0.81807 29.448568,29.451922 0 0 0 -0.97699,-7.91159 20.674555,20.67691 0 0 0 -2.641,-6.13969 12.631152,12.63259 0 0 0 -3.27127,-3.54078 10.044165,10.045308 0 0 0 -4.13149,-1.79753 8.9650872,8.9661081 0 0 0 -4.93197,0.80039 10.8328,10.834033 0 0 0 -3.01108,2.00098 33.763549,33.767394 0 0 0 -5.30208,5.94297 42.828675,42.833549 0 0 0 -3.66809,6.88472 c -1.08039,2.47791 -2.05069,4.98749 -2.95439,7.62745 -0.84039,2.45887 -1.59069,4.89977 -2.29089,7.42699 l 7.08608,0.0265 7.85625,0.0265 a 5.077604,5.0781822 0 0 1 2.1542,0.48492 4.8385129,4.8390636 0 0 1 1.46058,1.0562 4.5827484,4.5832703 0 0 1 1.00701,1.65613 4.4543663,4.4548732 0 0 1 0.23029,1.60081 4.4060144,4.4065161 0 0 1 -0.86039,2.40119 4.7558147,4.7563561 0 0 1 -3.70139,1.8296 l -17.78012,0.0635 c -2.59097,7.21892 -2.80448,14.95907 0.019,21.94119 a 28.093052,28.096251 0 0 0 4.52167,7.50371 c -2.49758,-0.10474 -4.66507,0.40423 -6.30907,1.7162 -1.08039,0.8621 -2.51089,3.45102 -3.46798,6.94212 -0.51689,1.89094 -1.057,4.29209 -2.95109,6.05634 a 6.3024046,6.3031219 0 0 1 -2.86779,1.60075 7.464181,7.4650308 0 0 1 -1.60729,0.14331 c -0.53019,0.008 -1.04699,0.008 -1.57719,0 -0.5269,0.008 -1.04709,0.008 -1.57729,0 a 7.5142004,7.5150559 0 0 1 -1.60729,-0.13989 6.3357506,6.336472 0 0 1 -2.86779,-1.60077 c -1.89409,-1.76424 -2.43429,-4.16206 -2.95448,-6.05301 -0.9603,-3.49007 -2.3942,-6.07801 -3.47459,-6.93944 -1.644,-1.31065 -3.81489,-1.81791 -6.30907,-1.7115 a 28.189087,28.192298 0 0 0 4.51498,-7.50806 c 2.81779,-6.98447 2.60099,-14.72427 0,-21.94154 l -17.78012,-0.0503 a 4.7518129,4.7523539 0 0 1 -3.70138,-1.82652 4.3776703,4.3781688 0 0 1 -0.8603,-2.39894 4.3073099,4.3078004 0 0 1 0.2268,-1.60076 4.5760791,4.5766006 0 0 1 1.00379,-1.65713 4.8158377,4.8163858 0 0 1 1.4638,-1.0572 5.0529279,5.0535033 0 0 1 2.15089,-0.48658 l 7.85626,-0.0303 7.08606,-0.0302 c -0.70028,-2.52696 -1.45718,-4.96713 -2.29748,-7.42536 -0.90369,-2.63933 -1.87749,-5.14821 -2.95788,-7.62511 a 43.083103,43.088009 0 0 0 -3.67469,-6.88209 33.658173,33.662009 0 0 0 -5.30867,-5.93895 10.830799,10.832033 0 0 0 -3.01119,-1.9983 8.9637532,8.9647739 0 0 0 -4.93188,-0.79774 10.073511,10.074658 0 0 0 -4.13158,1.80089 12.682172,12.683616 0 0 0 -3.26788,3.54309 20.684559,20.686914 0 0 0 -2.63439,6.14175 29.456237,29.459592 0 0 0 -0.9737,7.91222 18.438034,18.440135 0 0 1 -7.11596,-0.81276 c -1.8941,-0.60964 -5.32878,-2.50119 -8.43327,-5.63611 a 33.40241,33.406212 0 0 1 -8.23646,-14.30708 35.393171,35.3972 0 0 1 -1.35049,-8.79669 26.624158,26.627188 0 0 1 3.23448,-14.79664 26.131304,26.13428 0 0 1 12.96164,-11.60112 25.696804,25.699731 0 0 1 10.41066,-1.83191 28.67294,28.676204 0 0 1 7.57286,1.08256 29.111107,29.114422 0 0 1 5.36878,2.12803 c 4.25158,2.18576 9.08675,6.27547 13.67853,13.48838 a 48.466824,48.472344 0 0 1 6.08558,14.13597 c 0.80699,2.689 1.5273,5.34468 2.19418,8.08703 1.3606,5.58878 2.54099,12.16167 3.46799,18.93104 0.45359,3.30798 0.8337,6.58425 1.15049,9.98694 0.019,0.20343 0.04,0.40654 0.057,0.60931 l 0.06,0.6003 3.72809,-0.002 c -0.7136,-10.34475 -1.7874,-20.42942 -3.26128,-30.57411 -1.22351,-8.41397 -2.7674,-17.46045 -4.27469,-23.71954 -3.16788,-13.15353 -8.28976,-28.3754 -11.11085,-35.01338 -0.5369,-1.26363 -1.49389,-4.01097 -2.15419,-6.31145 -1.21709,-4.22075 -1.68729,-7.83385 -1.43719,-10.56756 0.2102,-2.34849 1.18379,-5.86625 3.03448,-9.57142 a 46.179619,46.184878 0 0 1 5.79218,-8.77099 c 2.48429,-3.07418 4.92857,-5.86025 7.42286,-8.45719 1.96409,-2.04368 3.88818,-3.84389 5.82227,-5.91461 1.85069,-1.98265 3.58799,-3.97763 5.27528,-6.05734 1.68729,2.07839 3.42469,4.07204 5.27868,6.05333 1.93409,2.06939 3.86148,3.86859 5.82557,5.91027 2.49429,2.59498 4.94188,5.379 7.42946,8.45154 a 46.294663,46.299933 0 0 1 5.79898,8.76665 c 1.85398,3.70185 2.82768,7.21893 3.04108,9.56708 0.25,2.73468 -0.2166,6.34715 -1.42719,10.56857 -0.66359,2.30113 -1.61389,5.04916 -2.15079,6.31312 -2.81438,6.64029 -7.92976,21.86585 -11.08424,35.0217 -1.5039,6.26045 -3.04119,15.30758 -4.25829,23.72241 -1.46389,10.14571 -2.53428,20.23135 -3.24128,30.5768 h 3.73148 c 0.019,-0.2 0.04,-0.40018 0.057,-0.60029 0.015,-0.20001 0.04,-0.40555 0.057,-0.60898 0.31679,-3.40167 0.69359,-6.67964 1.1438,-9.98792 0.9236,-6.77005 2.09738,-13.34393 3.45457,-18.93372 0.66701,-2.74271 1.3839,-5.399 2.18751,-8.08866 a 48.485164,48.490687 0 0 1 6.07567,-14.14035 c 4.58837,-7.21624 9.41694,-11.30961 13.66852,-13.49871 a 29.177798,29.18112 0 0 1 5.36878,-2.13203 28.673273,28.676538 0 0 1 7.57288,-1.08819 25.690801,25.693728 0 0 1 10.41064,1.82422 26.116965,26.119938 0 0 1 12.96824,11.5914 26.62049,26.62352 0 0 1 3.24788,14.795 z"
       style="fill:#fbc11d;fill-opacity:1;fill-rule:evenodd;stroke-width:0.333479" />
    <path
       id="fleur-de-lis_or_5"
       class="cls-1"
       d="m 925.45089,569.68998 a 35.402842,35.40687 0 0 1 -1.3472,8.79769 33.349057,33.352854 0 0 1 -8.2265,14.31311 c -3.0978,3.13486 -6.5325,5.03179 -8.4265,5.64277 a 18.440368,18.442469 0 0 1 -7.1161,0.81807 29.448568,29.451922 0 0 0 -0.977,-7.91159 20.674555,20.67691 0 0 0 -2.641,-6.13969 12.631152,12.63259 0 0 0 -3.2713,-3.54078 10.044165,10.045308 0 0 0 -4.1315,-1.79753 8.9650872,8.9661081 0 0 0 -4.9319,0.80039 10.8328,10.834033 0 0 0 -3.0111,2.00098 33.763549,33.767394 0 0 0 -5.3021,5.94297 42.828675,42.833549 0 0 0 -3.6681,6.88472 c -1.0804,2.47791 -2.0507,4.98749 -2.9544,7.62745 -0.8404,2.45887 -1.5907,4.89977 -2.2909,7.42699 l 7.0861,0.0265 7.8563,0.0265 a 5.077604,5.0781822 0 0 1 2.1542,0.48492 4.8385129,4.8390636 0 0 1 1.4605,1.0562 4.5827484,4.5832703 0 0 1 1.0071,1.65613 4.4543663,4.4548732 0 0 1 0.2302,1.60081 4.4060144,4.4065161 0 0 1 -0.8603,2.40119 4.7558147,4.7563561 0 0 1 -3.7014,1.8296 l -17.7802,0.0635 c -2.5909,7.21892 -2.8044,14.95907 0.019,21.94119 a 28.093052,28.096251 0 0 0 4.5217,7.50371 c -2.4976,-0.10474 -4.6651,0.40423 -6.3091,1.7162 -1.0803,0.8621 -2.5108,3.45102 -3.4679,6.94212 -0.5169,1.89094 -1.057,4.29209 -2.9511,6.05634 a 6.3024046,6.3031219 0 0 1 -2.8678,1.60075 7.464181,7.4650308 0 0 1 -1.6073,0.14331 c -0.5302,0.008 -1.047,0.008 -1.5772,0 -0.5269,0.008 -1.0471,0.008 -1.5773,0 a 7.5142004,7.5150559 0 0 1 -1.6073,-0.13989 6.3357506,6.336472 0 0 1 -2.8678,-1.60077 c -1.8941,-1.76424 -2.4343,-4.16206 -2.9544,-6.05301 -0.9603,-3.49007 -2.3942,-6.07801 -3.4746,-6.93944 -1.644,-1.31065 -3.8149,-1.81791 -6.3091,-1.7115 a 28.189087,28.192298 0 0 0 4.515,-7.50806 c 2.8178,-6.98447 2.601,-14.72427 0,-21.94154 l -17.7801,-0.0503 a 4.7518129,4.7523539 0 0 1 -3.7014,-1.82652 4.3776703,4.3781688 0 0 1 -0.8603,-2.39894 4.3073099,4.3078004 0 0 1 0.2268,-1.60076 4.5760791,4.5766006 0 0 1 1.0038,-1.65713 4.8158377,4.8163858 0 0 1 1.4638,-1.0572 5.0529279,5.0535033 0 0 1 2.1509,-0.48658 l 7.8562,-0.0303 7.0861,-0.0302 c -0.7003,-2.52696 -1.4572,-4.96713 -2.2975,-7.42536 -0.9037,-2.63933 -1.8775,-5.14821 -2.9579,-7.62511 a 43.083103,43.088009 0 0 0 -3.6747,-6.88209 33.658173,33.662009 0 0 0 -5.3086,-5.93895 10.830799,10.832033 0 0 0 -3.0112,-1.9983 8.9637532,8.9647739 0 0 0 -4.9319,-0.79774 10.073511,10.074658 0 0 0 -4.1316,1.80089 12.682172,12.683616 0 0 0 -3.2679,3.54309 20.684559,20.686914 0 0 0 -2.6344,6.14175 29.456237,29.459592 0 0 0 -0.9737,7.91222 18.438034,18.440135 0 0 1 -7.1159,-0.81276 c -1.8941,-0.60964 -5.3288,-2.50119 -8.4333,-5.63611 a 33.40241,33.406212 0 0 1 -8.2365,-14.30708 35.393171,35.3972 0 0 1 -1.3504,-8.79669 26.624158,26.627188 0 0 1 3.2344,-14.79664 26.131304,26.13428 0 0 1 12.9617,-11.60112 25.696804,25.699731 0 0 1 10.4106,-1.83191 28.67294,28.676204 0 0 1 7.5729,1.08256 29.111107,29.114422 0 0 1 5.3688,2.12803 c 4.2516,2.18576 9.0867,6.27547 13.6785,13.48838 a 48.466824,48.472344 0 0 1 6.0856,14.13597 c 0.807,2.689 1.5273,5.34468 2.1942,8.08703 1.3606,5.58878 2.541,12.16167 3.468,18.93104 0.4535,3.30798 0.8337,6.58425 1.1504,9.98694 0.019,0.20343 0.04,0.40654 0.057,0.60931 l 0.06,0.6003 3.7281,-0.002 c -0.7136,-10.34475 -1.7874,-20.42942 -3.2613,-30.57411 -1.2235,-8.41397 -2.7673,-17.46045 -4.2746,-23.71954 -3.1679,-13.15353 -8.2898,-28.3754 -11.1109,-35.01338 -0.5369,-1.26363 -1.4939,-4.01097 -2.1542,-6.31145 -1.2171,-4.22075 -1.6873,-7.83385 -1.4372,-10.56756 0.2102,-2.34849 1.1838,-5.86625 3.0345,-9.57142 a 46.179619,46.184878 0 0 1 5.7922,-8.77099 c 2.4843,-3.07418 4.9286,-5.86025 7.4229,-8.45719 1.964,-2.04368 3.8881,-3.84389 5.8222,-5.91461 1.8507,-1.98265 3.588,-3.97763 5.2753,-6.05734 1.6873,2.07839 3.4247,4.07204 5.2787,6.05333 1.9341,2.06939 3.8615,3.86859 5.8256,5.91027 2.4942,2.59498 4.9418,5.379 7.4294,8.45154 a 46.294663,46.299933 0 0 1 5.799,8.76665 c 1.854,3.70185 2.8277,7.21893 3.0411,9.56708 0.25,2.73468 -0.2166,6.34715 -1.4272,10.56857 -0.6636,2.30113 -1.6139,5.04916 -2.1508,6.31312 -2.8144,6.64029 -7.9298,21.86585 -11.0843,35.0217 -1.5039,6.26045 -3.0411,15.30758 -4.2582,23.72241 -1.4639,10.14571 -2.5343,20.23135 -3.2413,30.5768 h 3.7315 c 0.019,-0.2 0.04,-0.40018 0.057,-0.60029 0.015,-0.20001 0.04,-0.40555 0.057,-0.60898 0.3168,-3.40167 0.6936,-6.67964 1.1438,-9.98792 0.9236,-6.77005 2.0973,-13.34393 3.4545,-18.93372 0.667,-2.74271 1.3839,-5.399 2.1875,-8.08866 a 48.485164,48.490687 0 0 1 6.0757,-14.14035 c 4.5884,-7.21624 9.417,-11.30961 13.6685,-13.49871 a 29.177798,29.18112 0 0 1 5.3688,-2.13203 28.673273,28.676538 0 0 1 7.5729,-1.08819 25.690801,25.693728 0 0 1 10.4106,1.82422 26.116965,26.119938 0 0 1 12.9683,11.5914 26.62049,26.62352 0 0 1 3.2479,14.795 z"
       style="fill:#fbc11d;fill-opacity:1;fill-rule:evenodd;stroke-width:0.333479" />
    <path
       id="fleur-de-lis_or_2"
       class="cls-1"
       d="m 675.07489,269.68998 a 35.402842,35.40687 0 0 1 -1.3472,8.79769 33.349057,33.352854 0 0 1 -8.2265,14.31311 c -3.0978,3.13486 -6.5325,5.03179 -8.4265,5.64277 a 18.440368,18.442469 0 0 1 -7.1161,0.81807 29.448568,29.451922 0 0 0 -0.977,-7.91159 20.674555,20.67691 0 0 0 -2.641,-6.13969 12.631152,12.63259 0 0 0 -3.2713,-3.54078 10.044165,10.045308 0 0 0 -4.1315,-1.79753 8.9650872,8.9661081 0 0 0 -4.9319,0.80039 10.8328,10.834033 0 0 0 -3.0111,2.00098 33.763549,33.767394 0 0 0 -5.3021,5.94297 42.828675,42.833549 0 0 0 -3.6681,6.88472 c -1.0804,2.47791 -2.0507,4.98749 -2.9544,7.62745 -0.8404,2.45887 -1.5907,4.89977 -2.2909,7.42699 l 7.0861,0.0265 7.8563,0.0265 a 5.077604,5.0781822 0 0 1 2.1542,0.48492 4.8385129,4.8390636 0 0 1 1.4605,1.0562 4.5827484,4.5832703 0 0 1 1.0071,1.65613 4.4543663,4.4548732 0 0 1 0.2302,1.60081 4.4060144,4.4065161 0 0 1 -0.8603,2.40119 4.7558147,4.7563561 0 0 1 -3.7014,1.8296 l -17.7802,0.0635 c -2.5909,7.21892 -2.8044,14.95907 0.019,21.94119 a 28.093052,28.096251 0 0 0 4.5217,7.50371 c -2.4976,-0.10474 -4.6651,0.40423 -6.3091,1.7162 -1.0803,0.8621 -2.5108,3.45102 -3.4679,6.94212 -0.5169,1.89094 -1.057,4.29209 -2.9511,6.05634 a 6.3024046,6.3031219 0 0 1 -2.8678,1.60075 7.464181,7.4650308 0 0 1 -1.6073,0.14331 c -0.5302,0.008 -1.047,0.008 -1.5772,0 -0.5269,0.008 -1.0471,0.008 -1.5773,0 a 7.5142004,7.5150559 0 0 1 -1.6073,-0.13989 6.3357506,6.336472 0 0 1 -2.8678,-1.60077 c -1.8941,-1.76424 -2.4343,-4.16206 -2.9544,-6.05301 -0.9603,-3.49007 -2.3942,-6.07801 -3.4746,-6.93944 -1.644,-1.31065 -3.8149,-1.81791 -6.3091,-1.7115 a 28.189087,28.192298 0 0 0 4.515,-7.50806 c 2.8178,-6.98447 2.601,-14.72427 0,-21.94154 l -17.7801,-0.0503 a 4.7518129,4.7523539 0 0 1 -3.7014,-1.82652 4.3776703,4.3781688 0 0 1 -0.8603,-2.39894 4.3073099,4.3078004 0 0 1 0.2268,-1.60076 4.5760791,4.5766006 0 0 1 1.0038,-1.65713 4.8158377,4.8163858 0 0 1 1.4638,-1.0572 5.0529279,5.0535033 0 0 1 2.1509,-0.48658 l 7.8562,-0.0303 7.0861,-0.0302 c -0.7003,-2.52696 -1.4572,-4.96713 -2.2975,-7.42536 -0.9037,-2.63933 -1.8775,-5.14821 -2.9579,-7.62511 a 43.083103,43.088009 0 0 0 -3.6747,-6.88209 33.658173,33.662009 0 0 0 -5.3086,-5.93895 10.830799,10.832033 0 0 0 -3.0112,-1.9983 8.9637532,8.9647739 0 0 0 -4.9319,-0.79774 10.073511,10.074658 0 0 0 -4.1316,1.80089 12.682172,12.683616 0 0 0 -3.2679,3.54309 20.684559,20.686914 0 0 0 -2.6344,6.14175 29.456237,29.459592 0 0 0 -0.9737,7.91222 18.438034,18.440135 0 0 1 -7.1159,-0.81276 c -1.8941,-0.60964 -5.3288,-2.50119 -8.4333,-5.63611 a 33.40241,33.406212 0 0 1 -8.2365,-14.30708 35.393171,35.3972 0 0 1 -1.3504,-8.79669 26.624158,26.627188 0 0 1 3.2344,-14.79664 26.131304,26.13428 0 0 1 12.9617,-11.60112 25.696804,25.699731 0 0 1 10.4106,-1.83191 28.67294,28.676204 0 0 1 7.5729,1.08256 29.111107,29.114422 0 0 1 5.3688,2.12803 c 4.2516,2.18576 9.0867,6.27547 13.6785,13.48838 a 48.466824,48.472344 0 0 1 6.0856,14.13597 c 0.807,2.689 1.5273,5.34468 2.1942,8.08703 1.3606,5.58878 2.541,12.16167 3.468,18.93104 0.4535,3.30798 0.8337,6.58425 1.1504,9.98694 0.019,0.20343 0.04,0.40654 0.057,0.60931 l 0.06,0.6003 3.7281,-0.002 c -0.7136,-10.34475 -1.7874,-20.42942 -3.2613,-30.57411 -1.2235,-8.41397 -2.7673,-17.46045 -4.2746,-23.71954 -3.1679,-13.15353 -8.2898,-28.3754 -11.1109,-35.01338 -0.5369,-1.26363 -1.4939,-4.01097 -2.1542,-6.31145 -1.2171,-4.22075 -1.6873,-7.83385 -1.4372,-10.56756 0.2102,-2.34849 1.1838,-5.86625 3.0345,-9.57142 a 46.179619,46.184878 0 0 1 5.7922,-8.77099 c 2.4843,-3.07418 4.9286,-5.86025 7.4229,-8.45719 1.964,-2.04368 3.8881,-3.84389 5.8222,-5.91461 1.8507,-1.98265 3.588,-3.97763 5.2753,-6.05734 1.6873,2.07839 3.4247,4.07204 5.2787,6.05333 1.9341,2.06939 3.8615,3.86859 5.8256,5.91027 2.4942,2.59498 4.9418,5.379 7.4294,8.45154 a 46.294663,46.299933 0 0 1 5.799,8.76665 c 1.854,3.70185 2.8277,7.21893 3.0411,9.56708 0.25,2.73468 -0.2166,6.34715 -1.4272,10.56857 -0.6636,2.30113 -1.6139,5.04916 -2.1508,6.31312 -2.8144,6.64029 -7.9298,21.86585 -11.0843,35.0217 -1.5039,6.26045 -3.0411,15.30758 -4.2582,23.72241 -1.4639,10.14571 -2.5343,20.23135 -3.2413,30.5768 h 3.7315 c 0.019,-0.2 0.04,-0.40018 0.057,-0.60029 0.015,-0.20001 0.04,-0.40555 0.057,-0.60898 0.3168,-3.40167 0.6936,-6.67964 1.1438,-9.98792 0.9236,-6.77005 2.0973,-13.34393 3.4545,-18.93372 0.667,-2.74271 1.3839,-5.399 2.1875,-8.08866 a 48.485164,48.490687 0 0 1 6.0757,-14.14035 c 4.5884,-7.21624 9.417,-11.30961 13.6685,-13.49871 a 29.177798,29.18112 0 0 1 5.3688,-2.13203 28.673273,28.676538 0 0 1 7.5729,-1.08819 25.690801,25.693728 0 0 1 10.4106,1.82422 26.116965,26.119938 0 0 1 12.9683,11.5914 26.62049,26.62352 0 0 1 3.2479,14.795 z"
       style="fill:#fbc11d;fill-opacity:1;fill-rule:evenodd;stroke-width:0.333479" />
    <path
       id="fleur-de-lis_or_1"
       class="cls-1"
       d="m 357.45089,602.68998 a 35.402842,35.40687 0 0 1 -1.3472,8.79769 33.349057,33.352854 0 0 1 -8.2265,14.31311 c -3.0978,3.13486 -6.5325,5.03179 -8.4265,5.64277 a 18.440368,18.442469 0 0 1 -7.1161,0.81807 29.448568,29.451922 0 0 0 -0.977,-7.91159 20.674555,20.67691 0 0 0 -2.641,-6.13969 12.631152,12.63259 0 0 0 -3.2713,-3.54078 10.044165,10.045308 0 0 0 -4.1315,-1.79753 8.9650872,8.9661081 0 0 0 -4.9319,0.80039 10.8328,10.834033 0 0 0 -3.0111,2.00098 33.763549,33.767394 0 0 0 -5.3021,5.94297 42.828675,42.833549 0 0 0 -3.6681,6.88472 c -1.0804,2.47791 -2.0507,4.98749 -2.9544,7.62745 -0.8404,2.45887 -1.5907,4.89977 -2.2909,7.42699 l 7.0861,0.0265 7.8563,0.0265 a 5.077604,5.0781822 0 0 1 2.1542,0.48492 4.8385129,4.8390636 0 0 1 1.4605,1.0562 4.5827484,4.5832703 0 0 1 1.0071,1.65613 4.4543663,4.4548732 0 0 1 0.2302,1.60081 4.4060144,4.4065161 0 0 1 -0.8603,2.40119 4.7558147,4.7563561 0 0 1 -3.7014,1.8296 l -17.7802,0.0635 c -2.5909,7.21892 -2.8044,14.95907 0.019,21.94119 a 28.093052,28.096251 0 0 0 4.5217,7.50371 c -2.4976,-0.10474 -4.6651,0.40423 -6.3091,1.7162 -1.0803,0.8621 -2.5108,3.45102 -3.4679,6.94212 -0.5169,1.89094 -1.057,4.29209 -2.9511,6.05634 a 6.3024046,6.3031219 0 0 1 -2.8678,1.60075 7.464181,7.4650308 0 0 1 -1.6073,0.14331 c -0.5302,0.008 -1.047,0.008 -1.5772,0 -0.5269,0.008 -1.0471,0.008 -1.5773,0 a 7.5142004,7.5150559 0 0 1 -1.6073,-0.13989 6.3357506,6.336472 0 0 1 -2.8678,-1.60077 c -1.8941,-1.76424 -2.4343,-4.16206 -2.9544,-6.05301 -0.9603,-3.49007 -2.3942,-6.07801 -3.4746,-6.93944 -1.644,-1.31065 -3.8149,-1.81791 -6.3091,-1.7115 a 28.189087,28.192298 0 0 0 4.515,-7.50806 c 2.8178,-6.98447 2.601,-14.72427 0,-21.94154 l -17.7801,-0.0503 a 4.7518129,4.7523539 0 0 1 -3.7014,-1.82652 4.3776703,4.3781688 0 0 1 -0.8603,-2.39894 4.3073099,4.3078004 0 0 1 0.2268,-1.60076 4.5760791,4.5766006 0 0 1 1.0038,-1.65713 4.8158377,4.8163858 0 0 1 1.4638,-1.0572 5.0529279,5.0535033 0 0 1 2.1509,-0.48658 l 7.8562,-0.0303 7.0861,-0.0302 c -0.7003,-2.52696 -1.4572,-4.96713 -2.2975,-7.42536 -0.9037,-2.63933 -1.8775,-5.14821 -2.9579,-7.62511 a 43.083103,43.088009 0 0 0 -3.6747,-6.88209 33.658173,33.662009 0 0 0 -5.3086,-5.93895 10.830799,10.832033 0 0 0 -3.0112,-1.9983 8.9637532,8.9647739 0 0 0 -4.9319,-0.79774 10.073511,10.074658 0 0 0 -4.1316,1.80089 12.682172,12.683616 0 0 0 -3.2679,3.54309 20.684559,20.686914 0 0 0 -2.6344,6.14175 29.456237,29.459592 0 0 0 -0.9737,7.91222 18.438034,18.440135 0 0 1 -7.1159,-0.81276 c -1.8941,-0.60964 -5.3288,-2.50119 -8.4333,-5.63611 a 33.40241,33.406212 0 0 1 -8.2365,-14.30708 35.393171,35.3972 0 0 1 -1.3504,-8.79669 26.624158,26.627188 0 0 1 3.2344,-14.79664 26.131304,26.13428 0 0 1 12.9617,-11.60112 25.696804,25.699731 0 0 1 10.4106,-1.83191 28.67294,28.676204 0 0 1 7.5729,1.08256 29.111107,29.114422 0 0 1 5.3688,2.12803 c 4.2516,2.18576 9.0867,6.27547 13.6785,13.48838 a 48.466824,48.472344 0 0 1 6.0856,14.13597 c 0.807,2.689 1.5273,5.34468 2.1942,8.08703 1.3606,5.58878 2.541,12.16167 3.468,18.93104 0.4535,3.30798 0.8337,6.58425 1.1504,9.98694 0.019,0.20343 0.04,0.40654 0.057,0.60931 l 0.06,0.6003 3.7281,-0.002 c -0.7136,-10.34475 -1.7874,-20.42942 -3.2613,-30.57411 -1.2235,-8.41397 -2.7673,-17.46045 -4.2746,-23.71954 -3.1679,-13.15353 -8.2898,-28.3754 -11.1109,-35.01338 -0.5369,-1.26363 -1.4939,-4.01097 -2.1542,-6.31145 -1.2171,-4.22075 -1.6873,-7.83385 -1.4372,-10.56756 0.2102,-2.34849 1.1838,-5.86625 3.0345,-9.57142 a 46.179619,46.184878 0 0 1 5.7922,-8.77099 c 2.4843,-3.07418 4.9286,-5.86025 7.4229,-8.45719 1.964,-2.04368 3.8881,-3.84389 5.8222,-5.91461 1.8507,-1.98265 3.588,-3.97763 5.2753,-6.05734 1.6873,2.07839 3.4247,4.07204 5.2787,6.05333 1.9341,2.06939 3.8615,3.86859 5.8256,5.91027 2.4942,2.59498 4.9418,5.379 7.4294,8.45154 a 46.294663,46.299933 0 0 1 5.799,8.76665 c 1.854,3.70185 2.8277,7.21893 3.0411,9.56708 0.25,2.73468 -0.2166,6.34715 -1.4272,10.56857 -0.6636,2.30113 -1.6139,5.04916 -2.1508,6.31312 -2.8144,6.64029 -7.9298,21.86585 -11.0843,35.0217 -1.5039,6.26045 -3.0411,15.30758 -4.2582,23.72241 -1.4639,10.14571 -2.5343,20.23135 -3.2413,30.5768 h 3.7315 c 0.019,-0.2 0.04,-0.40018 0.057,-0.60029 0.015,-0.20001 0.04,-0.40555 0.057,-0.60898 0.3168,-3.40167 0.6936,-6.67964 1.1438,-9.98792 0.9236,-6.77005 2.0973,-13.34393 3.4545,-18.93372 0.667,-2.74271 1.3839,-5.399 2.1875,-8.08866 a 48.485164,48.490687 0 0 1 6.0757,-14.14035 c 4.5884,-7.21624 9.417,-11.30961 13.6685,-13.49871 a 29.177798,29.18112 0 0 1 5.3688,-2.13203 28.673273,28.676538 0 0 1 7.5729,-1.08819 25.690801,25.693728 0 0 1 10.4106,1.82422 26.116965,26.119938 0 0 1 12.9683,11.5914 26.62049,26.62352 0 0 1 3.2479,14.795 z"
       style="fill:#fbc11d;fill-opacity:1;fill-rule:evenodd;stroke-width:0.333479" />
    <path
       id="fleur-de-lis_or_4"
       class="cls-1"
       d="m 507.82689,802.68998 a 35.402842,35.40687 0 0 1 -1.3472,8.79769 33.349057,33.352854 0 0 1 -8.2265,14.31311 c -3.0978,3.13486 -6.5325,5.03179 -8.4265,5.64277 a 18.440368,18.442469 0 0 1 -7.1161,0.81807 29.448568,29.451922 0 0 0 -0.977,-7.91159 20.674555,20.67691 0 0 0 -2.641,-6.13969 12.631152,12.63259 0 0 0 -3.2713,-3.54078 10.044165,10.045308 0 0 0 -4.1315,-1.79753 8.9650872,8.9661081 0 0 0 -4.9319,0.80039 10.8328,10.834033 0 0 0 -3.0111,2.00098 33.763549,33.767394 0 0 0 -5.3021,5.94297 42.828675,42.833549 0 0 0 -3.6681,6.88472 c -1.0804,2.47791 -2.0507,4.98749 -2.9544,7.62745 -0.8404,2.45887 -1.5907,4.89977 -2.2909,7.42699 l 7.0861,0.0265 7.8563,0.0265 a 5.077604,5.0781822 0 0 1 2.1542,0.48492 4.8385129,4.8390636 0 0 1 1.4605,1.0562 4.5827484,4.5832703 0 0 1 1.0071,1.65613 4.4543663,4.4548732 0 0 1 0.2302,1.60081 4.4060144,4.4065161 0 0 1 -0.8603,2.40119 4.7558147,4.7563561 0 0 1 -3.7014,1.8296 l -17.7802,0.0635 c -2.5909,7.21892 -2.8044,14.95907 0.019,21.94119 a 28.093052,28.096251 0 0 0 4.5217,7.50371 c -2.4976,-0.10474 -4.6651,0.40423 -6.3091,1.7162 -1.0803,0.8621 -2.5108,3.45102 -3.4679,6.94212 -0.5169,1.89094 -1.057,4.29209 -2.9511,6.05634 a 6.3024046,6.3031219 0 0 1 -2.8678,1.60075 7.464181,7.4650308 0 0 1 -1.6073,0.14331 c -0.5302,0.008 -1.047,0.008 -1.5772,0 -0.5269,0.008 -1.0471,0.008 -1.5773,0 a 7.5142004,7.5150559 0 0 1 -1.6073,-0.13989 6.3357506,6.336472 0 0 1 -2.8678,-1.60077 c -1.8941,-1.76424 -2.4343,-4.16206 -2.9544,-6.05301 -0.9603,-3.49007 -2.3942,-6.07801 -3.4746,-6.93944 -1.644,-1.31065 -3.8149,-1.81791 -6.3091,-1.7115 a 28.189087,28.192298 0 0 0 4.515,-7.50806 c 2.8178,-6.98447 2.601,-14.72427 0,-21.94154 l -17.7801,-0.0503 a 4.7518129,4.7523539 0 0 1 -3.7014,-1.82652 4.3776703,4.3781688 0 0 1 -0.8603,-2.39894 4.3073099,4.3078004 0 0 1 0.2268,-1.60076 4.5760791,4.5766006 0 0 1 1.0038,-1.65713 4.8158377,4.8163858 0 0 1 1.4638,-1.0572 5.0529279,5.0535033 0 0 1 2.1509,-0.48658 l 7.8562,-0.0303 7.0861,-0.0302 c -0.7003,-2.52696 -1.4572,-4.96713 -2.2975,-7.42536 -0.9037,-2.63933 -1.8775,-5.14821 -2.9579,-7.62511 a 43.083103,43.088009 0 0 0 -3.6747,-6.88209 33.658173,33.662009 0 0 0 -5.3086,-5.93895 10.830799,10.832033 0 0 0 -3.0112,-1.9983 8.9637532,8.9647739 0 0 0 -4.9319,-0.79774 10.073511,10.074658 0 0 0 -4.1316,1.80089 12.682172,12.683616 0 0 0 -3.2679,3.54309 20.684559,20.686914 0 0 0 -2.6344,6.14175 29.456237,29.459592 0 0 0 -0.9737,7.91222 18.438034,18.440135 0 0 1 -7.1159,-0.81276 c -1.8941,-0.60964 -5.3288,-2.50119 -8.4333,-5.63611 a 33.40241,33.406212 0 0 1 -8.2365,-14.30708 35.393171,35.3972 0 0 1 -1.3504,-8.79669 26.624158,26.627188 0 0 1 3.2344,-14.79664 26.131304,26.13428 0 0 1 12.9617,-11.60112 25.696804,25.699731 0 0 1 10.4106,-1.83191 28.67294,28.676204 0 0 1 7.5729,1.08256 29.111107,29.114422 0 0 1 5.3688,2.12803 c 4.2516,2.18576 9.0867,6.27547 13.6785,13.48838 a 48.466824,48.472344 0 0 1 6.0856,14.13597 c 0.807,2.689 1.5273,5.34468 2.1942,8.08703 1.3606,5.58878 2.541,12.16167 3.468,18.93104 0.4535,3.30798 0.8337,6.58425 1.1504,9.98694 0.019,0.20343 0.04,0.40654 0.057,0.60931 l 0.06,0.6003 3.7281,-0.002 c -0.7136,-10.34475 -1.7874,-20.42942 -3.2613,-30.57411 -1.2235,-8.41397 -2.7673,-17.46045 -4.2746,-23.71954 -3.1679,-13.15353 -8.2898,-28.3754 -11.1109,-35.01338 -0.5369,-1.26363 -1.4939,-4.01097 -2.1542,-6.31145 -1.2171,-4.22075 -1.6873,-7.83385 -1.4372,-10.56756 0.2102,-2.34849 1.1838,-5.86625 3.0345,-9.57142 a 46.179619,46.184878 0 0 1 5.7922,-8.77099 c 2.4843,-3.07418 4.9286,-5.86025 7.4229,-8.45719 1.964,-2.04368 3.8881,-3.84389 5.8222,-5.91461 1.8507,-1.98265 3.588,-3.97763 5.2753,-6.05734 1.6873,2.07839 3.4247,4.07204 5.2787,6.05333 1.9341,2.06939 3.8615,3.86859 5.8256,5.91027 2.4942,2.59498 4.9418,5.379 7.4294,8.45154 a 46.294663,46.299933 0 0 1 5.799,8.76665 c 1.854,3.70185 2.8277,7.21893 3.0411,9.56708 0.25,2.73468 -0.2166,6.34715 -1.4272,10.56857 -0.6636,2.30113 -1.6139,5.04916 -2.1508,6.31312 -2.8144,6.64029 -7.9298,21.86585 -11.0843,35.0217 -1.5039,6.26045 -3.0411,15.30758 -4.2582,23.72241 -1.4639,10.14571 -2.5343,20.23135 -3.2413,30.5768 h 3.7315 c 0.019,-0.2 0.04,-0.40018 0.057,-0.60029 0.015,-0.20001 0.04,-0.40555 0.057,-0.60898 0.3168,-3.40167 0.6936,-6.67964 1.1438,-9.98792 0.9236,-6.77005 2.0973,-13.34393 3.4545,-18.93372 0.667,-2.74271 1.3839,-5.399 2.1875,-8.08866 a 48.485164,48.490687 0 0 1 6.0757,-14.14035 c 4.5884,-7.21624 9.417,-11.30961 13.6685,-13.49871 a 29.177798,29.18112 0 0 1 5.3688,-2.13203 28.673273,28.676538 0 0 1 7.5729,-1.08819 25.690801,25.693728 0 0 1 10.4106,1.82422 26.116965,26.119938 0 0 1 12.9683,11.5914 26.62049,26.62352 0 0 1 3.2479,14.795 z"
       style="fill:#fbc11d;fill-opacity:1;fill-rule:evenodd;stroke-width:0.333479" />
    <path
       id="fleur-de-lis_or_6"
       class="cls-1"
       d="m 650.26289,1010.6292 a 35.402842,35.407079 0 0 1 -1.3472,8.7978 33.349057,33.353051 0 0 1 -8.2265,14.3132 c -3.0978,3.1349 -6.5325,5.0318 -8.4265,5.6428 a 18.440368,18.442578 0 0 1 -7.1161,0.8181 29.448568,29.452096 0 0 0 -0.977,-7.9117 20.674555,20.677032 0 0 0 -2.641,-6.1397 12.631152,12.632665 0 0 0 -3.2713,-3.5408 10.044165,10.045367 0 0 0 -4.1315,-1.7975 8.9650872,8.966161 0 0 0 -4.9319,0.8004 10.8328,10.834097 0 0 0 -3.0111,2.001 33.763549,33.767593 0 0 0 -5.3021,5.9429 42.828675,42.833802 0 0 0 -3.6681,6.8848 c -1.0804,2.478 -2.0507,4.9875 -2.9544,7.6275 -0.8404,2.4589 -1.5907,4.8998 -2.2909,7.4271 l 7.0861,0.026 7.8563,0.026 a 5.077604,5.0782122 0 0 1 2.1542,0.4849 4.8385129,4.8390922 0 0 1 1.4605,1.0562 4.5827484,4.5832973 0 0 1 1.0071,1.6561 4.4543663,4.4548995 0 0 1 0.2302,1.6008 4.4060144,4.4065421 0 0 1 -0.8603,2.4012 4.7558147,4.7563842 0 0 1 -3.7014,1.8296 l -17.7802,0.063 c -2.5909,7.2191 -2.8044,14.9592 0.019,21.9413 a 28.093052,28.096417 0 0 0 4.5217,7.5038 c -2.4976,-0.1047 -4.6651,0.4043 -6.3091,1.7162 -1.0803,0.8621 -2.5108,3.4511 -3.4679,6.9422 -0.5169,1.8909 -1.057,4.2921 -2.9511,6.0564 a 6.3024046,6.3031591 0 0 1 -2.8678,1.6007 7.464181,7.4650748 0 0 1 -1.6073,0.1434 c -0.5302,0.01 -1.047,0.01 -1.5772,0 -0.5269,0.01 -1.0471,0.01 -1.5773,0 a 7.5142004,7.5151002 0 0 1 -1.6073,-0.1399 6.3357506,6.3365094 0 0 1 -2.8678,-1.6008 c -1.8941,-1.7642 -2.4343,-4.1622 -2.9544,-6.0531 -0.9603,-3.4901 -2.3942,-6.078 -3.4746,-6.9395 -1.644,-1.3106 -3.8149,-1.8179 -6.3091,-1.7115 a 28.189087,28.192464 0 0 0 4.515,-7.5081 c 2.8178,-6.9845 2.601,-14.7243 0,-21.9417 l -17.7801,-0.05 a 4.7518129,4.7523819 0 0 1 -3.7014,-1.8265 4.3776703,4.3781946 0 0 1 -0.8603,-2.3989 4.3073099,4.3078258 0 0 1 0.2268,-1.6008 4.5760791,4.5766276 0 0 1 1.0038,-1.6571 4.8158377,4.8164142 0 0 1 1.4638,-1.0572 5.0529279,5.0535331 0 0 1 2.1509,-0.4866 l 7.8562,-0.03 7.0861,-0.03 c -0.7003,-2.527 -1.4572,-4.9672 -2.2975,-7.4254 -0.9037,-2.6394 -1.8775,-5.1483 -2.9579,-7.6252 a 43.083103,43.088263 0 0 0 -3.6747,-6.8821 33.658173,33.662208 0 0 0 -5.3086,-5.939 10.830799,10.832097 0 0 0 -3.0112,-1.9983 8.9637532,8.9648268 0 0 0 -4.9319,-0.7977 10.073511,10.074717 0 0 0 -4.1316,1.8009 12.682172,12.683691 0 0 0 -3.2679,3.543 20.684559,20.687036 0 0 0 -2.6344,6.1418 29.456237,29.459766 0 0 0 -0.9737,7.9123 18.438034,18.440244 0 0 1 -7.1159,-0.8127 c -1.8941,-0.6097 -5.3288,-2.5012 -8.4333,-5.6362 a 33.40241,33.406409 0 0 1 -8.2365,-14.3071 35.393171,35.397409 0 0 1 -1.3504,-8.7968 26.624158,26.627345 0 0 1 3.2344,-14.79676 26.131304,26.134434 0 0 1 12.9617,-11.6011 25.696804,25.699883 0 0 1 10.4106,-1.832 28.67294,28.676373 0 0 1 7.5729,1.0827 29.111107,29.114594 0 0 1 5.3688,2.128 c 4.2516,2.1858 9.0867,6.2755 13.6785,13.4884 a 48.466824,48.47263 0 0 1 6.0856,14.13596 c 0.807,2.689 1.5273,5.3448 2.1942,8.0872 1.3606,5.5888 2.541,12.1616 3.468,18.9311 0.4535,3.308 0.8337,6.5843 1.1504,9.987 0.019,0.2034 0.04,0.4066 0.057,0.6094 l 0.06,0.6003 h 3.7281 c -0.7136,-10.3449 -1.7874,-20.4297 -3.2613,-30.5743 -1.2235,-8.4141 -2.7673,-17.4606 -4.2746,-23.71976 -3.1679,-13.1535 -8.2898,-28.3755 -11.1109,-35.0136 -0.5369,-1.2636 -1.4939,-4.0109 -2.1542,-6.3114 -1.2171,-4.22079 -1.6873,-7.83392 -1.4372,-10.56764 0.2102,-2.34851 1.1838,-5.86629 3.0345,-9.57148 a 46.179619,46.18515 0 0 1 5.7922,-8.77104 c 2.4843,-3.0742 4.9286,-5.86028 7.4229,-8.45724 1.964,-2.04369 3.8881,-3.84391 5.8222,-5.91464 1.8507,-1.98267 3.588,-3.97766 5.2753,-6.05738 1.6873,2.0784 3.4247,4.07206 5.2787,6.05337 1.9341,2.0694 3.8615,3.86861 5.8256,5.9103 2.4942,2.595 4.9418,5.37903 7.4294,8.45159 a 46.294663,46.300206 0 0 1 5.799,8.7667 c 1.854,3.70187 2.8277,7.21897 3.0411,9.56714 0.25,2.73469 -0.2166,6.34719 -1.4272,10.56862 -0.6636,2.3011 -1.6139,5.0492 -2.1508,6.3131 -2.8144,6.6404 -7.9298,21.8661 -11.0843,35.0219 -1.5039,6.26056 -3.0411,15.30766 -4.2582,23.72256 -1.4639,10.1458 -2.5343,20.2315 -3.2413,30.577 h 3.7315 c 0.019,-0.2 0.04,-0.4001 0.057,-0.6002 0.015,-0.2001 0.04,-0.4057 0.057,-0.6091 0.3168,-3.4017 0.6936,-6.6797 1.1438,-9.9879 0.9236,-6.7702 2.0973,-13.3441 3.4545,-18.9339 0.667,-2.7427 1.3839,-5.3991 2.1875,-8.0887 a 48.485164,48.490973 0 0 1 6.0757,-14.14046 c 4.5884,-7.2162 9.417,-11.3096 13.6685,-13.4987 a 29.177798,29.181292 0 0 1 5.3688,-2.132 28.673273,28.676707 0 0 1 7.5729,-1.0883 25.690801,25.69388 0 0 1 10.4106,1.8243 26.116965,26.120092 0 0 1 12.9683,11.5914 26.62049,26.623677 0 0 1 3.2479,14.79506 z"
       style="fill:#fbc11d;fill-opacity:1;fill-rule:evenodd;stroke-width:0.33348" />
  </g>
</svg>
