<svg width="300.67" height="366.88" version="1.1" xmlns="http://www.w3.org/2000/svg">
 <g transform="translate(639.7 -300.08)">
  <g transform="matrix(.19149 0 0 .19149 40.963 634.6)" fill="#fff1ae" stroke="#806600" stroke-width="5.2223"></g>
  <g transform="matrix(.15077 0 0 .15077 891.91 596.08)">
   <g transform="matrix(.48031 .8771 -.8771 .48031 171.29 183.08)"></g>
  </g>
  <g transform="matrix(.11752 -.094457 .094457 .11752 887.93 616.45)">
   <g transform="matrix(.48031 .8771 -.8771 .48031 171.29 183.08)"></g>
  </g>
  <g transform="translate(-.28487 2.129e-7)">
   <g>
    <g transform="translate(-949.4 292.34)" stroke-width=".94507">
     <g transform="matrix(1.0581 0 0 1.0581 310.69 -2.9725)">
      <path d="m131.41 211.26s-16.129-0.81622-23.119 2.5374c-1.7974 0.86241-5.6388 4.2291-5.6388 4.2291s-2.9109-0.0152-4.793 0.84582c-6.2472 3.2802-9.3705 11.106-6.2677 17.589 0.57556 0.79463 0.43375 1.8218 0.43375 1.8218s-0.15816 3.1515-0.36672 5.9759c-0.60891 8.2462 4.8823 17.019 4.1798 25.258-2.1802 2.6099-2.2977 6.026-2.9968 8.8032-3.8154 2.5549-9.2513 1.537-13.504 1.44-7.5756-3.1683-5.7295-6.6553-9.8497-9.2634-8.2149-3.3982-11.431 4.8488-6.6605 8.3312-5.7936 2.3542-4.9172 11.816 3.8565 10.863-5.5166 8.5562 5.1034 14.954 11.16 9.7294 0 0 8.6613 0.14977 13.915-1.7516 4.6955-1.6995 9.5178-6.6713 15.009-8.2109 2.2354-0.62679 5.0867 0.0588 7.6565-1.0205 2.4453-1.0271 3.9808-2.3529 5.0855-4.7642 2.0468-4.4674 0.87681-9.7137 2.0655-14.727 1.0301-4.3442 1.7442-9.3438 5.1174-12.268 2.7956-2.4239 6.9268-4.814 10.119-4.0953 1.2178 0.27423 2.9001 1.3313 3.5277 2.3823 2.2112 3.7026 5.5253 5.4568 9.3483 5.6542-2.6593-3.1904-1.1884-4.8817 0.45772-5.9091 18.362 8.6412 25.162-11.36 24.071-15.532z" fill="#dbba2e"/>
      <path d="m174.22 239.17-42.805-27.918s-3.5659-0.18045-8.071-0.023l-3.2322 0.30691c0.46475 1.8454 1.399 3.6908 4.1167 5.5363l-1.1356 1.8454s3.3001 0.66839 4.5426 1.7035c1.06 0.883 2.1293 3.5489 2.1293 3.5489l-0.85174 3.8328s2.708-0.68343 3.9748-0.28391c0.93033 0.2934 1.852 0.96461 2.2713 1.8454 0.63042 1.3245-0.24766 2.9548 0 4.4006 0.14402 0.8408 0.85173 2.4132 0.85173 2.4132s1.5972-1.7946 2.6972-1.9874c1.3125-0.23001 3.8328 1.1356 3.8328 1.1356s0.68339 1.7238 1.2776 2.4132c0.72907 0.84593 2.6972 1.9874 2.6972 1.9874l0.56782-3.265s2.5114 4.444 3.7539 4.9802c2.6929 1.1623 6.9479 3.3951 6.9479 3.3951l0.26419-3.821s9.6635 1.6917 3.5765 9.6806c1.494 1.8946 5.5363 2.5552 5.5363 2.5552 2.9351-1.015 7.0376-10.742 7.0583-14.282z" fill="#ba9b1f"/>
      <path d="m119.51 267.37c-0.32971-10.511 7.0902-17.78 15.236-17.213 3.7653 0.15292 5.4476 1.574 6.0752 2.6249 2.2112 3.7026 5.0401 7.6403 8.8631 7.8378-2.6593-3.1904-1.1884-4.8817 0.45772-5.9091 18.362 8.6412 25.162-11.36 24.071-15.532-0.90609 16.418-16.544 21.265-23.523 10.26-1.405 6e-3 -2.5114-0.66428-3.5213 0.31249-0.71326 0.68988-0.81782 2.8624-0.81782 2.8624s-1.7394-2.2076-2.7044-3.678c-0.53542-0.81577-7e-3 -3.3205-0.61336-4.0848-0.79617-1.0028-1.3805-1.9567-2.6201-1.6356-2.0324 0.52646-1.6072 3.1319-3.4757 4.0891-1.0312 0.5282-3.6802 1.0223-3.6802 1.0223s2.2697-1.8003 2.8624-3.0668c0.46572-0.99534 0.40891-3.2713 0.40891-3.2713s-2.5744 0.0443-3.6802 0.61336c-1.5426 0.79384-2.1628 2.8392-3.6802 3.6802-0.79527 0.44078-2.6579 0.61336-2.6579 0.61336s-0.30213-2.0902 0-3.0668c0.4637-1.4989 2.3547-2.3452 2.6579-3.8846 0.18857-0.95738-1.6e-4 -2.1033-0.61336-2.8624-0.93928-1.1627-4.0891-1.8401-4.0891-1.8401s0.67106-1.9017 0.20445-2.6579c-0.85066-1.3786-4.498-1.8401-4.498-1.8401s2.7608-1.8161 3.2713-3.2713c0.40856-1.1647 0.23279-2.6258-0.4089-3.6802-1.2775-2.099-6.1336-4.0891-6.1336-4.0891l3.4757-0.61336s-1.1864-2.2764-2.249-2.8624c-1.7399-0.95948-4.0004-1.0904-5.9292-0.61337-2.6239 0.64896-5.1063 2.3499-6.747 4.498-0.91571 1.1989-1.4312 4.2936-1.4312 4.2936-1.2863-0.71137-1.6561-2.4702-2.0602-4.0943 0 0-3.7649-0.0354-5.7091 2.0498-1.6899 1.8123-3.3714 3.9139-3.8846 6.3381-0.42726 2.0179-0.05885 4.2666 0.81782 6.1336 0.51246 1.0914 2.4535 2.6579 2.4535 2.6579s4.9793-0.41493 6.9607-2.0909c1.8823-1.5921 2.6486-5.6784 2.6486-5.6784s-0.19779 4.463-1.1711 6.3381c-1.0366 1.997-3.3471 2.8121-5.3251 3.8846-1.2905 0.69976-4.3829 1.2729-4.3829 1.2729s-1.8562 3.3778-1.2267 6.3381c1.2458 5.8591 4.8857 15.809 5.4927 20.762 0.15218 1.2418 2.9383 1.6733 4.1782 1.8401 1.9494 0.26221 6.1151-2.4071 6.1151-2.4071s-2.3064 2.849-3.8846 3.6802c-1.7267 0.90938-3.7883 0.98386-5.7247 1.2267-1.7595 0.22067-5.3158 0.20446-5.3158 0.20446l-1.4561 6.1396c-3.9523 0.94042-8.6085 0.99919-12.958 0.40111-7.6225-3.0537-5.8449-6.5778-10.004-9.1234-2.4929-0.98741-4.5067-0.92536-5.9831-0.2595-2.8769 3.2894-0.04172 5.1251 1.4591 5.7633 1.4352 0.61035 3.0089 0.78987 4.36 1.5688 2.1674 1.2496 2.0344 4.4795 4.182 5.7629 1.6923 1.0114 5.7508 1.403 5.7508 1.403s-4.3906 0.8465-6.3632 0.0561c-2.2851-0.91562-3.1043-4.0373-5.3066-5.1373-1.3983-0.69844-4.6195-0.73674-4.6195-0.73674-1.7818 0.75554-2.927 2.2073-3.3823 3.785-0.41808 1.4489 0.844 3.728 4.2663 3.7918 0 0 4.4934 0.0493 6.7515 1.5097 2.8532 1.8453 3.4326 2.8931 5.7468 3.7184 1.909 0.68073 6.1021 0.18636 6.1021 0.18636s-3.7433 1.948-5.8422 1.7044c-2.3071-0.26774-4.3441-1.8665-6.1004-3.3862-1.7163-1.4851-3.5192-0.49444-3.5192-0.49444-1.5778 2.5314-1.2056 4.6684 0.0855 6.1975 3.2127 3.8048 8.3451 2.8506 11.087 1.2236 14.15 0.66442 20.623-7.7114 31.275-10.955 2.2209-0.67633 6.0157 0.24768 7.5337-0.87398 1.4102-1.042 3.6188-3.8274 3.6683-5.401 0.35573-3.338-1.108-8.5875-1.2256-12.335z" fill="#ffdb43"/>
      <path d="m131.41 211.26s-16.129-0.81622-23.119 2.5374c-1.7974 0.86241-5.6388 4.2291-5.6388 4.2291s-2.9109-0.0152-4.793 0.84582c-6.2472 3.2802-9.3705 11.106-6.2677 17.589 0.57556 0.79463 0.43375 1.8218 0.43375 1.8218s-0.15816 3.1515-0.36672 5.9759c-0.60891 8.2462 4.8823 17.019 4.1798 25.258-2.1802 2.6099-2.2977 6.026-2.9968 8.8032-3.8154 2.5549-9.2513 1.537-13.504 1.44-7.5756-3.1683-5.7295-6.6553-9.8497-9.2634-8.2149-3.3982-11.431 4.8488-6.6605 8.3312-5.7936 2.3542-4.9172 11.816 3.8565 10.863-5.5166 8.5562 5.1034 14.954 11.16 9.7294 0 0 8.6613 0.14977 13.915-1.7516 4.6955-1.6995 9.5178-6.6713 15.009-8.2109 2.2354-0.62679 5.0867 0.0588 7.6565-1.0205 2.4453-1.0271 3.9808-2.3529 5.0855-4.7642 2.0468-4.4674 0.87681-9.7137 2.0655-14.727 1.0301-4.3442 1.7442-9.3438 5.1174-12.268 2.7956-2.4239 6.9268-4.814 10.119-4.0953 1.2178 0.27423 2.9001 1.3313 3.5277 2.3823 2.2112 3.7026 5.5253 5.4568 9.3483 5.6542-2.6593-3.1904-1.1884-4.8817 0.45772-5.9091 18.362 8.6412 25.162-11.36 24.071-15.532z" fill="none" stroke="#806600" stroke-width=".94507"/>
      <path d="m109.31 221.09c-0.97386 0.50669-1.928 1.1693-2.5625 2 0.54695-0.7161-8e-3 0.13126-0.1875 0.8125-0.17974 0.68124-0.28125 1.25-0.28125 1.25-0.0468 0.29738-0.12009 0.59059-0.21875 0.875 0.69444 0.67625 1.1889 1.5554 1.4062 2.5 0 0 0.31528 1.3889 0.46875 3.0938s0.62802 3.6716-0.9375 6.6875c-2.3278 4.4844-6.2972 5.28-7.625 6-1.0604 0.57499-1.3246 0.54346-2.2188 0.875-0.23818 0.88496-0.49058 1.5764-0.4375 2.1562 0.41962 4.5843 2.6307 12.263 4.5938 16.562 1.3666 2.2645 4.0612 3.338 8.9125 0.6512 0.30929 7.181-6.2562 12.243-13.038 13.036-0.83098 0.10422-1.0348 0.0276-1.875 0.0625l-0.5625 2.4062c-0.42486 1.8196-1.934 3.3413-3.75 3.7812-3.0187 0.71828-6.1816 0.87525-9.3438 0.8125-0.03355 0.70414-0.21576 1.4008-0.53125 2.0312 1.782 0.47005 3.2464 1.9845 3.6562 3.7812 1.8166-0.5981 3.5695-1.2467 5.3438-2.1562 4.3597-2.235 8.9687-5.3874 15.188-7.2812 2.4969-0.76039 4.2481-0.50544 5.5312-0.5 0.47842 2e-3 0.68934-0.0971 0.90625-0.15625 0.2731-0.27676 0.52449-0.44465 0.8125-0.84375 0.23109-0.32022 0.33291-0.71223 0.375-0.84375 0.20747-2.5477-0.14796-6.4226 0.9375-11 0.95189-4.0142 1.4914-10.378 6.75-14.938 0.44112-0.38247 0.95332-0.76204 1.4375-1.1562-1.7395-0.61072-3.0789-2.238-3.3438-4.0625 0 0-0.10504-0.71047-0.15625-1.5938-0.0512-0.88328-0.25479-1.784 0.34375-3.7188 0.30808-0.99585 0.73801-1.6597 1.1562-2.25-1.8192-0.63813-3.1928-2.3932-3.375-4.3125-1.9974-0.31471-3.7244-1.9348-4.1659-3.9081-0.44148-1.9733 0.43045-4.1748 2.1034-5.3107 0 0 0.33475-0.27168 0.59375-0.46875-0.29958-0.23947-0.5759-0.48686-0.9375-0.6875-1.0848-0.60193-2.0625-1-2.0625-1-1.3718-0.56861-2.4664-1.7691-2.9062-3.1875zm-10.146 1.861c-0.97992 0.24379-4.1396 2.5992-4.4817 6.0264-0.38583 3.8644 1.693 4.9233 1.8088 5.5558 0.84602-0.41077 2.787-1.2042 2.5894-1.0211-0.58758 0.54454 2.1617-1.2743 2.5097-2.0556s1.553-4.2136 1.553-4.2136c-1.5008-0.46219-3.6546-3.8681-3.9792-4.292zm17.865 10.17c0.0152-0.0765-0.14728 0.0111-0.125 0.375 0.0103-0.0209 0.0207-0.0417 0.0312-0.0625 0 0 0.0665-0.17539 0.0937-0.3125z" fill="#ffea80"/>
      <g transform="translate(2,4)" stroke-width=".94507">
       <g transform="rotate(61.294 -68.852 236.09)">
        <g transform="translate(-2.3273 -2.7693)" stroke-width=".94507">
         <path d="m23.963 138.21c2.5447 0.91939 1.9822 4.5162 0.10416 4.9368-1.4188 1.2221-4.1193-1.6214-9.3824 2.1278 0.57204-4.347 6.4454-7.4891 9.2782-7.0646z" fill="#e94545" stroke="#c41d1d" stroke-width=".94507"/>
         <path d="m23.497 139.16c1.5388 0.37174 1.1986 1.826 0.06299 1.9961-0.85797-0.24916-3.3487-0.19819-7.0459 1.8895 1.3751-1.9864 5.3271-4.4575 6.983-3.8856z" fill="#ef7575"/>
        </g>
       </g>
       <g transform="rotate(34.264 -184.66 267.66)">
        <path d="m23.963 138.21c2.5447 0.91939 1.9822 4.5162 0.10416 4.9368-1.4188 1.2221-4.1193-1.6214-9.3824 2.1278 0.57204-4.347 6.4454-7.4891 9.2782-7.0646z" fill="#e94545" stroke="#c41d1d" stroke-width=".94507"/>
        <path d="m23.497 139.16c1.5388 0.37174 1.1986 1.826 0.06299 1.9961-0.85797-0.24916-3.3487-0.19819-7.0459 1.8895 1.3751-1.9864 5.3271-4.4575 6.983-3.8856z" fill="#ef7575"/>
       </g>
       <g transform="rotate(17.638 -440.73 347.84)">
        <path d="m23.963 138.21c2.5447 0.91939 1.9822 4.5162 0.10416 4.9368-1.4188 1.2221-4.1193-1.6214-9.3824 2.1278 0.57204-4.347 6.4454-7.4891 9.2782-7.0646z" fill="#e94545" stroke="#c41d1d" stroke-width=".94507"/>
        <path d="m23.497 139.16c1.5388 0.37174 1.1986 1.826 0.06299 1.9961-0.85797-0.24916-3.3487-0.19819-7.0459 1.8895 1.3751-1.9864 5.3271-4.4575 6.983-3.8856z" fill="#ef7575"/>
       </g>
      </g>
     </g>
     <g transform="matrix(1.0581 0 0 1.0581 312.81 1.26)">
      <path d="m54.952 32.52c0.57701-1.6762 1.1259-5.2179 0.36698-7.9103-1.4798-5.2494-8.7311-5.39-9.7666 0.33332-5.2974-3.3979-9.3791-1.3729-9.9756 4.0482-5.8626-0.22112-8.1221 2.7866-7.4073 6.3527 1.1616 5.7954 7.5808 10.114 8.283 13.95-1.7751 2.3506 0.22526 9.177 7.0293 10.892 2.4229 8.5349 6.7 22.856 12.894 28.045 1.6106 18.071 14.55 37.178 22.125 44l28.326-25.617c-7.6287-9.0017-14.874-16.463-29.249-24.684-2.1669-10.469-11.39-20.381-18.927-29.75-3.4267-6.9538 0.20776-7.8072 0.40185-14.324 0.0077-5.473-4.1016-5.3371-4.1016-5.3371z" fill="#dbba2e"/>
      <path d="m101.62 103.08c-4.1889 0.0799-7.1117 2.068-9.5771 4.7151-2.73 2.9312-4.8991 6.6705-7.6054 9.5218-8.2815 2.933-9.1779 8.434-6.5457 13.091l9.164-4.2547 8.3458-8.3458z" fill="#ba9b1f"/>
      <path d="m49.4 56.074c-0.69057 1.4043-3.2754 3.3632-3.2754 3.3632 1.2053 4.2456 2.7112 8.5134 4.7886 13.628s6.3513 10.438 8.7319 12.432c0.55141 0.46588 0.90782 1.1557 0.96875 1.875 1.4071 15.789 5.8318 23.733 12.891 31.045 0.01312-0.26885 2.7926 0.21475 1.6861-1.6719-6.2569-10.668-10.774-22.369-9.4341-25.068 0.95032-1.9144 5.8097 21.232 17.277 21.717 3.4171-7.1774 7.4385-10.435 13.582-12.822-5.2578-7.3587-7.7262-8.9362-20.398-16.229-0.67083-0.39271-1.161-1.0813-1.3125-1.8438-1.9216-9.2836-10.776-19.108-18.562-28.844-2.061-4.1154-2.114-7.1901-1.5-9.5 0.60572-2.2786 1.3696-3.6382 1.4688-6.3125 7e-5 -0.04993 4.93e-4 -0.04606 0-0.09375-0.01969-1.9026-0.50126-2.1066-0.78125-2.2812-0.287-0.17906-0.5-0.1875-0.5-0.1875-1.0857 0.03073-4.6566 12.227-5.2231 11.388-0.35976-0.53286 0.82468-13.568 1.8062-14.788 0.36254-1.0532 3.3306-7.6443 2.0909-9.5344-0.85925-1.3099-3.5985-1.5087-4.5165-1.2632-3.1532 0.84322-2.6508 11.011-1.2071 14.768-2.0551-1.1442-2.0697-10.612-5.0429-11.598-2.1649-1.3886-3.5621-0.52779-4.2312-0.23837s-1.3667 1.0612-1.5938 3.125c-0.628 3.3554 2.6326 7.8651 2.6678 11.682-3.3861-6.1869-6.4053-9.6173-9.3681-8.5439-0.64124 0.23232-2.0126 1.9374-1.861 3.0365 0.56411 4.0896 4.2781 5.7713 6.0725 7.9984s3.9451 4.266 4.5312 7.4688c-0.23999 1.6136 0.37869 5.1352 1.9794 5.8464 2.8691 1.2747 3.1064 1.261 6.5613-0.39878 0.93542-0.4494 2.2713-2.1293 2.2713-2.1293s2.9593 3.9227 3.8683 6.1751c1.1747 2.911 1.9698 7.7626 3.1526 10.67 1.4787 3.6353 3.7512 4.7996 5.0926 8.4877 0.41813 1.1496 0.48501 3.6376 0.48501 3.6376 0-2.8456-5.2723-7.8381-7.5473-11.276-1.5943-2.4089-1.8217-7.3259-2.8647-10.02-0.51517-1.3305-2.7543-3.7007-2.7543-3.7007z" fill="#ffdb43"/>
      <path d="m54.952 32.52c0.57701-1.6762 1.1259-5.2179 0.36698-7.9103-1.4798-5.2494-8.7311-5.39-9.7666 0.33332-5.2974-3.3979-9.3791-1.3729-9.9756 4.0482-5.8626-0.22112-8.1221 2.7866-7.4073 6.3527 1.1616 5.7954 7.5808 10.114 8.283 13.95-1.7751 2.3506 0.22526 9.177 7.0293 10.892 2.4229 8.5349 6.7 22.856 12.894 28.045 1.6106 18.071 14.55 37.178 22.125 44l28.326-25.617c-7.6287-9.0017-14.874-16.463-29.249-24.684-2.1669-10.469-11.39-20.381-18.927-29.75-3.4267-6.9538 0.20776-7.8072 0.40185-14.324 0.0077-5.473-4.1016-5.3371-4.1016-5.3371z" fill="none"/>
      <path d="m50.456 44.829c-0.72728-1.3176 0.35354-11.92 0.76299-13.11-0.02994 0.08699 0.13909-0.64406 0.28125-1.4375s0.30763-1.7748 0.40625-2.7812c0.09862-1.0064 0.13333-2.0328 0.09375-2.8125-0.03958-0.77973-0.26407-1.337-0.125-1.125 0.14132 0.21545-0.23412-0.12987-0.84375-0.25s-1.4932-0.0058-1.2812-0.0625c0.3007-0.08041 0.07654-0.10761-0.1875 0.6875-0.26404 0.79511-0.45857 2.0829-0.5 3.5-0.61397 3.1371-0.25675 7.8022-0.32207 10.169-1.7864 0.010392-3.5444-1.429-4.1154-3.2629-0.38573-1.2219-0.69276-2.5586-1-3.8438s-0.62382-2.5133-0.96875-3.3125-0.67122-0.90036-0.40625-0.8125c-0.17629-0.06188-0.34472-0.1461-0.5-0.25-0.72782-0.46684-1.0274-0.43006-1.25-0.40625-0.22263 0.0238-0.35754 0.07515-0.90625 0.3125 0.13582-0.05875-0.07046-0.28799-0.25 1.3438-0.0085 0.05243-0.01897 0.10456-0.03125 0.15625-0.15332 0.81917 0.24427 2.5122 0.96875 4.5s1.6954 4.2191 1.7188 6.75c-0.0015 0.9721-0.71714 1.8989-1.6572 2.1463-0.9401 0.24739-2.0192-0.2071-2.499-1.0525-1.6419-3-3.1931-5.2385-4.4375-6.4375-0.62219-0.5995-1.1603-0.94246-1.5-1.0625-0.26896-0.09503-0.41347-0.04615-0.59375 0-0.08568 0.0924-0.18797 0.20575-0.28125 0.34375-0.23374 0.34581-0.21346 0.77271-0.28125 0.28125 0.19771 1.4334 0.88416 2.3931 1.9375 3.4375s2.4619 1.9864 3.6562 3.4688c1.6658 2.0676 4.2706 4.4832 5 8.4688 0.0389 0.23747 0.0389 0.48128 0 0.71875-0.04522 0.30401 0.0095 1.4697 0.25 2.3438 0.24054 0.87402 0.78488 1.3106 0.4375 1.1562 1.4095 0.62622 1.8088 0.73273 2.0312 0.71875 0.22249-0.01398 0.94348-0.2709 2.6562-1.0938-0.1292 0.06207 0.46173-0.3497 0.84375-0.75s0.6875-0.78125 0.6875-0.78125c0.84697-1.0428 2.6908-1.0099 3.5 0.0625 0 0 0.76661 1.0274 1.6562 2.3438s1.8996 2.8561 2.5 4.3438c1.3637 3.3792 2.1661 8.222 3.1562 10.656 0.62107 1.5269 1.3812 2.4955 2.3125 3.7188s2.0298 2.7232 2.8125 4.875c1.4174 4.7225-0.11925 7.514-5.3829 5.6211 2.0101 4.0694 6.7973 5.581 8.4454 7.5039 0.60139 0.70172 0.81813 0.85476 1 1.1875 0.36374 0.66549 0.67262 1.4071 1.0625 2.375 0.77976 1.9358 1.3936 1.7727 2.7228 4.4658 1.3292 2.6931 2.9736 5.3945 4.8125 7.3437 1.4917 1.5812 3.0542 2.4579 4.7188 2.8438 3.013-5.5287 4.6056-6.8374 8.9184-9.6941-1.8153-2.4433-3.1501-4.0356-5-5.4375-2.254-1.7082-4.0103-2.9611-10.376-6.6311-1.2567-0.74216-2.1104-1.9176-2.3906-3.3281-1.71-8.2613-10.281-18.098-18.125-27.906-0.09574-0.11611-0.17965-0.24197-0.25-0.375-0.0989-3.3383 3.7063-8.0048 3.6717-11.24l1.0362-2.9422v-3.552l-0.6216-2.664-1.9536-1.776-2.1312 0.444c-2.3666-0.31262-2.593 7.9353-3.8895 11.903z" fill="#ffea80"/>
      <path d="m54.952 32.52c0.57701-1.6762 1.1259-5.2179 0.36698-7.9103-1.4798-5.2494-8.7311-5.39-9.7666 0.33332-5.2974-3.3979-9.3791-1.3729-9.9756 4.0482-5.8626-0.22112-8.1221 2.7866-7.4073 6.3527 1.1616 5.7954 7.5808 10.114 8.283 13.95-1.7751 2.3506 0.22526 9.177 7.0293 10.892 2.4229 8.5349 6.7 22.856 12.894 28.045 1.6106 18.071 14.55 37.178 22.125 44l28.326-25.617c-7.6287-9.0017-14.874-16.463-29.249-24.684-2.1669-10.469-11.39-20.381-18.927-29.75-3.4267-6.9538 0.20776-7.8072 0.40185-14.324 0.0077-5.473-4.1016-5.3371-4.1016-5.3371z" fill="none" stroke="#806600" stroke-width=".94507"/>
      <g transform="rotate(19.936 79.226 67.7)" stroke-width=".94507">
       <path d="m47.994 42.433c0.41586 2.6736-3.0091 3.9077-4.2801 2.4626-1.7534-0.65743-0.55642-4.3919-6.3727-7.2073 4.0875-1.5862 9.6645 2.0562 10.653 4.7447z" fill="#e94545" stroke="#c41d1d" stroke-width=".94507"/>
       <path d="m46.938 42.48c0.41307 1.5283-1.0259 1.9284-1.7205 1.014-0.19355-0.8722-1.4346-3.0323-5.0415-5.2724 2.4027 0.25203 6.4683 2.5314 6.7621 4.2584z" fill="#ef7575"/>
      </g>
      <g transform="rotate(5.4702 155.98 -125.23)" stroke-width=".94507">
       <path d="m47.994 42.433c0.41586 2.6736-3.0091 3.9077-4.2801 2.4626-1.7534-0.65743-0.55642-4.3919-6.3727-7.2073 4.0875-1.5862 9.6645 2.0562 10.653 4.7447z" fill="#e94545" stroke="#c41d1d" stroke-width=".94507"/>
       <path d="m46.938 42.48c0.41307 1.5283-1.0259 1.9284-1.7205 1.014-0.19355-0.8722-1.4346-3.0323-5.0415-5.2724 2.4027 0.25203 6.4683 2.5314 6.7621 4.2584z" fill="#ef7575"/>
      </g>
      <g transform="rotate(9.504 152.75 -1.5664)" stroke-width=".94507">
       <path d="m47.994 42.433c0.41586 2.6736-3.0091 3.9077-4.2801 2.4626-1.7534-0.65743-0.55642-4.3919-6.3727-7.2073 4.0875-1.5862 9.6645 2.0562 10.653 4.7447z" fill="#e94545" stroke="#c41d1d" stroke-width=".94507"/>
       <path d="m46.938 42.48c0.41307 1.5283-1.0259 1.9284-1.7205 1.014-0.19355-0.8722-1.4346-3.0323-5.0415-5.2724 2.4027 0.25203 6.4683 2.5314 6.7621 4.2584z" fill="#ef7575"/>
      </g>
      <g transform="rotate(17.69 119.12 49.94)" stroke-width=".94507">
       <path d="m47.994 42.433c0.41586 2.6736-3.0091 3.9077-4.2801 2.4626-1.7534-0.65743-0.55642-4.3919-6.3727-7.2073 4.0875-1.5862 9.6645 2.0562 10.653 4.7447z" fill="#e94545" stroke="#c41d1d" stroke-width=".94507"/>
       <path d="m46.938 42.48c0.41307 1.5283-1.0259 1.9284-1.7205 1.014-0.19355-0.8722-1.4346-3.0323-5.0415-5.2724 2.4027 0.25203 6.4683 2.5314 6.7621 4.2584z" fill="#ef7575"/>
      </g>
     </g>
     <g transform="matrix(1.0581 0 0 1.0581 310.71 -2.9516)">
      <path d="m250.13 161.92c0.8536-2.0279 1.7766-4.0452 2.7114-6.0737 4.4296-9.612 9.1854-19.533 6.2188-31.125-2.2444-8.7701-9.1965-13.193-16.031-12.594s-13.427 5.7997-15.875 14.312c-0.67385 2.343-0.91717 4.6304-0.87881 6.8636 0 0 1.2421 7.3548 0.18542 10.795-0.48419 1.5763-1.4913 3.107-2.847 4.0457-1.1454 0.7931-4.0457 1.0489-4.0457 1.0489s1.9391 1.7646 3.1467 1.7981c1.2281 0.0341 3.2965-1.6483 3.2965-1.6483s-0.71094 2.6762-1.7981 3.2965c-1.2588 0.71824-3.0101-0.71324-4.3454-0.14984-1.3682 0.57728-2.4613 1.9114-2.9968 3.2965-0.36022 0.93174 0 2.9968 0 2.9968s0.70707-1.3443 1.3486-1.6483c0.81244-0.385 2.6972 0 2.6972 0-2.2972 3.009-0.31324 6.2497-3.2965 7.0426-1.2998 0.34542-4.0457-0.44952-4.0457-0.44952 1.3688 2.325 2.7744 4.1618 5.5442 3.8959 4.6432-0.44588 3.5688-3.3194 4.7949-5.694 0.35794-0.69325 1.7981-1.4984 1.7981-1.4984s0.0941 3.0296 0.7492 4.3454c0.48822 0.98062 2.2476 2.3975 2.2476 2.3975s-0.35683-2.1172-0.14984-3.1467c0.229-1.139 0.75839-2.2511 1.4984-3.1467 1.3427-1.6249 3.7792-2.099 5.0946-3.746 1.3261-1.6604 1.975-3.7224 2.0978-5.8438 0.13877-2.3976-1.3334-7.3678-2.5473-9.44-2.34-3.9944-3.3522-6.4687-3.4223-8.3699-0.0689-1.8686 0.13598-3.7502 0.68696-5.666 1.9457-6.7652 6.8915-10.283 11.5-10.688s8.9816 1.9026 10.75 8.8125c2.4774 9.6806-1.4645 18.174-5.9062 27.812-0.89914 1.9511-1.8149 3.947-2.6827 5.9983-4.943 0.48897-6.9716 5.9126-7.7041 9.4856-0.45903 2.2392 0.2501 5.6678-1.112 7.9692-1.4667 2.4782-2.7293 3.9889-6.3012 4.4479 5.9996 2.5272 7.2478-0.24675 10.458-4.5857-0.2418 3.2276-0.0961 6.6036 0.5923 10.153 1.298 6.6935 4.6336 13.554 6.8125 20.406s3.0813 12.859 0.4375 19.094c-1.7237 4.0648-4.8129 5.4578-8.9375 6.75-3.3022 1.0346-9.7176 0.59389-14.625 0.125-4.9351-7.2122-9.0304-12.851-19.031-17-4.004-1.661-16.861-10.413-20.125-24.062-1.808-7.5607 0.33179-13.718 1.75-19.062 2.1134-7.9641 1.9266-23.684 1.2188-28.125l-47.625-37.188-5.2812 3.2188c-26.137-5.3331-32.988 10.612-40.594 15.719-15.36-1.2631-24.867 17.446-36.906 22.344-5.3642-1.8237-8.9948 0.62273-10.625 2.1562-8.2679 0.23809-6.9074-9.7896-17.062-11.25-5.3985-0.77634-8.4678 5.7948-3.6562 9.0625-5.2396 3.7831-3.8835 9.6138 0.75 10.625-2.5797 5.2691-0.11211 9.4571 3.4375 10.25 5.7685 1.2886 12.538-3.9146 21.031-2.625-0.96975 5.3114 10.065 4.3655 13.125-0.90625 6.7546-1.7723 16.473-3.597 25.062-6.2188-1.3663 1.9244 0.55737 2.1081-2.1875 3.5312 1.8463 0.72794 3.0091 0.80757 5.125 0.1875l-1.5 3.125c2.6472 0.56836 3.0228 0.30042 3.7188 0.125 0 0-0.96887 2.5877-1 4.4062-0.03391 1.981 1.5625 3.25 1.5625 3.25s0.47401-2.046 1.125-2.8438c1.1869-1.4543 4.75-1.5 4.75-1.5s-1.9324 2.139-2.3438 3.4688c-0.41098 1.3285-0.80405 3.5315-0.34375 4.8438 0.51258 1.4613 1.3125 3.125 1.3125 3.125 0.73644-2.4227 0.86204-3.4224 3.6562-3.3125-0.12104 1.5433 0.81193 4.6677-1.125 7l5.375-1.0312c-3.2949 3.7883-3.2905 8.8921-0.1875 11.719 1.115 1.0105 3.375 3.0312 3.375 3.0312s-0.67667-3.3838-0.34375-4.5625c0.37222-1.3178 2.375-1.75 2.375-1.75s-0.9991 3.2967 0 4.6562c2.7661 3.764 2.3747 6.5224 1.3438 9.9688 1.918-1.3592 3.0858-2.8641 3.9688-5.0312 0.72945 5.0313 1.7685 7.8224 5.3125 11.094 0 0-0.20789-2.0725 0.0937-3.0625 0.32494-1.0664 2.1875-2.5625 2.1875-2.5625 0.62589 2.3904 1.4699 3.2517 1.8125 7.625l2.7188-2.1875s0.69581 4.5676 1.8125 6.5312c0.95125 1.6728 4 4.1875 4 4.1875v-3.4375c1.3607 0.36064 2.1735 3.9027 3.25 5.9688l1.6562-3.8125s0.30217 2.9745 1 4.25c0.85372 1.5605 3.7188 3.8438 3.7188 3.8438l1.1875-2.75s1.028 2.6042 2.1562 3.5938c2.8245 2.4772 5.75 3.2188 5.75 3.2188l-0.375-1.9062c4.922 0.62466 8.9818 2.3241 11.125 5.125 2.7603 3.6072 2.9664 8.2116-0.78125 11.031 2.057 2.738 5.9931 2.2695 7.5 1.2812 0 0 0.24471 8.4046 2.9375 12.562 5.5471 8.5652 12.195 13.043 19.562 17.156 6.2966 3.5152 14.328 6.4514 18.875 6.7812 6.4593 0.46854 8.6989 5.3804 6.0938 10.219-2.7053 4.8485-7.8386 6.939-11.469 9.1562-8.086 1.4296-8.4363-2.5018-13.312-2.4688-8.7481 1.5817-6.9896 10.243-1.0938 10.594-3.6016 5.1124 2.2588 12.607 9.125 7.0625-0.016 10.18 12.386 9.8258 14.656 2.1562 0 0 7.3581-4.5606 10.75-9 3.0317-3.968 4.4139-10.755 10.25-17.844 1.5418-1.7357 3.7714-3.6835 4.4688-5.4375 0.6478-1.6294 1.0534-5.1608 0.3125-6.75-2.3552-5.0514-8.7281-6.0076-11.656-10.75-1.7292-2.8006-2.167-4.2728-2.0625-7.5625 0.0409-1.2874 1.258-4.2469 1.8125-5.8125 0.63657-1.7972 0.375-4.1875 0.375-4.1875 3.4908-0.61341 6.1061-2.2235 5.5938-5.375-3.4333 1.7566-6.2276-3.8605-9.125-9.8125 4.0382 0.12442 8.1109-0.19083 11.875-1.3438 5.1223-1.5689 9.7236-4.8592 12.062-10.375 3.3178-7.8242 1.9167-16.507-0.40625-23.812s-5.5522-14.182-6.6562-19.875c-1.0006-5.1599-0.7021-9.8972 0.33387-14.426 0 0 1.2908 1.3669 1.5016 2.4136 0.32546 1.616-0.65323 3.9359-0.37066 5.5599 0.17625 1.013 1.668 2.5946 1.668 2.5946s-0.37465-1.8151 0-2.5946c0.68542-1.4261 2.5666-2.1386 3.336-3.5213 0.75629-1.3593 0.71308-3.0857 0.55599-4.6333-0.0789-0.77743-0.74132-2.224-0.74132-2.224s0.36759-2.527 0-3.7066c-0.45735-1.4676-2.6198-3.7952-2.6198-3.7952z" fill="#ffdb43"/>
      <path d="m229.59 241.66c4.0382 0.12442 8.1109-0.19083 11.875-1.3438 5.1223-1.5689 9.7236-4.8592 12.062-10.375 3.3178-7.8242-0.48906-16.507-2.812-23.812s-5.5522-14.182-6.6562-19.875c-1.0006-5.1599 1.7037-9.8972 2.7396-14.426 0 0 1.2908 1.3669 1.5016 2.4136 0.32546 1.616-0.65323 3.9359-0.37066 5.5599 0.17625 1.013 1.668 2.5946 1.668 2.5946s-0.37465-1.8151 0-2.5946c0.68542-1.4261 2.8354-2.2628 3.6047-3.6455 0.75629-1.3593 0.31212-2.6848 0.15503-4.2323-0.0789-0.77743-0.74132-2.224-0.74132-2.224s0.47406-2.8622 0.10647-4.0418c-0.45735-1.4676-2.5941-3.7368-2.5941-3.7368 0.8536-2.0279 1.7766-4.0452 2.7114-6.0737 4.4296-9.612 7.1806-18.196 4.2139-29.788-2.2444-8.7701-7.1917-12.124-14.026-11.525s-12.357 5.666-14.806 14.179c-0.67385 2.343-0.38255 2.3583-0.34419 4.5914 0 0 1.3758 6.6473 0.31907 10.087-0.48419 1.5763-2.2365 4.3491-3.5923 5.2878-1.1454 0.7931-5.038 0.51427-5.038 0.51427s1.9444 1.9158 3.1467 1.7981c1.4995-0.14685 6.5878-4.7119 5.905-4.2567 0 0-0.69205 6.6495-4.1392 7.6425-1.3927 0.40115-3.0101-0.71324-4.3454-0.14984-1.3682 0.57728-2.4613 1.9114-2.9968 3.2965-0.36022 0.93174-0.26731 1.2593-0.26731 1.2593s0.70707-1.3443 1.3486-1.6483c0.81244-0.385 4.8356 0.13365 4.8356 0.13365-2.2972 3.009-1.6498 7.1853-4.6331 7.9781-1.2998 0.34542-4.8476-1.5188-4.8476-1.5188 1.3688 2.325 2.7744 4.1618 5.5442 3.8959 4.6432-0.44588 3.5688-3.3194 4.7949-5.694 0.35794-0.69325 1.7981-1.4984 1.7981-1.4984s0.0941 3.0296 0.7492 4.3454c0.48822 0.98062 2.2476 2.3975 2.2476 2.3975s-0.35683-2.1172-0.14984-3.1467c0.229-1.139 0.75839-2.2511 1.4984-3.1467 1.3427-1.6249 3.5417-2.099 4.8571-3.746 1.3261-1.6604 1.975-3.7224 2.0978-5.8438 0.13877-2.3976-1.3334-7.492-2.5473-9.5642-2.34-3.9944-3.1147-6.3445-3.1848-8.2457-0.0689-1.8686 0.13598-3.7502 0.68696-5.666 1.9457-6.7652 6.8915-10.283 11.5-10.688s8.9816 1.9026 10.75 8.8125c2.4774 9.6806-1.3308 22.451-5.7726 32.089-0.89914 1.9511-1.6907 3.3772-2.5585 5.4285-5.8125 0.48897-4.9418 5.5384-5.6742 9.1114-0.45903 2.2392-1.1492 3.5566-2.5113 5.858-1.4667 2.4782-3.6176 2.7671-7.1896 3.2262 5.9996 2.5272 7.2478-0.24675 10.458-4.5857-0.2418 3.2276-0.0961 6.6036 0.5923 10.153 1.298 6.6935 5.8365 13.554 8.0154 20.406s4.2226 14.384 1.774 20.698c-1.991 5.1341-7.486 8.1309-11.611 9.4231-3.3022 1.0346-9.9849 0.8612-14.892 0.39231z" fill="#eecb39"/>
      <path d="m244.36 291.9c0.6478-1.6294 1.0406-5.1695 0.29968-6.7586-2.3552-5.0514-8.7358-6.0068-11.664-10.749-1.7292-2.8006-2.1628-4.2576-2.0584-7.5473 0.0409-1.2874 1.2567-4.2396 1.8113-5.8052 0.63657-1.7972 0.39101-4.1889 0.39101-4.1889 3.4908-0.61341 6.086-2.2369 5.5737-5.3884-5.0906 2.6045-8.7569-10.978-13.476-17.874-4.9351-7.2122-9.0016-12.859-19.002-17.008-4.004-1.661-16.88-10.392-20.144-24.042-1.808-7.5607 0.34574-13.744 1.764-19.088 2.1134-7.9641 1.9112-23.661 1.2033-28.102l-47.614-37.204-5.2937 3.2137c-26.137-5.3331-32.97 10.627-40.576 15.733-15.36-1.2631-24.863 17.46-36.902 22.358-5.3642-1.8237-9.0164 0.61947-10.647 2.153-8.2679 0.23809-6.8853-9.8086-17.04-11.269-5.3985-0.77634-8.4907 5.801-3.6792 9.0687-5.2396 3.7831-3.8705 9.6295 0.76301 10.641-2.5797 5.2691-0.10601 9.431 3.4436 10.224 5.7685 1.2886 12.515-3.9012 21.008-2.6116-0.96975 5.3114 10.088 4.349 13.149-0.92271 6.7546-1.7723 16.474-3.5883 25.064-6.21-1.3663 1.9244 0.55048 2.0992-2.1944 3.5224 1.8463 0.72794 3.0173 0.82476 5.1332 0.20469l-1.5062 3.1249c2.6472 0.56836 3.0145 0.30161 3.7104 0.12619 0 0-0.95856 2.5898-0.98969 4.4084-0.03391 1.981 1.5504 3.2355 1.5504 3.2355s0.47867-2.0224 1.1297-2.8201c1.1869-1.4543 4.7566-1.5037 4.7566-1.5037s-1.9466 2.1165-2.358 3.4463c-0.41098 1.3285-0.79547 3.5299-0.33517 4.8421 0.51258 1.4613 1.2992 3.1249 1.2992 3.1249 0.73644-2.4227 0.87877-3.4123 3.673-3.3023-0.12104 1.5433 0.80924 4.6569-1.1277 6.9892l5.3863-1.0055c-3.2949 3.7883-3.2975 8.878-0.19452 11.705 1.115 1.0105 3.3675 3.0244 3.3675 3.0244s-0.67204-3.3599-0.33912-4.5386c0.37222-1.3178 2.358-1.7705 2.358-1.7705s-0.9991 3.3092 0 4.6688c2.7661 3.764 2.4004 6.5105 1.3694 9.9568 1.918-1.3592 3.0838-2.8564 3.9668-5.0235 0.72945 5.0313 1.7496 7.8245 5.2936 11.096 0 0-0.18531-2.0935 0.11633-3.0835 0.32494-1.0664 2.1766-2.5394 2.1766-2.5394 0.62589 2.3904 1.4712 3.2447 1.8138 7.6181l2.7207-2.1766s0.69713 4.5661 1.8138 6.5298c0.95125 1.6728 3.9904 4.1718 3.9904 4.1718v-3.4463c1.3607 0.36064 2.1884 3.9196 3.2649 5.9856l1.6324-3.809s0.30373 2.9697 1.0016 4.2452c0.85372 1.5605 3.7129 3.8327 3.7129 3.8327l1.1977-2.7547s1.0276 2.6036 2.1559 3.5932c2.8245 2.4772 5.749 3.2338 5.749 3.2338l-0.35931-1.9163c4.922 0.62466 8.9754 2.3384 11.119 5.1393 2.7603 3.6072 2.9485 8.2058-0.79914 11.026 2.057 2.738 6.0146 2.277 7.5215 1.2888 0 0 0.25075 8.3992 2.9435 12.557 5.5471 8.5652 12.175 13.046 19.542 17.159 6.2966 3.5152 14.324 6.4545 18.87 6.7843 6.4593 0.46854 8.6963 5.3801 6.0911 10.219-2.7053 4.8485-7.8288 6.9305-11.459 9.1478-8.086 1.4296-8.4178-2.502-13.294-2.4689-8.7481 1.5817-6.9958 10.258-1.1 10.609-3.6016 5.1124 2.2503 12.599 9.1165 7.0542-0.016 10.18 12.377 9.8224 14.648 2.1529 0 0 7.3677-4.556 10.76-8.9954 3.0317-3.968 4.4011-10.758 10.237-17.847 1.5418-1.7357 3.7963-3.6898 4.4936-5.4438z" fill="#dbba2e"/>
      <path d="m105.16 154.06c-2.6485 1.5308-4.4731 2.8473-7.5625 4.0625 0 0 2.2824 4.1945 4.1562 5.5625 2.0655 1.508 7.2812 2.5 7.2812 2.5s-1.933 1.5925-2.0625 2.7188c-0.23583 2.0508 1.2647 4.0336 2.5 5.6875 1.5404 2.0623 5.9062 4.9688 5.9062 4.9688l-3.625 0.6875 4.3125 2.9375 4.0625 2.2812s-1.7658 1.1224-1.8125 2.0312c-0.11941 2.3252 2.418 4.0711 4.0938 5.6875 1.569 1.5135 5.4375 3.625 5.4375 3.625l-2.0625 1.3438s3.2842 5.9417 5.9062 7.9375c1.9991 1.5216 7.0312 2.7188 7.0312 2.7188l-0.21875 2.5s3.1864 4.5801 5.4375 6.125c1.0648 0.73078 2.3788 1.0049 3.625 1.3438 1.7026 0.46293 5.2188 0.90625 5.2188 0.90625l2.7188 2.9688s5.7949 1.6421 8.1562 3.4062c2.4964 1.865 5.9062 7.25 5.9062 7.25s0.42732-4.0489-0.21875-5.9062c-0.79961-2.2987-2.3586-4.4551-4.3125-5.9062-2.3795-1.7672-5.9674-1.2532-8.4062-2.9375-1.5448-1.0668-3.625-4.3125-3.625-4.3125s-5.6424-0.37155-7.7188-2.0312c-1.5315-1.2242-1.3438-3.821-2.7188-5.2188-2.1107-2.1457-7.9375-4.3125-7.9375-4.3125l-3.625-3.8438 2.7188-0.46875s-4.7054-3.0954-6.5625-5.1875c-1.5317-1.7255-3.145-3.6494-3.625-5.9062-0.23792-1.1187 0.4375-3.4062 0.4375-3.4062l-2.9375-2.9375 4.0938-1.375-6.125-2.25s-3.3699-3.1705-4.3125-5.2188c-0.73764-1.6028-0.90696-3.4544-0.90625-5.2188 7.7e-4 -1.9281 1-5.6875 1-5.6875-1.1539-0.50375-6.8531-2.8083-9.625-7.125zm-11.969 5.8125-2.4688 0.65625c-1.3663 1.9244 0.55737 2.1081-2.1875 3.5312 1.8463 0.72794 3.0091 0.80757 5.125 0.1875l-1.5 3.125c2.6472 0.56836 3.0228 0.30042 3.7188 0.125 0 0-0.96887 2.5877-1 4.4062-0.03391 1.981 1.5625 3.25 1.5625 3.25s0.47401-2.046 1.125-2.8438c1.1869-1.4543 4.75-1.5 4.75-1.5s-1.9324 2.139-2.3438 3.4688c-0.41098 1.3285-0.80405 3.5315-0.34375 4.8438 0.51258 1.4613 1.3125 3.125 1.3125 3.125 0.73644-2.4227 0.86204-3.4224 3.6562-3.3125-0.12104 1.5433 0.81193 4.6677-1.125 7l5.375-1.0312c-3.2949 3.7883-3.2905 8.8921-0.1875 11.719 1.115 1.0105 3.375 3.0312 3.375 3.0312s-0.67667-3.3838-0.34375-4.5625c0.37222-1.3178 2.375-1.75 2.375-1.75s-0.9991 3.2967 0 4.6562c2.7661 3.764 2.3747 6.5224 1.3438 9.9688 1.918-1.3592 3.0858-2.8641 3.9688-5.0312 0.72945 5.0313 1.7685 7.8224 5.3125 11.094 0 0-0.20789-2.0725 0.0937-3.0625 0.32494-1.0664 2.1875-2.5625 2.1875-2.5625 0.62589 2.3904 1.4699 3.2517 1.8125 7.625l2.7188-2.1875s0.69581 4.5676 1.8125 6.5312c0.95125 1.6728 4 4.1875 4 4.1875v-3.4375c1.3607 0.36064 2.1735 3.9027 3.25 5.9688l1.6562-3.8125s0.30217 2.9745 1 4.25c0.85372 1.5605 3.7188 3.8438 3.7188 3.8438l1.1875-2.75s1.028 2.6042 2.1562 3.5938c2.8245 2.4772 5.75 3.2188 5.75 3.2188l-0.375-1.9062c4.922 0.62466 8.9818 2.3241 11.125 5.125 2.7603 3.6072 2.9664 8.2116-0.78125 11.031 2.057 2.738 5.9931 2.2695 7.5 1.2812l1-5.375c-1.373 1.4378-0.34532 3.1034-3.375 3.1562 0.90812-1.4168 0.8789-2.2512 0.9375-3.8438 0.098-2.6641-0.44513-6.0547-2.125-8.25-2.7855-3.6402-6.7097-5.4184-12.031-6.0938-0.71455-0.0863-3.3992 0.58467-3.9375 1.0625-0.66038-0.38496-1.2656-0.66839-2-1.3125-0.0188-0.0165-0.56972-0.78247-0.90625-1.4375s-0.5625-1.1875-0.5625-1.1875c-0.32505-0.83085-1.5552-2.4941-2.4375-3.5312-1.1085 0.54628-1.383 2.1761-1.9375 2.875-2.133-2.2835-1.2532-5.9019-3.875-8.2188-0.47318 0.20022-0.80875 1.8851-1.5312 2.4062-0.72879-1.5076-1.6362-3.3693-3.1875-4.25-0.69632 0.57955-1.2657 1.6779-1.9375 2.1875-0.29758-0.48775-0.83309-2.0521-1.125-3.3438s-0.4375-2.3438-0.4375-2.3438c-0.22275-1.5182-2.0432-2.5679-3.4688-2-0.58937-2.1221-1.1871-5.6221-3.3125-7.2188-0.99309 0.9485-2.4774 2.8916-3.8438 4.0938-0.73732-1.4928-1.1256-3.1988-1.5-5.7812-0.14301-0.99359-0.98225-5.2603-1.9375-5.5312-0.60549-0.17177-1.2543 3.3509-1.8125 3.6562-0.96943-3.1888-3.2804-5.9307-1.8438-9.8438-2.6146 0.0246-5.2897 0.38802-6.6562 2.8438-1.9244-3.395 0.52914-6.8321 1.4062-10.062-0.67253-1.1035-2.3685-1.4005-3.7812-1 0.14601-1.8667-0.16725-3.3596-0.15625-3.5 0.10756-1.3633-1.0711-2.6931-2.4375-2.75-0.83038-0.0327-1.6807 0.0815-2.4688 0.3125 0.15154-2.6524 1.5505-4.7572 3.25-6.875-1.4072-1.2951-3.8382-1.6966-5.5625-1.3125-0.53584 0.0996-1.1574 0.25671-1.7812 0.46875 0.38387-1.1724 0.09254-2.0495 1.375-3.3125-1.1329-0.65779-2.2734-0.67265-3.4062-0.71875 0.23573-0.86662 0.35105-1.8503 0.34375-2.7188-1.6637-0.50374-2.6358-0.65059-3.5-0.40625 0.33843-0.58099 0.41809-1.2881 0.25-1.9375z" fill="#ba9b1f"/>
      <path d="m249.69 154.41c4.4381-9.6305 8.6242-18.558 6-28.812-1.9112-7.4679-7.0674-10.431-12.344-9.9688s-10.747 4.4917-12.844 11.781c-0.75889 2.6387-0.90489 5.2091-0.61493 7.7424 0 0 0.36718 2.9084 0.8364 4.2865 0.99847 2.9325 3.5283 5.2788 4.1561 8.3123 0.32655 1.5779-0.26814 4.8265-0.26814 4.8265s-0.0629-3.1216-0.80441-4.4243c-0.6738-1.1838-3.0836-2.6814-3.0836-2.6814s2.528 4.4975 2.5473 6.9716c8e-3 1.0882-0.41532 2.2162-1.0726 3.0836-1.0856 1.4328-3.4688 1.5609-4.4243 3.0836-0.60138 0.9584-0.53628 3.3517-0.53628 3.3517s-0.64144-2.1225-0.67034-3.2177c-0.031-1.1752 0.53627-3.4858 0.53627-3.4858s-3.2006 2.8746-4.2902 4.6924c-0.82839 1.382-0.77809 3.1134-1.8572 4.3099-0.62925 0.6977-2.5473 1.2066-2.5473 1.2066s1.2374-1.0449 1.6088-1.7429c0.81977-1.5407 0.70098-3.2723 1.455-4.8462 0.66049-1.3786 2.8154-3.6199 2.8154-3.6199s-2.1466-0.20537-3.2177-0.13407c-0.76976 0.0513-2.2792 0.40221-2.2792 0.40221s-0.0383-1.6714 1.7429-1.877c1.5101-0.17423 3.2695 0.94006 4.5583 0.13407 2.1198-1.3257 2.5866-4.3872 3.0836-6.8375 0.773-3.8113-0.27367-11.663-0.27367-11.663-0.29853-2.7253-0.13593-5.5215 0.69326-8.4046 2.2975-7.9886 8.3956-12.709 14.562-13.25s12.367 3.2567 14.469 11.469c2.8199 11.019-1.6918 20.505-6.125 30.125-1.3382 2.9038-2.6745 5.8203-3.8244 8.8055 0 0 2.3693 0.70135 2.8881 1.6885 0.56291 1.071-0.26813 3.6199-0.26813 3.6199s0.9091 1.8246 1.0726 2.8154c0.19651 1.1914 0.32441 2.5028-0.13407 3.6199-0.27624 0.67301-1.4748 1.6088-1.4748 1.6088s0.4653-1.1392 0.53628-1.7429c0.16211-1.3788 0.43556-2.9594-0.26814-4.1561-0.80636-1.3713-4.0125-2.5836-4.0125-2.5836-1.5938 5.4629-2.2872 11.237-1.0461 17.637 1.1623 5.9934 4.4703 12.862 6.75 20.031s3.5531 14.746 0.4375 22.094c-2.1544 5.0805-6.2996 8.0533-11.125 9.5312s-10.382 1.535-15.656 1l0.21875-1.9688c5.1133 0.51869 10.414 0.41925 14.844-0.9375s7.9668-3.9061 9.875-8.4062c2.846-6.7115 1.7221-13.699-0.5-20.688s-5.5414-13.857-6.7812-20.25c-1.0367-5.3461-0.79425-10.279 0.1676-14.922-1.2543-1.1212-3.3978 2.4252-4.6521 5.0671l1.4255-6.8119c1.2335-3.8424 1.7426-7.2591 6.0542-7.476 1.127-2.8749 2.4031-5.6588 3.6611-8.3888z" color="#000000" fill="#ffea80" style="text-decoration-line:none;text-indent:0;text-transform:none"/>
      <path d="m136.03 156.78-0.34375-0.25-0.3125 0.28125c-6.6486 5.8318-13.541 5.9886-19.125 4.25-2.792-0.86929-5.2552-2.232-7.125-3.5938-1.6798-1.2234-2.8256-2.4791-3.375-3.3125 1.9132-1.5112 3.3243-3.2105 3.5312-5.3594-1.4203 2.6122-4.1464 4.9971-7.9375 7.0156s-8.6165 3.6807-13.688 5.0938l0.28125 0.96875c5.1065-1.4229 9.973-3.1099 13.875-5.1875 1.1341-0.60384 2.1737-1.2278 3.125-1.9062 0.67289 1.0149 1.8709 2.2452 3.5938 3.5 1.9507 1.4207 4.492 2.8114 7.4062 3.7188 5.7345 1.7854 12.975 1.5537 19.781-4.2188 16.485 11.979 26.705-2.8932 32.906-5.4219-7.5392 1.8899-16.374 16.501-32.594 4.4219z" color="#000000" fill="#806600" style="text-decoration-line:none;text-indent:0;text-transform:none"/>
      <path d="m227.65 254.49c-1.7955-0.49084-2.8467-1.1532-4.0717-2.5547-2.3416-2.679-1.7297-7.226-4.806-10.926-4.0084-4.8214-12.456-5.6816-12.456-5.6816s7.3834 3.6187 9.8336 7.4298c1.3288 2.0669 2.1618 5.8468 2.1852 8.3039 0.0184 1.9285-0.28108 3.9321-1.0926 5.6816-1.2207 2.6316-5.4631 6.7743-5.4631 6.7743s4.3824-0.96236 6.3372-3.0593c1.1348-1.2173 3.2779-5.4631 3.2779-5.4631s-0.34703 6.5631 0.65558 9.6151c1.1856 3.6092 6.1187 9.6151 6.1187 9.6151s-2.7234-5.9771-3.2779-9.178c-0.42269-2.4403 0.73582-7.9613 0.73582-7.9613 2.5708 0.57366 5.5739 0.3282 7.5266-0.20321 0 0 0.22887 2.3518-0.4077 4.149-0.55453 1.5656-1.7716 4.5252-1.8125 5.8125-0.1045 3.2897 0.33331 4.762 2.0625 7.5625 2.9282 4.7424 9.3011 5.6986 11.656 10.75 0.74094 1.5892 0.3353 5.1206-0.3125 6.75-0.69733 1.754-4.4082 2.9721-5.9375 4.7188-7.3354 8.3778-8.4118 18.908-20.781 25.812-1.47 2.829-5.3256 6.3484-10.062 4.8125-1.9036-0.61726-3.3478-2.2359-3.3438-5.2188 0 0 2.0865-1.1933 3.25-1.4375 2.273-0.47714 4.8679 0.64656 6.9688-0.34375 1.9112-0.90093 4.0625-4.5312 4.0625-4.5312s-3.3006 2.6331-5.2812 3.0625c-2.4012 0.52054-3.4464-0.0637-6.8438-0.125-2.6887-0.0486-6.5312 2.2812-6.5312 2.2812-2.9405 1.7522-5.2153 0.48258-5.625-0.96875-0.44607-1.5803-0.2396-3.4178 0.875-5 0 0 2.7562-1.6677 4.3125-1.8125 2.4511-0.2281 4.7946 1.9909 7.2188 1.5625 2.0926-0.36984 5.375-3.4062 5.375-3.4062s-3.6538 1.8096-5.625 1.8438c-2.5015 0.0434-4.0933-2.7701-6.5938-2.6875-1.5587 0.0515-2.9901 0.72964-4.5312 0.96875-1.6116 0.25004-4.9886 0.18738-4.2812-4.125 0.90251-1.3448 2.5802-2.4604 5.2188-2.9375 4.8762-0.0331 5.2265 3.8984 13.312 2.4688 10.377-4.6265 20.177-14.073 12.469-22.406-2.6376-2.8516-7.404-2.5584-10.75-4.5312-2.4392-1.4382-5.0577-2.9344-6.6875-5.25-1.7368-2.4677-3.0393-5.5825-2.8438-8.5938 0.189-2.9102 3.8125-7.875 3.8125-7.875s-4.0338 1.9757-5.5 3.5938c-1.5046 1.6604-2.5616 3.7608-3.0938 5.9375-0.33991 1.3904 0 4.3125 0 4.3125s-5.3218-2.1758-7.4062-4.0625c-7.1463-6.4684-13.849-16.35-9.6562-28.562 1.673-4.8732 8.0999-8.4078 9.4688-13.375 0.67906-2.4642 0.31637-5.3976-0.9375-7.625-1.3432-2.386-6.4375-5.0625-6.4375-5.0625s1.0085 2.1352 0.6875 3.6875c-0.33327 1.6115-2.2821 4.1234-2.5312 5.75-0.78615 5.1316 1.375 6.25 1.375 6.25l-3.9375 3.2188c-4.7342-4.6984-6.5387-12.423-11.062-18.469-1.9889-2.658-8.0625-1.5938-8.0625-1.5938-2.4463-2.8276-2.4168-7.6104 1.8438-11.312 0 0-2.1999-0.0305-3.25 0.21875-0.97258 0.23085-1.7658 0.98155-2.75 1.1562-1.743 0.30937-3.5902 0.19025-5.3125-0.21875-1.6408-0.38963-4.625-2.0625-4.625-2.0625s2.3061-0.71291 3.25-1.4062c1.1427-0.83934 2.75-3.2188 2.75-3.2188s-3.6505 1.6766-5.75 1.625c-0.85942-0.0211-2.3125-0.25-2.3125-0.25s0.17221-1.5764 0.59375-2.2188c1.6106-2.4544 5.1545-3.1054 6.9375-5.4375 0.94518-1.2363 1.8125-4.2812 1.8125-4.2812s-3.9962 3.7614-6.5312 4.5625c-2.3396 0.73933-5.0104 0.65496-7.375 0-0.78044-0.21617-1.6948-0.54529-2.0938-1.25-0.43338-0.76543 0-2.625 0-2.625s-3.3876 0.26807-5-0.15625c-0.86118-0.22664-2.3438-1.25-2.3438-1.25s2.2604-1.6925 2.9062-2.9062c0.90851-1.7072 0-5.4062 0-5.4062s-3.367 0.37513-5.2812-0.5625c-3.4411-1.6855-3.875-4.4375-3.875-4.4375 7.6441-0.60402 13.068-2.5015 17.219-6.9375 15.977 6.5784 21.596-5.61 30.406-12-9.1626-0.38855-16.968 13.541-33.474 1.0225-5.1965 4.0232-11.608 10.974-26.604 0.65375 1.7444-3.0507 3.6479-6.0856 0.5625-10.344-5.2413 13.729-30.644 15.803-44.266 19.938-2.0627 2.396-4.5943 3.1855-7.4062 2.4175-1.8116-0.5112-1.375-3.6562-1.375-3.6562-2.1597 0.34832-4.5958 2.68-4.6875 3.9688 0 0-5.3973-0.41999-8.375-0.0937-3.3715 0.36944-6.7088 1.5099-9.9375 2.1875-3.5496 0.74494-8.7848-1.5806-6-7.875 0 0 1.214-0.93556 3.4062-0.75 1.8104 0.15324 1.8223 1.1963 4.7188 2.7188 2.5367 1.3334 7.5-0.1875 7.5-0.1875s-3.6687-0.0477-6.1562-1.4062c-1.6266-0.88829-1.8615-2.5438-4.8125-3.5938-1.5144-0.53882-2.9954 0.20511-4.4688-0.4375-3.678-1.6042-2.5608-5.7662-0.9375-6.9688 0 0 3.0777 0.0907 4.5312 0.5625 1.526 0.4953 2.5078 0.85384 3.7188 1.9062 0.8658 0.75244 1.6367 2.0727 2.5625 2.75 1.5444 1.1299 5.4375 0.875 5.4375 0.875s-3.4681-0.5665-4.75-1.9062c-0.77219-0.80701-0.9108-2.0788-1.625-2.9375-1.2631-1.5188-2.7649-2.5247-4.5625-3.3438-1.4544-0.66267-3.4562-0.39508-4.7188-1.375-2.1886-1.6986-2.2273-5.8523 3.0625-5.5938 10.155 1.4604 8.7946 11.488 17.062 11.25 3.64-0.90277 6.9624-1.2106 10.625-0.3125-0.42956 5.24 5.0283 8.7896 9.75 5.7188-4.9002 0.25809-6.1415-5.3225-4.8312-7.4537 1.3373-1.1309 4.1691-3.078 7.7153-6.3194 7.5981-6.9452 18.476-16.511 24.96-13.356 9.8003-10.163 17.652-16.892 28.815-17.099 2.192-0.0407 5.1012 0.11306 7.2712 0.84625 0 0-2.4359 7.466 0.94501 11.662 2.8859 3.5821 7.125 3.0938 7.125 3.0938 2.0991 8.154 8.1642 9.7758 15.125 8.9688 1.6148 9.4457 8.7309 10.318 12.031 11v-2.5625s4.6093 2.2428 5.6562 4.375c1.0544 2.1473-0.65267 4.886 0 7.1875 1.1371 4.0096 4.3438 5.375 4.3438 5.375s0.43824 6.8258 2.0625 9.7188c0.97646 1.7392 3.0954 2.5694 4.3438 4.125 0.8765 1.0922 2.1562 3.5938 2.1562 3.5938-0.77327 3.6982-1.13 7.78-0.0312 12.375 3.264 13.65 16.121 22.402 20.125 24.062 10.001 4.1487 14.096 9.7878 19.031 17 4.7188 6.8961 8.3781 20.479 13.427 17.864-2.3559 3.2377-7.0081 4.0703-11.023 3.0317z" fill="#ffdb43"/>
      <path d="m112.76 123.16c1.2032-0.0554 2.3598 0.24703 3.4062 0.84375-4.9135 1.4141-11.642 7.262-14.969 11.031 3.7817-8.323 7.953-11.709 11.562-11.875zm15.339 17.118s3.9113 0.29474 5.0312 5c0.3542 1.4881 0.54666 3.1651 0 4.5938-1.0139 2.6497-3.1854 5.0063-5.6875 6.3438-1.817 0.9712-6.125 0.875-6.125 0.875 7.0705-4.097 8.7233-12.005 6.7812-16.812zm-41.625 0.96875c1.9692 1.2e-4 3.7459 0.59264 4.9062 1.6562-6.6329 0.59987-12.221 2.7594-16.983 7.4197 1.4755-6.114 7.744-9.0762 12.076-9.076z" fill="#dbba2e"/>
      <path d="m250.13 161.92c0.8536-2.0279 1.7766-4.0452 2.7114-6.0737 4.4296-9.612 9.1854-19.533 6.2188-31.125-2.2444-8.7701-9.1965-13.193-16.031-12.594s-13.427 5.7997-15.875 14.312c-0.67385 2.343-0.91717 4.6304-0.87881 6.8636 0 0 1.2421 7.3548 0.18542 10.795-0.48419 1.5763-1.4913 3.107-2.847 4.0457-1.1454 0.7931-4.0457 1.0489-4.0457 1.0489s1.9391 1.7646 3.1467 1.7981c1.2281 0.0341 3.2965-1.6483 3.2965-1.6483s-0.71094 2.6762-1.7981 3.2965c-1.2588 0.71824-3.0101-0.71324-4.3454-0.14984-1.3682 0.57728-2.4613 1.9114-2.9968 3.2965-0.36022 0.93174 0 2.9968 0 2.9968s0.70707-1.3443 1.3486-1.6483c0.81244-0.385 2.6972 0 2.6972 0-2.2972 3.009-0.31324 6.2497-3.2965 7.0426-1.2998 0.34542-4.0457-0.44952-4.0457-0.44952 1.3688 2.325 2.7744 4.1618 5.5442 3.8959 4.6432-0.44588 3.5688-3.3194 4.7949-5.694 0.35794-0.69325 1.7981-1.4984 1.7981-1.4984s0.0941 3.0296 0.7492 4.3454c0.48822 0.98062 2.2476 2.3975 2.2476 2.3975s-0.35683-2.1172-0.14984-3.1467c0.229-1.139 0.75839-2.2511 1.4984-3.1467 1.3427-1.6249 3.7792-2.099 5.0946-3.746 1.3261-1.6604 1.975-3.7224 2.0978-5.8438 0.13877-2.3976-1.3334-7.3678-2.5473-9.44-2.34-3.9944-3.3522-6.4687-3.4223-8.3699-0.0689-1.8686 0.13598-3.7502 0.68696-5.666 1.9457-6.7652 6.8915-10.283 11.5-10.688s8.9816 1.9026 10.75 8.8125c2.4774 9.6806-1.4645 18.174-5.9062 27.812-0.89914 1.9511-1.8149 3.947-2.6827 5.9983-4.943 0.48897-6.9716 5.9126-7.7041 9.4856-0.45903 2.2392 0.2501 5.6678-1.112 7.9692-1.4667 2.4782-2.7293 3.9889-6.3012 4.4479 5.9996 2.5272 7.2478-0.24675 10.458-4.5857-0.2418 3.2276-0.0961 6.6036 0.5923 10.153 1.298 6.6935 4.6336 13.554 6.8125 20.406s3.0813 12.859 0.4375 19.094c-1.7237 4.0648-4.8129 5.4578-8.9375 6.75-3.3022 1.0346-9.7176 0.59389-14.625 0.125-4.9351-7.2122-9.0304-12.851-19.031-17-4.004-1.661-16.861-10.413-20.125-24.062-1.808-7.5607 0.33179-13.718 1.75-19.062 2.1134-7.9641 1.9266-23.684 1.2188-28.125l-47.625-37.188-5.2812 3.2188c-26.137-5.3331-32.988 10.612-40.594 15.719-15.36-1.2631-24.867 17.446-36.906 22.344-5.3642-1.8237-8.9948 0.62273-10.625 2.1562-8.2679 0.23809-6.9074-9.7896-17.062-11.25-5.3985-0.77634-8.4678 5.7948-3.6562 9.0625-5.2396 3.7831-3.8835 9.6138 0.75 10.625-2.5797 5.2691-0.11211 9.4571 3.4375 10.25 5.7685 1.2886 12.538-3.9146 21.031-2.625-0.96975 5.3114 10.065 4.3655 13.125-0.90625 6.7546-1.7723 16.473-3.597 25.062-6.2188-1.3663 1.9244 0.55737 2.1081-2.1875 3.5312 1.8463 0.72794 3.0091 0.80757 5.125 0.1875l-1.5 3.125c2.6472 0.56836 3.0228 0.30042 3.7188 0.125 0 0-0.96887 2.5877-1 4.4062-0.03391 1.981 1.5625 3.25 1.5625 3.25s0.47401-2.046 1.125-2.8438c1.1869-1.4543 4.75-1.5 4.75-1.5s-1.9324 2.139-2.3438 3.4688c-0.41098 1.3285-0.80405 3.5315-0.34375 4.8438 0.51258 1.4613 1.3125 3.125 1.3125 3.125 0.73644-2.4227 0.86204-3.4224 3.6562-3.3125-0.12104 1.5433 0.81193 4.6677-1.125 7l5.375-1.0312c-3.2949 3.7883-3.2905 8.8921-0.1875 11.719 1.115 1.0105 3.375 3.0312 3.375 3.0312s-0.67667-3.3838-0.34375-4.5625c0.37222-1.3178 2.375-1.75 2.375-1.75s-0.9991 3.2967 0 4.6562c2.7661 3.764 2.3747 6.5224 1.3438 9.9688 1.918-1.3592 3.0858-2.8641 3.9688-5.0312 0.72945 5.0313 1.7685 7.8224 5.3125 11.094 0 0-0.20789-2.0725 0.0937-3.0625 0.32494-1.0664 2.1875-2.5625 2.1875-2.5625 0.62589 2.3904 1.4699 3.2517 1.8125 7.625l2.7188-2.1875s0.69581 4.5676 1.8125 6.5312c0.95125 1.6728 4 4.1875 4 4.1875v-3.4375c1.3607 0.36064 2.1735 3.9027 3.25 5.9688l1.6562-3.8125s0.30217 2.9745 1 4.25c0.85372 1.5605 3.7188 3.8438 3.7188 3.8438l1.1875-2.75s1.028 2.6042 2.1562 3.5938c2.8245 2.4772 5.75 3.2188 5.75 3.2188l-0.375-1.9062c4.922 0.62466 8.9818 2.3241 11.125 5.125 2.7603 3.6072 2.9664 8.2116-0.78125 11.031 2.057 2.738 5.9931 2.2695 7.5 1.2812 0 0 0.24471 8.4046 2.9375 12.562 5.5471 8.5652 12.195 13.043 19.562 17.156 6.2966 3.5152 14.328 6.4514 18.875 6.7812 6.4593 0.46854 8.6989 5.3804 6.0938 10.219-2.7053 4.8485-7.8386 6.939-11.469 9.1562-8.086 1.4296-8.4363-2.5018-13.312-2.4688-8.7481 1.5817-6.9896 10.243-1.0938 10.594-3.6016 5.1124 2.2588 12.607 9.125 7.0625-0.016 10.18 12.386 9.8258 14.656 2.1562 0 0 7.3581-4.5606 10.75-9 3.0317-3.968 4.4139-10.755 10.25-17.844 1.5418-1.7357 3.7714-3.6835 4.4688-5.4375 0.6478-1.6294 1.0534-5.1608 0.3125-6.75-2.3552-5.0514-8.7281-6.0076-11.656-10.75-1.7292-2.8006-2.167-4.2728-2.0625-7.5625 0.0409-1.2874 1.258-4.2469 1.8125-5.8125 0.63657-1.7972 0.375-4.1875 0.375-4.1875 3.4908-0.61341 6.1061-2.2235 5.5938-5.375-3.4333 1.7566-6.2276-3.8605-9.125-9.8125 4.0382 0.12442 8.1109-0.19083 11.875-1.3438 5.1223-1.5689 9.7236-4.8592 12.062-10.375 3.3178-7.8242 1.9167-16.507-0.40625-23.812s-5.5522-14.182-6.6562-19.875c-1.0006-5.1599-0.7021-9.8972 0.33387-14.426 0 0 1.2908 1.3669 1.5016 2.4136 0.32546 1.616-0.65323 3.9359-0.37066 5.5599 0.17625 1.013 1.668 2.5946 1.668 2.5946s-0.37465-1.8151 0-2.5946c0.68542-1.4261 2.5666-2.1386 3.336-3.5213 0.75629-1.3593 0.71308-3.0857 0.55599-4.6333-0.0789-0.77743-0.74132-2.224-0.74132-2.224s0.36759-2.527 0-3.7066c-0.45735-1.4676-2.6198-3.7952-2.6198-3.7952z" fill="none" stroke="#806600" stroke-width=".94507"/>
      <g transform="translate(2,4)" stroke-width=".94507">
       <path d="m173.28 51.562c-0.63046 0.11565-1.1655-0.1249-1.5312-0.4375s-0.60086-0.74487-0.75-1.2188c-0.23423-0.74425-0.089-1.647 0.3125-2.5625-0.50027-0.72862-2.0648-2.1303-2.3101-2.8056l2.4733-5.3967s2.3465-4.6176 5.9006-6.3659c1.867-0.91844 4.4267-0.95462 5.9459-0.57231 2.0773 0.52275 3.4206 2.1425 5.5371 2.4729 2.1367 0.33354 3.4696-0.79663 5.6045-0.45166 3.5279 0.57006 3.3501 2.8641 5.7292 3.8569 2.1177 0.88369 3.9448-0.20226 3.9448-0.20226 0.20412 2.4326-0.21612 4.9951-3.8528 7.5604 2.8849-0.10442 5.9678 1.0258 9.3987 4.3257-1.8068 0.63249-4.0947 3.6703-6.1672 5.6309 0 0 4.5784-0.17507 6.1415 1.5398 2.9427 3.2284 2.1707 7.0406 2.1707 7.0406s3.8657 1.3545 4.8008 3.2177c1.5748 3.1375 0.56191 6.1672 0.56191 6.1672s2.1592 1.5183 2.8549 2.9495c2.3833 4.9036-2.6251 11.522 0.89905 15.682 0.70283 0.82966 3.2176 0.53628 3.2176 0.53628s-2.0662 2.4813-4.653 2.7504c-3.4522 0.35916-9.2902-1.808-9.2902-1.808s1.2716 2.2697 2.1451 3.2177c1.854 2.0119 4.42 2.6501 5.6486 5.0946 1.3252 2.6366 1.712 5.9718 1.0548 8.8486-0.56095 2.4553-3.4858 6.7034-3.4858 6.7034-1.1619-2.2528-2.3239-2.4783-3.4858-2.6814 0 0 1.1809 3.5271 1.3407 5.3628 0.1088 1.2498-0.92096 2.6827-0.26814 3.7539 0.70844 1.1625 3.7539 1.6088 3.7539 1.6088s-2.2204 1.4177-3.4858 1.6088c-1.3374 0.20203-4.0221-0.53628-4.0221-0.53628s1.9975 2.703 2.4132 4.2902c0.22649 0.86462 0 2.6814 0 2.6814s2.1922 1.3148 2.6814 2.4132c0.87271 1.9596-1.1041 7.981-1.1041 7.981-1.7876-1.0755-3.6856-2.2054-5.3075-1.1751-0.10625 9.3299-8.3327 7.2844-10.024 10.828-1.159 2.482-0.0907 3.7648-3.9748 6.6246-2.3974 1.7652-4.4502 0.43994-6.8454 2.2082-4.0417 2.9838-2.5683 6.2493 0.66246 9.716-5.5035-0.56772-8.6879-4.755-9.4952-7.9495-0.7501-2.9682-0.24762-4.881 1.3249-7.5078 1.2932-2.1602 3.6838-3.5657 5.9621-4.6372 2.7834-1.309 1.9874-4.5583 1.9874-4.5583-2.0976 2.854-6.7055 2.3946-8.9511 4.2665-1.4222 1.1856-2.4842 4.9684-2.4842 4.9684s-2.3856-2.517-2.2476-6.0331c0.10256-2.6132 2.4293-4.4319 2.6341-6.6778 0.28116-3.0846-2.0899-4.8363-2.0899-4.8363 0.19681 2.4225 0.0273 4.2039-0.80441 4.8265 0 0-2.0574-2.7036-5.6309-2.9495-2.5252-0.17381-5.6309-5.0946-5.6309-5.0946-0.36987 1.4177-0.64435 2.9308 0 5.3628 0 0-4.543-2.7066-5.6565-4.6273-1.0024-1.729-1.7468-5.899-1.7468-5.899s-3.4625 1.3894-5.7354 0.87341c-2.6163-0.594-5.368-1.8712-6.9716-4.0221-1.8985-1.5469-1.6601-5.6309-1.6601-5.6309s-3.3822 0.68348-5.0749-0.48304c-1.6538-1.1398-2.6224-3.1612-2.918-5.1478-0.61981-4.1654 1.6483-8.8752 1.6483-8.8752-26.366-5.3597-33.199 10.6-40.804 15.707-3.3747-0.2775-6.4667 0.40971-9.4252 1.6491 9.2753-4.8277 13.544-20.061 21.499-24.935 1.9159-1.1736 7.0574-2.9757 9.7965-0.86582 3.1706-2.6271 6.6355-3.4135 10.779-1.0495 1.9422-2.8542 6.3477-2.3566 8.606-0.57374 2.9506-6.1069 7.5801-3.1341 13.88-5.3233 3.7887-1.3166 5.2063-5.7321 2.4028-8.1313l2.2559-4.6778c5.2052-0.62055 9.0533-1.8563 10.727-4.0628 1.7074-2.2508 2.34-4.9306 2.9688-7.3438 0.19069-0.70566 1.0973-1.1104 1.75-0.78125 0.21845 0.11489 1.5259 0.3373 3.0938 0.125 9.6724-0.28837 14.548-8.5442 13.227-16.477-2.0839 2.1072-6.3605-0.36754-11.852 0.91405z" fill="#dbba2e" stroke="#806600" stroke-width=".94507"/>
       <path d="m181.22 33.656c-1.7132-0.01073-3.4788 0.7997-4.8125 1.875-1.7176 1.3848-3.0181 3.4556-3.5625 5.5938-0.30692 1.2054 0.53125 4.2188 0.53125 4.2188s4.3205-5.6694 7.3438-6.7812c1.4294-0.52568 3.0937-0.40252 4.5625 0 1.7074 0.46789 2.8864 2.2509 4.5938 2.7188 1.1152 0.30562 3.8198 0.88016 4.9688 0.75 2.5222-0.28572 6.2812-1.6875 6.2812-1.6875s-3.1927 2.117-6.1875 2.7188c-1.3298 0.26721-3.9357 0.2415-5.25-0.09375-1.7439-0.44483-3.2285-2.4163-4.9688-2.875-1.174-0.30944-2.5504-0.34487-3.6562 0.15625-2.8524 1.2926-6.5 7.5312-6.5 7.5312s2.7971-1.0113 3.9744-0.97476c5.0637 0.15721 6.8891 0.43591 8.5256-1.9002l1.7812 2.125c6.3915 1.6127 10.307-2.9046 11.094-3.9688 0.85881-1.1618 2.7188-3.375 2.7188-3.375s-1.7419 0.4727-2.5625 0.25c-2.3574-0.63973-3.1333-3.1145-5.5-3.7188-1.9015-0.48548-4.3011 0.63711-6.25 0.40625-2.4291-0.28774-4.679-2.9534-7.125-2.9688zm18.75 14.094c-0.32589 0.02005-0.65244 0.07888-0.96875 0.15625-2.0765 0.50789-3.1776 1.9596-5.1875 2.6875-1.6002 0.57952-5 0.28125-5 0.28125 0.77283 1.7069 1.1041 5.3917 0.1875 7.0938 0 0 4.3714 0.43339 7.3125-0.4375 2.0019-0.59278 3.8202-1.8253 5.375-3.2188 1.1069-0.99199 1.4841-2.6901 2.6875-3.5625 0.79222-0.57429 2.7812-0.9375 2.7812-0.9375s-2.7551-1.422-4.25-1.75c-0.95421-0.20934-1.9598-0.37264-2.9375-0.3125zm3.5312 9.6562c-0.42614-0.0071-0.89111 0.0093-1.375 0.03125-6.6239 2.6939-9.609 2.3595-12.531 1.9688l-0.125 1.0625c5.4796-0.08051 8.4456 2.4109 8.25 7.375 2.697-2.0882 5.4932-4.4061 12.688-3.5625-0.4101-3.5057-0.51409-6.7686-6.9062-6.875zm-14.875 4.9688c-2.9652 7.2959-11.292 9.9905-17.812 8.4375 0 0 0.70651 3.8053 2 5.0938 1.3935 1.3881 3.5437 1.9531 5.5 2.1562 2.1631 0.22459 4.3872-0.36893 6.4375-1.0938 2.2264-0.78704 4.3664-1.9285 6.1562-3.4688 0.98931-0.85138 2.4062-3.0938 2.4062-3.0938s0.18935 3.0292-1.3125 4.8438c-0.93032 1.124-1.7535 2.0049-2.9688 2.8125-1.5481 1.0288-5.1562 2.9688-5.1562 2.9688s5.0137-0.01476 7.3438 0.8125c3.2591 1.1571 5.9788 2.9897 8.0625 5.75 1.6609 2.2002 2.5268 5.7372 4.1875 7.9375 3.4963 4.6323 6.3438 2.5 6.3438 2.5-1.6425-1.8069-3.0184-3.9013-2.9375-6.4375 0.14646-3.0622 3.4112-5.2137 4.1562-8.1875 0.48925-1.9527 0.4815-5.6371-0.28125-7.5-1.3669-3.3384-2.8697-5.6465-6.25-6.9062-3.3516-1.249-8.6875 1-8.6875 1 1.1343-9.1658-3.7108-7.3856-7.1875-7.625zm19.438 3.25c-3.341-0.11786-8.375 2-8.375 2 5.0925-0.51354 7.3768-0.55153 10.906 4.1562 1.735 0.13784 3.4837 0.4356 5.2188 1.4375 0 0 0.28994-3.915-1.0312-5.5312-1.4254-1.7437-4.468-1.9831-6.7188-2.0625zm2.6875 7.5c3.8018 4.6749 2.6959 11.876-1.9688 17.75 0 0 5.1652 2.2004 7.9062 2.4688 1.2171 0.11916 3.625-0.40625 3.625-0.40625s-2.2026-2.0507-2.5625-3.4375c-0.7576-2.9195 1.3777-5.9586 1.1875-8.9688-0.0814-1.2886-0.46985-3.2456-1.2812-4.25-1.69-2.092-6.9062-3.1562-6.9062-3.1562zm-41.531 1.9688c-1.5723 4.9522-3.9242 8.0362-9.875 9.625 4.3163 5.1942 10.641 9.4284 16 8.375 7.0136-1.3787 7.7112-6.0494 7.625-8.8125 0 0-0.55313-2.6503-2.1875-3.3438-2.107-0.89393-5.6962-0.77131-7.375-1.75-2.1011-1.2249-4.1875-4.0938-4.1875-4.0938zm17.969 8.2812c-1.398-0.02117-2.5312 0.0625-2.5312 0.0625 0.69293 11.327-6.6543 11.02-8.3125 11.188 2.4354 1.1151 4.6792 1.608 6.0938 4.4062 1.7529 3.4675 0.65408 5.0881 1.5625 7.2812 0.97881 2.3631 2.4362 3.2832 4.7188 4.4375 2.3468 1.1868 5.5568 0.67931 7.8125 2.0312 3.7527 2.2492 2.671 6.9231 7.8438 10.5 2.5716 1.7782 7.5625 2.0312 7.5625 2.0312s-1.4296-2.056-1.8438-4.0625c-0.33313-1.6138 0.42931-5.1376 0.3125-6.7812-0.39647-5.5788-0.8797-8.0563-3.7188-12.875-1.1774-1.9983-3.7346-2.8706-5.0938-4.75-1.4227-1.9672-1.5691-4.687-3.0312-6.625-1.931-2.5595-4.3515-5.0515-7.3125-6.2812-1.0208-0.42399-2.6645-0.54133-4.0625-0.5625zm-30.969 3.5s0.40146 4.5316-0.84375 6.8125c-1.5559 2.85-4.0845 6.452-6.4688 8.6562-2.8812 2.6637-3.875 8.9688-3.875 8.9688s-0.88264-2.9771 0.40625-6.2188c0.66456-1.6714 3.609-5.274 4.1257-6.9969 0.39442-1.3152-0.125-4.0938-0.125-4.0938s-0.90585 2.7784-1.7188 3.9688c-2.3587 3.454-8.9466 7.045-11.219 10.716-1.0952 1.7688-1.5884 3.0777-1.5 5.1562 0.0803 1.8875 0.61471 3.1217 2 4.4062 0.91077 0.84451 3.6875 0.5625 3.6875 0.5625s1.2631-2.2028 2.25-2.9688c2.1107-1.638 4.1495-0.64751 6.6875-3.4062 2.1951-2.386 1.4062-6.4062 1.4062-6.4062s1.621 2.2582 1.8438 3.8438c0.44341 3.1562-1.6512 6.0669-2.125 9.2188-0.30574 2.0337 2.3262 7.7565 5.5938 8.2188 0.32741 3.4257 0.3223 6.252 3.6875 9.5-0.55757-2.2507-0.48382-4.2688 1.3438-5.625-3.3758-3.7788-5.3045-10.694-1.25-15.062 0 0-0.6698 5.5631 0 8.8125 0.3845 1.8653 2.5625 5.0938 2.5625 5.0938s0.32876-2.5336 1-3.5625c0.93687-1.436 2.4087-1.8555 3.4062-3.25 0.94087-1.3153 2.25-4.5312 2.25-4.5312s-0.48159 5.2061 0.28125 7.5c0.62518 1.8799 1.3379 3.4261 3.125 4.2812 1.8785 0.89895 6.25 0.125 6.25 0.125s-2.1285-1.0616-2.8438-1.9688c-1.0391-1.3179-1.188-3.0236-0.96875-4.6875 0.59208-4.4944 6.3612-7.07 7.7812-11.375 0.42986-1.3032-1.875-6.25-1.875-6.25s0.88615-4.1974-0.5625-6.5312c-1.4424-2.3238-3.6406-3.0557-6.2188-3.9688-1.4726-0.52151-6.3125-0.53125-6.3125-0.53125s-4.4558 3.6975-6.4062 6.375c-1.0591 1.4539-1.2723 3.0784-1.75 4.8125-0.34022 1.2351-0.5625 5.25-0.5625 5.25s-1.0275-3.0518-1.1562-4.5312c-0.18917-2.173 0.50733-4.4332 1.4375-6.4062 1.2795-2.714 6.625-7.3125 6.625-7.3125-4.9174-2.0584-7.1788-4.3477-9.9688-6.5938zm-11.094 8.8125s-2.4419 0.7873-3.6875 1.0625c-0.82275 0.18178-2.4115 0.23386-3.9062 1.7812-4.3364 4.489-2.5288 6.882-1.9375 8.1562 0 0 1.5274-2.4722 2.6562-3.3438 1.2792-0.98756 3.2086-2.216 4.5-3.1875 2.0614-1.5509 2.375-4.4688 2.375-4.4688zm-15 3.7188c-0.20337 0.0025-0.37412 0.04555-0.53125 0.09375-1.3362 0.40985-2.5089 1.3775-3.625 2.2188-0.89183 0.67223-2.3438 3.5-2.3438 3.5 1.1434-1.216 9.2659-0.17863 9.0312 0-0.37176-3.2096 1.2188-4.8438 1.2188-4.8438s-2.3264-0.9865-3.75-0.96875zm77.438 0.09375c2.4428 3.6167 4.4209 7.3626 4.2812 11.625 2.8923 0.22743 2.8962 2.0854 3.6562 3.5312 0.93475-2.6544 4.3298-9.951-2.0625-14.906-1.7049 1.9259-3.8738 0.19436-5.875-0.25zm-87.469 0.40625c-0.29451 0.01598-0.58609 0.06209-0.875 0.125-1.6472 0.35864-2.0686 1.1727-3.2812 2.3438-1.0569 1.0206-1.9688 3.9375-1.9688 3.9375s1.9629-0.72318 3-0.90625c1.5984-0.28213 3.5625-0.53125 3.5625-0.53125s1.6095-2.351 2.4688-3.125c0.87635-0.78941 2.2812-1.4688 2.2812-1.4688s-1.5646-0.2061-2.5312-0.25c-0.88613-0.04019-1.7727-0.17294-2.6562-0.125zm-11.281 1.125c-2.8298 0.26553-3.6909 1.9492-5.7812 3.875-3.3508 3.0871-4.9055 7.661-7.5 11.406-1.2673 1.8294-3.9375 5.4062-3.9375 5.4062s3.336-2.3598 4.875-3.6875c2.4626-2.1246 4.344-4.923 6.9688-6.8438 2.6409-1.9325 6.9375-4.375 6.9375-4.375l2.125-4.5938s-2.4048-1.3079-3.6875-1.1875zm75.906 10.656s0.31969 2.0274-0.46875 3.5c-1.3582 2.5369-5.021 3.4009-6.5312 7.6562-0.4222 1.1895-0.40403 2.6218 0.0937 3.7812 1.0299 2.3989 3.8163 4.0758 6.0625 5.4062 2.1373 1.2659 4.6929 0.22073 6.25 2.1562 1.6882 2.0985 0.52569 4.3298 2.6562 7.6875 1.6727 2.6362 4.9231 1.5149 6.4375 3.7812 0.71879 1.0757 0.0937 3.875 0.0937 3.875s3.657-1.2565 5.5625-3.125c0.92097-0.90309 1.4853-3.5381 1.1562-4.625-0.36256-1.1974-1.5999-1.9754-2.0938-3.125-0.56181-1.3078-0.9375-4.1875-0.9375-4.1875s1.8309 3.262 3.3125 4.2812c1.2497 0.85971 3.0321 0.55076 4.3438 1.3125 0.6754 0.39223 1.7188 1.625 1.7188 1.625s0.86478-3.8404 0.0937-5.5c-0.46292-0.99639-2.0502-1.1218-2.5625-2.0938-0.70854-1.3441-0.0944-2.7573-0.6875-4.1562-0.39267-0.92621-1.1862-2.6803-1.9688-3.3125-2.2737-1.8369-4.5702-1.8275-6.6562-3.875-2.1083-2.0693-3.3759-6.1531-5.6562-8.0312-1.1561-0.95216-3.2081-0.82643-5.2188-1.4375-2.7841-0.84612-5-1.5938-5-1.5938zm-33.531 0.0937s-1.4221 2.5154-2.5625 3.3125c-1.3431 0.93876-3.6046 0.89079-4.7812 2.0312-0.91881 0.89055-1.0916 1.7865-1.1875 3.0625-0.12733 1.6935 0.29591 3.3671 1.1875 4.8125 1.0099 1.6372 2.7465 2.8657 4.5625 3.5 1.91 0.66718 6.0625 0.125 6.0625 0.125-0.0372 0.093-2.8446-1.7509-3.9375-4.1562-1.5542-0.29824-3.1662-0.58843-3.7188-2.25-0.32497-0.97717-0.0979-2.118 0.3125-3.0625 0.44006-1.0127 2.2348-1.4155 2.7812-2.375 0.85191-1.4959 1.2812-5 1.2812-5zm16.438 13.344s-2.7646 2.7662-3.3438 4.8125c-0.43636 1.5417-0.54545 3.306 0 4.8125 0.55566 1.5348 1.756 2.8382 3.2188 3.5625 0.71862 0.35582 1.7464 0.44471 2.5 0.71875 1.2374 0.44997 2.9375 2 2.9375 2s0.29792-4.3147-0.6875-5.3125c-1.7641-1.7863-2.19-3.2198-2.25-5.25-1.7805-1.6022-2.19-3.219-2.375-5.3438zm9.25 7.2188c-1.2781-0.0109-2.579 0.0783-3.875 0.21875 0 0 4.8266 3.9276 5.9375 7.1875 0.40277 1.1819 0.30779 2.5398 0 3.75-0.52555 2.0663-2.6017 3.5433-3.0625 5.625-0.22771 1.0287 0.1875 3.1562 0.1875 3.1562s0.69593-1.9983 1.4688-2.6562c2.2082-1.8799 5.9101-1.1732 8.1875-2.9688 1.2668-0.99876 2.3338-2.4506 2.6562-4.0312 0.44063-2.1598 0.40313-4.942-1.1562-6.5-2.8392-2.8366-6.5095-3.7486-10.344-3.7812zm14 9.875s-0.52915 1.8315-0.84375 3.375c-0.38837 1.9055 0.0284 4.0432-0.84375 5.7812-0.76286 1.5202-2.2245 2.6286-3.625 3.5938-1.0491 0.72297-2.577 0.65256-3.4688 1.5625-1.0059 1.0264-1.6806 2.5317-1.6875 3.9688-0.01 1.9952 2.2812 5.5312 2.2812 5.5312s1.1508-4.0774 2.6562-5.4062c2.2241-1.9632 6.0701-1.0466 8.4062-2.875 1.1647-0.91152 1.8674-2.3727 2.4062-3.75 0.93408-2.3876 2.687-5.3983 1.3125-7.5625-0.73517-1.1575-2.8988-0.23609-3.9688-1.0938-1.2733-1.0207-2.625-3.125-2.625-3.125z" fill="#ffdb43"/>
       <path d="m181.12 34.281c-1.3533-0.0085-2.9228 0.68094-4.0938 1.625-1.5068 1.2149-2.706 3.1089-3.1875 5-0.0256 0.10065 0.0329 0.8087 0.0937 1.4062 0.42988-0.5114 0.46063-0.5763 1.0625-1.2188 1.5015-1.6028 3.3196-3.3838 5.25-4.0938 1.7486-0.64308 3.6285-0.4756 5.25-0.03125 1.1416 0.31284 1.9659 0.99979 2.6875 1.5625s1.3405 1.0012 1.9062 1.1562c0.5073 0.13902 1.4259 0.37282 2.3438 0.53125s1.8953 0.2206 2.1875 0.1875c0.95541-0.10823 2.1782-0.45937 3.2812-0.78125-0.55795-0.40543-1.0282-0.84606-1.4375-1.25-0.78256-0.77229-1.3951-1.3442-2.25-1.5625-0.6392-0.1632-1.5642-0.0625-2.625 0.125-1.0608 0.1875-2.229 0.45936-3.4688 0.3125-1.5776-0.18688-2.8424-1.0543-4-1.75s-2.1838-1.2136-3-1.2188zm1.6875 6.2188c-0.50752 0.0124-0.99117 0.10731-1.375 0.28125-0.97022 0.43968-2.6464 2.2078-3.875 3.875-0.34746 0.47149-0.31337 0.49004-0.59375 0.90625 0.34628-0.0432 0.62778-0.20294 1-0.15625 2.0568 0.25801 3.8345 0.29867 5.1875 0.03125s2.2437-0.78638 2.875-1.6875c0.39696-0.5799 1.3765-0.61368 1.8125-0.0625l1.4688 1.75c2.7497 0.61045 4.9089 0.04226 6.5312-0.875 1.3297-0.7518 2.1551-1.6036 2.6562-2.1875-1.0639 0.4902-2.1769 1.0279-3.4375 1.2812-1.622 0.32592-4.1036 0.3262-5.75-0.09375-1.1838-0.30197-2.0674-1.0185-2.875-1.625s-1.5317-1.1019-2.0938-1.25c-0.49234-0.12977-1.0237-0.1999-1.5312-0.1875zm17.656 8.125c-0.22564 0.01317-0.45503 0.02699-0.6875 0.0625-0.84094 0.12844-1.7139 0.84458-2.5625 1.3438s-1.8495 1.1405-3.25 1.5938c-1.339 0.43334-2.7443 0.438-3.9688 0.4375 0.11405 0.5935 0.4035 1.0875 0.4375 1.7188 0.036 0.6683-0.0489 1.3426-0.125 2 1.6395 0.02406 3.6826-0.02275 5.25-0.4375 1.8528-0.49027 3.6751-1.5574 5.2812-2.8438 0.29773-0.23845 0.65002-0.75683 1.0938-1.4375 0.34546-0.52992 1.4055-1.3704 3.25-1.5-1.7037-0.59219-3.1393-1.0297-4.7188-0.9375zm3.0625 9.6562c-0.36834-0.0075-0.75482 0.01526-1.1875 0.03125-2.3093 0.91256-5.3736 2.3513-8.5938 1.9688 3.399 1.0871 4.8026 2.3384 5.1875 3.875 2.1495-1.3696 5.1621-2.4534 9.5312-2.3438-0.16738-0.9427-0.36958-1.7514-0.75-2.2188-0.5259-0.64609-1.6092-1.2597-4.1875-1.3125zm-13.656 5.1562c-2.9458 4.5328-4.8189 9.6359-17.562 8.8438 3.0391 3.6558 6.5636 4.1702 10.594 3.4062 4.5138-0.85562 9.5558-3.5168 10.531-9.6875 0.38395-2.4288-3.5625-2.5625-3.5625-2.5625zm18.156 3.0938c-0.35476-0.01251-0.8628 0.17403-1.2812 0.21875 1.5193 0.6492 2.9393 1.826 4.4062 3.6875 1.1182 0.1087 2.2849 0.38984 3.4688 0.8125-7e-3 -0.17406 0.0148-0.15465 0-0.34375-0.085-1.0833-0.4081-2.3005-0.75-2.7188-0.94348-1.1542-3.6385-1.5785-5.8438-1.6562zm-6.7188 3.9375c-3.4817 0.07128-5.7978 3.0728-5.8125 3.0938 0 0-1.7863 3.2725-3.1562 4.5-0.843 0.75532-2.7812 1.9688-2.7812 1.9688 5.3585 2.5488 7.7446-2.0346 11.062-2.6562 1.0369-0.19429 2.448 0.34779 2.875 1.3125 2.069 4.6743-1.4867 6.8381-1.4375 10.656 0.0219 1.6966 0.24305 2.0069 0.84375 3.5938 0.38603 1.0198 0.89739 2.0641 1.7188 2.7812 0.93316 0.81474 3.4062 1.5312 3.4062 1.5312s-2.786-1.133-3-4.8125c-0.20425-3.5119 1.9154-5.72 3.4688-9.75 1.097-2.846 0.1179-8.2289-1.8125-9.9375-1.9608-1.7355-3.7924-2.3136-5.375-2.2812zm12.812 4.4375c0.81329 2.6901 0.77592 6.2951-0.15625 9.2188-1.5641 5.3722-0.17564 6.2123 3 7.0312 0.0224 0.0022 0.12557-9.32e-4 0.15625 0-0.3565-0.5022-0.69005-1.0685-0.875-1.7812-0.50978-1.9645-0.0215-3.7666 0.40625-5.3125 0.42779-1.5459 0.81812-2.8908 0.75-3.9688-0.0671-1.0616-0.59664-2.898-0.90625-3.2812-0.27295-0.33788-1.4631-1.4702-2.375-1.9062zm-43.5 4.1875c-1.4078 2.5541-2.8869 4.6466-5.75 6.125 1.4403 1.362 2.3532 3.0291 3.9062 3.9062 2.4595 1.3891 4.8303 1.9337 6.7188 1.5625 3.0066-0.59103 4.9386-2.0078 5.4375-3.1875 1.3703-3.2406 0.26772-4.8651-3.1562-5.375-1.3919-0.20726-2.8701-0.32322-4.4062-1.2188-0.88278-0.51462-2.0647-1.1731-2.75-1.8125zm16.844 6.3125c-0.28941 4.6012-1.9901 7.734-4.2812 9.3438 0.70483 0.68312 1.3649 1.4909 1.875 2.5 1.0498 2.0768 1.3091 3.8916 1.375 5.1562 0.0659 1.2646 0.0258 1.7712 0.25 2.3125 0.71924 1.7364 1.317 1.9898 3.5 3.0938 0.6105 0.30874 1.7198 0.5245 3.125 0.71875s3.1225 0.37463 4.8438 1.4062c0 0-0.20363-2.3695-0.625-3.4688-0.58284-1.5204-2.0383-2.6146-2.5625-4.1562-0.51424-1.5124-0.5-4.75-0.5-4.75s1.688 3.4087 2.7188 5c0.9792 1.5117 2.6169 1.9919 3.2812 4.2812 1.093 3.7662 0.77731 6.72 2.25 10.031 0.81155 1.8248 1.3599 2.2196 3.4375 3.6562 0.30411 0.21029 1.0761 0.35764 1.6562 0.5625-0.29349-1.5189-0.10383-2.7983 0.0312-4.0938 0.13807-1.3236 0.23924-2.6492 0.21875-2.9375-0.38969-5.4834-0.63793-7.1262-3.3438-11.719-0.25256-0.42867-0.85502-0.97561-1.7812-1.6562s-2.1639-1.4908-3.1875-2.9062c-2.044-2.8262-2.1963-5.5284-3-6.5938-1.7895-2.372-3.9478-4.4943-6.2188-5.4375-0.25718-0.10682-1.7874-0.32029-3.0625-0.34375zm-29.156 6.0312c-0.1389 1.0917-0.36527 2.2071-0.96875 3.3125-1.6333 2.9918-4.1086 6.6031-6.75 9.0938 4.9255 0.69764 3.5575 9.0547 2.4375 12.781-1.0622 3.5342-0.76667 6.1814 3.8438 10-1.2689-5.4472 0.0619-10.267 4.5-12.875-0.65349 5.9057-0.45058 9.1694 1.125 12.156 0.43607-1.5504 1.8639-3.2229 3.25-4.4375 2.8308-2.4805 4.1716-7.5245 5.5625-9.5625 0.0984 2.6908-0.91072 10.268-0.3125 13.562 0.58034 1.7451 1.6711 2.4674 2.7188 2.9688-0.69076-1.6074-0.94747-3.2822-0.75-4.7812 0.4119-3.1267 2.4548-5.2474 4.1875-7.0312 1.6491-1.6978 3.0252-3.1662 3.5625-4.5312 2e-3 -0.10213 0.0255-0.29551-0.0312-0.53125-0.12006-0.49913-0.35127-1.1942-0.59375-1.8438-0.485-1.2991-1.0312-2.4688-1.0312-2.4688-0.20082-0.4358-0.2565-0.937-0.15625-1.4062 0 0 0.18467-0.87017 0.21875-2 0.0341-1.1298-0.20112-2.3935-0.5-2.875-1.0156-1.6362-2.4617-2.1102-5.0625-3.0312-0.0122-0.0043-1.7285-0.27904-3.0625-0.34375-0.90028-0.04367-1.247-0.02583-1.6875-0.03125-0.8913 0.77448-4.0359 3.525-5.4062 5.4062-2.4642 2.237-3.1252 8.126-3.5938 10.5-3.3235-4.09-3.4748-9.0036-1.75-12.719 0.9449-2.0042 2.1584-4.6661 3.7188-6.2188 0.34313-0.34142 0.34245-0.29573 0.65625-0.59375-1.5004-0.83772-3.0204-1.6492-4.125-2.5zm-15.156 6.4375c-0.64304 0.18847-0.93024 0.31852-1.4688 0.4375-1.0935 0.2416-2.0724 0.18612-3.2812 1.4375-2.0362 2.1079-2.4883 3.5208-2.5 4.4688-1e-3 0.11375 0.0839 0.17647 0.0937 0.28125 0.45841-0.60762 0.92583-1.2514 1.5312-1.7188 1.3602-1.0501 3.2792-2.3003 4.5-3.2188 0.57007-0.42888 0.8356-1.0855 1.125-1.6875zm-13.469 3.2188c-1.0329 0.31683-2.136 1.168-3.2812 2.0312-0.0368 0.0277-0.3929 0.55033-0.65625 0.90625 0.8776-0.0384 1.7945-0.0246 2.7188 0.0312 1.0699 0.0647 2.0718 0.1765 2.8438 0.28125 0.0619-1.0781 0.21043-2.051 0.5-2.7188 0.0353-0.0815 0.057-0.049 0.0937-0.125-0.13939-0.0453-0.1297-0.0494-0.28125-0.0937-0.84364-0.24662-1.8892-0.32733-1.9375-0.3125zm83.875 0.0937c-0.68274 0.26163-1.2879 0.37515-1.9375 0.34375 1.2344 2.3306 2.1688 4.7931 2.3438 7.5312 0.54232 0.19675 1.0006 0.40971 1.4062 0.71875 0.21627-0.82121 0.47774-1.6396 0.53125-2.5312 0.12624-2.1034-0.35546-4.1499-2.3438-6.0625zm-93.531 0.15625c-0.19615 9e-3 -0.39095 0.0251-0.5625 0.0625-0.66699 0.14523-0.95741 0.32216-1.3125 0.625s-0.75211 0.77454-1.4062 1.4062c-0.17233 0.16642-0.47034 0.80266-0.75 1.3438 0.35221-0.0977 0.46341-0.19389 0.78125-0.25 1.4152-0.24979 2.6603-0.41259 3.0938-0.46875 0.15614-0.2241 0.29208-0.41727 0.65625-0.90625 0.45355-0.60899 0.95734-1.2039 1.4688-1.7188-0.70392-0.0471-1.3803-0.12071-1.9688-0.0937zm20.719 12.719c0.68843-0.53427 1.3628-0.82474 2-1.0625-0.32424-0.27885-0.56599-0.65247-0.6875-1.0625 0 0 0.6577-5.1004 4.0418-10.354-2.0346 1.8024-7.6462 6.8952-8.5105 8.2911-0.99321 1.604-1.2279 2.1899-1.1562 3.875 0.14837 2.0182 1.1175 2.7531 2.4412 3.7486-0.2862-1.474 0.9267-2.6877 1.8714-3.4361zm-32.25-9.8124c-1.0509 0.0986-1.465 0.34883-2.0938 0.875s-1.407 1.4354-2.5625 2.5c-1.2657 1.1661-2.246 2.7063-3.2188 4.375 0.40929-0.3578 0.70142-0.76091 1.1562-1.0938 2.5964-1.9 5.9619-3.7829 6.5625-4.125l1.0312-2.2812c-0.40177-0.10396-0.95392-0.24259-0.875-0.25zm40.344 2.2812c-0.30189 0.6497-0.6021 1.3087-0.8125 1.9688-0.52668 1.6522-0.72884 2.8706-0.75 3 0.22377-0.17808 0.41331-0.29571 0.6875-0.59375 1.144-1.2434 0.88526-4.2647 0.875-4.375zm38.031 8.3438c-0.13147 0.46793-0.27005 0.94964-0.53125 1.4375-1.0447 1.9513-1.5247 2.0593-2.6875 3.0312s-2.055 1.8314-2.625 3.4375c-0.21444 0.60419-0.16443 1.5339 0.0625 2.0625 0.57652 1.3429 2.8594 2.9891 5.0938 4.3125 0.46622 0.27614 1.1754 0.34469 2.4062 0.5s2.0689 1.4077 3.375 3.0312c1.2678 1.5759 2.1941 3.3303 2.375 4.5312s0.3227 2.0613 1.1562 3.375c0.38282 0.60331 0.74298 0.71185 1.9062 1.0312s3.2073 0.78415 4.5 2.7188c0.33669 0.50387 0.38283 0.90724 0.5 1.3438 0.543-0.31623 1.1595-0.62096 1.5-0.9375-0.0402-5e-3 0.3031-0.5579 0.4375-1.125 0.1152-0.48608 0.0808-1.0911 0.0937-1.2188-0.0438-0.0778-0.17482-0.27524-0.5-0.65625-0.39022-0.45721-0.76502-2.3188-1.2188-3.375-0.53922-1.8202-1.3202-4.9126-2.1562-8.4375 3.4877 2.0495 3.611 4.955 6.25 6.875 0.98645 0.71767 2.3984 0.36508 3.5 0.71875-9.1e-4 -0.0208-9.7e-4 -0.14788 0-0.15625-0.0585-0.0415-0.0681-0.0757-0.21875-0.15625-0.50543-0.27029-1.5739-0.68933-2.2812-2.0312-0.64577-1.225-0.64664-2.3959-0.65625-3.125-0.01-0.72913-0.0552-1.0228-0.125-1.1875-0.18226-0.4299-0.43677-1.0453-0.71875-1.5625s-0.7001-0.95492-0.5625-0.84375c-0.83192-0.6721-1.6848-1.0309-2.8438-1.5312s-2.6141-1.1704-3.9688-2.5c-1.441-1.4143-2.3045-3.1034-3.1562-4.5938s-1.6879-2.7411-2.3438-3.2812c-7e-3 -6e-3 -0.41249-0.19829-1.2188-0.34375s-1.9243-0.27234-3.1875-0.65625c-1.2008-0.36493-1.2924-0.40928-2.1562-0.6875zm-37.688 1.0312c-0.88941 0.62166-1.8902 0.82037-2.75 1.0625s-1.5479 0.49642-1.9062 0.84375c-0.72724 0.70487-0.81437 1.215-0.90625 2.4375-0.11156 1.4837 0.27549 2.9741 1.0625 4.25 0.86152 1.3966 2.4033 2.4938 4.0312 3.0625 0.61934 0.21634 1.9877 0.27921 3.1562 0.25-0.70111-0.66867-1.4247-1.4975-1.9688-2.5-0.65983-0.12802-1.3469-0.23639-2.0312-0.5625-0.83211-0.39651-1.6392-1.1337-2-2.2188-0.44005-1.3232-0.12891-2.6623 0.34375-3.75 0.39498-0.90894 1.1675-1.3026 1.75-1.6562s1.0195-0.7133 1.0938-0.84375c0.041-0.072 0.0827-0.27899 0.125-0.375zm17.656 12.719c-0.4315 0.64051-0.95472 1.338-1.0625 1.7188-0.37059 1.3093-0.4228 2.7937-0.0312 3.875 0.40847 1.1282 1.3342 2.1725 2.4375 2.7188 0.28518 0.14121 1.2669 0.26466 2.3438 0.65625 0.32474 0.11809 0.52724 0.30983 0.8125 0.46875-0.0271-0.26951-0.0508-0.56955-0.0937-0.78125-0.0631-0.31064-0.17385-0.52103-0.15625-0.53125-1.7382-1.7903-2.3375-3.6838-2.5-5.6562-0.74368-0.78527-1.3908-1.5958-1.75-2.4688zm10.25 5.0625c1.1701 1.2958 3.2994 2.4381 3.9062 4.2188 0.58853 1.7271 1.3731 4.252 1 5.7188-0.25423 0.99958-1.6689 2.1308-2.125 2.8125 0.49612-0.1148 1.0242-0.25916 1.4688-0.34375 1.4968-0.28477 2.6364-0.54746 3.25-1.0312 0.9488-0.74805 1.7113-1.888 1.9062-2.8438 0.36739-1.8008-0.85197-4.7901-1.5625-5.5-2.107-2.1051-4.8148-2.846-7.8438-3.0312zm14.094 12.125c-0.14683 1.5455 0.15411 3.8875-1.0312 6.4375-1.062 2.2845-2.8574 3.6442-4.3438 4.75-0.93077 0.69247-1.7901 0.87396-2.375 1.0625-0.58486 0.18854-0.83166 0.32727-0.875 0.375-0.66231 0.72956-1.1522 1.9797-1.1562 2.9062-2.8e-4 0.0626 0.17996 0.48892 0.21875 0.65625 0.38265-0.74814 0.86373-1.4576 1.5312-2.0938 1.6764-1.5974 3.6669-1.9143 5.25-2.1875 1.5831-0.27317 2.8144-0.54088 3.4688-1.0938 0.68826-0.58149 1.3007-1.8379 1.8125-3.25 0.5281-1.4572 1.1797-2.87 1.5-4.0625 0.2826-1.0522 0.22275-1.6308 0.0312-2.0938-0.10771-0.0113-0.11166 6e-3 -0.28125 0-0.71804-0.0217-2.0192 0.17745-3.3438-0.96875-0.15673-0.13563-0.25754-0.29133-0.40625-0.4375z" fill="#ffea80"/>
       <path d="m124.52 59.523c4.8573 4.1669 4.0129 9.623 4.1098 11.711 0.12588 2.71-0.42402 4.6789-2.9998 5.9806 3.4437 1.3546 8.3598 3.5262 9.8876-1.0469 0.9828-8.3302-1.0962-17.261-10.998-16.644z" fill="#a00" stroke="#800000" stroke-width=".94507"/>
       <g stroke-width=".94507">
        <path d="m73.836 40.196c4.9687 0.59764 9.9804 3.1061 12.132 6.0226s2.3314 7.0793 2.9193 12.721c0.51272 4.9205 2.9792 11.48 8.2995 14.498 3.4496 1.9565 7.1559 1.7673 10.656 1.3125s6.9718-1.1557 10.625-0.96875c6.0723 0.31069 11.558 5.5473 11.558 5.5473l4.237-4.2457s-7.4771-5.8905-15.514-6.3017c-4.4397-0.22716-8.3425 0.58166-11.562 1s-5.5532 0.43437-7.5312-0.6875c-2.7715-1.5719-4.2361-6.1679-4.6875-10.5-0.63684-6.1117-1.4509-11.816-4.9688-15.344-6.1192-6.1373-14.594-4.6835-16.164-3.0538z" color="#000000" fill="#e94545" style="text-decoration-line:none;text-indent:0;text-transform:none"/>
        <path d="m73.836 40.196c6.0334-0.05299 10.421 1.7149 12.842 4.4118 1.6946 1.8873 3.3862 1.8802 5.4429 11.895 0.99522 4.846 1.0135 12.206 6.3338 15.223 3.4496 1.9565 6.4105 1.158 9.9109 0.70327s6.5661-1.517 10.99-1.1324c7.3584 0.63969 12.522 4.1394 12.522 4.1394l2.3856-0.35358s-7.4771-5.8905-15.514-6.3017c-4.4397-0.22716-8.3425 0.58166-11.562 1s-5.5532 0.43437-7.5312-0.6875c-2.7715-1.5719-4.2361-6.1679-4.6875-10.5-0.63684-6.1117-1.4509-11.816-4.9688-15.344-6.1192-6.1373-14.594-4.6835-16.164-3.0538z" color="#000000" fill="#ef7575" style="text-decoration-line:none;text-indent:0;text-transform:none"/>
        <path d="m73.836 40.196c4.9687 0.59764 9.9804 3.1061 12.132 6.0226s2.3314 7.0793 2.9193 12.721c0.51272 4.9205 2.9792 11.48 8.2995 14.498 3.4496 1.9565 7.1559 1.7673 10.656 1.3125s6.9718-1.1557 10.625-0.96875c6.0723 0.31069 11.558 5.5473 11.558 5.5473l4.237-4.2457s-7.4771-5.8905-15.514-6.3017c-4.4397-0.22716-8.3425 0.58166-11.562 1s-5.5532 0.43437-7.5312-0.6875c-2.7715-1.5719-4.2361-6.1679-4.6875-10.5-0.63684-6.1117-1.4509-11.816-4.9688-15.344-6.1192-6.1373-14.594-4.6835-16.164-3.0538z" color="#000000" fill="none" stroke="#c41d1d" stroke-width=".94507" style="text-decoration-line:none;text-indent:0;text-transform:none"/>
       </g>
       <path d="m118.05 52.351c-0.84191 3.6833-0.94226 7.4354 0.90625 10.5 1.2783-4.3642 2.2723-6.8867 3.5625-9.0938zm1.8034 15.864c-1.8485 3.0646-1.7482 6.8167-0.90625 10.5l4.4688-1.4062c-1.2902-2.2071-2.2842-4.7295-3.5625-9.0938z" fill="#ececec" fill-rule="evenodd" stroke="#999" stroke-width=".94507"/>
       <path d="m168.26 68.105c-1.2411 4.7631-2.6322 11.568-13.865 13.249-1.6881 3.5358-7.615 3.236-9.6032 1.1867-1.8692 2.1352-9.4228 3.1819-11.806 1.8338-2.4354 0.4143-6.1863 4.3945-7.6061 5.3776-2.2286 1.5431-4.8622 2.5084-7.206 2.0164 1.7864-1.2325 2.444-2.4406 2.0916-3.982 0 0-3.2092-0.13494-4.5432 1.3292-0.66289 0.72756-1.8762 2.29-1.8762 2.29s-0.8257-1.4603-0.49885-2.7803c0.65273-2.6361 2.8516-3.0931 4.7-4.5163 0.45762-0.35237 0.65714-1.1128 0.32163-1.5829-1.25-1.736-2.1678-3.8205-1.504-6.3466-0.53533-1.3484-0.65997-2.5662 0.85559-2.9205 0.98777-0.23094 2.7148-0.31529 4.8837 0.55796 2.9368 1.1824 5.8523 3.3927 8.2362 2.5394 1.6082-0.88147 2.7347-10.189-1.7679-14.652-1.261-1.2498-2.7819-1.8918-4.6845-2.271-9.024-1.7986-14.312-9.569-11.926-15.736-0.45838-1.9954 0.32552-4.841 1.3504-5.9049-0.95207-2.6614-0.58895-4.2385 0.42924-5.0647 1.8723-1.5903 9.6217 0.34912 15.727 1.2859 8.3764 1.2853 10.077 1.1934 13.63 0.82075 14.349-1.5047 26.699 4.2038 27.878 4.3068 0 0-1.759 4.7473 1.1885 8.142-1.2024 1.8384-0.24615 3.1673 0.38331 3.0518 8.1712-1.9013 9.1406 0.16519 12.813-1.2818 5.3708 10.685-5.4199 23.619-17.6 19.052z" fill="#ffdb43"/>
       <path d="m113.78 33.719c-0.90897 0.46136-1.0518 2.1119 0.6875 3.9375-2.2984 1.5423-2.0445 4.1921-2.0625 6.1875-1.1974 4.7137-0.25613 8.2146 4.125 11.719 1.4782 1.1823 5.4758 2.9121 7.75 3.875 2.6308 1.1139 3.8438 0.48839 5.1562 2.5 3.0971 4.7471 2.7592 13.922 1.4062 14.406-2.3838 0.85329-5.3132-1.3488-8.25-2.5312-2.1689-0.87325-3.8872-0.79344-4.875-0.5625-1.5156 0.35433-1.3791 1.5891-0.84375 2.9375-0.6638 2.526 0.25003 4.6077 1.5 6.3438 0.33551 0.47012 0.14512 1.2101-0.3125 1.5625-1.8484 1.4232-4.066 1.8952-4.7188 4.5312-0.32685 1.32 0.5 2.7812 0.5 2.7812s1.2121-1.5537 1.875-2.2812c1.334-1.4642 4.5312-1.3438 4.5312-1.3438 0.35241 1.5414-0.27605 2.7675-2.0625 4 2.3438 0.492 4.9589-0.48819 7.1875-2.0312 1.4198-0.98307 4.8998-5.0573 7.625-5.375 3.0863 1.7466 9.139 0.17777 11.781-1.8438 2.3629 2.1242 7.9369 2.3483 9.625-1.1875 11.233-1.6806 12.603-8.4869 13.844-13.25 5.8043 1.6212 10.138 0.49029 13.219-1.8125 5.4144-4.0471 6.9356-11.693 5.5938-14.219-1.8467 13.402-10.649 16.519-22.125 12.75 1.5486 4.378-4.5889 11.659-10.656 6.9062 0.16972 5.8907-3.1612 8.526-7.375 8.2812 4.1672-3.2672 3.3674-10.559 2.0312-11.938 2.7027 0.97818 7.8742 1.315 12.062-3.2812-4.9158 3.0006-8.9336 1.6299-9.7812-0.375-0.5558-1.3145-0.47716-3.0253 1.7188-4.625-8.4032 2.6053-13.869-2.8414-18.438-3.5 10.836 5.6923 14.921 13.844 10.375 20.312-3.1478 4.4797-10.134 6.251-11.875 3.2812-4.1289 2.0597-7.9051 6.7455-9.4688 7.5 0.98721-2.6015 2.052-3.7707 1.125-6.4688-0.66468 1.6076-1.9563 2.4985-3.4062 3.4062 0 0-0.56388-1.7666-0.96875-2.5938-0.36166-0.73884-1.0231-1.3127-1.2812-2.0938-0.39042-1.1813-0.78125-5.1875-0.78125-5.1875s1.1185 0.10882 1.8125 0.21875c3.4374 0.54448 6.7172 3.0052 9.9375 3.5938 3.7467 0.68471 5.9843-0.28899 6.2188-4.2188 0.26293-4.4062-0.76615-9.7831-3.375-13.344-3.4953-4.7704-11.656-3.1464-15.625-9.125-2.0792-3.1321-3.1096-8.6206 0.0312-10.406-3.3101-1.0351-0.9375-2.0938-0.9375-2.0938 2.8442-0.1406 4.9965-2.2859 4.8125-3.9062-4.5243-0.19851-4.3355-1.5418-7.3125-1.4375zm35.562 1.3438c7.5331 1.4363 12.903 3.539 17.312 5.9062-0.27989 3.5391 1.2636 5.2124 3.375 6-0.20961 0.89831-1.572 1.4676 0 2.875 0 0-1.3666 0.63743-1.9062 1.1562-0.73797 0.70942-1.0698 1.7709-1.7188 2.5625-0.6682 0.81508-2.25 2.2188-2.25 2.2188s2.3535-0.23445 3.3125-0.84375c1.1276-0.7164 1.5167-2.2625 2.5625-3.0938 0.74549-0.5925 2.4127-2.0305 2.4127-2.0305-0.93808-1.3233-0.29216-1.6098 0.14984-2.657-2.7355-4.9-1.3302-5.5602-1.1875-7.8438-7.5368-3.1711-15.216-4.209-22.062-4.25zm-10.906 4.6875c-0.0674 0.01366-0.16119 0.03639-0.25 0.09375-2.538 4.7423-0.43153 10.165 3.9062 11.312 3.2603 0.86259 9.6116 0.12887 9.7188-5.5625 8e-3 -0.41-0.0719-0.50897 0.40625-0.90625-4.1398-2.5249-9.0486-3.4874-12.156-4-1.121-0.18491-1.1533-1.0331-1.625-0.9375zm46.553 10.397s-0.82407 1.0579-4.2353 2.3559c-1.823 0.69368-3.5039 0.45519-6.9339 2.522-1.7587 1.0598-2.8844 3.8135-4.6112 4.9243-1.6215 1.043-4.3347 2.5819-4.3347 2.5819 4.1937 2.0313 10.094 1.3186 13.406-0.375 4.3704-2.2346 6.1175-7.7985 6.7089-12.009z" fill="#dbba2e"/>
       <path d="m118.3 34.048c0.39404 0.1395 1.0427 0.76683 1.735 0.96708 0.53526 0.15483 1.1937-0.03721 1.1716 0.14414-1.1455 0.64248-2.4342-0.42449-3.3302-0.31354-0.63212 2.2228-1.0436 2.1921-3.2452 2.9341-1.9816-1.8253-1.8664-3.3887-0.82205-4.4572 0.73998 0.59269 3.1768 0.26022 4.4908 0.72542z" fill="#836706"/>
       <path d="m142.16 36.281c-2.7062 0.06919-4.6046 1.2972-3.125 3.9688 6.7418 0.7863 6.4658 0.85065 11.125 2.8438 0.96434 0.30285 1.2395 1.8504 2.25 1.875 0.56648-3.7748-2.8098-6.9389-6.3125-8.0938-1.3166-0.4341-2.7074-0.6252-3.9375-0.59375zm-16.938 0.5c-0.85051 1.7736-3.608 4.2867-6.25 4.9375-0.13853 2.9715 2.7843 7.0242 11.844 9.7188-5.0328 0.39293-10.224-1.8265-12.969-4.1562 1.5601 7.4443 12.85 8.6562 19.281 5.3438-3.6553-4.596-4.16-9.3872-1.8125-13.688-3.4717-1.8808-7.3302-2.1783-10.094-2.1562zm35.344 5.875c-1.1636-0.05804-2.3931 0.37524-3.4375 1.7188-4.4932 8.2127-8.0654 10.765-19.031 8.8438 7.7634 6.2916 17.651 6.1617 29.938-4.4062-2.5105-1.3986-3.1003-2.5686-3.7188-4.5312-0.84729-0.67693-2.2539-1.5504-3.75-1.625zm-28.219 14.25c7.094 6.5412 11.285 14.289 4.1875 24.031 5.4842-3.334 6.5036-7.6597 6.1562-11.75-0.47766-5.6242-5.0072-10.011-10.344-12.281zm41.927-4.294c-2.6367 0.87746-4.6463 4.1399-6.3772 5.8205-1.6795 1.6307-4.4355 2.5485-7.2998 4.1297-4.6089 2.5444-7.3055-1.9593-3.9375-3.6875 2.2908-1.1754 4.751-2.003 7.125-3 2.3741-0.99703 2.3762-0.2807 3.375-0.875 1.4694-0.87436 2.0714-2.8105 3.5-3.75 4.5242-2.0035 10.312-3.9799 15.128-2.365-3.2461 2.9738-7.5679 2.4143-11.513 3.7272z" fill="#ffea80"/>
       <path d="m117.18 34.242c-0.63139 0.06432-1.2472 0.92771-0.63708 1.7692-0.84539 0.79361-1.7395 1.0968-3.0625 0.8125l-0.21875 0.96875c1.5819 0.33994 3.0383 0.02272 4-1.0625 0.30495-0.34411 0.40873-1.5134 1.7431-1.1235 1.1583 0.33849 1.7754 0.12299 2.2439-0.50111 0.0327 0.02452-1.127 0.32337-1.518 0.07763-1.1471-0.72105-1.2709-1.0713-2.5507-0.94095z" color="#000000" fill="#540" style="text-decoration-line:none;text-indent:0;text-transform:none"/>
       <path d="m121.12 43.375c-0.49 0-0.875 0.385-0.875 0.875s0.385 0.90625 0.875 0.90625 0.90625-0.41625 0.90625-0.90625-0.41625-0.875-0.90625-0.875zm-3.125 2.5c-0.49 0-0.875 0.385-0.875 0.875s0.385 0.875 0.875 0.875 0.90625-0.385 0.90625-0.875-0.41625-0.875-0.90625-0.875zm5.6562 0.53125c-0.49 0-0.875 0.385-0.875 0.875s0.385 0.875 0.875 0.875 0.90625-0.385 0.90625-0.875-0.41625-0.875-0.90625-0.875zm-3 2.375c-0.49 0-0.90625 0.385-0.90625 0.875s0.41625 0.875 0.90625 0.875 0.875-0.385 0.875-0.875-0.385-0.875-0.875-0.875z" fill="#ba9b1f"/>
       <path d="m142.85 48.506c3.1206 0.32155 4.3527-1.4795 4.7557-2.8524 0.45946-1.5653 0.31703-4.0784-2.6658-4.8236-7.1219-1.5871-7.3212 7.1369-2.0898 7.676z" fill="#540"/>
       <path d="m138.37 38.081c-1.2687 1.9572 0.2887 3.1174 1.0202 3.3273 0.96505 0.27696 2.2227-0.14204 3.5299-0.0012 2.6144 0.28176 6.8898 1.5806 10.027 4.3801-1.9209-5.2613-8.3826-5.6428-13.193-5.8269-0.82381-0.03153-1.1875-1.1928-1.3839-1.8793z" color="#000000" fill="#540" style="text-decoration-line:none;text-indent:0;text-transform:none"/>
       <g transform="matrix(1.0833 0 0 1.0833 -12.468 -3.8185)" stroke-width=".87237">
        <path transform="matrix(1.0909 0 0 1.1437 -9.6092 -6.9561)" d="m143.14 45.049a2.5631 2.4448 0 0 1-2.5631 2.4448 2.5631 2.4448 0 0 1-2.5631-2.4448 2.5631 2.4448 0 0 1 2.5631-2.4448 2.5631 2.4448 0 0 1 2.5631 2.4448z" fill="#b97920"/>
        <path d="m143.61 43.295c-0.73013 0-1.2905 0.59132-1.2905 1.2792 0 0.68786 0.55111 1.2546 1.2905 1.2546 0.73942 0 1.2905-0.56672 1.2905-1.2546 0-0.68786-0.5604-1.2792-1.2905-1.2792z" fill="#110e00"/>
        <path d="m142.67 43.29c-0.387 0-0.64528 0.33173-0.64528 0.65899 0 0.32726 0.23885 0.63154 0.64528 0.63154 0.40642 0 0.64526-0.30427 0.64526-0.63154 0-0.32727-0.25826-0.65899-0.64526-0.65899z" fill="#fff"/>
       </g>
       <g transform="translate(-.0062295 .78398)" stroke-width=".94507">
        <path d="m169.08 62.817c3.8404 0.47142 7.1379-0.02365 10.237-2.1688l-4.0142 0.5205 1.9913-2.6262-2.1688 0.694c0.8692-1.7712 2.0905-3.5112 3.6356-4.7082-3.8765 0.04656-4.9782 3.4965-7.0189 6.455z" fill="#ba9b1f"/>
       </g>
       <path d="m168.26 68.105c-1.2411 4.7631-2.6322 11.568-13.865 13.249-1.6881 3.5358-7.615 3.236-9.6032 1.1867-1.8692 2.1352-9.4228 3.1819-11.806 1.8338-2.4354 0.4143-6.1863 4.3945-7.6061 5.3776-2.2286 1.5431-4.8622 2.5084-7.206 2.0164 1.7864-1.2325 2.444-2.4406 2.0916-3.982 0 0-3.2092-0.13494-4.5432 1.3292-0.66289 0.72756-1.8762 2.29-1.8762 2.29s-0.8257-1.4603-0.49885-2.7803c0.65273-2.6361 2.8516-3.0931 4.7-4.5163 0.45762-0.35237 0.65714-1.1128 0.32163-1.5829-1.25-1.736-2.1678-3.8205-1.504-6.3466-0.53533-1.3484-0.65997-2.5662 0.85559-2.9205 0.98777-0.23094 2.7148-0.31529 4.8837 0.55796 2.9368 1.1824 5.8523 3.3927 8.2362 2.5394 1.6082-0.88147 2.7347-10.189-1.7679-14.652-1.261-1.2498-2.7819-1.8918-4.6845-2.271-9.024-1.7986-14.312-9.569-11.926-15.736-0.45838-1.9954 0.32552-4.841 1.3504-5.9049-0.95207-2.6614-0.58895-4.2385 0.42924-5.0647 1.8723-1.5903 9.6217 0.34912 15.727 1.2859 8.3764 1.2853 10.077 1.1934 13.63 0.82075 14.349-1.5047 26.699 4.2038 27.878 4.3068 0 0-1.759 4.7473 1.1885 8.142-1.2024 1.4638-1.3396 2.2008-1.1884 3.2956 3.1054-1.6596 9.9851-2.941 14.385-1.5256 5.3708 10.685-5.4199 23.619-17.6 19.052z" fill="none" stroke="#806600" stroke-width=".94507"/>
       <path d="m172.06 49.75c-1.8075 1.0432-2.8788 2.3011-3.9688 3.3438s-2.1915 1.8886-4.0312 2.7812c2.2637 0.03312 3.5794-0.97256 4.7188-2.0625s2.1268-2.2326 3.7812-3.1875zm12.906 0.59375c-2.7994 3.6801-7.4135 3.791-10.031 5.375-1.7567 1.063-2.3356 3.5454-4.0625 4.6562-1.6215 1.043-5 2.75-5 2.75 5.699 2.7675 11.34 1.2911 14.719-2.6562 0 0-3.563 2.0268-5.5625 2.375-1.0075 0.17548-3.75-0.1875-3.75-0.1875s1.0867-0.90841 1.875-1.9375c0.68121-0.88933 1.3992-2.7781 2.2812-3.4688 2.6738-2.0938 6.152-2.1108 7.9062-4.4199 0.92572-1.2186 1.625-2.4864 1.625-2.4864z" color="#000000" fill="#806600" style="text-decoration-line:none;text-indent:0;text-transform:none"/>
      </g>
      <path transform="translate(-7.2579 8.2556)" d="m126.52 116.14c-2.2195 0.94482-12.027 4.7262-18.833 13.849-1.5239-3.1769-0.16164-7.2297 2.4437-10.914-2.1904 1.6639-4.1219 3.6695-5.7601 5.4221-10.485-1.5992-20.185 10.024-29.933 17.33-0.89853 3.5851 3.3909 5.9311 6.6605 6.6247 5.3378-1.2475 10.096-1.6035 15.21-3.1112 16.495-4.8638 17.636-13.415 19.312-13.781 5.3225 0.12848 8.0796 8.5808 6.2812 13.188 0.9833 0.5136 1.839 1.3038 2.75 1.2188 9.9564-0.92996 8.8175-13.157 6.7812-16.812 7.5204-1.6403 13.858 3.6979 13.719 12.75 0.35873 0.17633 0.69548 0.39732 1 0.65625 3.6585 3.1089 6.3531 4.1564 8.4688 4.4062s3.9408-0.23837 6.0625-1.25c1.749-0.83394 3.6929-2.1371 5.7188-3.375-0.27338-0.14913-0.50714-0.17379-0.78125-0.34375-2.556-1.5848-4.9881-4.3036-6.4688-8.0312-2.6811-0.0556-5.3841-0.38008-7.9375-1.6562-3.0036-1.5012-5.4713-4.2287-7.0625-7.7188-2.3026-0.52225-5.1697-1.7552-7.4062-4.5312-3.6648-4.6446-3.1134-7.4859-1.75-12.625-7.3065-0.91586-14.382 2.7542-19.947 7.3749 4.3682-2.334 8.8306-2.6388 11.471 1.3303zm-23.458 19.62c-4.9662 0.16021-20.184 7.1204-22.253 8.4666-2.3598-12.451 18.614-16.195 22.253-8.4666zm-42.598 11.612c-1.4219 0.0439-2.9077 0.3809-4.0312 0.65625-0.28605 0.0788-0.57937 0.13114-0.875 0.15625-0.15724 0.78954-0.51532 1.5382-1.0312 2.1562 0.55876 0.62538 0.95072 1.3984 1.125 2.2188 0.49103 0.0114 0.93891-0.0513 1.375-0.0312 0.32889-0.2955 0.63356-0.64104 0.96875-0.9375 1.1988-1.0603 2.6708-1.9212 4.5625-2.4375-0.30765-0.54214-0.50165-1.1257-0.71875-1.7188-0.4489-0.0659-0.90103-0.0771-1.375-0.0625zm115.53 3.4375c-8.2295 8.057-16.248 13.509-27.281 10.5-1.7074 1.3962-3.5436 2.5696-5.5625 3.4688 1.604 2.4112 1.7982 3.5155 1.4375 6.125 2.1051 0.28477 3.9029 2.1097 4.1562 4.2188 5.4228 0.63095 9.3237-1.9206 13.688-4.25 1.3019 3.4699 1.9538 8.0281-0.40625 11.25 1.2516 1.214 1.7636 3.1368 1.2812 4.8125 0.35163-0.10684 0.43509-0.20067 0.90625-0.3125 2.614-0.62049 4.4375-0.34375 4.4375-0.34375 1.952 0.0164 3.8264 1.324 4.5 3.1562 0.6736 1.8322 0.10156 4.0668-1.375 5.3438-1.2505 1.0866-1.7347 1.9519-1.875 2.6562 0.16619 2e-3 0.14141-0.0377 0.3125-0.0312 2.3554 0.0882 5.8731 0.24977 8.4688 3.7188 2.3879 3.1914 2.9468 7.9416 4.4062 10.875 5.6735-2.5314 0.25881-7.894 2.75-10.406 8.9548 0.62322 17.433 9.5514 15.375 17.469-1.1216 4.0702-3.7358 6.6073-5.75 8.75s-3.4772 3.9297-3.8125 4.9062c-1.709 4.9781-1.1926 9.0643 0.46875 12.969s4.6684 7.521 8 10.5c0.8986-2.0812 1.9352-4.145 3.5312-5.9062 1.5578-1.7191 3.0799-2.5507 4.4375-3.3438s2.5312-1.3438 2.5312-1.3438c1.4396-0.70677 3.2476-0.63399 4.625 0.1875 1.3774 0.82148 2.2971 2.3506 2.4062 3.9062 11.657-9.8945 1.4935-18.502-7.875-23.531 19.005-0.24495 18.944 8.6836 23.531 15.406 1.191 1.2543 1.8908 1.681 3.5625 2.125 1.2252 0.32538 3.8125 0.1875 3.8125 0.1875l-4.5625-7.1875c-6.5899-12.606-12.97-21.611-21.969-25.344-3.0873-1.2807-7.3401-4.0195-11.906-8.5625s-9.1819-10.849-11.094-18.844c-1.1053-4.6223-0.84418-7.2835-0.25-10.969-1.1638-4.1953-3.7346-3.3632-5.4688-6.4062-1.5338-2.6914-3.5286-4.3957-3.875-6.6875-0.15519-1.0267 0.0427-3.3608-0.0312-4.0938-2.1159-0.91852-4.5602-1.9748-5.5312-4.9688zm38.125 106.59c-0.4196 2.1125 0.33589 4.3872 1.625 6.2188 0.7904 1.123 2.7079 2.413 5.1875 3.875 0.71673 0.42259 2.2978 0.85308 4.4375 1.4375s5.0447 1.4156 7.4062 3.9688c2.5835 2.7931 4.0263 6.2385 4.0312 9.625 5e-3 3.3865-1.299 6.464-3.0938 9.0312-2.6033 3.7238-6.2792 6.6832-10.312 9.0312 0.42347 0.70577 0.66263 1.5211 0.6875 2.3438 1.8272-0.66602 4.0378-0.0939 5.3125 1.375 1.3303-1.5481 2.5057-3.1596 3.5938-4.9688 2.5333-4.2121 4.7476-9.2996 9-14.156 1.6752-1.9133 3.3075-2.6051 4.4062-3.2812 0.45512-0.28005 0.65958-0.52613 0.8125-0.6875 0.0894-0.38648 0.17937-0.7175 0.21875-1.2812 0.0447-0.64011-0.12446-1.3064-0.0625-1.2812-0.58148-0.99511-1.7272-1.8944-3.7188-3.1875-1.7949-1.1654-4.2102-2.6358-6.25-5.0938-1.9065 0.85259-4.3474-1.0232-5.6875-2.625 0 0-1.3509-0.33559-2.8438-2.4375-1.4182-1.9968-2.9826-4.2858-3.9688-7.0312-0.5971 0.27081-1.2205 0.58254-1.75 0.78125-1.6779 0.62971-3.0938 0.9375-3.0938 0.9375-2.3288 0.49613-4.895-1.0256-5.9375-2.5938z" fill="#ffea80"/>
      <path d="m185.75 226.75c-0.80831 1.4232-2.0528 2.4806-3.375 3.5625s-2.7238 2.1891-3.6875 3.7812c-3.7744 6.2361-6.6026 14.067-5.0938 22.344l0.96875-0.15625c-1.4491-7.9486 1.3031-15.58 5-21.688 0.84906-1.4028 2.1126-2.4472 3.4375-3.5312s2.7356-2.1743 3.625-3.8125c1.3723-2.5276 1.8112-5.0758 0.125-7.3281 0.59901 2.3982-0.0501 5.1556-1 6.8281z" color="#000000" fill="#806600" style="text-decoration-line:none;text-indent:0;text-transform:none"/>
      <g transform="rotate(61.294 24.51 145.09)" stroke-width=".94507">
       <path d="m23.963 138.21c2.5447 0.91939 1.9822 4.5162 0.10416 4.9368-1.4188 1.2221-4.1193-1.6214-9.3824 2.1278 0.57204-4.347 6.4454-7.4891 9.2782-7.0646z" fill="#e94545" stroke="#c41d1d" stroke-width=".94507"/>
       <path d="m23.497 139.16c1.5388 0.37174 1.1986 1.826 0.06299 1.9961-0.85797-0.24916-3.3487-0.19819-7.0459 1.8895 1.3751-1.9864 5.3271-4.4575 6.983-3.8856z" fill="#ef7575"/>
      </g>
      <g transform="rotate(34.264 3.7558 149.68)" stroke-width=".94507">
       <path d="m23.963 138.21c2.5447 0.91939 1.9822 4.5162 0.10416 4.9368-1.4188 1.2221-4.1193-1.6214-9.3824 2.1278 0.57204-4.347 6.4454-7.4891 9.2782-7.0646z" fill="#e94545" stroke="#c41d1d" stroke-width=".94507"/>
       <path d="m23.497 139.16c1.5388 0.37174 1.1986 1.826 0.06299 1.9961-0.85797-0.24916-3.3487-0.19819-7.0459 1.8895 1.3751-1.9864 5.3271-4.4575 6.983-3.8856z" fill="#ef7575"/>
      </g>
      <g transform="rotate(17.638 -53.572 167.18)" stroke-width=".94507">
       <path d="m23.963 138.21c2.5447 0.91939 1.9822 4.5162 0.10416 4.9368-1.4188 1.2221-4.1193-1.6214-9.3824 2.1278 0.57204-4.347 6.4454-7.4891 9.2782-7.0646z" fill="#e94545" stroke="#c41d1d" stroke-width=".94507"/>
       <path d="m23.497 139.16c1.5388 0.37174 1.1986 1.826 0.06299 1.9961-0.85797-0.24916-3.3487-0.19819-7.0459 1.8895 1.3751-1.9864 5.3271-4.4575 6.983-3.8856z" fill="#ef7575"/>
      </g>
      <g transform="rotate(-38.791 185.29 104.23)" stroke-width=".94507">
       <g transform="rotate(61.294 -68.852 236.09)">
        <g transform="translate(-2.3273 -2.7693)" stroke-width=".94507">
         <path d="m23.963 138.21c2.5447 0.91939 1.9822 4.5162 0.10416 4.9368-1.4188 1.2221-4.1193-1.6214-9.3824 2.1278 0.57204-4.347 6.4454-7.4891 9.2782-7.0646z" fill="#e94545" stroke="#c41d1d" stroke-width=".94507"/>
         <path d="m23.497 139.16c1.5388 0.37174 1.1986 1.826 0.06299 1.9961-0.85797-0.24916-3.3487-0.19819-7.0459 1.8895 1.3751-1.9864 5.3271-4.4575 6.983-3.8856z" fill="#ef7575"/>
        </g>
       </g>
       <g transform="rotate(34.264 -184.66 267.66)">
        <path d="m23.963 138.21c2.5447 0.91939 1.9822 4.5162 0.10416 4.9368-1.4188 1.2221-4.1193-1.6214-9.3824 2.1278 0.57204-4.347 6.4454-7.4891 9.2782-7.0646z" fill="#e94545" stroke="#c41d1d" stroke-width=".94507"/>
        <path d="m23.497 139.16c1.5388 0.37174 1.1986 1.826 0.06299 1.9961-0.85797-0.24916-3.3487-0.19819-7.0459 1.8895 1.3751-1.9864 5.3271-4.4575 6.983-3.8856z" fill="#ef7575"/>
       </g>
       <g transform="rotate(17.638 -440.73 347.84)">
        <path d="m23.963 138.21c2.5447 0.91939 1.9822 4.5162 0.10416 4.9368-1.4188 1.2221-4.1193-1.6214-9.3824 2.1278 0.57204-4.347 6.4454-7.4891 9.2782-7.0646z" fill="#e94545" stroke="#c41d1d" stroke-width=".94507"/>
        <path d="m23.497 139.16c1.5388 0.37174 1.1986 1.826 0.06299 1.9961-0.85797-0.24916-3.3487-0.19819-7.0459 1.8895 1.3751-1.9864 5.3271-4.4575 6.983-3.8856z" fill="#ef7575"/>
       </g>
      </g>
     </g>
    </g>
   </g>
  </g>
 </g>
</svg>
