<?xml version="1.0" encoding="UTF-8" standalone="no"?>
<svg
   xmlns:dc="http://purl.org/dc/elements/1.1/"
   xmlns:cc="http://creativecommons.org/ns#"
   xmlns:rdf="http://www.w3.org/1999/02/22-rdf-syntax-ns#"
   xmlns:svg="http://www.w3.org/2000/svg"
   xmlns="http://www.w3.org/2000/svg"
   xmlns:xlink="http://www.w3.org/1999/xlink"
   xmlns:sodipodi="http://sodipodi.sourceforge.net/DTD/sodipodi-0.dtd"
   xmlns:inkscape="http://www.inkscape.org/namespaces/inkscape"
   version="1.0"
   width="532.38257"
   height="537.44897"
   id="svg2"
   sodipodi:version="0.32"
   inkscape:version="0.92.4 (5da689c313, 2019-01-14)"
   sodipodi:docname="Coat_of_arms_of_Cyprus_(2006).svg"
   inkscape:output_extension="org.inkscape.output.svg.inkscape">
  <metadata
     id="metadata128">
    <rdf:RDF>
      <cc:Work
         rdf:about="">
        <dc:format>image/svg+xml</dc:format>
        <dc:type
           rdf:resource="http://purl.org/dc/dcmitype/StillImage" />
        <dc:title />
      </cc:Work>
    </rdf:RDF>
  </metadata>
  <defs
     id="defs126" />
  <sodipodi:namedview
     inkscape:window-height="837"
     inkscape:window-width="1440"
     inkscape:pageshadow="2"
     inkscape:pageopacity="0.0"
     guidetolerance="10.0"
     gridtolerance="10.0"
     objecttolerance="10.0"
     borderopacity="1.0"
     bordercolor="#666666"
     pagecolor="#ffffff"
     id="base"
     showgrid="false"
     inkscape:zoom="1.9224608"
     inkscape:cx="278.47521"
     inkscape:cy="330.07945"
     inkscape:window-x="-8"
     inkscape:window-y="-8"
     inkscape:current-layer="g1210"
     inkscape:window-maximized="1"
     fit-margin-top="5"
     fit-margin-left="5"
     fit-margin-right="5"
     fit-margin-bottom="5"
     showguides="false" />
  <use
     style="fill:#4e5a30;fill-opacity:1;stroke-width:1.11522841"
     xlink:href="#use3289"
     height="660"
     width="600"
     y="0"
     x="0"
     id="use3293"
     transform="matrix(0.84426124,-0.30207136,0.3020684,0.8442695,-118.27074,87.048818)" />
  <use
     style="fill:#4e5a30;fill-opacity:1;stroke-width:1.11522841"
     xlink:href="#use3289"
     height="660"
     width="600"
     y="0"
     x="0"
     id="use3297"
     transform="matrix(0.863177,-0.46276927,0.45129477,0.78136181,-108.29645,187.86621)" />
  <use
     style="fill:#4e5a30;fill-opacity:1;stroke-width:1.11522841"
     xlink:href="#use3295"
     height="660"
     width="600"
     y="0"
     x="0"
     id="use3299"
     transform="matrix(0.89667294,0,0,0.89668171,7.027202,19.428529)" />
  <g
     id="g1792"
     transform="translate(5.000002,4.9999998)">
    <g
       transform="translate(111.19127,24.201776)"
       id="g1210">
      <path
         inkscape:connector-curvature="0"
         d="M 149.99998,350.62728 C 72.607847,298.60359 5.3263228,223.78506 4.0395177,4.3847913 90.806947,43.356603 209.00919,42.621286 295.96045,4.3847913 294.67364,223.78506 227.20829,298.60359 149.99998,350.62728 Z"
         id="path2458"
         style="display:inline;fill:#d87900;fill-opacity:1;fill-rule:evenodd;stroke:#554400;stroke-width:2.53000021;stroke-linecap:butt;stroke-linejoin:miter;stroke-miterlimit:4;stroke-dasharray:none;stroke-opacity:1" />
      <path
         id="path4519"
         d="m 116.88164,303.97461 c 0,-0.53917 -0.10783,-1.94101 0,-3.88203 -0.10783,-1.94102 0,-4.52904 0,-7.65623 v -6.79356 c 0,-3.01936 0,-5.82305 0.21567,-8.30324 0.10783,-2.48019 0.10783,-4.20554 0.21567,-4.96038 h -0.10784 c -0.647,0.64701 -1.83318,1.72535 -3.66636,3.4507 -1.94102,1.61751 -3.66637,3.34286 -5.60738,4.85254 l 1.83318,2.37236 c 1.40184,-1.29402 2.37235,-2.26452 3.12719,-3.01936 v 11.43043 c 0,3.01936 -0.10783,5.71522 -0.10783,7.97974 -0.10784,2.48018 -0.10784,3.98986 -0.21567,4.63687 z"
         style="fill:#ffffff;fill-opacity:1;stroke:none;stroke-width:1.07834268"
         inkscape:connector-curvature="0" />
      <path
         id="path4521"
         d="m 130.68443,305.69996 c 2.15668,-1.40184 4.20553,-3.34286 6.14655,-5.71521 1.94102,-2.48019 3.4507,-5.17605 4.74471,-8.08757 1.29401,-3.01936 1.83318,-6.03872 1.83318,-9.16592 -0.10783,-2.91152 -1.07834,-5.28388 -2.80369,-7.11706 -1.83318,-1.72535 -4.0977,-2.58802 -7.00923,-2.58802 -2.80369,0.10783 -5.28388,1.29401 -7.33273,3.34286 -2.04885,1.94102 -3.01936,4.52904 -3.01936,7.44057 0.10784,2.91152 1.50968,5.06821 4.0977,6.68572 2.58803,1.61751 5.71522,2.26452 9.70509,2.04885 -1.29401,2.48019 -2.58802,4.63688 -4.31337,6.47006 -1.72535,1.72535 -3.23503,3.01936 -4.42121,3.88203 z m 8.41107,-22.21386 c 0,1.29401 0,2.48019 -0.21567,3.55853 -0.21567,0.97051 -0.43134,1.83319 -0.647,2.48019 -2.80369,0.43134 -5.39172,0 -7.33273,-1.07834 -2.15669,-1.18618 -3.34287,-2.91153 -3.4507,-5.49955 0,-1.72535 0.53917,-3.34286 1.61751,-4.63687 1.07835,-1.29401 2.48019,-1.94102 4.31337,-2.15669 1.61752,0 3.01936,0.53917 3.98987,1.83319 1.07834,1.18617 1.61752,3.12719 1.72535,5.49954 z"
         style="fill:#ffffff;fill-opacity:1;stroke:none;stroke-width:1.07834268"
         inkscape:connector-curvature="0" />
      <path
         id="path4523"
         d="m 160.87802,271.40866 c -2.04885,1.50968 -4.0977,3.4507 -6.14655,5.82306 -1.83318,2.48018 -3.55853,5.17604 -4.74471,8.08757 -1.29401,3.01936 -1.94102,5.93088 -1.94102,8.84241 0.10784,1.83318 0.32351,3.23502 0.86268,4.52904 0.43134,1.29401 1.29401,2.26451 2.15668,3.23502 0.86268,0.75484 1.94102,1.40185 2.91153,1.72535 1.07834,0.3235 2.37235,0.53917 3.66636,0.53917 2.69586,-0.21567 5.28388,-1.29401 7.33274,-3.34286 2.15668,-1.94102 3.34286,-4.52904 3.34286,-7.76407 -0.21567,-2.91152 -1.61752,-5.06821 -3.98987,-6.68572 -2.58802,-1.61752 -5.82305,-2.37236 -9.81292,-2.15669 1.18618,-2.37235 2.58802,-4.4212 4.31337,-6.14655 1.83318,-1.72535 3.34286,-3.01936 4.52904,-3.66637 z m -8.73457,22.42953 c 0,-1.40184 0,-2.58802 0.21567,-3.55853 0.21566,-1.07834 0.53917,-2.04885 0.86267,-2.91152 2.80369,-0.32351 5.28388,0.10783 7.33273,1.29401 2.15669,1.18618 3.34286,2.91152 3.4507,5.49955 0,1.72534 -0.53917,3.23502 -1.61752,4.52904 -1.07834,1.40184 -2.69585,2.15668 -4.52904,2.15668 -1.61751,0.10783 -3.01936,-0.53917 -3.98986,-1.72535 -1.07835,-1.29401 -1.61752,-3.01936 -1.72535,-5.28388 z"
         style="fill:#ffffff;fill-opacity:1;stroke:none;stroke-width:1.07834268"
         inkscape:connector-curvature="0" />
      <path
         id="path3961"
         d="m 183.52322,272.59484 c -2.91153,0 -5.17605,1.07834 -6.68573,3.01936 -1.94101,2.48019 -3.45069,6.47006 -3.45069,12.07744 0,5.60738 1.40184,10.13642 3.12719,12.29311 1.72535,2.26452 4.0977,3.34286 7.00923,3.34286 2.80369,0 5.06821,-0.97051 6.57789,-3.01936 1.94102,-2.48019 3.4507,-7.00923 3.4507,-12.61661 0,-5.60738 -1.50968,-9.59725 -3.34287,-11.9696 -1.61751,-2.04886 -3.88203,-3.1272 -6.68572,-3.1272 z m -0.64701,3.66637 c 0.86268,0 1.94102,0.10783 2.69586,0.53917 0.86267,0.3235 1.61751,1.40184 2.26452,2.80369 0.64701,1.61751 0.86267,3.55853 1.29401,7.5484 0.21567,4.0977 0,7.11706 -0.43134,8.84241 -0.21566,1.40184 -0.75484,2.15668 -1.83318,2.91152 -0.53917,0.53918 -1.50968,0.86268 -2.37235,0.97051 -1.18618,0 -2.15669,-0.21567 -2.91153,-0.53917 -0.97051,-0.43134 -1.72535,-1.50968 -2.37235,-2.91152 -0.53917,-1.50968 -0.97051,-4.20554 -1.40185,-8.41108 -0.21567,-4.0977 0.10784,-6.25439 0.64701,-7.97973 0.3235,-1.29401 0.86267,-2.48019 1.72535,-2.91153 0.53917,-0.53917 1.61751,-0.75484 2.69585,-0.86267 z"
         style="fill:#ffffff;fill-opacity:1;stroke:none;stroke-width:1.07834268"
         inkscape:connector-curvature="0" />
      <g
         id="g18953"
         transform="matrix(1.838293,0,0,1.838293,-159.38473,-95.342604)">
        <path
           d="m 171.1,141.2 c 15.9,-13.1 31.7,-31.5 37.6,-63.85 0.2,-1.6 4.2,-1.6 4.9,-0.5 0.7,1.3 2,3.8 1,6.7 3,-0.9 4.3,0.2 3.1,6.9 4.2,-0.1 2.7,5.2 0.5,11.85 2.7,0.1 2.8,3.2 -1.2,10.3 6.3,1.5 -4.1,11.9 -6,13.4 5.9,-0.1 -6.2,10.3 -16.2,18.2"
           id="path18905"
           style="display:inline;fill:#ffffff;fill-opacity:1"
           inkscape:connector-curvature="0" />
        <path
           style="fill:#ffffff;fill-opacity:1"
           d="m 229.1875,44.5 c -2.30437,-0.04322 -4.69944,0.689286 -4.90625,2.34375 -5.13785,28.171066 -14.39061,50.585357 -25.78125,68.9375 l 2.3125,0.6875 c 0,0 -0.6732,0.67129 13.75,-26.84375 14.4232,-27.515035 8.6592,-23.733046 12.20952,-38.15625 1.56398,-6.353672 4.22001,-3.517241 5.32642,1.445641 0.84501,3.79032 -0.231,9.74564 2.65156,8.304359 6.65687,-3.328435 2.21875,13.53125 2.21875,13.53125 0,0 3.11221,1.122059 6.21875,-0.875 3.10654,-1.997059 -6.4375,23.75 -6.4375,23.75 0,0 0.4589,1.328431 5.5625,-2 5.10359,-3.328432 -6.8815,19.51573 -4.21875,18.40625 2.66274,-1.10948 4.65078,3.55225 -3.78125,13.09375 -8.43202,9.5415 -9.54089,12.20323 -6.65625,11.09375 1.50852,-0.5802 1.87908,1.49902 1.875,3.625 2.49938,-3.45171 2.65079,-5.62491 -1.03125,-5.5625 3.49276,-2.75744 22.6125,-21.86756 11.03125,-24.625 7.35317,-13.05188 7.15089,-18.753671 2.1875,-18.9375 4.04424,-12.224648 6.81458,-21.965079 -0.90625,-21.78125 2.20595,-12.316563 -0.17262,-14.341964 -5.6875,-12.6875 1.83829,-5.33105 -0.55694,-9.922719 -1.84375,-12.3125 -0.56298,-0.884679 -2.30146,-1.403885 -4.09375,-1.4375 z"
           transform="matrix(0.54398292,0,0,0.54398292,86.702571,51.864748)"
           id="path18842"
           inkscape:connector-curvature="0"
           sodipodi:nodetypes="scccsssscscsssscccccccs" />
        <path
           style="fill:#ffffff;fill-opacity:1"
           d="m 199.28125,114.53125 c -12.80031,21.01409 -28.42873,36.75535 -44.125,49.6875 l 8.28125,1.0625 c 1.51993,-1.32082 4.50199,-2.34573 6.03125,-3.875 1.3502,-1.3502 2.37264,-4.27889 3.75,-5.65625 3.54222,-3.54222 8.00398,-5.78523 11.3125,-9.09375 7.29262,-7.29261 13.28144,-18.96893 19.125,-24.8125 0.97596,-0.97595 -2.02597,-4.83848 -2.5,-5.3125 -0.7188,-0.7188 -1.32512,-1.44393 -1.875,-2 z"
           transform="matrix(0.54398292,0,0,0.54398292,86.702571,51.864748)"
           id="path18898"
           inkscape:connector-curvature="0" />
        <path
           style="fill:#c8c8c8;fill-opacity:1"
           d="m 201.15063,116.83216 c 1.30157,5.78233 0.31187,10.6714 -2.51046,13.49373 -1.2552,1.40204 -0.20058,3.30128 0.87183,4.99196 4.88687,8.62218 -9.51769,16.79725 -7.77559,27.33021 0.31248,0.31249 1.15287,-3.34952 1.25523,-3.45188 2.49541,-2.49541 3.34279,-6.99939 4.70711,-9.72803 2.48356,-4.96712 2.81886,-5.63773 5.33473,-10.66946 0.59059,-1.18119 -2.30229,-5.43727 -1.25523,-7.53138 2.70561,-5.41123 5.18758,-9.78299 -0.62762,-14.43515 z"
           id="path18900"
           inkscape:connector-curvature="0"
           transform="matrix(0.54398292,0,0,0.54398292,86.702571,51.864748)"
           sodipodi:nodetypes="ccccssssc" />
        <path
           inkscape:connector-curvature="0"
           style="fill:none;stroke:#525252;stroke-width:0.92477095;stroke-linecap:round;stroke-linejoin:round;stroke-miterlimit:4;stroke-dasharray:none;stroke-opacity:1"
           d="m 191.69814,142.01962 c -0.23464,-2.40506 0.41062,-5.74868 2.11176,-8.2124 2.81568,-3.98888 4.81012,-7.6258 2.11176,-9.50292 2.28774,-3.2263 2.81568,-7.09786 -0.52794,-9.62024"
           id="path3237" />
        <path
           style="display:inline;fill:none;fill-opacity:1;stroke:#343434;stroke-width:0.92477095;stroke-linecap:round;stroke-linejoin:round;stroke-miterlimit:4;stroke-dasharray:none;stroke-opacity:1"
           id="path3235"
           d="m 171.1,141.2 c 15.9,-13.1 31.7,-31.5 37.6,-63.85 0.2,-1.6 4.2,-1.6 4.9,-0.5 0.7,1.3 2,3.8 1,6.7 3,-0.9 4.3,0.2 3.1,6.9 4.2,-0.1 2.7,5.2 0.5,11.85 2.7,0.1 2.8,3.2 -1.2,10.3 6.3,1.5 -4.1,11.9 -6,13.4 5.9,-0.1 -6.2,10.3 -16.2,18.2"
           inkscape:connector-curvature="0" />
        <path
           sodipodi:nodetypes="cccc"
           inkscape:connector-curvature="0"
           style="fill:#525252;fill-opacity:1;stroke:none"
           d="m 214.48532,82.023369 -3.13608,13.420211 c 0,0 3.46094,-11.464106 3.8129,-11.640086 -0.88648,0.177646 -0.71908,-0.874239 -0.67682,-1.780125 z"
           id="path3263" />
        <path
           sodipodi:nodetypes="cccc"
           inkscape:connector-curvature="0"
           style="fill:#525252;fill-opacity:1;stroke:none"
           d="m 217.65296,88.368814 -4.30928,12.823446 4.86878,-10.2655 c -0.49205,-0.241544 -0.54159,-1.368121 -0.5595,-2.557946 z"
           id="path4674" />
        <path
           sodipodi:nodetypes="ccccc"
           inkscape:connector-curvature="0"
           style="fill:#525252;fill-opacity:1;stroke:none"
           d="m 218.60168,100.10081 -6.02058,10.77035 6.05045,-8.04828 c -0.9465,-0.14594 -0.72549,-1.2696 -0.0299,-2.72207 z"
           id="path4676" />
        <path
           sodipodi:nodetypes="cccc"
           inkscape:connector-curvature="0"
           style="fill:#525252;fill-opacity:1;stroke:none"
           d="m 217.5458,110.54737 -4.61274,7.53897 4.2286,-5.05492 c -0.44509,-0.94873 0.10623,-1.53533 0.38414,-2.48405 z"
           id="path4678" />
      </g>
      <path
         style="color:#000000;clip-rule:nonzero;display:inline;overflow:visible;visibility:visible;opacity:1;isolation:auto;mix-blend-mode:normal;color-interpolation:sRGB;color-interpolation-filters:linearRGB;solid-color:#000000;solid-opacity:1;vector-effect:none;fill:#e6e6e6;fill-opacity:1;fill-rule:nonzero;stroke:#343434;stroke-width:2.70000005;stroke-linecap:round;stroke-linejoin:round;stroke-miterlimit:4;stroke-dasharray:none;stroke-dashoffset:0;stroke-opacity:1;marker:none;paint-order:markers stroke fill;color-rendering:auto;image-rendering:auto;shape-rendering:auto;text-rendering:auto;enable-background:accumulate"
         d="m 363.9861,172.81205 c -0.26009,0.58518 -4.15832,7.00181 -3.57594,9.88326 0.31814,1.57407 2.53515,4.09571 2.53515,4.09571 0,0 2.76133,-4.60078 2.47266,-7.08594 -0.26085,-2.24561 -1.43187,-6.89303 -1.43187,-6.89303 z m -9.11305,1.97115 c 0,0 -5.14887,7.82981 -5.14453,11.49219 0.004,2.7244 2.54101,7.76758 2.54101,7.76758 0,0 3.55544,-4.89479 3.81445,-7.76758 0.32518,-3.60668 -1.21093,-11.49219 -1.21093,-11.49219 z m 17.93554,5.60157 -13.36132,8.93945 c 0,0 -0.75506,0.59446 -2.34766,1.8418 -1.6367,1.28189 -4.12613,3.22846 -5.11914,4.00586 -5.30567,4.15354 -9.3635,6.59712 -14.5918,10.84765 -5.29775,4.30698 -15.17578,13.75586 -15.17578,13.75586 l -8.24414,8.7793 0.86328,0.39843 8.24414,-8.9121 c 0,0 7.60848,-7.65243 12.94141,-12.20118 0.0966,0.66529 1.75135,4.45038 3.63281,5.82813 2.49374,1.8261 8.33203,1.55664 8.33203,1.55664 0,0 -1.8707,-5.36121 -4.09765,-6.7793 -2.0136,-1.28222 -6.60446,-0.9574 -7.54102,-0.87695 0.4664,-0.39327 0.9497,-0.80662 1.36914,-1.13867 1.65307,-1.30869 1.92478,-1.5538 3.92969,-2.97657 0.23169,0.36449 5.68071,5.0601 8.81054,6.4043 2.98481,1.28191 9.74415,-0.0723 9.74415,-0.0723 0,0 -6.07634,-4.93295 -9.31055,-6.30274 -2.67363,-1.13235 -8.18518,-0.29923 -9.01563,-0.1875 4.24124,-3.00536 8.56833,-6.14131 10.65821,-8.11914 0.99008,-0.93701 3.17563,-2.47232 4.64062,-3.6875 1.50453,-1.24799 15.63867,-11.10351 15.63867,-11.10351 z m -30.25976,0.34765 c 0,0 -2.53543,7.53869 -2.47266,11.43946 0.0516,3.20232 2.33008,9.32031 2.33008,9.32031 v 0.42578 c 0,0 4.28665,-6.78025 4.30859,-10.5918 0.0218,-3.79407 -4.16601,-10.59375 -4.16601,-10.59375 z m 28.19922,6.83985 c -2.97369,-0.14057 -5.85086,1.15244 -8.70117,2.01171 -0.71298,0.21494 -2.0918,0.78321 -2.0918,0.78321 0.97532,0.065 5.08876,3.39924 7.99804,3.51172 3.73978,0.14459 10.59766,-3.70703 10.59766,-3.70703 0,0 -5.06427,-2.47016 -7.80273,-2.59961 z m -38.11328,2.96484 c 0,0 -1.98155,7.42367 -1.13086,11.01562 0.72684,3.06904 2.14257,7.24415 2.14257,7.24415 0,0 6.4615,-6.54674 5.625,-10.20899 -0.77447,-3.39068 -6.63671,-8.05078 -6.63671,-8.05078 z m 26.02148,5.63281 c -2.89222,0.0792 -6.48084,0.51584 -6.85156,0.46289 0,0 4.18739,5.30404 7.20312,6.42578 2.71398,1.0095 10.43946,-1.18164 10.43946,-1.18164 0,0 -5.18099,-4.2141 -8.19727,-5.37109 -0.7223,-0.27707 -1.62969,-0.36233 -2.59375,-0.33594 z"
         transform="translate(-116.19127,-29.201776)"
         id="path89"
         inkscape:connector-curvature="0"
         sodipodi:nodetypes="csccccccsccccccccccccccccccccccccccccccsccscscccscccsccc" />
      <g
         id="g18965"
         transform="matrix(1.838293,0,0,1.838293,-159.38473,-95.342604)">
        <path
           d="m 172.1,142 c -10,-2.3 -37.1,-38.6 -48.2,-56.65 -1.1,-1.6 -2.4,-2.2 -3,-2.4 -1.4,-0.4 -6.2,-0.9 -2.7,8.3 -5.9,0.9 -4.7,5.3 -2,10.25 -4.9,3.4 -2.6,6.7 0,10.1 -2.4,3.4 -1.3,6.5 1.1,9.5 -0.8,2.3 -1.4,4.7 2.1,8.3 -0.3,2.2 -1.7,4.4 3,7.4 -1.8,4.3 0,5.7 2.3,6.8 0.2,6.7 3,7.6 5.9,7.7 -0.3,2.1 0.5,4.1 4.2,3.8 0.5,2.4 1.4,4.5 4.8,4.5 4.6,0.8 7.8,2.8 9.1,5.9 l -8,11 c -1.4,1.6 0.9,7 5.4,5.9 1.3,2.3 2.2,5.1 7.4,3.3 2.5,3.5 5.4,4.4 8.6,1.5 2.3,2.7 5.6,3 7.4,0 2.7,1.1 6.5,1.2 7.4,-2.1 3.1,0.4 7.2,0.9 8.3,-3.8 3.3,1.5 6.3,0.7 6.2,-4.5 l -15.8,-17.5 c 1.7,0 3.4,-0.2 4.7,-1.3 1.9,-0.2 3.5,-0.8 4.9,-1.9 1.9,0 3.7,-0.7 5.4,-2.1 h 15.6 c 0,0 -2.76112,-3.57122 -6.88433,-5.16995 -1.36827,-0.53053 -0.023,-2.66979 -0.88429,-3.77822 -1.36393,-1.75525 -4.5435,-2.82348 -6.13138,-2.85183 -6.9,-0.4 -11.8,1.7 -20.2,-0.2 z"
           id="path18890"
           style="display:inline;fill:#ededed;fill-opacity:1;stroke:#343434;stroke-width:0.92477095;stroke-linecap:round;stroke-linejoin:round;stroke-miterlimit:4;stroke-dasharray:none;stroke-opacity:1"
           inkscape:connector-curvature="0"
           sodipodi:nodetypes="cccccccccccccccccccccccccccsscc" />
        <path
           style="fill:#ffffff;fill-opacity:1"
           d="m 57.8125,72.40625 c -0.803863,0.126326 -1.524466,0.304408 -2.1875,0.5 14.727925,24.732527 34.909583,50.59141 2.1875,-0.5 z M 53.75,91.59375 c -1.939582,1.422806 -3.228875,2.841214 -3.96875,4.25 8.69118,5.13712 13.148609,14.68615 18.9375,20.6875 5.333546,5.33354 10.530611,1.71811 5.96875,-2.84375 -1.594255,-1.59426 -5.626769,-7.36026 -8.46875,-8.78125 C 63.672838,103.63329 58.419954,94.38342 53.75,91.59375 Z m -1.21875,15.9375 c 0.400197,0.5574 0.825312,1.12759 1.25,1.6875 -0.314272,-0.80676 -0.747162,-1.6635 -1.25,-1.6875 z m 1.53125,2.5 c -2.175444,3.18809 -2.652277,6.23616 -2.03125,9.1875 8.386473,6.53586 24.019588,14.25011 28.625,19.59375 1.590623,-3.97656 -2.430279,-6.81642 -6.15625,-10.1875 -5.253467,-4.75308 -11.499271,-9.65552 -14.25,-12.40625 -1.924521,-1.92452 -4.101312,-3.78881 -5.96875,-5.65625 -0.03846,-0.0384 -0.116756,-0.23785 -0.21875,-0.53125 z m 2,17.84375 c -0.45133,1.34951 -0.856935,2.71726 -0.9375,4.1875 1.159822,1.46049 2.445969,2.78972 2.625,2.96875 3.575604,3.5756 20.831117,13.75424 27.28125,16 l 0.625,1.5625 c -0.655682,-1.6392 -0.146316,-4.83382 -1.25,-5.9375 C 77.98119,140.23119 68.728625,133.92681 60.875,130 c -0.584663,-0.29233 -2.835937,-1.62308 -4.8125,-2.125 z m 4,14.78125 c -0.225802,1.54287 -0.679047,3.08981 -0.71875,4.71875 3.561028,2.68633 9.923766,5.97751 13.46875,7.75 3.547429,1.77372 9.547212,4.22112 13.5,3.125 -3.25358,0 -1.954286,-0.98554 -3.46875,-2.5 -2.462425,-2.46243 -9.027631,-3.09014 -11.28125,-5.34375 -1.412093,-1.4121 -8.607463,-6.1182 -11.5,-7.75 z m 5.28125,13.28125 c 0.09819,0.0642 0.18,0.12287 0.28125,0.1875 -0.675126,1.6128 -1.07746,3.00921 -1.25,4.21875 6.286913,2.90847 19.705528,5.10577 24.34375,5.84375 -0.811452,-0.35551 -0.634545,-1.0829 -1.78125,-1.65625 -2.508238,-1.25412 -9.739516,-3.3844 -11,-3.78125 -2.643419,-0.83224 -7.786404,-3.40781 -10.59375,-4.8125 z M 88.75,166.21875 c 0.28805,0.11569 0.696506,0.1875 1.3125,0.1875 -0.262693,-0.0425 -0.85882,-0.11534 -1.3125,-0.1875 z m -13.59375,1.59375 c -2.136319,-0.003 -4.090925,0.16613 -5.65625,0.625 0.118717,0.0586 0.223412,0.12995 0.34375,0.1875 0.09785,3.27787 0.53048,5.80922 1.21875,7.75 5.577888,-1.37662 18.530524,-5.5414 21.75,-4.75 -0.933698,-0.61684 3.106491,-2.35237 0.375,-2.375 -4.424966,-0.0367 -11.964151,-1.42984 -18.03125,-1.4375 z M 93.125,177.84375 c -3.624516,0.0339 -9.606593,2.92803 -12.5,5.71875 -0.07226,1.05463 0.03436,2.06946 0.375,2.96875 2.618086,-1.66405 7.711215,-5.0625 9.375,-5.0625 2.973554,0 5.056961,-2.57219 5.65625,-1.875 -0.250582,-1.25291 -1.35979,-1.76446 -2.90625,-1.75 z m 8.21875,4.375 c -4.343556,-0.11091 -9.841629,4.41024 -12.34375,9.75 0.436842,1.40443 1.025181,2.67237 1.9375,3.6875 4.939605,-0.252 10.07393,-10.30977 13.875,-11.96875 -0.97544,-0.96392 -2.16833,-1.43554 -3.46875,-1.46875 z M 167.6875,202.25 c -0.34341,1.66417 2.728,6.5405 3.34375,7.15625 6.94022,7.22975 13.20944,17.62134 20.5,26.15625 0.6403,-1.46294 0.98561,-3.40445 0.9375,-5.90625 z m -54.71875,15.9375 c -0.18347,0 -3.35975,3.70349 -3.75,4.09375 -2.2082,2.34587 -5.57139,8.80775 -9.6875,13.09375 0.67743,1.30359 1.71617,2.50828 3,3.40625 1.45714,-2.38184 2.62651,-4.97177 2.90625,-5.53125 2.21497,-4.31166 8.44679,-9.96894 7.53125,-15.0625 z m 53.96875,0.625 c -0.99168,-0.49584 1.92385,16.53291 3.84375,26.53125 1.72291,0.0274 3.43642,-0.14061 4.96875,-0.71875 -3.17097,-9.53488 -8.56436,-25.68842 -8.8125,-25.8125 z m -22.09375,5.34375 c -1.52493,0.10443 -2.0625,5.9135 -2.0625,9.71875 0,3.10408 -0.9375,9.9056 -0.9375,12.875 0,1.63341 0.11173,3.31489 0.3125,4.96875 1.47068,0.77665 3.00594,1.11985 4.46875,0.96875 0.0447,-1.01259 -0.0625,-2.19561 -0.0625,-2.8125 0,-5.76807 3.07189,-15.53434 1.5625,-20.0625 -1.39408,-4.18225 -2.48247,-5.71095 -3.28125,-5.65625 z m -22.1875,0.0312 c -0.79734,0.14931 -2.44196,2.44643 -5.28125,8.125 -0.70189,1.40377 -1.68616,2.80849 -2.21875,4.40625 -0.90084,2.70252 -2.90692,4.58676 -3.71875,7.125 1.23192,1.74648 2.85189,3.09615 5.625,3.21875 3.4106,-6.81748 7.82687,-23.29318 5.59375,-22.875 z M 155.5625,224.5 c -0.79782,-0.0301 -0.53125,3.48711 -0.53125,8.75 0.90441,10.11854 1.76595,14.69011 2.5,16.78125 0.82666,0.0479 1.65465,-0.009 2.4375,-0.125 0.31935,-6.43806 -0.0848,-18.20085 -0.875,-19.78125 -1.95285,-3.90569 -2.98538,-5.60442 -3.53125,-5.625 z m -24.09375,3.71875 c -0.20917,0.0268 -0.42803,0.14678 -0.625,0.34375 -0.0889,0.0889 -2.48911,15.97822 -3.4375,17.875 -0.53277,1.06553 -0.93013,2.17976 -1.21875,3.3125 2.66464,2.18812 5.52311,2.81536 8.5625,1.5625 3.65585,-7.30718 -0.28401,-23.47784 -3.28125,-23.09375 z"
           transform="matrix(0.54398292,0,0,0.54398292,86.702571,51.864748)"
           id="path18852"
           inkscape:connector-curvature="0" />
        <path
           style="display:inline;fill:#343434;fill-opacity:1;stroke:none;stroke-width:1.1966188;stroke-miterlimit:4;stroke-dasharray:none"
           id="path3301"
           transform="matrix(0.6819,0,0,0.6819,-84.08,-63.33)"
           d="m 406.3,309.3 c 0,1.49117 -1.20883,2.7 -2.7,2.7 -1.49117,0 -2.7,-1.20883 -2.7,-2.7 0,-1.49117 1.20883,-2.7 2.7,-2.7 1.49117,0 2.7,1.20883 2.7,2.7 z"
           inkscape:connector-curvature="0" />
        <path
           style="fill:#c8c8c8;fill-opacity:1"
           d="m 89.748956,110.55601 c 0.826205,19.26844 9.372584,40.24421 24.790794,50.52302 2.07219,1.38146 7.46999,4.3933 9.41423,4.3933 1.4793,0 4.3933,-0.85169 4.3933,0.62762 -16.34585,-20.0728 -26.99578,-36.41907 -38.598324,-55.54394 -0.04928,-0.0774 -3.488473,-3.10148 -2.824268,-3.76569 0.800394,-0.80039 2.667533,3.37385 2.824268,3.76569 z"
           id="path18874"
           inkscape:connector-curvature="0"
           transform="matrix(0.54398292,0,0,0.54398292,86.702571,51.864748)"
           sodipodi:nodetypes="cssccsc" />
        <path
           inkscape:connector-curvature="0"
           id="path18907"
           d="m 148.56363,165.69318 -7.87075,10.81166 c -0.49875,0.57 -0.50859,1.61706 -0.136,2.68591 l -0.017,-0.23799 8.38074,-13.20859 -0.35699,-0.051 z m 30.36105,4.14786 4.57285,14.41555 c 0.76304,-0.61706 1.36963,-1.54655 1.69995,-2.9579 1.29402,0.58819 2.53695,0.82372 3.56989,0.57798 z m -28.06612,0.187 -6.71479,12.44361 c 0.5943,0.1094 1.24535,0.10545 1.95494,-0.068 0.28033,0.49598 0.5427,1.00461 0.83297,1.49595 z m 23.47626,1.39396 1.22396,15.6735 c 0.60913,-0.44334 1.09371,-1.07503 1.34296,-1.98893 0.59992,0.0774 1.24111,0.1405 1.88694,0.18699 z m -11.95063,1.68294 -1.41095,14.97653 c 0.37393,-0.24017 0.73928,-0.53716 1.12196,-0.88397 0.45279,0.53153 0.95073,0.97032 1.46196,1.30896 z m -5.84781,0.051 -5.21884,13.07262 c 0.6326,-0.073 1.34114,-0.23802 2.17593,-0.52698 0.36638,0.51293 0.75572,0.96248 1.13897,1.35995 l 1.90394,-13.90556 z m 12.6646,0.136 -1.52995,15.67351 c 0.69197,-0.341 1.32719,-0.92002 1.83594,-1.76795 0.52695,0.21469 1.08494,0.38933 1.66595,0.50999 z"
           style="fill:#c8c8c8;fill-opacity:1;stroke:none" />
        <path
           inkscape:connector-curvature="0"
           style="fill:none;stroke:#525252;stroke-width:0.92477095;stroke-linecap:round;stroke-linejoin:round;stroke-miterlimit:4;stroke-dasharray:none;stroke-opacity:1"
           d="m 116.0854,101.25092 14.25438,16.77676"
           id="path3245" />
        <path
           inkscape:connector-curvature="0"
           style="fill:none;stroke:#525252;stroke-width:0.92477095;stroke-linecap:round;stroke-linejoin:round;stroke-miterlimit:4;stroke-dasharray:none;stroke-opacity:1"
           d="m 116.0854,111.51642 14.25438,13.08118"
           id="path3247" />
        <path
           inkscape:connector-curvature="0"
           style="fill:none;stroke:#525252;stroke-width:0.92477095;stroke-linecap:round;stroke-linejoin:round;stroke-miterlimit:4;stroke-dasharray:none;stroke-opacity:1"
           d="m 117.14128,120.96068 14.54768,10.44148"
           id="path3249" />
        <path
           inkscape:connector-curvature="0"
           style="fill:none;stroke:#525252;stroke-width:0.92477095;stroke-linecap:round;stroke-linejoin:round;stroke-miterlimit:4;stroke-dasharray:none;stroke-opacity:1"
           d="m 119.07706,128.87978 c 3.28496,2.75702 9.0923,7.39116 12.72922,6.68724"
           id="path3251" />
        <path
           inkscape:connector-curvature="0"
           style="fill:none;stroke:#525252;stroke-width:0.92477095;stroke-linecap:round;stroke-linejoin:round;stroke-miterlimit:4;stroke-dasharray:none;stroke-opacity:1"
           d="m 121.9514,136.21228 c 2.0531,1.34918 4.57548,3.57826 12.20128,4.22352"
           id="path3253" />
        <path
           inkscape:connector-curvature="0"
           style="fill:none;stroke:#525252;stroke-width:0.92477095;stroke-linecap:round;stroke-linejoin:round;stroke-miterlimit:4;stroke-dasharray:none;stroke-opacity:1"
           d="m 123.65254,143.0755 13.43314,0.70392"
           id="path3255" />
        <path
           inkscape:connector-curvature="0"
           style="fill:none;stroke:#525252;stroke-width:0.92477095;stroke-linecap:round;stroke-linejoin:round;stroke-miterlimit:4;stroke-dasharray:none;stroke-opacity:1"
           d="m 130.33978,151.52254 8.32972,-4.57548"
           id="path3257" />
        <path
           inkscape:connector-curvature="0"
           style="fill:none;stroke:#525252;stroke-width:0.92477095;stroke-linecap:round;stroke-linejoin:round;stroke-miterlimit:4;stroke-dasharray:none;stroke-opacity:1"
           d="m 139.66672,159.61762 5.63136,-6.39394"
           id="path3261" />
        <path
           inkscape:connector-curvature="0"
           style="fill:none;stroke:#525252;stroke-width:0.92477095;stroke-linecap:round;stroke-linejoin:round;stroke-miterlimit:4;stroke-dasharray:none;stroke-opacity:1"
           d="m 146.06066,182.61234 4.63414,-12.43592"
           id="path3277" />
        <path
           inkscape:connector-curvature="0"
           style="fill:none;stroke:#525252;stroke-width:0.92477095;stroke-linecap:round;stroke-linejoin:round;stroke-miterlimit:4;stroke-dasharray:none;stroke-opacity:1"
           d="m 153.51048,185.83864 2.81568,-12.43592"
           id="path3279" />
        <path
           inkscape:connector-curvature="0"
           style="fill:none;stroke:#525252;stroke-width:0.92477095;stroke-linecap:round;stroke-linejoin:round;stroke-miterlimit:4;stroke-dasharray:none;stroke-opacity:1"
           d="m 162.1335,187.3638 0.2933,-14.3717"
           id="path3281" />
        <path
           inkscape:connector-curvature="0"
           style="fill:none;stroke:#525252;stroke-width:0.92477095;stroke-linecap:round;stroke-linejoin:round;stroke-miterlimit:4;stroke-dasharray:none;stroke-opacity:1"
           d="m 169.70064,187.3638 -0.46928,-13.96108"
           id="path3283" />
        <path
           inkscape:connector-curvature="0"
           style="fill:none;stroke:#525252;stroke-width:0.92477095;stroke-linecap:round;stroke-linejoin:round;stroke-miterlimit:4;stroke-dasharray:none;stroke-opacity:1"
           d="m 177.61974,185.25204 -3.10898,-13.7851"
           id="path3285" />
        <path
           inkscape:connector-curvature="0"
           style="fill:none;stroke:#525252;stroke-width:0.92477095;stroke-linecap:round;stroke-linejoin:round;stroke-miterlimit:4;stroke-dasharray:none;stroke-opacity:1"
           d="m 185.65616,181.4978 -6.86322,-11.67334"
           id="path3287" />
        <path
           inkscape:connector-curvature="0"
           style="fill:none;stroke:#525252;stroke-width:0.92477095;stroke-linecap:round;stroke-linejoin:round;stroke-miterlimit:4;stroke-dasharray:none;stroke-opacity:1"
           d="m 118.07984,91.10274 c 4.6928,6.92188 10.14818,13.60912 12.25994,21.29358"
           id="path3243" />
        <path
           inkscape:connector-curvature="0"
           style="fill:none;stroke:#525252;stroke-width:0.92477095;stroke-linecap:round;stroke-linejoin:round;stroke-miterlimit:4;stroke-dasharray:none;stroke-opacity:1"
           d="m 134.8566,155.51142 6.10064,-5.5727"
           id="path3259" />
        <path
           inkscape:connector-curvature="0"
           style="fill:#525252;fill-opacity:1;stroke:none"
           d="m 133.6834,109.99126 c 5.5727,8.38838 15.31026,29.0367 23.69864,33.1429 0.76258,0.35196 2.22908,1.05588 2.87434,0.52794 -1.11454,-0.46928 -1.81846,-0.82124 -2.58104,-1.34918 -6.98054,-4.92744 -19.59244,-32.263 -23.99194,-32.32166 z"
           id="path3239" />
        <path
           style="fill:#c8c8c8;fill-opacity:1"
           d="m 167.96875,189.9375 c -1.14827,1.14827 -3.37597,0.46972 -4.4375,1.53125 -5.94774,5.94774 2.66048,6.68326 -2.875,12.21875 -2.61312,2.61311 -9.78125,-2 -9.78125,-2 -1.32537,2.61121 -7.83499,8.28564 -11.53125,6.4375 -6.11471,-3.05735 0.99542,-9.4645 -1.09355,-11.55347 -0.48806,-0.48806 -6.58019,4.53597 -7.1252,3.99097 -1.81465,1.73566 -4.45487,-3.04513 -5.96875,-1.53125 -0.26018,0.26018 -4.73411,3.26589 -5.78125,2.21875 -0.43758,-0.43758 -0.19267,-1.87759 -0.875,-2.21875 -1.47402,-0.73701 -2.44301,-0.66176 -3.5625,-1.78125 -0.48078,-0.48078 -0.17548,-1.73797 -0.65625,-2.21875 -0.60595,-0.60595 -13.46479,1.7148 -13.75,2 -0.50794,0.50794 -0.0423,1.25914 0.21875,1.78125 0.007,0.014 0.0242,0.0173 0.0312,0.0312 2.65547,0.73076 4.99862,1.69352 6.96875,2.9375 0.52094,2e-4 1.00855,0.13355 1.4375,0.5625 1.82969,1.8297 5.66819,4.65625 8.40625,4.65625 0.97225,0 6.4375,0.72088 6.4375,-0.21875 0,-3.35916 6.21485,-2.0039 7.78125,-0.4375 2.07461,2.07461 0.92319,5.57944 2.875,7.53125 0.39925,0.39924 2.06591,-0.15284 2.4375,0.21875 3.22869,3.22869 12.34613,-6.15744 15.09375,-7.53125 2.02761,-1.01381 7.89554,4.3232 12.4375,-0.21875 1.19654,-1.19654 2.44239,-2.29823 3.78125,-3.28125 L 163.40625,197.5 c 3.1251,0 6.26647,-0.38413 8.65625,-2.40625 3.49276,-0.36766 6.42639,-1.44663 9,-3.46875 3.49276,0 6.8124,-1.30139 9.9375,-3.875 h 27.09375 c 0.0155,-0.093 0.0312,-0.18306 0.0312,-0.28125 -6.2897,0.82476 -12.15409,-2.28053 -17.96875,-4.21875 -8.13325,-1.4638 -26.39837,1.53757 -32.1875,6.6875 z"
           transform="matrix(0.54398292,0,0,0.54398292,86.702571,51.864748)"
           id="path18920"
           inkscape:connector-curvature="0"
           sodipodi:nodetypes="cssssscsssssccccssssssssccccccccc" />
        <path
           inkscape:connector-curvature="0"
           style="fill:#525252;fill-opacity:1;stroke:none"
           d="m 159.4938,163.07856 c -1.52516,0.17598 -3.34362,-0.0587 -4.16486,-1.05588 -2.87434,2.3464 -5.866,1.93578 -5.80734,0.70392 0,-0.41062 0.35196,-1.40784 -0.35196,-1.40784 -0.8799,0 -3.10898,0.35196 -2.69836,-0.82124 0.17598,-0.5866 1.52516,-2.0531 -0.5866,-1.70114 -0.82124,0.11732 -1.93578,0.64526 -2.75702,0.93856 -0.52794,0.17598 -0.2933,0.99722 -0.17598,1.05588 0.41062,0.17598 4.9861,2.3464 4.9861,2.46372 0.52794,2.17042 5.5727,2.6397 7.3325,0.0587 0.76258,1.1732 2.81568,0.99722 3.2263,1.52516 -0.99722,7.3325 6.98054,3.57826 10.14818,-0.0587 3.93022,1.99444 10.73478,-1.11454 9.03364,-3.05032 -0.64526,-0.70392 -2.0531,6.10064 -8.97498,1.05588 -0.82124,1.70114 -3.75424,5.45538 -7.39116,5.63136 -0.76258,-0.11732 -1.7598,-0.64526 -1.4665,-2.11176 0.46928,-2.40506 2.87434,-8.2124 2.3464,-8.5057 -0.35196,-0.17598 -1.93578,3.5196 -2.69836,5.2794 z"
           id="path4571" />
        <path
           inkscape:connector-curvature="0"
           style="fill:#525252;fill-opacity:1;stroke:none"
           d="m 154.15574,152.28512 c -3.28496,2.11176 -7.0392,2.52238 -9.79622,1.34918 -1.34918,-1.40784 -2.81568,-2.46372 -5.04476,-2.17042 -0.5866,-1.4665 -1.34918,-2.3464 -2.58104,-3.16764 1.81846,-1.81846 -0.93856,-3.63692 -1.93578,-3.98888 0.2933,-1.87712 0.11732,-2.99166 -3.46094,-4.3995 0.17598,-1.7598 -0.35196,-3.5196 -0.99722,-5.2794 2.17042,-1.1732 0.82124,-3.34362 -2.11176,-5.2794 1.05588,-1.52516 3.16764,-1.7598 -0.46928,-7.9191 l 0.17598,-5.45538 c 3.69558,-1.05588 -0.11732,-6.33528 -0.76258,-10.32416 7.27384,8.97498 6.1593,16.36614 3.98888,18.24326 1.58382,1.40784 2.6397,5.74868 1.64248,7.68446 1.1732,2.40506 2.22908,5.10342 1.93578,8.09508 2.6397,1.29052 4.34084,3.34362 3.10898,4.75146 1.93578,1.40784 3.40228,2.933 3.63692,4.81012 3.57826,-0.46928 6.27662,0.93856 4.92744,2.933 2.22908,0.76258 5.16208,-0.2933 7.74312,0.11732 z"
           id="path3189" />
        <path
           style="fill:#ffffff;fill-opacity:1"
           d="m 60.09375,56.84375 c -1.156653,0.07935 -2.373224,0.473409 -3.25,1.5 l 0.1875,0.21875 c 0,0 28.169118,34.621118 58.125,76.78125 29.95589,42.16013 55.27415,38.1596 64.59375,35.71875 9.31961,-2.44085 20.6185,-1.99391 23.28125,-0.21875 0.29748,0.19832 0.6952,0.19458 1.15625,0.0312 -3.44235,-2.74571 -6.96788,-4.75724 -10.0625,-4.8125 -12.68422,-0.73532 -22.28303,0.84958 -37.72469,-2.64318 C 138.01738,159.1912 88.780052,94.743639 68.375,61.56245 66.352878,58.621181 63.977976,57.523859 62.875,57.1562 62.231597,56.972371 61.182364,56.769019 60.09375,56.8437 Z"
           transform="matrix(0.54398292,0,0,0.54398292,86.702571,51.864748)"
           id="path18840"
           inkscape:connector-curvature="0"
           sodipodi:nodetypes="cccsscccccccc" />
        <path
           style="display:inline;fill:none;fill-opacity:1;stroke:#343434;stroke-width:0.92477095;stroke-linecap:round;stroke-linejoin:round;stroke-miterlimit:4;stroke-dasharray:none;stroke-opacity:1"
           id="path3233"
           d="M 171.78167,140.76204 C 161.78167,138.46204 135,103.4 123.9,85.35 c -1.1,-1.6 -2.4,-2.2 -3,-2.4 -1.4,-0.4 -6.2,-0.9 -2.7,8.3 -5.9,0.9 -4.7,5.3 -2,10.25 -4.9,3.4 -2.6,6.7 0,10.1 -2.4,3.4 -1.3,6.5 1.1,9.5 -0.8,2.3 -1.4,4.7 2.1,8.3 -0.3,2.2 -1.7,4.4 3,7.4 -1.8,4.3 0,5.7 2.3,6.8 0.2,6.7 3,7.6 5.9,7.7 -0.3,2.1 0.5,4.1 4.2,3.8 0.5,2.4 1.4,4.5 4.8,4.5 4.6,0.8 7.8,2.8 9.1,5.9 l -8,11 c -1.4,1.6 0.9,7 5.4,5.9 1.3,2.3 2.2,5.1 7.4,3.3 2.5,3.5 5.4,4.4 8.6,1.5 2.3,2.7 5.6,3 7.4,0 2.7,1.1 6.5,1.2 7.4,-2.1 3.1,0.4 7.2,0.9 8.3,-3.8 3.3,1.5 6.3,0.7 6.2,-4.5 l -15.8,-17.5 c 1.7,0 3.4,-0.2 4.7,-1.3 1.9,-0.2 3.5,-0.8 4.9,-1.9 1.9,0 3.7,-0.7 5.4,-2.1 h 15.6 c 0,0 -3.40485,-4.18732 -6.65909,-5.22904 -1.08906,-0.34862 -0.61066,-2.80763 -1.54695,-3.80776 -1.4418,-1.54011 -3.7359,-2.72823 -5.69396,-2.7632 -6.9,-0.4 -12.11833,0.46204 -20.51833,-1.43796 z"
           inkscape:connector-curvature="0"
           sodipodi:nodetypes="cccccccccccccccccccccccccccsacc" />
      </g>
      <circle
         style="color:#000000;clip-rule:nonzero;display:inline;overflow:visible;visibility:visible;opacity:1;isolation:auto;mix-blend-mode:normal;color-interpolation:sRGB;color-interpolation-filters:linearRGB;solid-color:#000000;solid-opacity:1;vector-effect:none;fill:#e6e6e6;fill-opacity:1;fill-rule:nonzero;stroke:#343434;stroke-width:2;stroke-linecap:round;stroke-linejoin:round;stroke-miterlimit:4;stroke-dasharray:none;stroke-dashoffset:0;stroke-opacity:1;marker:none;paint-order:markers stroke fill;color-rendering:auto;image-rendering:auto;shape-rendering:auto;text-rendering:auto;enable-background:accumulate;font-variant-east_asian:normal"
         id="path258"
         cx="224.13268"
         cy="172.38625"
         r="0.83935165" />
      <circle
         style="color:#000000;clip-rule:nonzero;display:inline;overflow:visible;visibility:visible;opacity:1;isolation:auto;mix-blend-mode:normal;color-interpolation:sRGB;color-interpolation-filters:linearRGB;solid-color:#000000;solid-opacity:1;vector-effect:none;fill:#e6e6e6;fill-opacity:1;fill-rule:nonzero;stroke:#343434;stroke-width:2;stroke-linecap:round;stroke-linejoin:round;stroke-miterlimit:4;stroke-dasharray:none;stroke-dashoffset:0;stroke-opacity:1;marker:none;paint-order:markers stroke fill;color-rendering:auto;image-rendering:auto;shape-rendering:auto;text-rendering:auto;enable-background:accumulate"
         id="path260"
         cx="232.10757"
         cy="171.8159"
         r="0.86669338" />
      <circle
         style="color:#000000;clip-rule:nonzero;display:inline;overflow:visible;visibility:visible;opacity:1;isolation:auto;mix-blend-mode:normal;color-interpolation:sRGB;color-interpolation-filters:linearRGB;solid-color:#000000;solid-opacity:1;vector-effect:none;fill:#e6e6e6;fill-opacity:1;fill-rule:nonzero;stroke:#343434;stroke-width:2;stroke-linecap:round;stroke-linejoin:round;stroke-miterlimit:4;stroke-dasharray:none;stroke-dashoffset:0;stroke-opacity:1;marker:none;paint-order:markers stroke fill;color-rendering:auto;image-rendering:auto;shape-rendering:auto;text-rendering:auto;enable-background:accumulate"
         id="path262"
         cx="231.17593"
         cy="167.14491"
         r="0.80868751" />
      <circle
         style="color:#000000;clip-rule:nonzero;display:inline;overflow:visible;visibility:visible;opacity:1;isolation:auto;mix-blend-mode:normal;color-interpolation:sRGB;color-interpolation-filters:linearRGB;solid-color:#000000;solid-opacity:1;vector-effect:none;fill:#e6e6e6;fill-opacity:1;fill-rule:nonzero;stroke:#343434;stroke-width:2;stroke-linecap:round;stroke-linejoin:round;stroke-miterlimit:4;stroke-dasharray:none;stroke-dashoffset:0;stroke-opacity:1;marker:none;paint-order:markers stroke fill;color-rendering:auto;image-rendering:auto;shape-rendering:auto;text-rendering:auto;enable-background:accumulate"
         id="path264"
         cx="239.33"
         cy="165.64674"
         r="0.80526847" />
      <circle
         style="color:#000000;clip-rule:nonzero;display:inline;overflow:visible;visibility:visible;opacity:1;isolation:auto;mix-blend-mode:normal;color-interpolation:sRGB;color-interpolation-filters:linearRGB;solid-color:#000000;solid-opacity:1;vector-effect:none;fill:#e6e6e6;fill-opacity:1;fill-rule:nonzero;stroke:#343434;stroke-width:2;stroke-linecap:round;stroke-linejoin:round;stroke-miterlimit:4;stroke-dasharray:none;stroke-dashoffset:0;stroke-opacity:1;marker:none;paint-order:markers stroke fill;color-rendering:auto;image-rendering:auto;shape-rendering:auto;text-rendering:auto;enable-background:accumulate"
         id="path266"
         cx="240.97592"
         cy="160.00929"
         r="0.87355673" />
      <circle
         style="color:#000000;clip-rule:nonzero;display:inline;overflow:visible;visibility:visible;opacity:1;isolation:auto;mix-blend-mode:normal;color-interpolation:sRGB;color-interpolation-filters:linearRGB;solid-color:#000000;solid-opacity:1;vector-effect:none;fill:#e6e6e6;fill-opacity:1;fill-rule:nonzero;stroke:#343434;stroke-width:2;stroke-linecap:round;stroke-linejoin:round;stroke-miterlimit:4;stroke-dasharray:none;stroke-dashoffset:0;stroke-opacity:1;marker:none;paint-order:markers stroke fill;color-rendering:auto;image-rendering:auto;shape-rendering:auto;text-rendering:auto;enable-background:accumulate;font-variant-east_asian:normal"
         id="path268"
         cx="251.43819"
         cy="157.21532"
         r="0.68965006" />
    </g>
    <g
       style="fill:#3e933e;fill-opacity:1;stroke:#4e5a30;stroke-width:1.11522841;stroke-opacity:1"
       transform="matrix(0.95216337,0,0,0.96138815,-23.828892,-52.70856)"
       id="g3499">
      <path
         inkscape:connector-curvature="0"
         id="path3301-3"
         style="fill:#3e933e;fill-opacity:1;fill-rule:evenodd;stroke:#4e5a30;stroke-width:2.29941607;stroke-linecap:butt;stroke-linejoin:miter;stroke-miterlimit:4;stroke-dasharray:none;stroke-opacity:1"
         d="M 350.85159,598.37753 C 337.80391,581.18634 323.14595,547.85504 283.50465,523.94144 246.56438,501.65723 252.88459,513.22667 215.4488,485.66002 178.05413,458.12365 162.85361,447.87295 133.21464,414.76851 106.85565,385.32754 112.48926,395.94349 94.224307,353.09289 77.859197,314.69942 76.855887,311.79858 73.665769,258.80717 c -3.190118,-52.99141 6.380236,-89.3233 10.633727,-117.67991 4.253491,-28.35661 4.962406,-25.34372 3.899033,4.25349 -1.063373,29.59721 -12.583244,63.44791 -9.215897,115.90763 3.367347,52.45972 7.089153,55.4726 23.039748,93.93125 15.95059,38.45865 12.58324,26.22987 41.82599,58.13105 29.24275,31.90118 40.54898,40.49092 77.98067,67.34693 37.74972,27.08419 37.92695,14.43716 73.01825,38.28142 36.86055,25.04646 52.63694,53.87755 66.63802,73.72718 3.64645,3.16718 -1.38336,15.9619 -10.63372,5.67132 z" />
      <g
         style="fill:#3e933e;fill-opacity:1;stroke:#4e5a30;stroke-width:1.11522841;stroke-opacity:1"
         id="use3369"
         transform="rotate(-26.941427,260.59738,250.48157)">
        <path
           inkscape:connector-curvature="0"
           id="use3389"
           style="fill:#3e933e;fill-opacity:1;fill-rule:evenodd;stroke:#4e5a30;stroke-width:2.29941607;stroke-linecap:butt;stroke-linejoin:miter;stroke-miterlimit:4;stroke-dasharray:none;stroke-opacity:1"
           d="M 48.269286,183.26366 C 25.751041,216.67828 47.193153,248.00829 68.706939,279.33489 88.379567,242.59292 58.482792,232.68571 48.269286,183.26366 Z" />
        <path
           inkscape:connector-curvature="0"
           id="path3391"
           style="fill:#3e933e;fill-opacity:1;fill-rule:evenodd;stroke:#4e5a30;stroke-width:2.29941607;stroke-linecap:butt;stroke-linejoin:miter;stroke-miterlimit:4;stroke-dasharray:none;stroke-opacity:1"
           d="M 68.431605,278.5609 C 73.918624,247.50436 48.250864,234.9626 47.193692,204.49496" />
      </g>
      <g
         transform="rotate(-16.938505,55.932049,251.17131)"
         id="use3400"
         style="fill:#3e933e;fill-opacity:1;stroke:#4e5a30;stroke-width:1.11522841;stroke-opacity:1">
        <path
           d="M 48.269286,183.26366 C 25.751041,216.67828 47.193153,248.00829 68.706939,279.33489 88.379567,242.59292 58.482792,232.68571 48.269286,183.26366 Z"
           style="fill:#3e933e;fill-opacity:1;fill-rule:evenodd;stroke:#4e5a30;stroke-width:2.29941607;stroke-linecap:butt;stroke-linejoin:miter;stroke-miterlimit:4;stroke-dasharray:none;stroke-opacity:1"
           id="path3817"
           inkscape:connector-curvature="0" />
        <path
           d="M 68.431605,278.5609 C 73.918624,247.50436 48.250864,234.9626 47.193692,204.49496"
           style="fill:#3e933e;fill-opacity:1;fill-rule:evenodd;stroke:#4e5a30;stroke-width:2.29941607;stroke-linecap:butt;stroke-linejoin:miter;stroke-miterlimit:4;stroke-dasharray:none;stroke-opacity:1"
           id="path3819"
           inkscape:connector-curvature="0" />
      </g>
      <g
         transform="rotate(1.604158,3120.1421,533.88913)"
         id="use3402"
         style="fill:#3e933e;fill-opacity:1;stroke:#4e5a30;stroke-width:1.11522841;stroke-opacity:1">
        <path
           d="M 48.269286,183.26366 C 25.751041,216.67828 47.193153,248.00829 68.706939,279.33489 88.379567,242.59292 58.482792,232.68571 48.269286,183.26366 Z"
           style="fill:#3e933e;fill-opacity:1;fill-rule:evenodd;stroke:#4e5a30;stroke-width:2.29941607;stroke-linecap:butt;stroke-linejoin:miter;stroke-miterlimit:4;stroke-dasharray:none;stroke-opacity:1"
           id="path3811"
           inkscape:connector-curvature="0" />
        <path
           d="M 68.431605,278.5609 C 73.918624,247.50436 48.250864,234.9626 47.193692,204.49496"
           style="fill:#3e933e;fill-opacity:1;fill-rule:evenodd;stroke:#4e5a30;stroke-width:2.29941607;stroke-linecap:butt;stroke-linejoin:miter;stroke-miterlimit:4;stroke-dasharray:none;stroke-opacity:1"
           id="path3813"
           inkscape:connector-curvature="0" />
      </g>
      <g
         transform="rotate(-52.836976,268.27944,267.34087)"
         id="use3404"
         style="fill:#3e933e;fill-opacity:1;stroke:#4e5a30;stroke-width:1.11522841;stroke-opacity:1">
        <path
           d="M 48.269286,183.26366 C 25.751041,216.67828 47.193153,248.00829 68.706939,279.33489 88.379567,242.59292 58.482792,232.68571 48.269286,183.26366 Z"
           style="fill:#3e933e;fill-opacity:1;fill-rule:evenodd;stroke:#4e5a30;stroke-width:2.29941607;stroke-linecap:butt;stroke-linejoin:miter;stroke-miterlimit:4;stroke-dasharray:none;stroke-opacity:1"
           id="path3835"
           inkscape:connector-curvature="0" />
        <path
           d="M 68.431605,278.5609 C 73.918624,247.50436 48.250864,234.9626 47.193692,204.49496"
           style="fill:#3e933e;fill-opacity:1;fill-rule:evenodd;stroke:#4e5a30;stroke-width:2.29941607;stroke-linecap:butt;stroke-linejoin:miter;stroke-miterlimit:4;stroke-dasharray:none;stroke-opacity:1"
           id="path3837"
           inkscape:connector-curvature="0" />
      </g>
      <g
         transform="rotate(-61.584222,316.06042,256.1346)"
         id="use3406"
         style="fill:#3e933e;fill-opacity:1;stroke:#4e5a30;stroke-width:1.11522841;stroke-opacity:1">
        <path
           d="M 48.269286,183.26366 C 25.751041,216.67828 47.193153,248.00829 68.706939,279.33489 88.379567,242.59292 58.482792,232.68571 48.269286,183.26366 Z"
           style="fill:#3e933e;fill-opacity:1;fill-rule:evenodd;stroke:#4e5a30;stroke-width:2.29941607;stroke-linecap:butt;stroke-linejoin:miter;stroke-miterlimit:4;stroke-dasharray:none;stroke-opacity:1"
           id="path3847"
           inkscape:connector-curvature="0" />
        <path
           d="M 68.431605,278.5609 C 73.918624,247.50436 48.250864,234.9626 47.193692,204.49496"
           style="fill:#3e933e;fill-opacity:1;fill-rule:evenodd;stroke:#4e5a30;stroke-width:2.29941607;stroke-linecap:butt;stroke-linejoin:miter;stroke-miterlimit:4;stroke-dasharray:none;stroke-opacity:1"
           id="path3849"
           inkscape:connector-curvature="0" />
      </g>
      <g
         transform="rotate(-63.600465,389.59224,219.24901)"
         id="use3408"
         style="fill:#3e933e;fill-opacity:1;stroke:#4e5a30;stroke-width:1.11522841;stroke-opacity:1">
        <path
           d="M 48.269286,183.26366 C 25.751041,216.67828 47.193153,248.00829 68.706939,279.33489 88.379567,242.59292 58.482792,232.68571 48.269286,183.26366 Z"
           style="fill:#3e933e;fill-opacity:1;fill-rule:evenodd;stroke:#4e5a30;stroke-width:2.29941607;stroke-linecap:butt;stroke-linejoin:miter;stroke-miterlimit:4;stroke-dasharray:none;stroke-opacity:1"
           id="path3859"
           inkscape:connector-curvature="0" />
        <path
           d="M 68.431605,278.5609 C 73.918624,247.50436 48.250864,234.9626 47.193692,204.49496"
           style="fill:#3e933e;fill-opacity:1;fill-rule:evenodd;stroke:#4e5a30;stroke-width:2.29941607;stroke-linecap:butt;stroke-linejoin:miter;stroke-miterlimit:4;stroke-dasharray:none;stroke-opacity:1"
           id="path3861"
           inkscape:connector-curvature="0" />
      </g>
      <g
         transform="matrix(-0.98837748,-0.15201938,-0.15201938,0.98837748,186.45917,-25.977084)"
         id="use3412"
         style="fill:#3e933e;fill-opacity:1;stroke:#4e5a30;stroke-width:1.11522841;stroke-opacity:1">
        <path
           d="M 48.269286,183.26366 C 25.751041,216.67828 47.193153,248.00829 68.706939,279.33489 88.379567,242.59292 58.482792,232.68571 48.269286,183.26366 Z"
           style="fill:#3e933e;fill-opacity:1;fill-rule:evenodd;stroke:#4e5a30;stroke-width:2.29941607;stroke-linecap:butt;stroke-linejoin:miter;stroke-miterlimit:4;stroke-dasharray:none;stroke-opacity:1"
           id="path3805"
           inkscape:connector-curvature="0" />
        <path
           d="M 68.431605,278.5609 C 73.918624,247.50436 48.250864,234.9626 47.193692,204.49496"
           style="fill:#3e933e;fill-opacity:1;fill-rule:evenodd;stroke:#4e5a30;stroke-width:2.29941607;stroke-linecap:butt;stroke-linejoin:miter;stroke-miterlimit:4;stroke-dasharray:none;stroke-opacity:1"
           id="path3807"
           inkscape:connector-curvature="0" />
      </g>
      <g
         style="fill:#3e933e;fill-opacity:1;stroke:#4e5a30;stroke-width:1.11522841;stroke-opacity:1"
         id="use3414"
         transform="matrix(-0.99643533,0.08435978,0.08435978,0.99643533,130.15838,28.759686)">
        <path
           inkscape:connector-curvature="0"
           id="path3823"
           style="fill:#3e933e;fill-opacity:1;fill-rule:evenodd;stroke:#4e5a30;stroke-width:2.29941607;stroke-linecap:butt;stroke-linejoin:miter;stroke-miterlimit:4;stroke-dasharray:none;stroke-opacity:1"
           d="M 48.269286,183.26366 C 25.751041,216.67828 47.193153,248.00829 68.706939,279.33489 88.379567,242.59292 58.482792,232.68571 48.269286,183.26366 Z" />
        <path
           inkscape:connector-curvature="0"
           id="path3825"
           style="fill:#3e933e;fill-opacity:1;fill-rule:evenodd;stroke:#4e5a30;stroke-width:2.29941607;stroke-linecap:butt;stroke-linejoin:miter;stroke-miterlimit:4;stroke-dasharray:none;stroke-opacity:1"
           d="M 68.431605,278.5609 C 73.918624,247.50436 48.250864,234.9626 47.193692,204.49496" />
      </g>
      <g
         style="fill:#3e933e;fill-opacity:1;stroke:#4e5a30;stroke-width:1.11522841;stroke-opacity:1"
         id="use3416"
         transform="matrix(-0.86628976,0.49954178,0.49954178,0.86628976,53.652526,127.14268)">
        <path
           inkscape:connector-curvature="0"
           id="path3829"
           style="fill:#3e933e;fill-opacity:1;fill-rule:evenodd;stroke:#4e5a30;stroke-width:2.29941607;stroke-linecap:butt;stroke-linejoin:miter;stroke-miterlimit:4;stroke-dasharray:none;stroke-opacity:1"
           d="M 48.269286,183.26366 C 25.751041,216.67828 47.193153,248.00829 68.706939,279.33489 88.379567,242.59292 58.482792,232.68571 48.269286,183.26366 Z" />
        <path
           inkscape:connector-curvature="0"
           id="path3831"
           style="fill:#3e933e;fill-opacity:1;fill-rule:evenodd;stroke:#4e5a30;stroke-width:2.29941607;stroke-linecap:butt;stroke-linejoin:miter;stroke-miterlimit:4;stroke-dasharray:none;stroke-opacity:1"
           d="M 68.431605,278.5609 C 73.918624,247.50436 48.250864,234.9626 47.193692,204.49496" />
      </g>
      <g
         style="fill:#3e933e;fill-opacity:1;stroke:#4e5a30;stroke-width:1.11522841;stroke-opacity:1"
         id="use3418"
         transform="matrix(-0.7605154,0.64931984,0.64931984,0.7605154,59.11535,204.01488)">
        <path
           inkscape:connector-curvature="0"
           id="path3841"
           style="fill:#3e933e;fill-opacity:1;fill-rule:evenodd;stroke:#4e5a30;stroke-width:2.29941607;stroke-linecap:butt;stroke-linejoin:miter;stroke-miterlimit:4;stroke-dasharray:none;stroke-opacity:1"
           d="M 48.269286,183.26366 C 25.751041,216.67828 47.193153,248.00829 68.706939,279.33489 88.379567,242.59292 58.482792,232.68571 48.269286,183.26366 Z" />
        <path
           inkscape:connector-curvature="0"
           id="path3843"
           style="fill:#3e933e;fill-opacity:1;fill-rule:evenodd;stroke:#4e5a30;stroke-width:2.29941607;stroke-linecap:butt;stroke-linejoin:miter;stroke-miterlimit:4;stroke-dasharray:none;stroke-opacity:1"
           d="M 68.431605,278.5609 C 73.918624,247.50436 48.250864,234.9626 47.193692,204.49496" />
      </g>
      <g
         style="fill:#3e933e;fill-opacity:1;stroke:#4e5a30;stroke-width:1.11522841;stroke-opacity:1"
         id="use3420"
         transform="matrix(-0.57503522,0.81812861,0.81812861,0.57503522,75.142685,286.66132)">
        <path
           inkscape:connector-curvature="0"
           id="path3853"
           style="fill:#3e933e;fill-opacity:1;fill-rule:evenodd;stroke:#4e5a30;stroke-width:2.29941607;stroke-linecap:butt;stroke-linejoin:miter;stroke-miterlimit:4;stroke-dasharray:none;stroke-opacity:1"
           d="M 48.269286,183.26366 C 25.751041,216.67828 47.193153,248.00829 68.706939,279.33489 88.379567,242.59292 58.482792,232.68571 48.269286,183.26366 Z" />
        <path
           inkscape:connector-curvature="0"
           id="path3855"
           style="fill:#3e933e;fill-opacity:1;fill-rule:evenodd;stroke:#4e5a30;stroke-width:2.29941607;stroke-linecap:butt;stroke-linejoin:miter;stroke-miterlimit:4;stroke-dasharray:none;stroke-opacity:1"
           d="M 68.431605,278.5609 C 73.918624,247.50436 48.250864,234.9626 47.193692,204.49496" />
      </g>
      <g
         transform="matrix(-0.98837748,-0.15201938,-0.15201938,0.98837748,195.67507,-116.00931)"
         id="use3422"
         style="fill:#3e933e;fill-opacity:1;stroke:#4e5a30;stroke-width:1.11522841;stroke-opacity:1">
        <path
           d="M 48.269286,183.26366 C 25.751041,216.67828 47.193153,248.00829 68.706939,279.33489 88.379567,242.59292 58.482792,232.68571 48.269286,183.26366 Z"
           style="fill:#3e933e;fill-opacity:1;fill-rule:evenodd;stroke:#4e5a30;stroke-width:2.29941607;stroke-linecap:butt;stroke-linejoin:miter;stroke-miterlimit:4;stroke-dasharray:none;stroke-opacity:1"
           id="path3799"
           inkscape:connector-curvature="0" />
        <path
           d="M 68.431605,278.5609 C 73.918624,247.50436 48.250864,234.9626 47.193692,204.49496"
           style="fill:#3e933e;fill-opacity:1;fill-rule:evenodd;stroke:#4e5a30;stroke-width:2.29941607;stroke-linecap:butt;stroke-linejoin:miter;stroke-miterlimit:4;stroke-dasharray:none;stroke-opacity:1"
           id="path3801"
           inkscape:connector-curvature="0" />
      </g>
      <ellipse
         style="color:#000000;clip-rule:nonzero;display:inline;overflow:visible;visibility:visible;opacity:1;isolation:auto;mix-blend-mode:normal;color-interpolation:sRGB;color-interpolation-filters:linearRGB;solid-color:#000000;solid-opacity:1;vector-effect:none;fill:#3e933e;fill-opacity:1;fill-rule:nonzero;stroke:#4e5a30;stroke-width:1.56778369;stroke-linecap:butt;stroke-linejoin:miter;stroke-miterlimit:4;stroke-dasharray:none;stroke-dashoffset:0;stroke-opacity:1;marker:none;paint-order:markers stroke fill;color-rendering:auto;image-rendering:auto;shape-rendering:auto;text-rendering:auto;enable-background:accumulate"
         id="path129"
         cx="77.139252"
         cy="134.44398"
         rx="4.5044055"
         ry="4.461184" />
      <ellipse
         style="color:#000000;clip-rule:nonzero;display:inline;overflow:visible;visibility:visible;opacity:1;isolation:auto;mix-blend-mode:normal;color-interpolation:sRGB;color-interpolation-filters:linearRGB;solid-color:#000000;solid-opacity:1;vector-effect:none;fill:#3e933e;fill-opacity:1;fill-rule:nonzero;stroke:#4e5a30;stroke-width:1.56778371;stroke-linecap:butt;stroke-linejoin:miter;stroke-miterlimit:4;stroke-dasharray:none;stroke-dashoffset:0;stroke-opacity:1;marker:none;paint-order:markers stroke fill;color-rendering:auto;image-rendering:auto;shape-rendering:auto;text-rendering:auto;enable-background:accumulate"
         id="path129-1"
         cx="89.701225"
         cy="180.14113"
         rx="4.5044055"
         ry="4.461184" />
      <ellipse
         style="color:#000000;clip-rule:nonzero;display:inline;overflow:visible;visibility:visible;opacity:1;isolation:auto;mix-blend-mode:normal;color-interpolation:sRGB;color-interpolation-filters:linearRGB;solid-color:#000000;solid-opacity:1;vector-effect:none;fill:#3e933e;fill-opacity:1;fill-rule:nonzero;stroke:#4e5a30;stroke-width:1.56778371;stroke-linecap:butt;stroke-linejoin:miter;stroke-miterlimit:4;stroke-dasharray:none;stroke-dashoffset:0;stroke-opacity:1;marker:none;paint-order:markers stroke fill;color-rendering:auto;image-rendering:auto;shape-rendering:auto;text-rendering:auto;enable-background:accumulate"
         id="path129-4"
         cx="67.302933"
         cy="226.6721"
         rx="4.5044055"
         ry="4.461184" />
      <ellipse
         style="color:#000000;clip-rule:nonzero;display:inline;overflow:visible;visibility:visible;opacity:1;isolation:auto;mix-blend-mode:normal;color-interpolation:sRGB;color-interpolation-filters:linearRGB;solid-color:#000000;solid-opacity:1;vector-effect:none;fill:#3e933e;fill-opacity:1;fill-rule:nonzero;stroke:#4e5a30;stroke-width:1.56778371;stroke-linecap:butt;stroke-linejoin:miter;stroke-miterlimit:4;stroke-dasharray:none;stroke-dashoffset:0;stroke-opacity:1;marker:none;paint-order:markers stroke fill;color-rendering:auto;image-rendering:auto;shape-rendering:auto;text-rendering:auto;enable-background:accumulate"
         id="path129-3"
         cx="82.599335"
         cy="253.18394"
         rx="4.5044055"
         ry="4.461184" />
      <ellipse
         style="color:#000000;clip-rule:nonzero;display:inline;overflow:visible;visibility:visible;opacity:1;isolation:auto;mix-blend-mode:normal;color-interpolation:sRGB;color-interpolation-filters:linearRGB;solid-color:#000000;solid-opacity:1;vector-effect:none;fill:#3e933e;fill-opacity:1;fill-rule:nonzero;stroke:#4e5a30;stroke-width:1.56778371;stroke-linecap:butt;stroke-linejoin:miter;stroke-miterlimit:4;stroke-dasharray:none;stroke-dashoffset:0;stroke-opacity:1;marker:none;paint-order:markers stroke fill;color-rendering:auto;image-rendering:auto;shape-rendering:auto;text-rendering:auto;enable-background:accumulate"
         id="path129-0"
         cx="73.312233"
         cy="309.99503"
         rx="4.5044055"
         ry="4.461184" />
      <ellipse
         style="color:#000000;clip-rule:nonzero;display:inline;overflow:visible;visibility:visible;opacity:1;isolation:auto;mix-blend-mode:normal;color-interpolation:sRGB;color-interpolation-filters:linearRGB;solid-color:#000000;solid-opacity:1;vector-effect:none;fill:#3e933e;fill-opacity:1;fill-rule:nonzero;stroke:#4e5a30;stroke-width:1.56778371;stroke-linecap:butt;stroke-linejoin:miter;stroke-miterlimit:4;stroke-dasharray:none;stroke-dashoffset:0;stroke-opacity:1;marker:none;paint-order:markers stroke fill;color-rendering:auto;image-rendering:auto;shape-rendering:auto;text-rendering:auto;enable-background:accumulate"
         id="path129-9"
         cx="108.27541"
         cy="360.31342"
         rx="4.5044055"
         ry="4.461184" />
      <ellipse
         style="color:#000000;clip-rule:nonzero;display:inline;overflow:visible;visibility:visible;opacity:1;isolation:auto;mix-blend-mode:normal;color-interpolation:sRGB;color-interpolation-filters:linearRGB;solid-color:#000000;solid-opacity:1;vector-effect:none;fill:#3e933e;fill-opacity:1;fill-rule:nonzero;stroke:#4e5a30;stroke-width:1.56778371;stroke-linecap:butt;stroke-linejoin:miter;stroke-miterlimit:4;stroke-dasharray:none;stroke-dashoffset:0;stroke-opacity:1;marker:none;paint-order:markers stroke fill;color-rendering:auto;image-rendering:auto;shape-rendering:auto;text-rendering:auto;enable-background:accumulate"
         id="path129-97"
         cx="112.09952"
         cy="398.18747"
         rx="4.5044055"
         ry="4.461184" />
      <ellipse
         style="color:#000000;clip-rule:nonzero;display:inline;overflow:visible;visibility:visible;opacity:1;isolation:auto;mix-blend-mode:normal;color-interpolation:sRGB;color-interpolation-filters:linearRGB;solid-color:#000000;solid-opacity:1;vector-effect:none;fill:#3e933e;fill-opacity:1;fill-rule:nonzero;stroke:#4e5a30;stroke-width:1.56778371;stroke-linecap:butt;stroke-linejoin:miter;stroke-miterlimit:4;stroke-dasharray:none;stroke-dashoffset:0;stroke-opacity:1;marker:none;paint-order:markers stroke fill;color-rendering:auto;image-rendering:auto;shape-rendering:auto;text-rendering:auto;enable-background:accumulate"
         id="path129-5"
         cx="149.79419"
         cy="413.87814"
         rx="4.5044055"
         ry="4.461184" />
      <ellipse
         style="color:#000000;clip-rule:nonzero;display:inline;overflow:visible;visibility:visible;opacity:1;isolation:auto;mix-blend-mode:normal;color-interpolation:sRGB;color-interpolation-filters:linearRGB;solid-color:#000000;solid-opacity:1;vector-effect:none;fill:#3e933e;fill-opacity:1;fill-rule:nonzero;stroke:#4e5a30;stroke-width:1.56778371;stroke-linecap:butt;stroke-linejoin:miter;stroke-miterlimit:4;stroke-dasharray:none;stroke-dashoffset:0;stroke-opacity:1;marker:none;paint-order:markers stroke fill;color-rendering:auto;image-rendering:auto;shape-rendering:auto;text-rendering:auto;enable-background:accumulate"
         id="path129-8"
         cx="171.0999"
         cy="458.78595"
         rx="4.5044055"
         ry="4.461184" />
      <ellipse
         style="color:#000000;clip-rule:nonzero;display:inline;overflow:visible;visibility:visible;opacity:1;isolation:auto;mix-blend-mode:normal;color-interpolation:sRGB;color-interpolation-filters:linearRGB;solid-color:#000000;solid-opacity:1;vector-effect:none;fill:#3e933e;fill-opacity:1;fill-rule:nonzero;stroke:#4e5a30;stroke-width:1.56778371;stroke-linecap:butt;stroke-linejoin:miter;stroke-miterlimit:4;stroke-dasharray:none;stroke-dashoffset:0;stroke-opacity:1;marker:none;paint-order:markers stroke fill;color-rendering:auto;image-rendering:auto;shape-rendering:auto;text-rendering:auto;enable-background:accumulate"
         id="path129-6"
         cx="219.17427"
         cy="473.93555"
         rx="4.5044055"
         ry="4.461184" />
      <ellipse
         style="color:#000000;clip-rule:nonzero;display:inline;overflow:visible;visibility:visible;opacity:1;isolation:auto;mix-blend-mode:normal;color-interpolation:sRGB;color-interpolation-filters:linearRGB;solid-color:#000000;solid-opacity:1;vector-effect:none;fill:#3e933e;fill-opacity:1;fill-rule:nonzero;stroke:#4e5a30;stroke-width:1.56778371;stroke-linecap:butt;stroke-linejoin:miter;stroke-miterlimit:4;stroke-dasharray:none;stroke-dashoffset:0;stroke-opacity:1;marker:none;paint-order:markers stroke fill;color-rendering:auto;image-rendering:auto;shape-rendering:auto;text-rendering:auto;enable-background:accumulate"
         id="path129-13"
         cx="244.85037"
         cy="509.10431"
         rx="4.5044055"
         ry="4.461184" />
    </g>
    <use
       style="fill:#3e933e;fill-opacity:1;stroke:#4e5a30;stroke-width:1.11522841;stroke-opacity:1"
       xlink:href="#g3499"
       height="660"
       width="600"
       y="0"
       x="0"
       id="use3516"
       transform="matrix(-0.99999997,0,0,0.99999998,522.38255,1.5421473e-7)" />
  </g>
</svg>
