<?xml version="1.0" encoding="UTF-8" standalone="no"?>
<!-- Created with Inkscape (http://www.inkscape.org/) -->
<svg
   xmlns:dc="http://purl.org/dc/elements/1.1/"
   xmlns:cc="http://web.resource.org/cc/"
   xmlns:rdf="http://www.w3.org/1999/02/22-rdf-syntax-ns#"
   xmlns:svg="http://www.w3.org/2000/svg"
   xmlns="http://www.w3.org/2000/svg"
   xmlns:sodipodi="http://sodipodi.sourceforge.net/DTD/sodipodi-0.dtd"
   xmlns:inkscape="http://www.inkscape.org/namespaces/inkscape"
   width="304"
   height="304"
   id="svg2"
   sodipodi:version="0.32"
   inkscape:version="0.45"
   version="1.0"
   sodipodi:docbase="/mnt/hda3/home/dwiebe/svg"
   sodipodi:docname="Roundel_of_Luxembourg.svg"
   inkscape:output_extension="org.inkscape.output.svg.inkscape"
   sodipodi:modified="true">
  <defs
     id="defs4" />
  <sodipodi:namedview
     id="base"
     pagecolor="#ffffff"
     bordercolor="#666666"
     borderopacity="1.0"
     inkscape:pageopacity="0.0"
     inkscape:pageshadow="2"
     inkscape:zoom="1.2960526"
     inkscape:cx="152"
     inkscape:cy="152"
     inkscape:document-units="px"
     inkscape:current-layer="layer1"
     inkscape:window-width="765"
     inkscape:window-height="606"
     inkscape:window-x="25"
     inkscape:window-y="234" />
  <metadata
     id="metadata7">
    <rdf:RDF>
      <cc:Work
         rdf:about="">
        <dc:format>image/svg+xml</dc:format>
        <dc:type
           rdf:resource="http://purl.org/dc/dcmitype/StillImage" />
      </cc:Work>
    </rdf:RDF>
  </metadata>
  <g
     inkscape:label="Layer 1"
     inkscape:groupmode="layer"
     id="layer1"
     transform="translate(-73,2)">

    <path
       style="fill:transparent;fill-opacity:1;fill-rule:evenodd;stroke:none;stroke-width:1;stroke-linecap:round;stroke-linejoin:round;stroke-miterlimit:4;stroke-dasharray:none;stroke-dashoffset:0.99999998;stroke-opacity:1"
       d="M 135.03125,270 C 160.10285,288.83481 191.25059,300 225,300 C 258.74941,300 289.89715,288.83481 314.96875,270 L 135.03125,270 z "
       id="rect2663" />
    <path
       style="fill:transparent;fill-opacity:1;fill-rule:evenodd;stroke:none;stroke-width:1;stroke-linecap:round;stroke-linejoin:round;stroke-miterlimit:4;stroke-dasharray:none;stroke-dashoffset:0.99999998;stroke-opacity:1"
       d="M 87.5,210 C 92.185535,220.71429 98.088559,230.76395 105.03125,240 L 344.96875,240 C 351.91144,230.76395 357.81446,220.71429 362.5,210 L 87.5,210 z "
       id="rect2665" />
    <path
       style="fill:transparent;fill-opacity:1;fill-rule:evenodd;stroke:none;stroke-width:1;stroke-linecap:round;stroke-linejoin:round;stroke-miterlimit:4;stroke-dasharray:none;stroke-dashoffset:0.99999998;stroke-opacity:1"
       d="M 75,150 C 75,160.274 76.060554,170.30494 78.03125,180 L 371.96875,180 C 373.93945,170.30494 375,160.274 375,150 L 75,150 z "
       id="rect2667" />
    <path
       style="fill:transparent;fill-opacity:1;fill-rule:evenodd;stroke:none;stroke-width:1;stroke-linecap:round;stroke-linejoin:round;stroke-miterlimit:4;stroke-dasharray:none;stroke-dashoffset:0.99999998;stroke-opacity:1"
       d="M 87.5,90 C 83.334502,99.525133 80.151837,109.56754 78.03125,120 L 371.96875,120 C 369.84816,109.56754 366.6655,99.525133 362.5,90 L 87.5,90 z "
       id="rect2669" />
    <path
       style="fill:transparent;fill-opacity:1;fill-rule:evenodd;stroke:none;stroke-width:1;stroke-linecap:round;stroke-linejoin:round;stroke-miterlimit:4;stroke-dasharray:none;stroke-dashoffset:0.99999998;stroke-opacity:1"
       d="M 135.03125,30 C 123.67604,38.530502 113.56498,48.647349 105.03125,60 L 344.96875,60 C 336.43502,48.647349 326.32396,38.530502 314.96875,30 L 135.03125,30 z "
       id="rect2671" />
    <g
       id="g2569"
       transform="matrix(1.0338379,0,0,1.0338379,49.180903,24.33559)">
      <path
         d="M 217.93185 229.72453 A 4.1216426 4.1216426 0 1 1  209.68857,229.72453 A 4.1216426 4.1216426 0 1 1  217.93185 229.72453 z"
         sodipodi:ry="4.1216426"
         sodipodi:rx="4.1216426"
         sodipodi:cy="229.72453"
         sodipodi:cx="213.81021"
         id="path2499"
         style="opacity:1;fill:#ef2b2d;fill-opacity:1;fill-rule:evenodd;stroke:#000000;stroke-width:1;stroke-linecap:round;stroke-linejoin:round;stroke-miterlimit:4;stroke-dasharray:none;stroke-dashoffset:0.99999998;stroke-opacity:1"
         sodipodi:type="arc" />
      <path
         sodipodi:nodetypes="csccccsccsccccccscccsccscc"
         id="path2412"
         d="M 122.4,104.8 C 120.5839,108.45459 116.52991,110.94189 113,112.8 C 105.76709,116.60733 100.33447,120.6954 96,124.8 C 90.415605,115.44682 84.505068,122.5152 83.6,124.4 C 85.326692,115.31767 73.744368,119.74107 74.8,122.5 C 69.565048,124.37789 71.613287,129.64356 74.4,133.2 C 74.979311,134.13749 71.136212,142.45803 81.2,141.8 C 84.126305,141.60866 88.586888,137.4074 92.059683,134.60474 L 89.550719,142.13163 C 93.681018,141.25683 96.466253,139.33216 98.235594,136.72771 C 99.299745,135.16129 99.596711,133.15515 102.33067,133.38014 C 102.57136,134.98517 102.61166,136.79058 100.93756,140.39465 C 103.76818,138.63057 106.59881,136.65929 109.42943,132.86776 C 109.81676,134.88307 109.61901,137.0934 108.46445,139.62267 C 112.60456,137.0619 116.78792,134.8904 120.43028,127.84983 L 120.43028,135.18373 C 123.59608,132.46962 127.74771,131.55818 128.67989,124.90233 C 128.94191,123.03151 129.53631,121.37092 131.63496,121.27565 L 131.63496,129.87222 C 135.24384,126.5299 137.99972,120.85288 138.75399,118.4549 C 138.75399,118.4549 139.55991,120.46973 140.0972,122.75319 C 140.63448,125.03666 140.90313,127.58876 140.90313,127.58876 C 144.57572,123.67096 145.00594,119.46367 144.39549,115.23119 C 144.39549,115.23119 146.41031,118.01835 147.35056,120.3354 C 148.29081,122.65245 148.42513,125.70826 148.42513,125.70826 L 150.70859,121.67861 L 158.9022,90.735016 L 144.33477,79.181537 L 121.22781,100.27919 L 122.4,104.8 z "
         style="fill:#ef2b2d;fill-opacity:1;fill-rule:evenodd;stroke:#000000;stroke-width:1px;stroke-linecap:butt;stroke-linejoin:miter;stroke-opacity:1" />
      <path
         sodipodi:nodetypes="csssccccccscccscc"
         id="path2397"
         d="M 131.18415,68.014461 C 131.18415,68.014461 123.33104,60.190425 115.34159,54.29712 C 107.93162,48.831256 106.93845,37.183946 113.02317,31.499285 C 114.22568,30.375835 115.22886,29.124374 115.53479,27.055639 C 116.14616,22.921551 109.34439,20.405613 107.42031,27.442043 C 107.63752,21.189281 99.198176,22.252899 99.692228,28.408053 C 93.174729,18.309928 87.565164,32.130132 92.543754,35.363325 C 86.308166,39.225754 89.684616,47.345492 95.441784,44.443818 C 93.563778,49.290903 97.86653,48.729014 94.08937,53.33111 C 94.79668,53.783012 95.329556,54.409348 98.533016,52.3651 C 98.234608,53.484833 97.488672,53.992318 96.88675,55.210553 C 96.250492,56.49828 95.752476,58.512145 95.248582,60.286382 C 97.073561,60.694546 98.36677,60.570941 99.692228,60.479584 C 97.781381,60.951341 98.601936,65.472954 98.646612,69.366875 C 100.32239,68.845551 100.91497,69.087353 101.62424,72.651309 C 102.67845,77.948463 112.25036,87.527863 112.25036,87.527863 C 135.22916,82.961481 128.60016,74.952332 131.18415,68.014461 z "
         style="fill:#ef2b2d;fill-opacity:1;fill-rule:evenodd;stroke:#000000;stroke-width:1px;stroke-linecap:butt;stroke-linejoin:miter;stroke-opacity:1" />
      <path
         sodipodi:nodetypes="cccc"
         id="path2389"
         d="M 85.5,26.2 C 88.88191,24.128865 91.417846,24.43894 94,26.1 C 93.512018,30.297393 92.085971,29.846073 90.6,30.8 C 89.220875,26.824917 87.604537,26.92426 85.5,26.2 z "
         style="fill:#f8d80e;fill-opacity:1;fill-rule:evenodd;stroke:#000000;stroke-width:1px;stroke-linecap:butt;stroke-linejoin:miter;stroke-opacity:1" />
      <path
         sodipodi:nodetypes="cccc"
         id="path2395"
         d="M 111.4,18.5 C 111.60983,21.104915 111.61163,23.605816 109.2,24.9 C 110.28876,27.300374 112.17918,27.295787 114.6,25.7 C 115.19503,21.822933 113.10355,20.333878 111.4,18.5 z "
         style="fill:#f8d80e;fill-opacity:1;fill-rule:evenodd;stroke:#000000;stroke-width:1px;stroke-linecap:butt;stroke-linejoin:miter;stroke-opacity:1" />
      <path
         sodipodi:nodetypes="cssc"
         id="path2387"
         d="M 84.6,36.4 C 84.279967,45.180022 90.63542,44.435627 91.3,42.5 C 92.094297,40.186566 90.470423,39.187192 87.8,38.4 C 85.670691,37.772318 84.6,36.4 84.6,36.4 z "
         style="fill:#f8d80e;fill-opacity:1;fill-rule:evenodd;stroke:#000000;stroke-width:1px;stroke-linecap:butt;stroke-linejoin:miter;stroke-opacity:1" />
      <path
         sodipodi:nodetypes="cccc"
         id="path2391"
         d="M 98.4,18.3 C 101.29689,20.733333 100.08826,23.166667 99.7,25.6 C 102.47968,26.027493 104.34938,24.999012 105.8,23.3 C 105.13797,19.336527 101.95694,18.579051 98.4,18.3 z "
         style="fill:#f8d80e;fill-opacity:1;fill-rule:evenodd;stroke:#000000;stroke-width:1px;stroke-linecap:butt;stroke-linejoin:miter;stroke-opacity:1" />
      <path
         sodipodi:nodetypes="cccc"
         id="path2400"
         d="M 86.830495,115.34895 C 87.508654,117.8038 87.990068,120.17433 86.471692,121.68781 C 88.385312,123.09223 90.298931,122.7052 92.212551,121.56821 C 91.976919,118.87177 90.255156,116.76978 86.830495,115.34895 z "
         style="fill:#f8d80e;fill-opacity:1;fill-rule:evenodd;stroke:#000000;stroke-width:1px;stroke-linecap:butt;stroke-linejoin:miter;stroke-opacity:1" />
      <path
         sodipodi:nodetypes="cccc"
         id="path2404"
         d="M 73.935157,116.42536 C 78.62919,114.53395 80.615986,115.85306 81.807244,119.05659 C 79.81389,121.04995 77.820536,121.60808 75.827182,120.73101 C 76.384801,118.98311 77.426007,117.239 73.935157,116.42536 z "
         style="fill:#f8d80e;fill-opacity:1;fill-rule:evenodd;stroke:#000000;stroke-width:1px;stroke-linecap:butt;stroke-linejoin:miter;stroke-opacity:1" />
      <path
         sodipodi:nodetypes="cccc"
         id="path2406"
         d="M 65.063071,127.18947 C 66.732053,126.18736 68.198711,124.98292 71.401936,125.51505 C 72.834198,126.71599 74.011723,128.34148 73.554759,132.69113 C 69.041174,132.0594 67.523652,129.28763 65.063071,127.18947 z "
         style="fill:#f8d80e;fill-opacity:1;fill-rule:evenodd;stroke:#000000;stroke-width:1px;stroke-linecap:butt;stroke-linejoin:miter;stroke-opacity:1" />
      <path
         sodipodi:nodetypes="cccc"
         id="path2408"
         d="M 70.684329,142.73763 C 70.755129,140.5736 69.695823,139.43115 73.67436,135.46355 C 77.180087,136.68477 77.038919,138.63538 77.501599,140.46521 C 73.563005,139.92677 71.769738,141.05692 70.684329,142.73763 z "
         style="fill:#f8d80e;fill-opacity:1;fill-rule:evenodd;stroke:#000000;stroke-width:1px;stroke-linecap:butt;stroke-linejoin:miter;stroke-opacity:1" />
      <path
         sodipodi:nodetypes="cc"
         id="path2414"
         d="M 74.8,122.6 C 77.087534,123.67808 76.435906,124.69773 76.578016,125.49598"
         style="fill:none;fill-opacity:0.75;fill-rule:evenodd;stroke:#000000;stroke-width:1px;stroke-linecap:round;stroke-linejoin:round;stroke-opacity:1" />
      <path
         sodipodi:nodetypes="cc"
         id="path2416"
         d="M 83.76193,123.99357 C 90.612346,127.71144 94.224922,125.72498 95.712064,125.06649"
         style="fill:none;fill-opacity:0.75;fill-rule:evenodd;stroke:#000000;stroke-width:1px;stroke-linecap:round;stroke-linejoin:round;stroke-opacity:1" />
      <path
         sodipodi:nodetypes="cc"
         id="path2418"
         d="M 91.449729,134.76471 C 92.584151,133.43782 94.0769,132.82758 95.635808,132.34966"
         style="fill:none;fill-opacity:0.75;fill-rule:evenodd;stroke:#000000;stroke-width:1px;stroke-linecap:round;stroke-linejoin:round;stroke-opacity:1" />
      <path
         sodipodi:nodetypes="cc"
         id="path2420"
         d="M 102.41101,133.45223 C 102.71908,131.88292 101.69118,129.45359 105.44416,129.45015"
         style="fill:none;fill-opacity:0.75;fill-rule:evenodd;stroke:#000000;stroke-width:1px;stroke-linecap:round;stroke-linejoin:round;stroke-opacity:1" />
      <path
         sodipodi:nodetypes="cc"
         id="path2422"
         d="M 109.40411,133.11521 C 109.28083,130.38629 110.841,129.86689 112.47939,129.45015"
         style="fill:none;fill-opacity:0.75;fill-rule:evenodd;stroke:#000000;stroke-width:1px;stroke-linecap:round;stroke-linejoin:round;stroke-opacity:1" />
      <path
         sodipodi:nodetypes="cc"
         id="path2426"
         d="M 120.39929,128.39698 C 120.24,125.04138 121.41649,124.93612 122.54777,124.3949"
         style="fill:none;fill-opacity:0.75;fill-rule:evenodd;stroke:#000000;stroke-width:1px;stroke-linecap:round;stroke-linejoin:round;stroke-opacity:1" />
      <path
         sodipodi:nodetypes="cc"
         id="path2432"
         d="M 241.75457,67.626217 C 243.21761,67.166017 243.86751,66.29925 244.71332,65.530436"
         style="fill:none;fill-opacity:0.75;fill-rule:evenodd;stroke:#000000;stroke-width:1px;stroke-linecap:round;stroke-linejoin:round;stroke-opacity:1" />
      <path
         sodipodi:nodetypes="csssscssccsssccccscczsccccscccccccccccccccszc"
         id="path2525"
         d="M 197.34658,142.89033 C 197.34658,142.89033 191.41014,142.4729 183.2,143.06667 C 172.2572,143.85807 164.43256,143.58915 158.26667,147.33333 C 149.87373,152.42987 148.02304,153.6 144.13333,153.6 C 141.95496,153.6 141.1756,152.53333 138.93333,152.53333 C 133.37746,152.53333 122.78256,160.11308 122.78256,160.11308 C 115.77535,156.49491 115.58256,166.06796 115.58256,168.65205 C 115.58256,173.33577 116.49055,175.74848 116.49055,178.81783 C 116.49055,184.04068 113.4606,185.83019 113.4606,187.52115 C 115.15242,188.1156 116.14096,190.57546 120.69875,181.40014 C 119.7291,190.71285 116.94883,195.90705 114.83544,200.47517 C 113.81711,202.67629 113.11544,204.57874 112.10198,206.27717 C 108.13822,212.91991 102.45374,216.75404 98.935145,216.75404 C 95.161277,216.75404 93.256469,214.35638 93.256469,214.35638 C 97.79396,211.33156 88.597126,203.17438 86.189673,214.48257 C 80.078766,215.2411 80.852552,225.07944 85.275771,224.95259 C 88.094179,234.07577 93.092744,234.04229 99.251291,229.13688 C 99.251291,229.13688 99.669716,231.43824 99.669716,233.07011 C 99.669716,234.70198 99.251291,235.66436 99.251291,235.66436 C 103.14125,235.3039 105.0448,233.30263 106.26186,230.49201 C 111.661,238.47891 119.72276,231.94616 119.71629,228.99125 C 119.70982,226.03542 118.46714,226.62799 118.43338,223.99463 C 118.39962,221.36127 119.67556,219.40096 119.67556,219.40096 C 121.18312,222.45316 123.21955,223.56024 124.51035,227.16816 C 127.54032,224.3355 126.24899,220.59684 126.56738,216.86032 C 129.57626,218.48718 130.59862,220.4215 130.33988,223.5565 C 130.33988,223.5565 132.74485,220.67997 132.60338,217.61481 C 132.46191,214.54965 129.95067,211.59077 129.95067,211.59077 C 137.73817,210.90503 136.28455,212.78886 137.41332,213.65369 C 140.65728,209.36713 138.09063,204.74166 134.05089,201.56509 C 140.14645,200.46926 141.80536,202.85748 143.7,205.7 C 146.75769,203.56607 146.06568,197.68671 142.06651,193.76571 L 145.13697,193.16994 L 146.83261,194.86557 C 148.81529,192.06306 146.82166,188.69251 145.54943,185.42502 L 149.67394,187.80807 C 148.53945,184.68566 148.25087,182.83213 148.29911,181.48382 C 150.35973,182.67192 151.3463,184.66556 152.23904,186.72957 C 153.5188,184.28263 153.6587,181.15177 153.46408,177.82019 C 156.19538,179.78901 157.45124,182.83089 156.91646,187.17504 C 158.27293,185.21723 160.04785,184.23583 160.59158,180.38163 C 161.8124,181.5591 162.63988,182.44258 167.57703,182.76243 C 164.50828,179.93376 163.76357,177.18871 164.41665,174.92113 C 165.73097,170.3577 173.95638,169.58502 182.48797,169.4352 C 191.01956,169.28538 193.87585,166.11097 199.91387,164.11062 L 197.34658,142.89033 z "
         style="fill:#ef2b2d;fill-opacity:1;fill-rule:evenodd;stroke:#000000;stroke-width:1px;stroke-linecap:butt;stroke-linejoin:round;stroke-opacity:1" />
      <path
         sodipodi:nodetypes="cccsccc"
         id="path2523"
         d="M 197.08923,148.40803 L 190.31998,148.40803 C 191.80235,151.12038 193.57684,153.39457 194.42058,157.06486 C 193.44857,158.52478 192.53177,159.96454 193.05371,161.10037 C 193.66462,162.42982 193.80614,164.02707 197.2194,163.70392 L 199.49751,163.44357 L 197.08923,148.40803 z "
         style="fill:#ef2b2d;fill-opacity:1;fill-rule:evenodd;stroke:#000000;stroke-width:1px;stroke-linecap:butt;stroke-linejoin:miter;stroke-opacity:1" />
      <path
         sodipodi:nodetypes="csccccsccssscscssscccscscccccscssscsssscsccscsssscccscccsssscssccccsssssccccccscccccccccccccccsccscccc"
         d="M 256.9375,54.84375 C 254.20673,54.9634 251.23792,55.920778 248.40625,58.25 C 247.66762,58.857573 243.4226,63.02079 241.65625,61.125 C 241.19925,60.611771 240.91157,59.653785 240.90625,58.125 C 236.83504,60.787355 235.48133,64.438272 241.59375,67.59375 C 241.33513,73.130747 240.91721,79.184729 247.40625,83.8125 C 247.40625,81.424158 246.9026,79.84283 247.8125,77.8125 C 248.61145,76.029745 249.59374,76.169433 249.59375,73 C 253.01655,73.376229 256.91142,71.768246 255.1875,68.40625 C 248.51691,67.23143 252.95852,61.766169 257.1875,61.40625 C 259.30726,61.225841 262.59374,61.713316 262.59375,68.40625 C 262.59375,73.49204 261.79258,75.183758 254.59375,82.1875 C 251.49838,85.198978 249.46665,86.763217 247.5625,88.34375 C 248.06904,88.94815 248.53661,89.531799 249,90.0625 C 249.78647,90.963208 250.59539,91.830644 251.375,92.71875 C 252.0796,92.064187 252.81622,91.408894 253.5625,90.78125 C 255.74989,88.941581 259.07147,85.617144 261.1875,83.5625 C 268.84061,76.131407 272.2343,64.400093 266.28125,58.125 C 264.62935,56.383735 261.06042,54.663102 256.9375,54.84375 z M 250.02432,217.64973 C 251.21365,222.05232 251.16603,225.89887 249.6,227.8 C 248.53034,227.24724 245.99554,220.67558 243.4,220.8 C 242.91148,225.36638 238.51381,228.81587 234.41261,232.35006 L 239.9773,237.68289 C 234.83259,239.9633 232.06344,238.4428 229.5435,236.52358 C 227.82191,243.24551 226.31767,244.15828 223.28322,244.63876 C 224.04065,241.83573 225.17184,238.84583 223.88983,237.06252 C 218.13534,241.17801 215.76153,247.18489 207.3959,243.32411 L 203.73058,240.88056 L 202.81425,238.2843 L 201.59248,233.85537 C 202.89064,231.46904 196.15222,234.39128 205.93492,226.6057 C 209.499,229.38112 212.17481,234.26936 220.13067,229.21852 C 223.09496,227.33661 222.18295,223.92836 222.50621,221.54535 C 222.88054,218.78587 222.08459,215.91682 224.86758,213.17319 C 226.36702,211.69495 227.33629,211.00007 227.33629,208.23577 C 227.33629,204.98546 225.19697,202.43643 221.30568,202.43643 C 218.52105,202.43643 217.30943,201.50041 215.61032,200.67358 C 214.50931,204.54787 212.21,205.31714 210.05056,206.36894 C 209.74673,203.01146 209.47062,200.03307 207.74528,198.0971 C 208.66353,212.70704 199.69282,209.46244 198,208.6 C 199.96114,206.58129 202.96044,206.46435 201.76777,200.55362 C 200.97901,196.64457 196.82716,190.07802 194.8896,184.86138 C 192.49794,178.42213 192.76073,170.44798 197.51849,165.35521 C 197.30676,158.81798 196.66567,151.48317 191.1875,145.3125 C 185.78301,139.22483 183.44564,136.36925 178.8125,134.59375 C 171.17612,134.45419 155.04186,131.09684 151,122.1875 C 148.7131,117.14655 149.13192,106.23408 151.8125,93.90625 L 158.21875,83.6875 L 180.5,85.375 L 188.53125,103.46875 C 193.66909,109.04259 199.60079,114.72364 201.78125,119.875 C 203.66015,124.41992 208.82225,127.66242 213.8125,130.75 C 220.33516,134.78571 222.5901,138.03654 224.875,141.46875 C 224.9105,141.50961 224.96188,141.55667 225,141.59375 C 225.02318,141.61556 225.06966,141.66697 225.09375,141.6875 C 226.05324,142.47886 227.70474,142.3099 229.46875,142.71875 C 231.63978,143.22195 233.57463,145.20588 235.21875,146.21875 C 246.30446,150.90027 246.58889,145.45376 246.6875,139.9375 C 246.74986,136.44913 244.85627,133.05023 242.625,129.46875 C 236.39505,119.46888 236.2507,115.08771 236.375,110.375 C 236.49093,105.97975 237.26913,99.160588 242.5,93.25 C 242.63471,93.097784 242.74442,92.95672 242.875,92.8125 C 244.35794,94.549229 245.77829,96.107301 247,97.5 C 247.00951,97.51084 247.02175,97.520419 247.03125,97.53125 C 244.48755,101.00297 242.79481,105.06065 242.6875,110.25 C 242.58526,115.29344 244.37507,120.56058 247.90625,126.0625 C 254.55203,136.41728 255.08915,143.25446 251.30131,146.92863 C 257.17029,144.12394 262.72168,139.42157 262.73123,128.08123 C 262.74004,117.62536 259.28648,111.52741 246.99282,97.513189 C 239.42499,88.886206 225.15208,73.293898 225.15208,55.25761 C 225.15208,42.785377 233.75147,27.386843 249.01529,27.386843 C 255.94195,27.386843 261.72505,28.997951 264.79713,33.541706 C 269.72628,33.344236 272.17462,35.619187 275.56124,33.673826 C 275.75541,36.143963 275.22825,38.192213 271.31075,38.874702 C 276.22216,41.559206 278.22191,45.306112 278.22191,52.3559 C 278.22191,61.084269 281.62187,62.554961 283.93333,63.681217 C 272.96953,64.281407 265.75173,59.937975 264.58737,47.021685 C 263.10301,49.623526 261.18068,49.159622 259.38195,49.560911 C 259.3703,41.329202 256.11379,35.008929 247.95544,35.079476 C 233.43987,35.204996 231.95831,50.138558 231.95831,54.004557 C 231.95831,68.701189 242.74463,82.869054 249.01529,90.050528 C 259.51669,102.07725 269.78174,112.73904 269.78174,128.48669 C 269.78174,136.0901 263.95388,156.7181 247.69599,156.7181 C 239.05998,156.7181 232.59773,150.46755 228.94436,150.46755 C 230.82952,154.75194 234.61859,158.54493 234.61859,163.26224 C 234.61859,166.21687 235.46168,167.82261 236.46806,168.67855 C 234.03047,169.22412 232.3932,168.56151 230.39123,167.2254 C 230.95196,168.16751 229.18048,173.61445 242.41279,170.52803 C 242.63219,172.63238 241.62136,173.75254 240.48094,174.76904 C 245.48386,176.77756 246.34233,178.03255 248.5626,179.53514 L 240.37733,179.53514 C 247.41327,181.33479 251.69473,185.44285 251.56731,186.68429 C 251.42128,188.51475 253.38445,189.82716 255.40092,191.65762 C 257.1691,193.66538 259.80884,194.55935 259.8429,198.68722 C 259.85311,199.92406 259.9773,201.12684 260.71695,202.68288 C 258.55213,201.64159 256.98212,201.49251 255.47265,201.43424 C 261.34954,206.74828 262.86601,209.94588 262.46506,211.67312 C 262.21601,212.74599 262.66072,214.06468 261.46614,215.54392 C 258.88561,211.30828 256.30507,210.73652 253.72454,210.42448 C 256.40076,212.80609 257.24919,216.28436 256.59643,220.66336 C 255.38878,219.33734 252.80486,218.66117 250.02432,217.64973 z "
         style="fill:#ef2b2d;fill-opacity:1;fill-rule:evenodd;stroke:#000000;stroke-width:1px;stroke-linecap:butt;stroke-linejoin:miter;stroke-opacity:1"
         id="path2430" />
      <g
         id="g2447">
        <path
           style="fill:#f8d80e;fill-opacity:1;fill-rule:evenodd;stroke:#000000;stroke-width:1px;stroke-linecap:butt;stroke-linejoin:miter;stroke-opacity:1"
           d="M 170.50635,21.332903 C 178.41779,21.41885 194.22091,22.160408 202.08978,23.983261 C 204.26806,24.487867 204.34294,26.958793 202.08978,27.517071 C 191.29426,27.413269 180.46584,27.572698 169.95419,25.198008 C 167.81101,23.444192 168.09717,21.30673 170.50635,21.332903 z "
           id="path2381"
           sodipodi:nodetypes="csccs" />
        <path
           style="fill:#f8d80e;fill-opacity:1;fill-rule:evenodd;stroke:#000000;stroke-width:1px;stroke-linecap:butt;stroke-linejoin:miter;stroke-opacity:1"
           d="M 163.41809,6.434407 C 166.50334,6.4726384 169.69404,6.3012044 169.61361,10.423915 C 176.96455,10.727183 172.26506,14.958653 171.67878,15.452164 C 168.31838,18.280822 171.43364,18.533188 172.4869,18.505029 C 174.98033,18.438366 176.54445,17.019057 177.60493,14.823633 C 179.04332,17.244468 180.65981,19.581011 183.26171,19.402931 C 185.39107,19.257192 185.40773,18.141272 183.44129,17.696918 C 180.23588,16.972596 180.90477,12.810817 184.3392,12.93804 C 184.39749,11.043335 184.5248,8.292468 186.94311,8.4485315 C 190.55034,8.6813207 189.68768,11.20194 188.73891,13.38699 C 192.38255,13.016136 191.9314,17.415867 190.26535,17.696917 C 185.84689,18.44228 188.0053,19.273516 188.46954,19.402931 C 193.76496,20.879129 194.29778,17.591046 195.47318,16.529646 C 196.67846,18.576282 196.58046,19.549817 199.42394,20.300832 C 202.35127,21.073993 204.04767,19.047773 201.30954,17.876498 C 196.22671,15.702244 201.48968,11.526676 204.45219,12.668669 C 204.73996,9.2061726 208.14969,10.005296 211.00687,10.513705 C 207.24675,12.906266 207.52672,13.897627 206.60716,16.978597 C 205.71224,19.977022 203.2145,23.031564 200.50142,22.725167 C 196.4265,22.264973 196.19091,21.190091 195.2936,19.813141 C 192.89447,23.222035 189.02021,21.731132 186.22479,20.480413 C 182.50807,21.88389 179.55607,21.320937 177.51514,18.415239 C 176.08709,19.591099 174.79571,20.858737 172.4869,20.659993 C 167.49265,20.230086 166.4205,16.635409 166.56075,14.015521 C 166.73787,10.706989 165.05973,8.5772295 163.41809,6.434407 z "
           id="path2383"
           sodipodi:nodetypes="ccsscsscscssczscczscccssc" />
        <path
           sodipodi:type="arc"
           style="opacity:1;fill:#ffffff;fill-opacity:1;fill-rule:evenodd;stroke:#000000;stroke-width:1;stroke-linecap:square;stroke-linejoin:round;stroke-miterlimit:4;stroke-dasharray:none;stroke-dashoffset:0.99999998;stroke-opacity:1"
           id="path2317"
           sodipodi:cx="177.8"
           sodipodi:cy="12.8"
           sodipodi:rx="1.8"
           sodipodi:ry="1.8"
           d="M 179.6 12.8 A 1.8 1.8 0 1 1  176,12.8 A 1.8 1.8 0 1 1  179.6 12.8 z"
           transform="translate(0,0.5)" />
        <path
           transform="translate(-11.4,1.3)"
           d="M 179.6 12.8 A 1.8 1.8 0 1 1  176,12.8 A 1.8 1.8 0 1 1  179.6 12.8 z"
           sodipodi:ry="1.8"
           sodipodi:rx="1.8"
           sodipodi:cy="12.8"
           sodipodi:cx="177.8"
           id="path2321"
           style="opacity:1;fill:#ffffff;fill-opacity:1;fill-rule:evenodd;stroke:#000000;stroke-width:1;stroke-linecap:square;stroke-linejoin:round;stroke-miterlimit:4;stroke-dasharray:none;stroke-dashoffset:0.99999998;stroke-opacity:1"
           sodipodi:type="arc" />
        <path
           transform="translate(8.53063,2.7)"
           d="M 179.6 12.8 A 1.8 1.8 0 1 1  176,12.8 A 1.8 1.8 0 1 1  179.6 12.8 z"
           sodipodi:ry="1.8"
           sodipodi:rx="1.8"
           sodipodi:cy="12.8"
           sodipodi:cx="177.8"
           id="path2323"
           style="opacity:1;fill:#ffffff;fill-opacity:1;fill-rule:evenodd;stroke:#000000;stroke-width:1;stroke-linecap:square;stroke-linejoin:round;stroke-miterlimit:4;stroke-dasharray:none;stroke-dashoffset:0.99999998;stroke-opacity:1"
           sodipodi:type="arc" />
        <path
           sodipodi:type="arc"
           style="opacity:1;fill:#ffffff;fill-opacity:1;fill-rule:evenodd;stroke:#000000;stroke-width:1;stroke-linecap:square;stroke-linejoin:round;stroke-miterlimit:4;stroke-dasharray:none;stroke-dashoffset:0.99999998;stroke-opacity:1"
           id="path2325"
           sodipodi:cx="177.8"
           sodipodi:cy="12.8"
           sodipodi:rx="1.8"
           sodipodi:ry="1.8"
           d="M 179.6 12.8 A 1.8 1.8 0 1 1  176,12.8 A 1.8 1.8 0 1 1  179.6 12.8 z"
           transform="translate(18,1.9)" />
        <path
           transform="translate(29.2,4.3)"
           d="M 179.6 12.8 A 1.8 1.8 0 1 1  176,12.8 A 1.8 1.8 0 1 1  179.6 12.8 z"
           sodipodi:ry="1.8"
           sodipodi:rx="1.8"
           sodipodi:cy="12.8"
           sodipodi:cx="177.8"
           id="path2327"
           style="opacity:1;fill:#ffffff;fill-opacity:1;fill-rule:evenodd;stroke:#000000;stroke-width:1;stroke-linecap:square;stroke-linejoin:round;stroke-miterlimit:4;stroke-dasharray:none;stroke-dashoffset:0.99999998;stroke-opacity:1"
           sodipodi:type="arc" />
        <path
           style="fill:#ffffff;fill-opacity:1;fill-rule:evenodd;stroke:#000000;stroke-width:1px;stroke-linecap:butt;stroke-linejoin:miter;stroke-opacity:1"
           d="M 154.93394,44.280604 L 157.57963,48.410455 L 157.64416,43.441728 L 154.93394,44.280604 z "
           id="path2377" />
        <path
           style="fill:#ffffff;fill-opacity:1;fill-rule:evenodd;stroke:#000000;stroke-width:1px;stroke-linecap:butt;stroke-linejoin:miter;stroke-opacity:1"
           d="M 157.57963,56.089397 L 157.45057,50.733496 L 160.93513,56.476571 L 157.57963,56.089397 z "
           id="path2379" />
        <path
           style="fill:#f8d80e;fill-opacity:1;fill-rule:evenodd;stroke:#000000;stroke-width:1px;stroke-linecap:butt;stroke-linejoin:miter;stroke-opacity:1"
           d="M 165.1049,51.647493 C 161.00336,49.747844 159.00668,47.388752 147.55113,47.590251 C 145.23022,47.537533 144.13768,46.256444 143.57668,44.443818 C 145.92009,45.092052 147.05432,44.064623 147.05432,42.125394 C 147.05432,40.266433 145.37763,39.322413 143.32828,39.392966 C 141.27894,39.463519 139.60224,40.497838 139.60224,42.787802 C 139.60224,43.972432 139.19656,50.47924 150.11795,50.322679 C 156.66978,50.228756 161.14811,51.616593 165.2705,53.800315 L 165.1049,51.647493 z "
           id="path2375"
           sodipodi:nodetypes="ccczzsscc" />
        <path
           style="fill:#ef2b2d;fill-opacity:1;fill-rule:evenodd;stroke:#000000;stroke-width:1px;stroke-linecap:butt;stroke-linejoin:miter;stroke-opacity:1"
           d="M 168.22407,24.689568 C 171.2838,25.222901 172.77146,25.866667 185,26.4 C 185.74482,24.539079 189.40219,24.634427 194.4,24.9 L 193.6,27.4 L 202.2,27.6 C 205.06583,32.086784 205.14861,38.666077 211.6,37.8 C 211.0516,40.436531 210.00947,42.585601 208,42.6 C 208.94104,44.4 210.37688,46.166068 210.4,48 C 210.45629,52.465864 212.07725,51.541443 213.6,52.4 C 214.12604,55.478772 212.13745,56.985908 208.4,57.4 C 209.19666,58.601113 208.83113,60.189625 212.6,60.4 C 211.9609,62.570676 212.29086,65.952883 207.6,65.1 C 207.4,67.7 206.58403,68.312533 206,72.4 C 205.63388,74.962375 205.52131,77.921307 205.6,81 C 201.67775,82.216702 199.40466,80.959682 197.6,79 L 197.6,88 C 197.23159,90.133333 198.64856,92.266667 203.6,94.4 C 199.31993,98.302397 197.21367,96.40799 194.4,96.4 C 194.64858,98.240111 193.10126,99.282043 197.8,103.1 C 192.68874,104.20022 187.36821,105.11435 186.4,100 C 185.4755,102.34216 183.45781,103.59114 180.4,103.8 L 180.2,97.6 C 179.16424,100.54879 178.10177,102.73422 173.9,104.1 C 175.6276,97.961361 174.31867,97.073864 173.5,94.5 C 169.23671,108.37825 160.75282,105.17645 158.4,104.4 C 162.89286,102.06091 161.48285,94.925933 160.4,92.6 C 158.62037,88.777375 159.4,87.2 159.4,87.2 C 155.71408,89.58568 153.38788,92.281314 152.9,95.2 C 151.10458,93.228756 149.02349,91.543174 149.8,87 C 146.93333,88.933332 143.30908,90.388522 139.4,90.2 C 135.38631,90.006433 132.06181,92.494498 128.6,96 C 122.63495,107.16975 120.75013,105.6 117.4,105.6 C 114.66303,105.6 112.89528,102.86667 112.4,101.6 C 116.93346,101.68897 120.35457,100.70305 120.1,97.6 C 117.23666,98.728317 114.31024,99.635829 110.4,97.1 C 113.88295,94.883462 115.31092,93.351917 115.6,92.2 C 111.0028,92.564336 109.92309,89.997423 108.4,87.8 C 114,88.757838 119.6,79.930572 125.2,74.6 C 121.46871,74.412517 120.78703,73.005189 119.6,71.8 C 130.41123,69.892632 136.42472,63.4 144,63.4 L 153,65.2 L 154.2,62.4 C 154.70932,58.253377 154.59783,57.210874 154.6,55.6 C 164.49578,58.081221 163.94085,55.337092 164.6,53.2 L 164.6,44.2 C 162.01021,39.352336 160.66582,44.7 156.2,44.7 C 153.88689,44.7 151.44583,41.343563 151.2317,38.536584 C 149.51377,38.464074 148.99416,34.951782 148.6,33.4 C 150.35442,33.273695 152.22946,33.020932 155.5,33.4 C 156.07056,31.111107 157.39905,29.316861 160.13758,29.102744 C 162.85479,28.890294 164.15817,25.780753 168.22407,24.689568 z "
           id="path2329"
           sodipodi:nodetypes="cccccccsccccsccccccccccccscccscscccccccccccccscccsc" />
        <path
           style="fill:none;fill-opacity:0.75;fill-rule:evenodd;stroke:#000000;stroke-width:1px;stroke-linecap:round;stroke-linejoin:round;stroke-opacity:1"
           d="M 207.6,65 C 205.22851,61.828511 205.35113,61.151128 204.4,59.4"
           id="path2331"
           sodipodi:nodetypes="cc" />
        <path
           style="fill:none;fill-opacity:0.75;fill-rule:evenodd;stroke:#000000;stroke-width:1px;stroke-linecap:round;stroke-linejoin:round;stroke-opacity:1"
           d="M 197.2,78.8 C 194.60302,75.668478 195.5357,74.654751 195.4,73"
           id="path2333"
           sodipodi:nodetypes="cc" />
        <path
           style="fill:none;fill-opacity:0.75;fill-rule:evenodd;stroke:#000000;stroke-width:1px;stroke-linecap:round;stroke-linejoin:round;stroke-opacity:1"
           d="M 194.39569,96.323167 C 194.39569,94.698229 192.40431,93.22842 192.30059,91.235058"
           id="path2335"
           sodipodi:nodetypes="cc" />
        <path
           style="fill:none;fill-opacity:0.75;fill-rule:evenodd;stroke:#000000;stroke-width:1px;stroke-linecap:round;stroke-linejoin:round;stroke-opacity:1"
           d="M 186.46423,99.316172 C 186.12089,93.710706 181.02283,91.953295 183.47122,86.44625"
           id="path2337"
           sodipodi:nodetypes="cc" />
        <path
           style="fill:none;fill-opacity:0.75;fill-rule:evenodd;stroke:#000000;stroke-width:1px;stroke-linecap:round;stroke-linejoin:round;stroke-opacity:1"
           d="M 180.1,98.2 C 180.5174,96.738643 179.93105,95.611872 179.6,94.4"
           id="path2339"
           sodipodi:nodetypes="cc" />
        <path
           style="fill:none;fill-opacity:0.75;fill-rule:evenodd;stroke:#000000;stroke-width:1px;stroke-linecap:round;stroke-linejoin:round;stroke-opacity:1"
           d="M 173.5,94.6 C 173.94751,90.43476 172.92654,89.573614 172.4,87.6"
           id="path2341"
           sodipodi:nodetypes="cc" />
        <path
           style="fill:none;fill-opacity:0.75;fill-rule:evenodd;stroke:#000000;stroke-width:1px;stroke-linecap:round;stroke-linejoin:round;stroke-opacity:1"
           d="M 149.5,87.3 C 151.85193,85.314733 151.32302,84.110309 153.6,82.2"
           id="path2343"
           sodipodi:nodetypes="cc" />
        <path
           style="fill:none;fill-opacity:0.75;fill-rule:evenodd;stroke:#000000;stroke-width:1px;stroke-linecap:round;stroke-linejoin:round;stroke-opacity:1"
           d="M 128.4,96 C 126.89204,86.245865 132.35172,84.092788 136.4,80.4"
           id="path2345"
           sodipodi:nodetypes="cc" />
        <path
           style="fill:none;fill-opacity:0.75;fill-rule:evenodd;stroke:#000000;stroke-width:1px;stroke-linecap:round;stroke-linejoin:round;stroke-opacity:1"
           d="M 120,97.6 C 120.01443,94.687775 121.18339,91.683342 124.9,89.3"
           id="path2347"
           sodipodi:nodetypes="cc" />
        <path
           style="fill:none;fill-opacity:0.75;fill-rule:evenodd;stroke:#000000;stroke-width:1px;stroke-linecap:round;stroke-linejoin:round;stroke-opacity:1"
           d="M 115.7,92.1 C 116.25035,90.156471 117.91642,88.91026 120.6,88.3"
           id="path2349"
           sodipodi:nodetypes="cc" />
        <path
           style="fill:none;fill-opacity:0.75;fill-rule:evenodd;stroke:#000000;stroke-width:1px;stroke-linecap:round;stroke-linejoin:round;stroke-opacity:1"
           d="M 125.2,74.6 L 131.7,72.3"
           id="path2351" />
        <path
           style="fill:none;fill-opacity:0.75;fill-rule:evenodd;stroke:#000000;stroke-width:1px;stroke-linecap:round;stroke-linejoin:round;stroke-opacity:1"
           d="M 153,65.2 C 158.61138,67.165398 161.12146,64.716437 167.75759,64.501748 C 172.17419,64.358863 172.66837,60.374862 177.8,59.5"
           id="path2353"
           sodipodi:nodetypes="csc" />
        <path
           style="fill:none;fill-opacity:0.75;fill-rule:evenodd;stroke:#000000;stroke-width:1px;stroke-linecap:round;stroke-linejoin:round;stroke-opacity:1"
           d="M 154.2,62.4 C 159.62553,61.799323 166.47996,63.291208 171.25037,58.663502 C 173.45103,56.528675 175.81234,55.032278 178.4,53.6"
           id="path2355"
           sodipodi:nodetypes="csc" />
        <path
           style="fill:none;fill-opacity:0.75;fill-rule:evenodd;stroke:#000000;stroke-width:1px;stroke-linecap:round;stroke-linejoin:round;stroke-opacity:1"
           d="M 193.55359,27.455614 L 192.31326,32.388014"
           id="path2357"
           sodipodi:nodetypes="cc" />
        <path
           style="fill:none;fill-opacity:0.75;fill-rule:evenodd;stroke:#000000;stroke-width:1px;stroke-linecap:butt;stroke-linejoin:miter;stroke-opacity:1"
           d="M 184.9,26.5 C 184.9,26.5 184.31706,29.982422 183.5,29.1 C 182.875,28.425 180.4,28.2 180.4,28.2"
           id="path2359"
           sodipodi:nodetypes="csc" />
        <path
           style="fill:none;fill-opacity:0.75;fill-rule:evenodd;stroke:#000000;stroke-width:1;stroke-linecap:round;stroke-linejoin:round;stroke-miterlimit:4;stroke-dasharray:none;stroke-opacity:1"
           d="M 183.5,31.4 C 183.45218,32.212199 183.60088,32.660176 184.3,32.8 C 184.6236,32.86472 185.21143,33.377857 185.7,33.5 C 186.41123,33.677808 186.47099,33.658014 186.2,34.2 C 185.99704,34.605915 185.75245,34.995102 185.6,35.3 C 185.36491,35.770173 185.24556,36.054436 184.9,36.4 C 184.5736,36.726402 184.5,37.423061 184.5,37.9 C 184.5,38.458684 184.38611,38.94445 184.5,39.4 C 184.59085,39.763396 185.29797,40.195933 185.5,40.6 C 185.70924,41.018475 185.6,41.724471 185.6,42.2 C 185.6,42.768788 185.31727,42.830905 185.2,43.3 C 185.08899,43.74402 184.71045,44.158196 184.6,44.6 C 184.48644,45.054253 184.3,45.168924 184.3,45.7"
           id="path2361" />
        <path
           style="fill:none;fill-opacity:0.75;fill-rule:evenodd;stroke:#000000;stroke-width:1px;stroke-linecap:round;stroke-linejoin:round;stroke-opacity:1"
           d="M 186.3,28.6 L 190.5,26.5 L 190.6,30.6 C 190.54188,28.305316 188.7464,28.241041 186.3,28.6 z "
           id="path2363"
           sodipodi:nodetypes="cccc" />
        <path
           style="fill:none;fill-opacity:0.75;fill-rule:evenodd;stroke:#000000;stroke-width:1px;stroke-linecap:round;stroke-linejoin:round;stroke-opacity:1"
           d="M 163.3,35.3 C 163.15166,36.419679 163.38479,36.841309 163.9,37.7 C 164.2356,38.259341 164.40849,38.714147 164.7,39.2 C 165.09065,39.851084 165.59784,39.873383 166.3,40.4 C 166.95363,40.890219 168.25819,40.7 169.1,40.7 C 169.54004,40.7 169.2,41.446816 169.2,42 C 169.2,42.743011 169.53011,42.93011 169.9,43.3 C 170.3339,43.733899 170.40336,43.951681 170.9,44.2 C 171.33634,44.418169 171.76037,44.4 172.3,44.4 C 173.19462,44.4 173.3854,44.492699 174,44.8 C 174.40892,45.004461 174.71317,45.313169 175,45.6 C 175.38266,45.982662 175.81874,46.209372 176.2,46.4 C 176.62707,46.613534 176.5,47.229066 176.5,47.7 C 176.5,47.966667 176.5,48.233333 176.5,48.5"
           id="path2365" />
        <path
           style="fill:none;fill-opacity:0.75;fill-rule:evenodd;stroke:#000000;stroke-width:1px;stroke-linecap:round;stroke-linejoin:round;stroke-opacity:1"
           d="M 151.2,38.4 L 154.7,36.3"
           id="path2367" />
        <path
           style="fill:none;fill-opacity:0.75;fill-rule:evenodd;stroke:#000000;stroke-width:1px;stroke-linecap:round;stroke-linejoin:round;stroke-opacity:1"
           d="M 208,42.5 C 204.39501,42.878028 205.29595,41.207904 204.3,40.4"
           id="path2369"
           sodipodi:nodetypes="cc" />
        <path
           style="fill:#ffffff;fill-opacity:1;fill-rule:evenodd;stroke:#000000;stroke-width:1px;stroke-linecap:butt;stroke-linejoin:miter;stroke-opacity:1"
           d="M 167.39156,29.439819 C 167.07466,29.459678 166.25633,29.380463 165.72993,29.512064 C 165.37801,29.600045 165.16913,29.856126 164.93523,30.090024 C 164.60195,30.423306 164.59754,30.573858 164.50176,30.956963 C 164.39911,31.367563 164.35727,31.672552 164.35727,32.112883 C 164.35727,32.46795 164.36709,32.874605 164.42952,33.124312 C 164.53094,33.52998 164.60841,33.673889 164.93523,33.919007 C 165.27991,34.177517 165.09755,34.302748 165.58544,34.424721 C 165.97726,34.522678 166.29349,34.496966 166.8136,34.496966 C 167.25655,34.496966 167.47824,34.439173 167.82503,34.352476 C 168.08849,34.286612 168.31542,34.035039 168.54748,33.919007 C 168.88519,33.750154 169.03493,33.792784 169.26993,33.557782 C 169.43166,33.396048 169.83063,33.299805 170.06463,33.124312 C 170.33265,32.923297 170.42467,32.690842 170.78707,32.690842 C 170.87867,32.690842 171.2046,32.128831 171.29279,32.040638 C 171.63755,31.69588 171.35377,31.766903 171.00381,31.679413 C 170.76049,31.618584 170.22236,31.071953 169.99238,30.956963 C 169.11716,30.519356 168.80779,30.422575 168.18626,29.801044 C 167.99469,29.609479 167.64099,29.539589 167.39156,29.439819 z "
           id="path2371" />
        <path
           sodipodi:type="arc"
           style="opacity:1;fill:#000000;fill-opacity:1;fill-rule:evenodd;stroke:none;stroke-width:1;stroke-linecap:round;stroke-linejoin:round;stroke-miterlimit:4;stroke-dasharray:none;stroke-dashoffset:0.99999998;stroke-opacity:1"
           id="path2373"
           sodipodi:cx="165.22421"
           sodipodi:cy="31.823902"
           sodipodi:rx="0.43346974"
           sodipodi:ry="1.0114294"
           d="M 165.65768 31.823902 A 0.43346974 1.0114294 0 1 1  164.79074,31.823902 A 0.43346974 1.0114294 0 1 1  165.65768 31.823902 z"
           transform="matrix(2.333333,0,0,1.642857,-220.2989,-20.45822)" />
        <path
           style="fill:none;fill-opacity:0.75;fill-rule:evenodd;stroke:#000000;stroke-width:1px;stroke-linecap:round;stroke-linejoin:round;stroke-opacity:1"
           d="M 144.39549,115.49983 L 143.58956,114.29094"
           id="path2428" />
      </g>
      <path
         sodipodi:nodetypes="cccc"
         id="path2483"
         d="M 208.49991,222.35525 C 211.61855,222.33175 214.58336,222.63787 215.91151,226.45114 C 214.57502,227.65856 212.66005,227.90186 210.54785,227.81643 C 211.44877,226.34794 209.85861,224.32588 208.49991,222.35525 z "
         style="fill:#f8d80e;fill-opacity:1;fill-rule:evenodd;stroke:#000000;stroke-width:1px;stroke-linecap:butt;stroke-linejoin:miter;stroke-opacity:1" />
      <path
         sodipodi:nodetypes="csccc"
         id="path2485"
         d="M 203.52634,228.49908 C 201.98326,228.3843 200.38262,228.07963 198.65029,228.51148 C 196.75115,228.9849 196.00133,231.42471 195.9321,231.42471 C 198.23233,231.57028 199.98235,231.62121 201.4784,233.27761 C 203.78632,231.94842 203.45754,230.32585 203.52634,228.49908 z "
         style="fill:#f8d80e;fill-opacity:1;fill-rule:evenodd;stroke:#000000;stroke-width:1px;stroke-linecap:butt;stroke-linejoin:miter;stroke-opacity:1" />
      <path
         sodipodi:nodetypes="cccsc"
         id="path2487"
         d="M 199.33294,242.34706 C 195.56864,239.11749 197.42141,236.44378 201.4784,234.54538 C 202.9167,234.97898 203.93907,235.90215 204.59907,237.37349 C 204.59907,237.37349 202.89639,238.08717 201.38088,239.03135 C 199.23094,240.37078 199.74692,241.30684 199.33294,242.34706 z "
         style="fill:#f8d80e;fill-opacity:1;fill-rule:evenodd;stroke:#000000;stroke-width:1px;stroke-linecap:butt;stroke-linejoin:miter;stroke-opacity:1" />
      <path
         sodipodi:nodetypes="cccc"
         id="path2489"
         d="M 203.3313,246.54046 C 204.98579,245.71431 206.41963,244.49319 207.81726,242.63963 C 207.22282,240.88428 206.06121,240.14821 203.62386,240.59168 C 203.00056,242.67213 202.93234,244.46001 203.3313,246.54046 z "
         style="fill:#f8d80e;fill-opacity:1;fill-rule:evenodd;stroke:#000000;stroke-width:1px;stroke-linecap:butt;stroke-linejoin:miter;stroke-opacity:1" />
      <path
         sodipodi:nodetypes="cc"
         id="path2491"
         d="M 207.69214,198.31541 C 203.17049,190.95533 199.29713,184.56127 200.51607,176.23518"
         style="fill:none;fill-opacity:0.75;fill-rule:evenodd;stroke:#000000;stroke-width:1px;stroke-linecap:round;stroke-linejoin:round;stroke-opacity:1" />
      <path
         sodipodi:nodetypes="cc"
         id="path2493"
         d="M 204.34147,237.21525 C 205.09519,236.96071 206.10057,236.70618 208.46495,236.45164"
         style="fill:none;fill-opacity:0.75;fill-rule:evenodd;stroke:#000000;stroke-width:1px;stroke-linecap:round;stroke-linejoin:round;stroke-opacity:1" />
      <path
         sodipodi:nodetypes="cc"
         id="path2495"
         d="M 215.5619,200.66695 C 206.62052,192.58023 207.66053,187.82065 206.49429,182.32564"
         style="fill:none;fill-opacity:0.75;fill-rule:evenodd;stroke:#000000;stroke-width:1px;stroke-linecap:round;stroke-linejoin:round;stroke-opacity:1" />
      <path
         sodipodi:nodetypes="cc"
         id="path2501"
         d="M 223.99884,236.89707 C 224.21304,235.65663 224.20916,234.02341 225.84125,233.0183"
         style="fill:none;fill-opacity:0.75;fill-rule:evenodd;stroke:#000000;stroke-width:1px;stroke-linecap:round;stroke-linejoin:round;stroke-opacity:1" />
      <path
         id="path2503"
         d="M 233.59879,229.33347 C 233.28202,229.54664 232.93069,230.08785 232.72607,230.4971 C 232.60161,230.74602 233.69701,231.37108 233.8897,231.56376 C 234.26325,231.93732 234.44044,232.13647 234.66545,232.43649"
         style="fill:none;fill-opacity:0.75;fill-rule:evenodd;stroke:#000000;stroke-width:1px;stroke-linecap:round;stroke-linejoin:round;stroke-opacity:1" />
      <path
         id="path2505"
         d="M 243.28641,220.75635 C 242.67326,220.40516 242.76038,219.59062 242.76038,218.65225 C 242.76038,217.80608 242.36587,217.35736 242.36587,216.54815 C 242.36587,216.41664 242.36587,216.28514 242.36587,216.15363"
         style="fill:none;fill-opacity:0.75;fill-rule:evenodd;stroke:#000000;stroke-width:1px;stroke-linecap:round;stroke-linejoin:round;stroke-opacity:1" />
      <path
         sodipodi:nodetypes="cc"
         id="path2507"
         d="M 249.99322,217.6002 C 249.0485,214.52113 247.72512,213.33531 246.44256,211.94543"
         style="fill:none;fill-opacity:0.75;fill-rule:evenodd;stroke:#000000;stroke-width:1px;stroke-linecap:round;stroke-linejoin:round;stroke-opacity:1" />
      <path
         sodipodi:nodetypes="cc"
         id="path2509"
         d="M 241.19427,179.3877 C 231.64749,177.95973 233.82651,176.53175 231.43093,175.10378"
         style="fill:none;fill-opacity:0.75;fill-rule:evenodd;stroke:#000000;stroke-width:1px;stroke-linecap:butt;stroke-linejoin:miter;stroke-opacity:1" />
      <path
         sodipodi:nodetypes="cssssssssssc"
         id="path2515"
         d="M 234.12083,183.37273 C 234.595,183.56208 235.23775,184.19078 235.81447,184.76749 C 236.26505,185.21807 236.67812,185.53976 237.1096,185.86338 C 237.80276,186.38325 238.18739,186.56076 239.10212,186.56076 C 240.20965,186.56076 240.1292,186.19666 240.79576,185.86338 C 241.40718,185.55767 242.12899,186.43037 242.58903,186.66038 C 243.24812,186.98993 243.95621,186.95926 244.68117,186.95926 C 245.4735,186.95926 245.82861,187.13448 246.27519,187.35777 C 246.63653,187.53844 247.24737,187.55702 247.76957,187.55702 C 248.18697,187.55702 248.85017,186.97455 249.06471,186.76001 C 249.37611,186.44861 249.93824,186.26766 250.35985,186.16226 C 250.46305,186.13645 251.04261,186.16226 251.15685,186.16226"
         style="fill:none;fill-opacity:0.75;fill-rule:evenodd;stroke:#000000;stroke-width:1px;stroke-linecap:round;stroke-linejoin:round;stroke-opacity:1" />
      <path
         sodipodi:nodetypes="cc"
         id="path2517"
         d="M 235.31634,187.35777 C 238.09852,189.99831 241.18104,192.54107 255.14189,191.54205"
         style="fill:none;fill-opacity:0.75;fill-rule:evenodd;stroke:#000000;stroke-width:1px;stroke-linecap:round;stroke-linejoin:round;stroke-opacity:1" />
      <path
         id="path2519"
         d="M 248.2677,198.31661 C 248.66665,198.41699 249.09979,199.18097 249.56284,199.4125 C 249.80231,199.53223 250.02776,199.67817 250.26022,199.811 C 250.79861,200.11865 251.61595,200.28962 252.25274,200.60801 C 252.68786,200.82557 253.7529,200.60801 254.24526,200.60801 C 254.76522,200.60801 255.08747,201.04042 255.44077,201.30539"
         style="fill:none;fill-opacity:0.75;fill-rule:evenodd;stroke:#000000;stroke-width:1px;stroke-linecap:round;stroke-linejoin:round;stroke-opacity:1" />
      <path
         id="path2521"
         d="M 248.36733,205.29043 L 253.6475,210.37135"
         style="fill:none;fill-opacity:0.75;fill-rule:evenodd;stroke:#000000;stroke-width:1px;stroke-linecap:round;stroke-linejoin:round;stroke-opacity:1" />
      <path
         sodipodi:nodetypes="cc"
         id="path2527"
         d="M 122.70721,160.45479 C 122.58496,161.16383 122.42029,162.09145 122.42029,162.75017"
         style="fill:none;fill-opacity:0.75;fill-rule:evenodd;stroke:#000000;stroke-width:1px;stroke-linecap:round;stroke-linejoin:round;stroke-opacity:1" />
      <path
         sodipodi:nodetypes="cccc"
         id="path2529"
         d="M 86.501834,213.33887 C 88.773145,213.81767 88.800112,211.55337 88.762678,209.21037 C 86.890781,208.01077 84.408404,208.6426 81.48866,210.58654 C 85.56925,211.50398 85.657492,212.42143 86.501834,213.33887 z "
         style="fill:#f8d80e;fill-opacity:1;fill-rule:evenodd;stroke:#000000;stroke-width:1px;stroke-linecap:butt;stroke-linejoin:miter;stroke-opacity:1" />
      <path
         sodipodi:nodetypes="cccc"
         id="path2531"
         d="M 76.868675,219.82651 C 77.298969,218.19234 77.684148,217.11017 82.766528,215.9929 C 84.105674,218.08991 85.853071,219.69544 82.569933,221.79246 C 81.172802,220.5332 79.562365,219.5299 76.868675,219.82651 z "
         style="fill:#f8d80e;fill-opacity:1;fill-rule:evenodd;stroke:#000000;stroke-width:1px;stroke-linecap:butt;stroke-linejoin:miter;stroke-opacity:1" />
      <path
         sodipodi:nodetypes="cccc"
         id="path2533"
         d="M 85.518859,226.31414 C 87.720993,227.49657 89.135217,229.03713 88.467785,231.52391 C 85.255148,230.59343 84.25688,232.61545 82.471635,233.58816 C 80.535763,230.60127 81.956294,228.2537 85.518859,226.31414 z "
         style="fill:#f8d80e;fill-opacity:1;fill-rule:evenodd;stroke:#000000;stroke-width:1px;stroke-linecap:butt;stroke-linejoin:miter;stroke-opacity:1" />
      <path
         sodipodi:nodetypes="cccs"
         id="path2535"
         d="M 112.35409,233.68646 C 110.32845,232.14686 113.31689,227.39528 117.76045,231.81881 C 117.3212,235.07083 115.67498,237.44506 112.35409,238.60134 C 113.80345,236.64097 113.67754,234.69236 112.35409,233.68646 z "
         style="fill:#f8d80e;fill-opacity:1;fill-rule:evenodd;stroke:#000000;stroke-width:1px;stroke-linecap:butt;stroke-linejoin:miter;stroke-opacity:1" />
      <path
         id="path2537"
         d="M 85.359457,224.8689 L 86.447372,224.36679"
         style="fill:none;fill-opacity:0.75;fill-rule:evenodd;stroke:#000000;stroke-width:1px;stroke-linecap:round;stroke-linejoin:round;stroke-opacity:1" />
      <path
         sodipodi:nodetypes="cc"
         id="path2539"
         d="M 99.418662,228.88582 C 100.16021,226.65497 101.27154,225.28696 102.68241,224.61785"
         style="fill:none;fill-opacity:0.75;fill-rule:evenodd;stroke:#000000;stroke-width:1px;stroke-linecap:round;stroke-linejoin:round;stroke-opacity:1" />
      <path
         id="path2541"
         d="M 86.280001,214.57556 L 87.618973,216.58402"
         style="fill:none;fill-opacity:0.75;fill-rule:evenodd;stroke:#000000;stroke-width:1px;stroke-linecap:round;stroke-linejoin:round;stroke-opacity:1" />
      <path
         sodipodi:nodetypes="csc"
         id="path2543"
         d="M 123.55602,165.34045 C 121.75377,167.31237 121.06016,169.629 121.39746,174.23372 C 121.70259,178.39925 121.13415,180.05112 120.62038,182.00454"
         style="fill:none;fill-opacity:0.75;fill-rule:evenodd;stroke:#000000;stroke-width:1px;stroke-linecap:round;stroke-linejoin:round;stroke-opacity:1" />
      <path
         id="path2545"
         d="M 107.29227,227.23568 C 107.07677,227.15557 106.59139,227.26134 106.21192,227.64081 C 105.95855,227.89417 105.78615,228.01969 105.60422,228.38355 C 105.42444,228.7431 105.60277,229.25844 105.73926,229.53142 C 105.897,229.84689 106.00024,230.1209 106.1444,230.40921"
         style="fill:none;fill-opacity:0.75;fill-rule:evenodd;stroke:#000000;stroke-width:1px;stroke-linecap:round;stroke-linejoin:round;stroke-opacity:1" />
      <path
         sodipodi:nodetypes="cc"
         id="path2547"
         d="M 126.67099,217.10605 C 124.70822,214.92187 123.69482,212.66466 125.39578,210.19866"
         style="fill:none;fill-opacity:0.75;fill-rule:evenodd;stroke:#000000;stroke-width:1px;stroke-linecap:round;stroke-linejoin:round;stroke-opacity:1" />
      <path
         sodipodi:nodetypes="cc"
         id="path2549"
         d="M 128.47754,206.47929 C 127.63274,207.56235 127.33987,208.92138 129.85902,211.68641"
         style="fill:none;fill-opacity:0.75;fill-rule:evenodd;stroke:#000000;stroke-width:1px;stroke-linecap:round;stroke-linejoin:round;stroke-opacity:1" />
      <path
         sodipodi:nodetypes="cc"
         id="path2551"
         d="M 133.2,195.4 C 132.45355,198.85447 136.48686,199.99779 134.20296,201.39527"
         style="fill:none;fill-opacity:0.75;fill-rule:evenodd;stroke:#000000;stroke-width:1px;stroke-linecap:round;stroke-linejoin:round;stroke-opacity:1" />
      <path
         sodipodi:nodetypes="csssssc"
         id="path2553"
         d="M 137.1171,186.52489 C 137.14765,187.01372 137.1782,187.50256 137.20875,187.99139 C 137.25561,188.74111 137.58219,189.01322 137.85034,189.54954 C 138.06631,189.98147 138.11069,190.08485 138.49193,190.46609 C 138.93002,190.90418 139.43408,191.38621 139.77512,191.84093 C 139.98,192.11411 140.65393,192.53644 140.96664,192.84914 C 141.2641,193.14661 141.70117,193.90383 141.97485,194.04068"
         style="fill:none;fill-opacity:0.75;fill-rule:evenodd;stroke:#000000;stroke-width:1px;stroke-linecap:round;stroke-linejoin:round;stroke-opacity:1" />
      <path
         id="path2555"
         d="M 140.60002,190.37444 C 140.65531,190.48501 141.66493,191.12729 141.8832,191.291 C 142.34936,191.64062 142.95351,191.73942 143.533,191.93259 C 143.97498,192.07991 144.28676,192.40625 144.63287,192.66583"
         style="fill:none;fill-opacity:0.75;fill-rule:evenodd;stroke:#000000;stroke-width:1px;stroke-linecap:round;stroke-linejoin:round;stroke-opacity:1" />
      <path
         sodipodi:nodetypes="cc"
         id="path2557"
         d="M 145.557,185.39316 C 142.85669,183.53261 141.35321,180.60821 141.32505,176.37241"
         style="fill:none;fill-opacity:0.75;fill-rule:evenodd;stroke:#000000;stroke-width:1px;stroke-linecap:round;stroke-linejoin:round;stroke-opacity:1" />
      <path
         sodipodi:nodetypes="csssc"
         id="path2559"
         d="M 146.55931,175.25874 C 146.15096,175.55572 145.88104,177.80006 146.00247,178.04292 C 146.27255,178.58308 146.53957,179.00576 146.78204,179.49069 C 147.0304,179.9874 147.23274,180.39209 147.45025,180.8271 C 147.58643,181.09948 148.00459,181.38145 148.11845,181.49531"
         style="fill:none;fill-opacity:0.75;fill-rule:evenodd;stroke:#000000;stroke-width:1px;stroke-linecap:round;stroke-linejoin:round;stroke-opacity:1" />
      <path
         id="path2561"
         d="M 152.46177,173.25413 C 152.32273,173.63653 152.35041,174.74952 152.35041,175.48147 C 152.35041,176.49841 152.41296,176.9918 152.90724,177.48608 C 153.1734,177.75224 153.16807,177.59041 153.46408,177.70882"
         style="fill:none;fill-opacity:0.75;fill-rule:evenodd;stroke:#000000;stroke-width:1px;stroke-linecap:round;stroke-linejoin:round;stroke-opacity:1" />
      <path
         sodipodi:nodetypes="cc"
         id="path2563"
         d="M 157.36193,175.48147 C 158.88018,176.71028 160.3488,177.98872 160.70295,180.38163"
         style="fill:none;fill-opacity:0.75;fill-rule:evenodd;stroke:#000000;stroke-width:1px;stroke-linecap:round;stroke-linejoin:round;stroke-opacity:1" />
      <path
         id="path2565"
         d="M 164.73936,169.4352 C 164.63179,170.26884 164.52423,171.10249 164.41666,171.93614 C 164.34065,172.52517 164.16493,173.10438 164.01328,173.711 C 163.86114,174.31958 163.86315,175.20804 164.01328,175.80856 C 164.02787,175.8669 164.12085,175.86234 164.17463,175.88924"
         style="fill:none;fill-opacity:0.75;fill-rule:evenodd;stroke:#000000;stroke-width:1px;stroke-linecap:round;stroke-linejoin:round;stroke-opacity:1" />
    </g>
  </g>
</svg>
