<svg width="539" height="619" xmlns="http://www.w3.org/2000/svg"><path d="M304.5415 162.4752c.929 2.486 3.805 4.604 6.285 5.557-5.59 6.066-14.078 11.985-22.478 14.456.492 4.943 4.505 7.82 7.559 9.201-4.847 7.938-13.213 14.788-21.533 17.155-.354 7.438 2.27 11.856 7.334 14.02-1.76 5.501-4.474 10.646-9.66 15.137-4.741-4.395-8.013-9.758-9.991-15.079 4.741-1.381 7.948-8.077 6.954-13.707-8.553-3.465-14.86-9.709-20.959-16.969 3.239-1.577 5.776-4.815 6.648-9.943-7.262-2.664-16.026-8.205-21.912-14.126 2.487-.574 6.082-2.269 7.404-4.951-6.833-2.899-17.098-8.158-19.811-12.803 8.916-3.891 12.3-9.246 12.454-17.743 23.876 8.965 54.608 7.705 77.991 1.146-.372 7.632 4.836 13.731 11.653 17.025-3.699 5.13-11.274 9.701-17.938 11.624m-156.964 274.667c.243 2.907 2.86 6.266 4.83 8.011-6.163 3.36-15.58 4.556-22.913 6.624 1.922 4.457 5.774 5.687 9.812 7.237-3.779 5.911-8.473 6.914-14.91 9.852 2.803 2.197 10.064 3.475 13.594 3.78-16.792 14.345-37.848 6.528-55.794 7.108-.178-10.305-5.023-25.361-14.45-32.888 3.069-7.624-.76-15.104-7.414-16.315 4.385-37.185-34.197-61.868-27.833-97.278 11.154 10.372 29.318 13.99 44.544 12.924-6.857 3.424-23.018 1.26-31.742-.969-3.133 18.544 17.001 24.779 37.557 23.391-4.102 3.068-11.606 4.07-16.598 5.62.849 8.983 10.201 13.651 18.085 14.829 8.084 1.211 18.066-.549 25.506-2.599-4.426 3.891-13.351 6.637-20.645 7.155 5.968 14.376 30.44 14.974 42.701 10.726-1.615 3.457-4.03 5.266-7.624 7.738 11.406 8.931 31.25 7.398 42.71-5.833-1.211 4.394-3.99 9.161-7.237 12.358 11.285 4.507 16.574 3.312 25.758-7.092-2.053 13.57-23.64 24.521-37.937 25.621m-121.653-105.612-3.706-6.752 5.556-1.172c.17 1.318 1.188 3.335 2.479 5.112-1.598.518-3.124 1.778-4.329 2.812m512.82-77.893c.169-1.51-.058-3.522-1.81-1.873-8.579 5.911-23.285 18.633-36.991 20.878 21.364-11.064 36.675-27.461 36.62-51.013-.009-3.417-2.189-2.649-3.876-.856-10.17 12.519-25.515 27.356-41.194 33.704 12.165-8.472 23.618-19.409 31.088-32.266 7.019-12.076 10.21-25.984 9.095-40.207-.363-4.604-2.697-5.049-3.982-1.438-2.261 7.755-20.345 38.898-34.091 46.167 13.245-12.841 21.848-30.587 25.715-49.131 2.659-12.689 2.456-26.064-2.738-37.371-1.809-3.957-3.44-3.335-4.2-.404-4.135 14.434-11.251 43.897-26.571 62.135 10.087-20.555 14.683-38.914 15.749-55.941 1.373-22.001-2.496-37.806-8.165-47.022-2.432-3.949-4.208-4.386-3.846-.702-1.429 22.372-6.268 47.128-16.71 69.298 5.428-16.645 7.811-42.015 6.091-57.062-1.27-11.033-4.282-23.787-12.4-35.345-.515-.734-4.2-4.538-3.73.284-1.39 22.251-2.465 49.873-9.256 68.7-1.205-.759-2.238-1.647-3.586-2.253-4.321 21.759-14.24 45.561-29.133 62.747-.493-2.736-.801-7.194-4.62-10.458-2.868 6.987-11.058 19.668-15.685 26.145-12.14 16.929-23.664 21.791-22.866 38.501.986 20.484 22.517 15.138 20.604 29.586-1.244 9.473-13.512 8.279-22.663 8.658-10.897.397-8.876 13.148-18.286 12.456-1.066-14.855 3.271-27.35 10.032-37.534l-30.725-34.916c-1.317.816-2.365 1.64-3.699 1.833-3.828-4.578-7.568-11.347-6.825-17.275 3.045.25 5.354 2.496 9.338 3.149-1.157-6.89-3.911-19.755-2.054-26.824 1.931 3.007 5.525 5.534 9.322 5.654.613-6.663 2.075-14.667 6.137-19.601 4.613 4.094 12.238 5.242 17.552 3.618 9.668-2.956 13.035-8.263 15.459-13.925 10.523 4.548 28.543 9.055 38.171-.597 4.661-4.676 6.033-22.792-3.991-22.324 1.292 7.47-3.465 14.724-12.453 14.336-8.391-.355-19.643-4.919-29.538-2.512 1.907-4.006 6.292-5.525 9.92-7.05 5.718-1.722 12.009 2.471 15.247 7.243 4.741-6.71 3.926-17.098-2.479-23.083-4.2-3.925-11.331-4.167-19.892-1.849-4.968-15.41-30.393-10.218-37.582-4.021-7.988.879-16.122.418-23.439-5.696l2.051-6.444 5.936-2.44.34-2.875-3.52-3.345c-.033-1.533.549-3.157.961-4.449 2.777-2.391 5.999-5.105 9.982-6.598 3.537 1.614 7.245-.421 6.8-2.513 5.203.227 6.43-6.744 3.41-10.355 1.729-1.808 1.793-4.426 2.204-6.864 3.828-1.875 3.052-10.912-1.899-10.492-.305-2.561-1.541-5.542-4.094-7.997 1.083-5.621-2.1-9.643-8.247-8.713-2.649-2.48-5.693-3.911-9.046-5.59.153-4.048-4.643-6.26-7.898-4.006-4.402-1.922-8.991-2.973-13.472-3.062-4.541-2.317-9.362-4.368-14.966-5.863 2.213-2.996 3.342-6.703 2.415-11.25-.962-4.726-4.435-7.133-8.376-8.166l-.138-2.78 7.003 1.09-.162-10.16-6.259.696 1.171-5.647-12.139.057.775 5.629-5.807-.524.266 9.603 6.099-.945-.137 3.383c-4.774.3-8.805 4.307-9.234 9.241-.306 3.626.703 6.864 2.393 9.901-6.148.986-10.597 3.014-16.05 5.85-4.296-.454-8.157.621-12.245 2.639-3.746-2.9-9.102-.305-9.498 4.346-2.496.93-5.612 2.165-8.836 5.275-5.063-.824-8.739 3.294-7.599 8.254-1.947 1.728-3.644 4.886-4.241 7.826-6.929.759-5.363 9.183-2.488 9.911-.177 2.665.622 5.184 2.642 7.041-3.239 5.186-1.034 10.969 3.141 10.605.51 3.353 3.636 3.829 6.631 3.078 4.379 1.065 7.455 3.368 10.646 7.052l1.155 2.833-4.298 4.83.107 2.538 6.653 3.335 1.567 6.422c-2.124 1.17-13.165 5.628-21.015 5.807-17.963-10.59-38.858-11.075-41.441 2.745-6.116-1.841-16.6-2.56-22.083 3.239-4.071 4.321-5.694 15.233-1.93 21.548 5.079-5.879 8.941-10.071 14.732-8.026 5.177 1.832 8.86 4.078 12.1 8.479-15.622-3.812-27.566 5.518-35.604.525-6.219-3.861-7.946-9.755-7.414-15.474-8.473 5.797-8.811 19.27-3.659 24.439 8.876 8.924 26.541 4.264 37.355.872 7.268 13.134 19.199 18.852 33.462 11.171 3.925 5.532 5.55 11.138 6.542 18.714 3.377.113 7.237-1.43 9.338-4.329 2.034 8.811-.558 18.108-2.125 24.844 4.506.137 6.817-1.348 9.459-1.866.023 5.622-3.538 14.07-6.536 17.712-1.309-.784-2.892-1.244-4.634-2.432l-29.029 32.657v2.858c7.641 9.934 9.765 23.615 9.394 36.976-4.678-.664-6.875-3.724-8.466-5.186-4.005-14.319-19.093-3.569-30.06-11.324-8.627-15.589 11.419-16.009 16.468-26.378 2.617-5.985 4.111-14.854-.21-21.049-12.108-17.429-27.616-32.483-35.635-51.958-3.44 1.148-4.386 5.284-5.816 9.669-13.374-18.133-22.937-40.82-27.517-62.57-1.301.355-2.519 1.453-3.586 2.35-5.072-17.293-7.18-49.067-7.907-66.851.193-3.677-.533-5.049-2.092-4.273-15.088 19.076-16.808 45.415-14.514 70.048.574 7.447 3.505 15.549 4.66 22.414-10.151-20.677-14.304-44.211-15.062-68.637.128-.887-.777-2.342-2.004-1.123-19.819 24.255-8.489 81.382 4.555 105.969-11.913-8.836-23.616-52.742-25.385-62.846-.379-3.029-1.55-3.238-3.149-.688-9.249 14.701-6.907 34.343-2.141 50.481 4.499 15.249 13.512 28.834 21.396 37.67-12.464-8.698-24.74-30.047-33.292-47.014-.494-1.939-2.449-2.933-2.981 0-5.105 28.939 13.448 57.522 38.63 74.508-15.312-4.757-34.228-26.759-40.536-33.334-2.779-3.788-3.927-2.98-4.095 1.785-.704 20.524 15.894 39.213 34.494 49.536-12.058-2.779-25.384-12.745-33.8-20.192-1.656-2.213-3.432-2.02-3.135.525 1.987 17.026 9.84 23.607 21.016 32.847 7.996 6.6 27.72 14.717 40.07 18.424-19.837-1.939-36.846-11.21-51.102-19.36-3.013-3.182-4.207-1.745-3.158 3.409 2.392 11.888 9.506 20.966 18.205 26.273 11.001 6.712 27.583 8.78 39.181 9.861-6.825 3.466-29.222-1.728-41.201-5.112l-2.535-6.631-7.117 3.206-1.832-9.982-13.319 5.338 5.039 9.321-8.278 2.325 5.549 12.633 7.237-4.248 1.897 8.027c-2.155.292-5.783 2.295-6.985 4.589.023.71-.008 1.81.25 2.325 3.068 1.519 8.618 2.683 11.324 7.335 15.241 26.2 1.671 64.42 30.821 83.741-4.395 4.458-3.263 15.345 6.478 17.185-2.683 12.778-.154 27.769 11.193 35.927-.459.725-.759 2.003-.767 2.907-5.839.161-11.372 6.59-11.331 13.037.04 5.379 3.037 9.901 6.809 11.387-3.547 6.01-.138 15.072 11.128 15.991.921 9.111 7.876 13.199 17.656 7.983 3.869 5.62 3.143 15.7.881 22.662 3.563.113 7.132-1.423 9.41-2.989 4.37 1.131 4.967 4.457 10.507 5.911 1.47-2.616.897-9.4 1.534-12.454 4.113-.112 9.459-1.373 12.73-5.62-5.857-2.748-12.939-6.171-17.187-11.97 1.453-1.211 2.738-4.248 2.786-6.849 9.102-15.605 29.027-34.665 41.369-39.221.081 3.974.324 7.722 1.77 10.936 9.666-7.383 22.274-17.592 32.525-21.598.847 2.907 2.374 6.609 6.848 10.258 12.722-15.977 25.797-35.732 41.58-49.155 1.389.516 2.479.84 3.933 1.583-5.088 15.603-31.088 30.87-19.199 50.56-8.941 5.331-10.12 15.216-10.023 21.581-3.967 9.823-20.264 21.226-33.139 27.687-4.386 8.11 14.312 13.134 21.865 13.086-2.762 5.17-6.97 11.532-4.678 17.833 3.191 2.681 13.91-.033 19.627-2.989-1.058 4.734-4.296 18.318 2.456 16.3 5.727-3.071 10.685-5.59 17.841-7.012-.832 7.447-.227 16.897 6.074 22.631 5.847 5.38 6.194-8.254 12.865-10.757 2.569 10.29 5.623 21.824 15.961 28.962 11.437-8.093 14.483-18.577 15.847-29.302 5.693 3.328 8.125 14.975 12.753 11.89 6.688-4.975 7.721-14.635 6.646-22.842 6.939.468 12.633 3.942 18.39 6.962 5.671 1.245 2.054-10.548 2.676-15.266 7.607 2.165 15.563 4.848 19.27 2.199 1.301-6.463-1.446-14.474-5.088-18.609 6.914 1.824 17.404-1.649 21.282-7.172 2.342-3.328 1.721-5.46-3.771-7.335-12.221-6.945-20.201-12.633-28.35-24.941.315-5.783.137-15.459-8.658-21.937 8.682-25.199-14.958-33.438-19.547-51.529 1.075-.42 2.295-.711 3.667-1.712 14.289 13.729 33.825 38.428 41.524 50.059 3.416-2.988 5.839-6.703 6.581-10.353 12.737 6.234 24.409 14.295 32.988 21.839 1.218-1.777 1.969-5.67 1.372-8.691 13.359 5.2 26.532 8.19 36.402 17.155 15.217 14.118 30.659 3.99 54.995-3.101 13.794-4.007 34.543-10.888 36.764-19.545.987-3.878.485-9.693-2.487-12.213.873-6.849-.945-8.659-3.117-11.114 3.206-15.345-7.714-31.322-19.756-34.763l.201-8.399 5.937 2.778 4.507-11.97-7.124-1.243 3.626-7.317-14.95-4.119.202 9.093-7.736-3.505-2.941 12.922 7.859.195-3.409 7.398c-18.891-1.647-30.505 6.154-37.542 21.064-4.062 2.941-9.069 6.348-7.429 12.019-6.017 1.292-8.408 11.598-6.356 16.315 2.568 5.88 12.317 11.209 9.271 17.897-4.045 1.843-16.356-13.697-27.815-18.657 4.304-.356 8.56-1.34 10.476-3.892-5.841-1.098-10.106-3.587-14.538-8.66 4.667-1.711 7.477-3.262 10.215-6.88-6.324-2.099-15.507-3.587-23.341-7.302 2.754-1.68 5.217-4.119 6.009-7.334-13.61-2.439-35.287-9.401-38.85-25.846 6.211 9.209 16.865 12.487 25.91 6.558-3.223-4.861-6.492-8.819-7.422-13.697 6.195 8.028 15.21 12.955 24.448 13.327 6.365.258 13.472-1.874 19.2-5.266-2.876-2.213-6.825-5.817-7.529-9.159 14.312 7.915 34.481 2.875 43.494-9.079-6.332-.969-16.58-3.425-21.346-7.85 15.07 4.879 39.898 7.075 43.694-12.115-5.992-.826-13.019-2.683-16.686-5.299 17.275 1.793 39.697-2.94 39.148-23.454-8.789 1.791-21.379 3.068-30.821 1.516 27.025-1.678 42.799-6.153 47.903-26.717.493-2.011-.653-3.964-2.875-2.665-12.598 4.201-25.813 6.834-39.504 4.668 12.681-1.042 28.309-3.158 38.955-9.312 11.252-6.509 17.074-16.937 18.528-29.948.227-2.132-1.761-1.003-2.367-.622-14.359 9.005-34.367 18.446-50.916 19.456 17.875-6.873 56.861-18.06 60.472-49.583" fill="transparent"/><path d="M307.0699 545.2403c6.301 3.635 15.306 14.216 20.094 11.146-6.655-2.746-13.664-11.274-19.57-14.473-.759-.129-1.048 2.196-.524 3.327" fill="#fff"/><path d="M271.5 584.1398c.308-2.003-3.506-3.297-3.264-.195.203 2.327.47 7.3.453 9.918.978 2.423 2.303 2.52 2.819.243.016-3.377-.218-6.122-.008-9.966" fill="#fff"/><path d="M239.2325 560.6358c-3.609 4.086-8.399 2.601-10.369 7.381 7.066-.937 15.216-6.106 19.043-12.211-1.243-2.682-3.656-.356-8.674 4.83" fill="#fff"/><path d="M292.5152 555.9015c4.046 6.945 8.602 8.643 15.541 11.179 1.194.452 4.029 1.115 1.647-1.681-8.845-1.308-14.507-13.553-17.188-9.498" fill="#fff"/><path d="M280.586 564.6905c-2.43 8.335 12.722 13.375 14.902 20.337 3.692-7.608-12.479-13.747-14.902-20.337" fill="#fff"/><path d="M258.9649 565.1749c-3.611 9.45-16.146 10.887-14.967 19.028 4.805-7.091 14.79-9.578 16.727-17.736-.071-.823-.743-1.776-1.76-1.292" fill="#fff"/><path d="M438.2457 240.2208c3.561-1.688 10.564-4.514 9.506-7.164-3.966 2.068-7.406 2.342-9.321 4.547-.581.655-.986 2.989-.185 2.617" fill="#fff"/><path d="M240.622 54.229c1.422 0 2.577 1.099 2.577 2.449 0 1.34-1.155 2.446-2.577 2.446-1.43 0-2.575-1.106-2.575-2.446 0-1.35 1.145-2.449 2.575-2.449m-4.62 3.538c0 2.771 2.132 5.016 4.758 5.016 2.616 0 4.74-2.245 4.74-5.016 0-2.779-2.124-5.032-4.74-5.032-2.626 0-4.758 2.253-4.758 5.032" fill="#fff"/><path d="M223.0303 548.794c-3.94 4.491-13.317 7.755-8.957 7.917 7.634-1.519 14.813-6.786 19.976-13.086-3.58-3.068-6.511 2.375-11.019 5.169" fill="#fff"/><path d="M234.4917 74.5992c-1.656 0-3.004-1.285-3.004-2.859 0-1.575 1.348-2.844 3.004-2.844 1.664 0 3.004 1.269 3.004 2.844 0 1.574-1.34 2.859-3.004 2.859m.227-7.608c-3.029 0-5.485 2.462-5.485 5.5 0 3.028 2.456 5.5 5.485 5.5 3.037 0 5.492-2.472 5.492-5.5 0-3.038-2.455-5.5-5.492-5.5" fill="#fff"/><path d="M216.1578 527.6017c-2.802 3.197-6.018 6.524-9.248 9.562-2.06 1.906-12.163 5.444-5.531 5.007 7.445-1.712 11.968-6.136 16.345-12.049.421-1.421-.225-2.973-1.566-2.52" fill="#fff"/><path d="M499.7984 460.5646c1.511 0 2.762 1.065 2.762 2.391 0 1.325-1.251 2.39-2.762 2.39-1.526 0-2.771-1.065-2.771-2.39 0-1.326 1.245-2.391 2.771-2.391m-.558 7.801c2.844 0 5.154-2.213 5.154-4.926 0-2.73-2.31-4.942-5.154-4.942-2.843 0-5.152 2.212-5.152 4.942 0 2.713 2.309 4.926 5.152 4.926" fill="#fff"/><path d="M295.1885 474.7306c-1.259 3.796 2.876 12.325 6.065 16.59-1.3-5.363-2.348-16.817-6.065-16.59" fill="#fff"/><path d="M439.271 255.5196c5.306-.89 11.049-.759 11.978-1.526-1.051-3.709-9.377-.349-13.578-1.157-1.339.84.751 2.827 1.6 2.683" fill="#fff"/><path d="M399.3072 317.7989c2.608 1.478 5.531 3.328 7.688 2.786-3.74-2.722-7.567-7.454-11.913-8.35-.493 2.487 1.623 4.085 4.225 5.564" fill="#fff"/><path d="M480.4615 298.568c1.899-6.122 3.175-7.301-4.401-9.991 10.508-1.72 20.813-2.213 29.787-7.559.962-.501 3.337-3.563 1.768-3.159-8.39 4.2-21.693 6.986-29.376 8.02 3.748-1.687 6.584-4.854 8.329-7.318 18.301-2.729 35.635-11.492 49.8-24.011-3.932 21.871-34.915 39.827-55.907 44.018m-28.566 10.775c-2.183.975-.606 2.948.291 3.206 5.111 1.454 13.479.024 16.169 4.571-5.323 13.326-20.136 10.241-32.873 10.37-1.05.389-1.397 1.197-.807 1.617 4.296 4.861 16.34 1.389 18.018 6.315-5.54 10.662-15.046 10.904-30.659 7.867-2.488-.259-5.023.518-3.118 1.454 8.005 3.942 13.852 4.363 13.779 10.145-3.908 4.894-17.615 4.749-24.027 1.13-1.519-.421-3.15-1.049-4.685-.225 3.126 4.28 7.285 6.59 12.131 7.108 3.901.322 4.911 4.586 4.015 7.074-5.444 5.847-22.527 4.345-30.49-2.213-1.132-.97-4.435-2.763-5.993-1.535 3.213 4.653 9.943 8.53 15.079 9.918 1.688 3.263-1.366 7.69-4.959 9.144-9.829 3.957-19.481-1.971-27.057-7.188.541-5.896-.017-12.034-.84-17.738 6.64.824 12.817-2.859 14.28-10.596 13.673 6.301 23.172-3.054 21.573-14.522 13.068 1.34 20.352-2.358 20.974-14.304 10.808-1.487 14.458-8.182 13.812-14.757 11.234-.541 18.981-12.696 9.683-21.702 13.804-3.11 14.604-14.513 8.03-20.975 9.682-3.247 14.037-17.171.638-19.975 9.489-10.143 3.78-21.839-12.81-18.52 6.591-17.841-10.41-23.139-19.942-13.058.168-1.802.524-3.385.082-5.178 14.118-18.384 25.562-38.534 29.6-61.214 19.424 29.093-.631 49.542-6.462 60.349-.775 1.22-.282 4.451.679 3.473 12.616-14.376 22.858-38.227 24.271-39.794 3.869 7.365 4.247 15.943 2.213 22.598-3.175 10.403-12.454 18.651-18.787 27.502-.936 1.503 2.359 1.17 3.086.122 7.14-5.913 18.431-22.623 23.114-28.294 6.319 16.687-5.595 26.936-16.07 37.848-.592 1.261-1.294 4.806-.081 3.796 9.456-6.639 18.342-19.618 22.404-21.404 5.524 17.487-9.506 27.826-20.581 37.937 1.075.106 2.683.784 3.628.421 6.864-2.601 11.889-9.96 18.624-12.883 1.261 17.867-10.402 26.412-24.787 33.713-.986.435.089 1.88 1.317 1.542 7.528-.379 13.367-7.608 20.612-6.962-.227 16.865-9.935 20.401-25.305 23.147-1.833.631-1.325 2.432 0 2.383 7.407 1.834 14.028-.887 19.158 1.996-.331 10.71-15.353 16.501-26.927 16.291m77.14-22.601c-5.128 26.88-37.515 32.85-59.372 34.344 1.583-2.366 1.219-4.853.227-6.736 8.778-.339 20.321-2.101 27.387-5.024 1.293-.509 4.264-3.092 3.344-3.473-10.75 3.513-29.568 7.915-36.41 4.726 5.088-1.213 10.783-3.409 13.658-5.412 19.854-2.424 34.545-8.49 51.166-18.425m-15.758 34.853c-1.339 13.165-15.451 19.369-26.022 21.888-10.315 2.456-27.059 3.974-36.226-.615 3.385-2.389 4.484-6.298 3.247-8.721 6.873 1.485 14.434 2.664 21.42 1.518 2.173.081 6.252-1.616 4.378-2.067-6.113-.227-20.233.451-24.553-2.456 3.893-.388 8.125-3.166 10.419-5.275 16.605 2.481 33.107.508 47.337-4.272m-17.647 28.188c-2.295 11.84-14.216 15.636-23.737 16.799-14.725 1.81-27.406-2.518-37.767-9.918 1.589-1.616 1.259-3.716-.017-6.025 8.779 3.198 13.326 6.607 24.432 7.124.775-.549 4.16-.937 2.723-1.874-6.817 0-22.187-3.683-24.652-8.044 2.86.387 7.415-.276 9.321-1.811 16.518 5.817 32.041 7.691 49.697 3.749m-22.47 27.429c-9.078 18.705-43.51 5.734-56.407-1.131 4.934-2.778 7.511-4.249 5.968-9.046 2.552 2.391 11.913 7.171 15.055 8.239 2.828.225 5.921 0 3.957-.97-6.776-3.069-15.255-6.058-19.458-12.148 5.001.453 7.584-.355 10.986-.969 10.371 6.656 26.241 13.635 39.899 16.025m-25.409 19.271-1.398 1.083c-9.167 7.43-32.903 9.691-42.96-2.132-2.989-3.523-5.419-9.305-3.327-14.281 2.996-.677.709-.968 1.623-2.246 1.761 2.261 7.617 9.532 14.482 12.714.484.227 5.968.451 3.351-1.132-5.145-1.339-13.359-7.979-15.967-12.535 2.165.453 4.83.421 6.574-.484 4.41 4.523 25.127 18.253 37.622 19.013m-36.136 14.361c-15.684 8.076-40.634-.841-45.029-27.43 4.605 3.635 8.522 6.01 12.675 6.397 3.179 3.602 8.769 9.563 12.978 12.89 1.026.841 8.205 2.73 4.741.259-4.322-2.713-11.113-7.204-13.359-12.277 3.846 1.003 8.335-.096 11.8-1.437 1.874 6.816 9.346 16.331 16.194 21.598m-33.786 6.009c-6.638 3.085-16.936-.325-21.023-9.368 1.075-1.682 2.165-3.506 2.496-6.238l2.956 4.105c1.454.984 3.967 1.841 2.916.677-1.204-1.34-3.465-5.443-4.119-7.429 1.664-1.94 2.77-7.415 3.384-10.307 1.156 6.817 7.285 21.338 13.39 28.56m-41.134 2.39c-21.766 12.583-49.294 17.188-66.092 39.14-19.668-32.42-84.242-25.086-89.361-78.523-3.303-38.445 21.234-74.161-.655-109.449l25.378-29.068c17.728 9.209 45.496 10.226 65.203 0 18.512 11.131 46.547 9.362 65.163.081l27.269 30.354c-18.691 27.597-6.237 62.481-.987 92.479 3.715 21.257-6.841 42.58-25.918 54.986m51.013 20.548c-3.514 3.068-24.594 1.39-32.799-2.23-.009 1.05 1.614 2.23 4.273 3.425 8.359 2.747 15.974 2.713 24.18 2.52-6.873 6.104-23.607 7.27-32.613 5.104 3.982 7.657 3.699 20.694-2.537 31.985-.305-7.786-3.771-18.253-6.711-25.33-.727 2.067.34 5.137.478 7.108 2.672 5.362 3.092 9.95 3.867 15.831-9.983-13.909-21.177-30.95-35.868-41.257 4.093-2.681 7.841-3.101 10.903-4.62 5.5 2.132 9.62 9.498 13.618 13.117.711-.742.702-3.748-.583-5.751-2.236-3.505-5.492-6.364-9.586-9.319 6.63-2.084 11.582-5.511 14.569-7.416 1.908 2.875 7.133 8.675 10.986 10.437.695-.777-.267-2.746-1.236-3.976-2.334-2.617-4.821-5.104-5.928-9.078 3.86-2.373 7.397-5.62 10.613-9.239.952 16.929 20.401 24.973 34.374 28.689m15.387 14.215c-5.817 4.491-18.102 7.173-28.028 6.251 2.068 2.213 4.194 3.78 6.027 6.074 2.997 8.028 4.538 18.494 4.345 27.09-9.159-8.385-19.207-15.412-30.208-19.725 1.106-5.314 2.449-13.036 1.496-17.995 4.069 3.102 11.153 13.409 14.812 17.85.782-.258.289-4.603-.703-6.073-1.535-2.279-5.799-9.241-9.781-13.084 9.498 1.598 17.163-1.649 24.23-7.14 5.63 3.004 11.566 5.847 17.81 6.752m5.8 14.619c-5.487 2.052-14.945.564-20.54-4.507 3.981.451 8.553-2.068 11.073-2.39 2.188 1.549 7.455 5.04 9.467 6.897m29.995 25.684c3.159-12.293-21.5-20.304-6.993-34.812 7.947 1.262 5.919 6.269 7.6 11.275 1.824 5.444 4.038 13.44 10.159 15.88 8.596 3.423 18.158.824 21.977-1.922 7.803-5.606 3.709-21.905 16.728-16.284 3.133 2.165 3.57 6.237 1.954 8.529-3.021 4.298-11.098 4.684-10.467 12.826.453 5.962 8.747 4.556 12.526 3.91 9.394-1.648 12.924-12.486 13.296-18.818 5.29.629 7.633 4.2 7.633 6.865 0 7.687-7.425 9.046-12.57 12.114-17.865 7.851-36.029 11.792-55.251 16.412-11.68 2.78-16.631-6.299-31.065-13.746-8.003-4.151-16.895-8.578-25.569-12.116-.437-5.314-1.924-12.324-4.16-17.315 4.684 3.246 12.139 5.976 18.228 6.767 10.581 6.575 23.383 24.652 35.974 20.435m-1.309-45.101c-.484 2.633-.759 5.768-.558 8.545-6.533-.388-2.227-6.849.558-8.545m37.283 21.5c-.589 2.585-1.365 6.202-3.271 8.286-4.288 4.702-14.699 5.139-20.096 2.116-6.315-3.521-9.327-10.983-10.458-17.235zm14.756-4.071c-1.743-1.033-3.189-1.743-4.287-1.598.928-1.988.823-4.233.863-6.348 1.827.548 4.573 5.555 3.424 7.946m12.326 10.921c-.574 6.301-4.151 9.191-9.513 11.21-2.496.969-7.505 1.761-7.512-2.391 0-5.734 8.602-3.893 10.306-10.306zm-58.249-34.504 25.845 6.154 6.356-21.952c5.056-.502 10.525 1.373 14.272 4.038l-6.017 21.403 22.921 5.831c.939 5.105-.879 11.034-3.77 14.796l-10.518-2.761c.098-1.147-.37-2.229-1.073-3.344.162-5.169-1.664-10.887-7.414-11.694 0 3.101-.073 6.332-1.212 8.496-1.851.581-4.047 1.503-5.242 3.457l-38.132-8.174c-.661-5.653.866-11.857 3.984-16.25m29.373-15.848-5.531 19.401-22.43-5.751c6.18-10.499 17.996-13.793 27.961-13.65m10.857-12.809-8.246-.387 1.259-6.655 7.681 3.021.937-8.901 7.278 1.809-3.216 8.4 7.713 1.001-2.236 6.042-7.285-3.327-.307 11.484c-2.866-1.164-5.727-1.954-8.585-2.374zm8.578 18.932c8.213 4.2 14.142 13.536 13.947 22.874l-18.987-5.234zm18.478 39.738c-1.323-.614-2.964-.452-4.045-.452.904-1.745 1.38-3.732 1.719-5.654 1.567.743 2.908 4.007 2.326 6.106m-201.603-11.308c7.899 7.511 12.163 14.7 9.426 25.943-3.223 1.13-5.864-.388-7.836-2.295-3.934-3.827-3.376-8.205-6.808-12.018-1.236-.871-.67 1.165-.259 2.748 1.745 6.912 4.604 12.535 2.665 19.803-.533 1.987-3.505 7.381-8.481 2.196-4.538-4.748-4.149-13.1-8.996-14.084.202 8.657 7.915 18.156.961 27.994-9.038 1.889-8.626-15.428-12.253-22.309-.952-.194-.913 1.487-1.243 2.941-.381 7.817 2.438 19.077-5.993 22.162-9.806.098-3.174-21.774-7.859-25.103-2.666 6.881-1.681 17.624-8.351 21.452-3.247 1.389-5.517-3.246-5.929-5.525-1.72-9.4 4.007-14.958 4.959-23.164-.314-1.518-1.09-.854-2.431.065-3.595 7.236-8.7 23.632-15.718 15.346-3.239-8.206.316-18.658 4.508-26.299.815-1.809-1.334-.419-2.205-.112-3.143 5.54-4.976 12.162-10.888 15.409-2.577 1.57-3.981 1.003-4.95-1.291-1.802-5.912 1.048-16.331 7.599-22.567 6.405-6.072 11.679-13.342 13.811-20.901 10.047 4.569 20.693 14.053 27.454 24.423 7.195-11.048 16.572-19.837 27.937-24.328 2.406 8.24 6.454 15.33 10.88 19.514m15.386 42.388c.646 2.907.646 7.253.105 9.918-2.981 4.103-8.36-7.398-12.98-6.041 0 5.717 2.836 13.117.106 18.672-4.936 1.777-8.384-7.624-12.391-7.979-.58 6.494 2.101 12.987-.378 19.287-4.984 2.23-10.089-10.887-14.281-16.639-.888-.644-1.914-1.323-1.891 2.586-.281 14.005-6.234 25.717-12.557 26.992-8.102-.598-13.635-22.179-12.941-27.799-1.283-4.362-1.502-3.457-2.947-.26-2.229 7.48-6.042 12.148-11.533 15.879-3.611 1.6-1.882-15.006-1.204-21.096-4.055 1.502-10.977 12.793-13.617 7.737-2.109-5.927 1.477-12.76.525-18.286-5.138.177-7.682 9.725-13.359 6.526-1.544-8.4 2.552-16.606 8.949-22.711 3.416-.129 5.323-1.567 7.365-2.779-.67 2.036-.557 4.168-.307 5.945-3.31 2.326-6.753 4.942-8.294 8.432 3.166-.484 4.99-5.04 8.391-5.588.081 4.49 3.401 9.4 9.394 6.88-3.432 4.265-7.416 11.518-4.942 12.115 3.553-4.087 5.233-11.953 10.086-14.246-.669 5.281 1.309 9.659 3.449 13.246-1.13 3.359-1.939 6.525-2.325 10.304 1.768-.129 4.014-8.561 5.556-9.304 2.521 1.034 6.648-1.39 8.844-7.349.51 6.268 3.886 11.098 6.988 11.291.274 3.941-.284 15.766 1.88 15.766 1.398-.388 1.325-10.161 1.591-15.492 3.208-.436 7.503-7.51 7.512-12.971 1.704 6.301 6.113 8.755 9.352 9.209.526 4.101 3.466 8.204 5.251 8.204-1.324-3.407-2.609-6.397-2.431-9.658 2.132-1.197 4.021-8.837 3.254-14.539.751 1.42 1.729 2.358 3.054 3.246 1.518 4.056 4.159 8.965 6.671 12.648 3.981 1.421-3.32-7.64-3.399-12.146 5.208 2.228 6.767.225 7.632-6.656 2.802.791 6.897 5.088 8.949 7.092 1.058-3.409-4.999-6.543-8.183-9.838.114-1.616.363-3.845-.015-5.686 2.431 1.131 4.474 3.101 7.116 2.81 3.908 3.715 7.05 8.142 7.955 12.278m3.448 13.729c6.486 11.824 18.699 18.318 29.578 24.037 3.715 4.555-10.476 7.98-14.054 8.304-10.249.919-31.112-15.606-32.065-18.869 3.311.84 4.474 1.357 4.474-4.329.244-4.313-.339-8.383-1.042-12.696 4.007 2.069 11.453 7.721 13.109 3.553m13.804 48.913c-.953 3.555-14.102.613-18.932-2.616-9.369-6.22-19.11-11.275-26.266-22.776 4.515 1.549 4.959 2.503 5.759-2.132.678-3.911.702-8.707.468-12.116 2.487 2.131 4.79 3.036 6.687 3.571-1.308 9.594 33.956 20.466 32.284 36.069m-23.254 10.952c-14.95-4.749-31.967-12.389-38.243-29.511 3.393-4.701 5.129-11.615 5.477-17.076 3.101 2.779 6.508 7.238 8.374 11.291 7.957 17.236 29.844 16.817 29.651 34.601-.032 3.166-3.271 1.342-5.259.695m-17.752 15.202c-1.463 2.698-2.852 2.793-5.701-.793-8.28-10.451-24.781-15.491-23.764-35.069 2.973-2.18 5.365-4.216 7.27-6.881 3.166 10.742 11.969 18.221 21.904 24.731 4.046 4.975 2.892 13.246.291 18.012m-31.023 16.137c-7.181-6.01-11.033-14.102-12.535-22.001 5.08-2.989 9.741-8.82 12.761-12.938 3.432 4.569 7.448 9.044 12.171 12.679-1.154 8.206-4.813 18.414-12.397 22.26m-27.905-15.249c-4.37 2.519-5.275-11.663-3.973-16.833 3.513-5.395 22.016-14.86 23.187-26.91 2.1 2.696 4.443 5.847 7.237 7.397.566 5.298-1.777 13.165-3.813 15.798-6.993 9.078-13.099 13.101-22.638 20.548m-23.528-15.314c-3.231.582-2.043-6.962-1.275-9.433 9.732-12.051 20.749-11.065 28.616-25.717 2.544-1.325 7.026-6.817 8.819-11.809.581 5.347 2.447 12.261 5.242 16.848-4.958 18.707-25.685 24.183-41.402 30.111m-4.772-12.873c-12.036 4.473-15.841 4.311-15.492-.357 1.324-17.849 26.015-17.639 33.009-35.004 2.149.097 4.692-2.037 6.18-3.78 1.121 8.431-.583 18.77 6.122 15.83-7.068 11.437-18.674 16.026-29.819 23.311m-14.7-15.655c-8.304-.42-21.977-6.364-16.452-8.642 11.411-4.764 22.904-12.681 29.519-24.795 3.255 3.424 8.595-.387 12.221-2.1 2.294 5.137-3.959 15.088 4.264 17.187-4.539 5.266-19.699 18.043-29.552 18.35m-2.941-73.821c-.848-7.559 4.96-17.284 3.514-21.388-2.335 2.101-6.065 19.126-6.599 24.409-5.952-.744-6.486-26.507-3.262-32.033-10.21 3.958-22.842 2.197-30.475-4.862 6.332.663 19.287.695 26.629-3.439-1.526-1.972-24.513 6.396-29.529-1.326 13.165-.582 24.619-10.501 30.91-21.97l1.341-4.764 9.742 8.966c-1.721 4.2-7.447 7.445-6.875 11.646 4.006-1.534 8.974-5.154 10.315-8.965l13.737 7.625c-5.16 2.874-7.825 7.462-10.313 12.405l1.34 1.342c5.146-3.247 8.012-12.779 15.081-11.067 2.479 1.519 6.242 2.246 8.528 3.973-12.511 10.565-23.487 26.042-34.084 39.448m-40.046 15.168c.566-10.678 1.544-23.858 8.797-31.677-8.69-.274-21.04-2.003-24.99-7.77 4.83-1.259 11.285-2.438 15.306-5.055 4.838 2.228 14.66 8.4 24.948 7.284-3.513 4.862-6.477 9.417-9.546 14.636-.63 1.13-.719 3.149.438 2.503 4.368-5.491 7.808-12.309 13.075-15.539.146 5.041.508 12.084 2.407 16.476-10.476 5.17-20.887 11.502-30.435 19.142m-3.69-7.365c-16.129 8.108-32.185 22.856-38.913 34.052-.114-3.733-1.446-7.061-4.2-9.742-.744 3.62-2.198 7.399-5.258 10.371-.179-2.26-.815-4.023-2.116-5.588.984-5.494-1.269-12.795-5.953-15.087-.171 1.695-1.269 6.233-3.053 7.236-.323-1.228-.872-2.667-1.519-3.877.719-2.683-.322-5.557-2.228-6.931 6.897.033 10.773.727 18.293 4.152.857.42 4.676 1.358 2.189-.71-8.328-4.718-17.906-5.768-28.026-5.138 2.454 4.653 3.069 10.21-2.755 12.149-4.135 1.355-8.836-2.844-9.773-6.172-1.624-5.686 4.08-12.357 8.303-13.634 14.983-4.587 34.27 4.46 50.287-2.423 9.773-4.199 18.09-12.728 29.931-17.09-1.962 4.911-4.651 12.794-5.209 18.432m-42.347 38.767c-1.017-1.889-2.567-2.631-4.385-2.762 1.938-1.452 3.676-5.282 4.071-7.624 2.068 3.458 2.269 7.107.314 10.386m9.556 23.665c-2.989 3.424-9.498 1.827-12.414.712-1.704 3.746-4.183 8.19-7.915 9.596-.187-5.332 1.09-14.944-3.102-19.338 2.206-2.728 8.343.34 10.984-1.226 2.545 3.085 7.858 9.481 12.447 10.256m-9.588 12.342c-2.011-.775-3.554-2.681-5.047-3.295 1.106-1.389 2.083-3.134 2.56-4.701.888.661 2.108 1.147 3.546 1.729-.324 1.615-.444 5.088-1.059 6.267m-22.234-21.985c-2.383 2.326-11.156.613-10.848-4.732 8.708 2.067 8.448-7.043 17.623-5.945 2.255.275 7.254-2.262 8.659-3.941 3.029-.469 6.849 4.037 5.347 6.493-3.99 6.559-13.327.855-20.781 8.125m5.871-28.025c1.769-1.326 3.271-4.735 3.319-7.302 1.964 2.035 2.804 6.946 1.915 9.223-1.228-1.308-3.635-2.084-5.234-1.921m-2.747-3.555c1.802 4.684-4.853 8.432-8.884 9.094-1.138-1.228-1.162-4.441-1.123-6.074 2.561-1.404 4.427-3.295 4.952-6.234 3.553.274 4.352 1.355 5.055 3.214m-4.861-10.597c1.615.856 4.184 4.668 3.425 6.398-.905-.648-1.898-.988-3.063-1.262.47-1.533.235-3.522-.362-5.136m-11.921 14.458c1.793.888 3.626.694 4.805.128-.428 2.133.202 5.332 1.536 7.949-3.83-.726-6.455-4.281-6.341-8.077m-.574 18.27c-6.307-1.358-10.168-3.265-8.618-10.501 2.86 1.68 6.38 1.358 9.7.873 2.835 1.648 4.88 2.228 8.99 2.536-.67-1.081-1.009-2.633-.751-3.586 6.089-1.406 7.212-3.731 9.95-5.347 2.963.195 6.445 2.003 6.961 4.944.72 4.167-3.253 6.718-8.399 6.88-9.288-.386-8.109 8.254-17.833 4.201m-13.891-21.258c-1.075-4.751 2.575-10.29 6.339-11.323-1.607 4.247.921 11.323 5.5 12.857-.598 1.276-.096 5.508.8 7.091-5.298-.031-11.42-3.295-12.639-8.625m1.178-54.792c1.721.095 3.845-1.02 4.952-2.068 6.364 3.746 14.626 24.002 13.448 31.144-2.658 1-5.864 2.325-8.369 4.264-8.78-8.724-11.937-21.324-10.031-33.34m-8.126-10.938c0-3.731 2.892-6.783 6.413-6.783 3.53 0 6.413 3.052 6.413 6.783 0 3.732-2.883 6.786-6.413 6.786-3.521 0-6.413-3.054-6.413-6.786m-12.963-27.089c-9.538-20.064-3.601-43.906-17.646-65.325-1.964-3.037-7.585-6.349-11.098-6.849 4.005-2.52 8.625-1.744 12.906-1.292 1.171-4.136 4.126-8.594 7.536-9.014-2.051 2.601-2.956 9.773-2.673 12.826 2.819 30.853 22.153 43.388 27.872 73.287 1.05 5.478 1.002 11.649-1.866 12.311-6.679 1.534-12.042-9.677-15.031-15.944m-24.916-88.91-7.576 4.265-2.673-6.688 8.22-2.64-4.973-9.313 7.195-2.932 2.287 10.379 7.584-4.264 2.285 7.389-8.278 2.028 5.606 11.453-2.19 2.504-4.183.419zm15.41 4.394c-1.598.517-3.125 1.778-4.329 2.811l-3.707-6.752 5.556-1.17c.17 1.316 1.187 3.335 2.48 5.111m47.144-4.458c2.286 2.109 6.834 4.427 10.097 5.121-4.321 2.892-19.215 1.923-25.33 2.148-1.872.453 2.213 2.15 4.379 2.069 6.986 1.146 14.86.58 21.727-.905-.922 1.485 1.106 5.411 3.722 8.271-9.158 4.586-25.595 2.762-35.925.29-10.565-2.52-24.674-8.724-26.016-21.889 14.7 4.006 30.74 7.383 47.346 4.895m-61.859-38.493c16.614 9.926 32.558 16.16 52.394 18.584 2.892 2.004 8.109 3.869 13.214 5.096-6.842 3.183-27.85-2.156-38.6-5.661-.921.371 2.06 2.964 3.345 3.473 7.074 2.908 19.391 4.999 28.18 5.33-1.003 1.882-1.374 4.361.224 6.737-21.871-1.487-53.629-6.688-58.757-33.559m49.301 5.346c5.16-2.843 11.742-.048 19.181-1.818 1.309.066 1.835-1.727 0-2.382-15.337-2.891-24.997-6.51-25.078-23.383 7.261-.572 13.028 6.705 20.547 7.164 1.236.348 2.326-1.089 1.334-1.533-14.313-7.439-25.911-16.098-24.481-33.947 6.703 2.98 11.663 10.386 18.511 13.052.946.371 2.294.088 3.367 0-10.975-10.217-25.65-21.072-19.965-38.51 4.039 1.825 12.809 14.878 22.212 21.614 1.202 1.017.532-2.536-.048-3.797-10.38-11.008-22.195-21.371-15.718-38.002 5.144 4.589 15.24 23.044 22.97 28.513.993 1.065 3.974 1.412 2.964-.098-6.251-8.901-15.452-17.244-18.537-27.67-1.961-6.679-1.138-15.112 2.432-22.576 1.406 1.576 11.42 25.532 23.899 40.014.952.984 1.47-2.247.712-3.466-5.743-10.856-25.605-31.491-5.904-60.407 3.81 22.712 15.087 42.978 29.026 61.489-.468 1.793-.104 3.384.042 5.177-9.442-10.161-29.191-1.753-20.209 13.125-14.369-5.137-23.374 7.866-12.963 17.64-14.045 2.415-8.957 18.301.194 20.369-6.882 6.389-5.566 17.939 8.222 21.17-10.411 9.279-1.768 21.144 9.474 21.791-.702 6.558 3.013 13.544 13.803 15.135.501 11.946 7.626 15.468 20.718 14.241-1.705 11.436 7.705 20.901 21.436 14.731 1.396 7.753 6.889 11.469 13.535 10.709-.734 5.703-.847 11.825-.363 17.736-7.625 5.154-17.333 10.987-27.13 6.932-3.569-1.487-6.582-5.929-4.862-9.176 5.153-1.324 11.913-5.169 15.169-9.789-1.535-1.26-4.871.532-6.018 1.486-8.013 6.494-25.111 7.819-30.498 1.938-.873-2.518 1.075-7.398 4.087-7.559 4.846-.453 9.021-2.229 12.195-6.462-1.534-.839-3.166-.242-4.692.162-6.444 3.569-20.022 3.972-23.891-.97-.792-5.782 5.694-6.525 13.746-10.402 1.915-.937-.613-1.713-3.101-1.471-15.645 2.893-25.151 2.568-30.594-8.156 1.744-4.911 13.738-1.326 18.084-6.156.597-.403.258-1.227-.785-1.623-12.745-.243-27.58 2.705-32.791-10.67 2.738-4.522 11.461-1.864 16.219-4.424.823-.437 2.496-2.205.322-3.2-11.573.113-26.548-5.822-26.773-16.541m-56.166-37.549c14.158 12.519 30.57 20.507 48.865 23.229 1.742 2.472 4.894 6.422 8.641 8.092-7.681-1.017-21.299-5.046-29.69-9.247-1.575-.411.815 2.649 1.768 3.15 8.974 5.346 19.449 6.777 29.933 8.489-7.567 2.698-6.292 3.869-4.394 10.007-21-4.199-51.191-21.847-55.123-43.72m2.099-31.734c13.173 14.118 29.771 28.592 47.136 35.474.986 1.502 1.971 2.649 3.57 3.982-4.974-.647-5.178-.065-5.032 3.045-6.259-3.045-20.523-12.058-25.95-16.389-1.196-.847-.042 2.263.597 3.272 8.037 6.575 15.614 10.419 25.111 15.684-.025 1.956.493 4.258.922 6.124-19.385-6.197-45.788-26.767-46.354-51.192m5.122-40.238c9.149 17.746 22.993 40.7 41.126 50.997-2.698.162-3.561.946-3.48 5.807-8.2-5.719-13.44-12.535-19.385-18.634-1.325-.224-.042 2.255 1.163 4.258 4.555 5.822 11.106 11.863 17.913 16.864-.121 2.391.727 6.8 2.279 10.338-22.89-16.735-41.709-42.686-39.616-69.63m12.349-10.961c-1.414-7.332-1.106-25.716 3.432-30.376 5.113 22.825 13.124 48.565 30.062 68.605-2.165-.478-4.266-1.963-5.096-1.252-1.019.872-1.148 3.189-1.656 4.797-6.3-7.018-11.436-17.301-14.61-25.53-.776-1.212-2.149-1.204-.931 3.077 2.569 9.061 8.723 18.108 14.514 25.49-.282 3.384.492 7.971 2.075 11.937-16.653-18.311-23.397-33.833-27.79-56.748m26.168-72.48c.67 24.255 5.606 50.415 16.283 70.631-2.997 4.813-3.352 14.998-2.552 20.192-6.954-11.985-9.708-25.103-11.058-37.322-.501-3.465-1.737-2.723-2.23 1.025 1.35 13.601 3.788 23.931 9.088 35.232-2.448 1.59-2.787 4.676-3.578 8.075-11.259-24.819-20.208-73.393-5.953-97.833m16.113 41.983c-1.914-21.76-.928-49.326 10.5-63.791.978 22.179 2.133 45.917 8.52 67.474-2.106 3.546-4.514 7.245-5.838 12.018-2.424-8.682-5.783-21.225-4.799-32.104.05-2.003-.064-2.675-1.51-2.884l-.888 2.27c0 13.552 2.1 26.322 6.115 38.922-.68 2.907-1.188 6.888-1.333 9.949-8.594-7.26-9.248-20.975-10.767-31.854m79.798 261.436c4.191-3.311 9.781-9.288 12.964-12.89 4.16-.404 8.069-2.761 12.68-6.411-4.401 26.605-29.334 35.52-45.027 27.428 6.856-5.251 14.32-14.782 16.201-21.597 3.449 1.355 7.931 2.439 11.783 1.453-2.228 5.072-9.036 9.562-13.35 12.277-3.466 2.471 3.716.581 4.749-.26m-23.47-11.242c6.864-3.181 10.854-8.109 12.608-10.37 1.695.501 1.437-.776 3.497-.098 2.1 4.975-.349 10.758-3.329 14.263-10.055 11.842-33.8 9.581-42.967 2.15l-1.414-1.099c12.52-.742 33.228-14.474 37.637-18.996 1.745.904 4.41.935 6.576.502-2.601 4.538-10.815 11.177-15.976 12.517-2.593 1.583 2.867 1.357 3.368 1.131m-21.453-16.346c3.142-1.068 12.665-5.848 15.208-8.24-1.235 4.006.712 6.752 5.663 9.498-12.906 6.883-46.554 19.224-55.634.518 13.65-2.391 29.53-9.369 39.902-16.025 3.39.647 5.984 1.406 10.983.968-4.2 6.091-13.303 9.242-20.086 12.295-1.955 1.001 1.138 1.21 3.964.986m-20.774-18.158c11.115-.485 15.815-3.424 24.596-6.624-.801 1.844-.841 4.072-.477 5.542-10.38 7.399-22.737 11.744-37.461 9.935-9.522-1.163-21.759-4.652-24.052-16.493 17.656 3.926 33.954 2.084 50.455-3.748 1.914 1.535 5.711 2.341 8.57 1.971-2.471 4.345-17.535 7.56-24.352 7.576-1.437.921 1.947 1.325 2.721 1.841m56.927 104.626c2.553 1.244 6.509 2.262 10.532 2.99-1.762 1.614-6.066 4.038-8.335 5.023-4.976.598-6.786-.792-9.766-1.406 2.585-1.356 7.026-4.877 7.569-6.607m10.854-15.297c-6.163 3.36-15.58 4.556-22.913 6.624 1.923 4.458 5.775 5.686 9.813 7.237-3.78 5.911-8.473 6.914-14.91 9.853 2.803 2.197 10.063 3.474 13.593 3.78-16.791 14.343-37.848 6.527-55.794 7.107-.179-10.305-5.023-25.36-14.45-32.889 3.07-7.624-.759-15.103-7.414-16.315 4.385-37.184-34.197-61.866-27.832-97.276 11.154 10.371 29.317 13.988 44.544 12.922-6.858 3.425-23.02 1.261-31.743-.968-3.133 18.545 17.001 24.778 37.557 23.39-4.102 3.07-11.605 4.071-16.597 5.621.848 8.982 10.2 13.65 18.084 14.829 8.084 1.211 18.067-.548 25.507-2.6-4.427 3.892-13.353 6.639-20.645 7.156 5.968 14.376 30.441 14.973 42.701 10.726-1.614 3.456-4.03 5.266-7.624 7.737 11.406 8.933 31.25 7.399 42.709-5.832-1.21 4.396-3.989 9.16-7.236 12.357 11.284 4.508 16.574 3.312 25.758-7.09-2.054 13.568-23.641 24.52-37.938 25.619.243 2.908 2.861 6.267 4.83 8.012m28.043-41.255 2.633-3.166c.339 2.746 1.284 4.715 2.367 6.397-4.273 8.271-13.635 11.985-20.273 8.915 6.114-7.237 12.244-19.577 13.398-26.395.614 2.877 1.729 6.64 2.771 8.45-.653 1.986-2.609 5.136-3.813 6.477-1.057 1.179 1.462.306 2.917-.678m-54.55-188.35c.936-4.345-1.697-12.117 2.576-16.438 6.874 17.955 23.438 32.453 33.485 48.098 3.667 5.751.406 14.207-4.385 18.188-6.306 4.766-16.404 6.494-17.34 15.04.564 4.966-.073 9.95 3.763 13.543 9.653 8.959 22.445.599 28.85 10.332 2.028 3.076 6.082 7.237 13.498 8.246.306 6.155-2.336 16.726-3.062 23.204-2.819 3.651-4.054 6.203-8.19 8.578 2.099 3.635 4.2-.63 6.292-1.664-.719 2.827-1.907 9.111-3.288 12.471-2.149.582-3.788.968-7.332-1.098-2.626-1.552-5.486-4.233-4.895-7.56.266-3.683 3.852-4.749-.162-7.366-4.127 4.296-8.142 9.756-15.039 7.204-8.294-3.102-6.793-8.82-5.647-14.199.566-1.146 2.262-4.119.244-6.163-3.368 1.075-8.304 5.727-16.815 2.593-3.45-1.277-6.52-6.671-4.29-9.766 1.898-2.681 8.302-2.866 7.148-8.438-5.912 4.748-15.878 5.798-20.571.427-.865-1.43-1.51-4.79.031-5.961 2.101-2.488 6.744-2.502 4.685-7.769-5.209 3.19-14.013 4.547-18.463-1.939-2.253-3.295.226-10.047 3.271-10.637 3.772-.727 7.43-1.502 7.479-4.442-5.105-.857-18.705-.905-19.287-9.781-.21-3.328 2.236-5.945 5.096-6.721 4.127-.71 8.077 2.836 8.658-2.575-8.691-2.407-16.825-2.117-18.729-9.483-1.172-4.587 2.697-6.348 5.75-7.495 4.2-1.138 9.515 4.58 11.219-.12-4.379-3.628-10.258-5.573-12.754-10.977-1.3-2.819.953-6.22 3.691-6.994 7.407-2.117 12.576 3.101 18.059 5.702 2.068.984 5.993 2.406 5.371-.42-8.189-5.08-12.671-15.936-10.134-19.175 5.111-6.542 15.983-1.687 21.217 3.555m92.051 14.828c1.195 4.538 3.877 9.32 6.574 13.536-2.835-.162-9.158-2.317-11.834-4.031 2.239-3.012 3.831-6.332 5.26-9.505m-5.8-12.794c.759-9.554 2.028-18.981-2.511-27.073-2.14 3.037-3.166 5.484-7.1 7.318-1.535-6.486-3.846-14.692-10.533-19.086-7.778 6.429-23.616 3.804-26.871-5.944 6.679-1.462 6.405 2.084 11.17 2.858 4.572.751 9.442-1.922 10.113-6.058-10.266-7.252-21.129-19.48-30.571-19.497-4.862-.016-8.086 2.545-11.492 6.397-1.754-4.887.024-10.91 3.101-14.222 6.817-7.351 19.698-3.143 26.725 1.866-1.283 4.231 1.6 8.4 5.881 8.739 4.118.331 6.864-3.385 6.169-7.229 8.982 6.624 21.218 7.366 31.791 5.661 2.867 5.154 9.741 9.329 15.208 12.293-2.034.526-3.601 1.624-6.113 1.566 4.603 7.181 14.521 15.493 23.124 18.342-.235 3.264-4.354 5.316-7.553 6.665 4.225 6.695 16.194 19.384 23.843 20.596-.154 3.238-3.828 6.719-6.574 7.455-9.353 2.48-19.271-3.611-26.427-13.109 3.44 8.941 3.787 31.774-1.479 39.608-8.319-5.469-12.849-20.167-12.269-30.474-3.02 2.496-4.966 3.578-7.632 3.328m-85.71-47.483c-3.999-2.496-3.546-11.582-2.205-15.201 2.665 4.378 6.38 9.869 11.339 11.59 4.362 1.754 13.425-2.43 23.617-3.197 8.981-.687 17.688 1.752 24.269 6.864-.185 1.341-4.351 4.329-7.113 2.553-14.894-11.946-32.736 8.06-49.907-2.609m57.433-24.352c0 1.776-1.696 3.216-3.764 3.216-2.067 0-3.754-1.44-3.754-3.216 0-1.76 1.687-3.198 3.754-3.198 2.068 0 3.764 1.438 3.764 3.198m14.54-13.253c4.869 2.237 10.03 5.581 14.141 9.328.654-.443 1.171-.816 1.171-1.575-1.301-1.22-2.553-2.504-4.022-3.561 8.456.104 13.254-3.087 20.442-6.285.63 3.054-1.333 8.845-3.675 11.373-5.654 6.066-15.111 6.962-22.429 5.281-13.495-3.092-18.673-11.969-31.611-7.108-.673-.499-2.094-1.356-3.256-1.905 3.884-11.865 20.209-9.668 29.239-5.548m30.788-13.425-5.629-2.841 4.449-4.589 8.48 3.175zm-8.199-17.001c3.998.703 5.388-2.059 6.291-4.894 4.443 3.213 10.517 5.547 14.782.879.201 1.908-.098 3.926-2.309 6.212-3.612.056-10.153.921-13.781 1.406-1.437-1.025-3.222-2.981-4.983-3.603m-6.953-3.989c-.381-1.309.362-2.861 1.429-3.506 2.358.469 4.628 1.511 6.8 3.214-2.124 3.337-7.05 2.424-8.229.292m-8.385-11.663c-1.163-1.131-2.342-3.554-1.906-5.573 2.287 0 4.03-2.376 4.451-4.079.405-1.528-.388-4.24-2.108-5.355.961-2.973 1.687-4.92 3.497-7.358 5.056.363 7.875-2.14 7.14-7.278 2.415-2.916 5.387-3.989 8.142-5.396 5.638 2.068 9.151-1.121 8.94-4.094 2.503-1.146 4.943-2.608 9.168-2.261-3.804 2.609-9.321 7.447-12.317 11.387-8.11 2.311-14.498 7.78-16.68 16.737-1.631 6.687 2.561 12.631-.12 18.987-1.744-2.389-4.96-5.337-8.207-5.717m4.564 13.617c-.808-.42-1.211-1.229-.913-1.818.299-.597 1.205-.751 1.994-.355.81.412 1.229 1.228.922 1.826-.308.589-1.202.751-2.003.347m-3.942-4.612c-2.107-1.438-1.461-5.162-.362-6.695 2.163.872 5.587 2.617 6.186 5.871-1.269 1.027-4.249 1.899-5.824.824m-4.425-18.277c-.954-.672-1.074-2.141-.259-3.263.823-1.115 2.277-1.495 3.23-.816.961.67 1.075 2.14.252 3.255-.815 1.121-2.262 1.494-3.223.824m9.182-19.603c1.076-.913 2.488-1.025 3.158-.259.671.791.356 2.172-.71 3.086-1.067.929-2.488 1.042-3.157.258-.672-.782-.348-2.164.709-3.085m17.261-10.677c.799-.695 1.858-.776 2.359-.194.516.589.266 1.631-.534 2.317-.799.695-1.866.776-2.366.185-.518-.572-.266-1.614.541-2.308m-12.374 28.656c.025-5.056 6.978-14.909 13.626-16.161-3.813 7.826-10.063 20.861-4.426 29.236 1.171 1.738 4.062 2.32 4.999 3.595-.073.824-.388 1.56-.614 2.431-2.544 1.348-3.368 1.278-6.291 1.398-1.148-.582-5.476-2.86-7.496-3.295 3.95-6.81.187-7.755.202-17.204m31.717-30.554c-.297 2.285 1.116 4.716 3.491 5.273 2.761.662 5.111-1.276 5.685-4.207.403-2.068-.314-4.007-2.399-5.217 2.172-1.253 5.265-2.376 8.498-2.788.314.88.847 1.454 1.452 1.979-.08 2.011-.727 4.83-.88 6.549-4.497 2.166-10.241 7.465-13.012 9.927-4.191 3.74-7.494 9.903-8.077 14.717-.896 7.357 2.731 11.308 1.163 16.807-3.982-1.355-4.83-7.051-9.464-7.746.426 3.91-1.584 5.622-.47 9.03-6.969-.637-8.456-7.487-8.173-10.297 1.478-14.91 9.789-28.939 22.186-34.027m4.508-2.003c1.412 0 2.569 1.099 2.569 2.438 0 1.35-1.157 2.44-2.569 2.44-1.429 0-2.594-1.09-2.594-2.44 0-1.339 1.165-2.438 2.594-2.438m9.974-16.057 8.949-.178.041-7.293c1.721-.25 3.4-.243 5.015.031l.113 7.488 7.964-.129c.104 1.211-.072 2.287-.388 3.514l-21.072-.017c-.509-1.187-.583-2.23-.622-3.416m6.881-6.955.074 4.685-5.792.015c.105-1.849 2.997-4.966 5.718-4.7m-3.715-7.584-.096-4.716 5.798.468-.541-5.403 6.309-.008-.776 5.612 6.388-.678.089 4.911-6.283-.339.678 4.781-5.985-.031.339-5.284zm18.326 12.221-5.371.17-.129-5.284c2.423.138 5.331 2.804 5.5 5.114m8.682 16.921c-2.051 1.034-2.955 2.593-2.462 5.12.411 2.059 3.263 4.071 5.92 3.61 2.302-.395 3.489-2.616 3.247-4.58 12.067 3.458 18.827 19.741 20.474 27.527 1.583 7.438.922 14.991-6.743 16.42-2.407-2.608.638-6.623-1.785-8.837-2.933 1.074-4.742 5.647-8.054 6.027-1.171-5.202 2.198-8.651.405-17.543-1.858-9.185-12.811-18.335-20.023-21.185-.169-1.851-.574-6.066-.978-8.797.696-.185 1.148-.654 1.496-1.365 2.421.622 6.332 2.455 8.503 3.603m2.158 1.317c1.421 0 2.584 1.098 2.584 2.446 0 1.349-1.163 2.448-2.584 2.448s-2.569-1.099-2.569-2.448c0-1.348 1.148-2.446 2.569-2.446m17.494 4.53c.784 3.506 3.61 6.162 7.682 4.475 3.771 1.398 7.551 3.376 9.142 6.259-.824 2.723 1.776 6.761 6.348 6.712 2.746 2.004 3.82 4.2 4.144 7.456-2.779 2.026-2.084 8.156 2.157 9.845-.042 2.155-.679 3.731-1.705 4.926-3.263.355-6.753 2.342-7.131 5.686-4.88-5.613.63-11.105-1.148-19.642-1.599-7.584-10.7-15.023-17.155-18.085-2.964-3.368-6.009-6.469-10.54-9.465 2.997-.057 5.847 1.018 8.206 1.833m3.287-.411c.501-.583 1.576-.502 2.375.193.799.686 1.033 1.729.532 2.309-.507.59-1.574.502-2.382-.185-.792-.687-1.017-1.728-.525-2.317m15.936 10.741c.677-.767 2.1-.654 3.166.258 1.067.922 1.388 2.311.711 3.094-.67.783-2.085.663-3.15-.258-1.075-.913-1.397-2.303-.727-3.094m9.433 16.066c.961-.679 2.407-.308 3.224.806.832 1.124.709 2.594-.243 3.264-.953.67-2.415.306-3.231-.823-.824-1.116-.703-2.586.25-3.247m-.872 21.031c-1.897 2.302-3.78 2.357-5.92 1.107-.961-3.441 3.69-6.704 5.613-6.583 1.518.557 1.453 4.152.307 5.476m-4.846 5.92c-.937.242-1.825-.055-1.978-.67-.163-.606.483-1.308 1.429-1.55.946-.227 1.842.081 1.994.686.145.605-.492 1.308-1.445 1.534m-6.728-.114c-3.183.995-5.855-.072-5.645-2.317 1.526-.961 4.563-3.012 7.333-3.012 2.14 1.171 1.842 4.231-1.688 5.329m-10.702-40.23c6.777 2.601 11.655 11.599 11.882 16.922.218 5.265-3.838 10.12-.146 15.861-1.818.429-4.256 1.519-6.357 3.247-2.156-.209-4.765-.282-6.363-.855-.42-.896-.333-1.776-1.107-2.9 3.884-2.011 6.865-4.28 7.31-8.802.911-9.363-2.747-16.275-5.219-23.473m2.165 46.733c-2.81-.533-9.175-2.27-14.813-2.634-1.17-1.591-1.17-3.836-.654-5.556 1.809 2.964 10.04 2.44 12.229-.823.863.468 2.664.725 3.045.492-.3 3.021 2.269 4.621 4.135 4.951-.994 1.219-3.449 2.698-3.942 3.57m2.067 9.369-5.572 2.883-5.662-4.805 6.501-2.447zm13.189 20.419c-1.703 1.251-3.497 3.101-4.707 4.644l2.301.379c6.073-5.783 19.426-12.084 26.153-11.832 8.077.297 13.868 3.004 16.073 8.383-1.106 1.05-2.675 1.527-4.329 2.455-3.037-1.405-4.58-1.777-8.27-1.388-9.887 1.034-13.804 8.625-30.692 8.876-9.532.129-18.691-8.013-16.85-17.438 5.234 3.673 13.4 7.108 20.321 5.921m24.918 9.755c-.566-4.368 7.261-4.41 7.738-.564.258 2.091-1.753 3.771-4.103 3.658-1.753-.08-3.433-1.534-3.635-3.094m-75.487 77.296c5.744.953 11.97-1.236 17.334-4.233-2.196 6.357-9.346 10.193-12.391 13.626 6.601.363 13.045-9.167 15.331-14.417-.162 7.842-1.647 19.593 2.664 26.847-10.49.832-23.366-1.195-32.032-6.276 3.489-3.231 7.285-7.438 9.094-15.547m-38.832-97.689c6.146-1.519 18.391-2.035 27.485-1.979 9.103.056 18.795.928 27.712 2.496-7.424 2.544-18.933 3.57-27.921 3.449-8.99-.137-19.925-1.156-27.276-3.966m29.439 5.847c9.789.097 22.397-1.671 29.619-4.45 3.029.202 5.257.575 7.874 1.381.089.743-.258 1.471.26 1.914-13.222 3.409-28.213 5.404-42.727 5.13-13.206-.26-25.983-3.101-37.388-6.559 2.407-1.39 5.153-2.157 8.271-2.673 9.304 4.094 21.475 5.119 34.091 5.257m29.101-37.63c.841 0 1.51.647 1.51 1.446 0 .792-.669 1.439-1.51 1.439-.847 0-1.518-.647-1.518-1.439 0-.799.671-1.446 1.518-1.446m10.467 1.179c-.798 2.796-5.855 3.466-7.373 1.794-1.066-1.276-.057-2.738 1.066-3.739 3.191-2.795 5.758-.629 6.307 1.945m-4.256-4.788c-.751.177-2.591 1.454-3.917 2.496-.355-.389-1.122-.84-2.165-.946-.193-.953-.678-1.808-.888-2.026 2.407-1.827 3.894-5.525 6.817-6.519.647 1.422-.815 5.211.153 6.995m-59.242 9.853c1.93-.201 3.788-2.851 4.029-4.499.857-.129 2.004-.073 2.771-.169 2.213 4.344 7.229 6.429 11.38 3.514l2.553-2.117c.379 3.062-.526 3.886-2.375 5.356-7.132-.485-14.191.395-20.352.686-1.989-.881-4.67-3.263-5.105-5.856 1.751 1.616 3.933 3.392 7.099 3.085m-1.689-8.239c1.673 1.188 2.343 3.127 1.494 4.306-.839 1.202-2.892 1.202-4.563.025-1.671-1.196-2.35-3.126-1.518-4.323.847-1.187 2.9-1.187 4.587-.008m17.421-3.06c-3.286.517-5.248 2.729-7.615 4.411-2.109-.39-4.71-.284-6.382-.065-1.639-1.753-4.078-3.628-6.977-4.354 3.013-7.559-4.491-15.314 1.39-24.635 3.02-4.789 10.75-12.196 16.387-14.634-.404 11.711-8.627 34.01 3.197 39.277m33.293 7.512c-1.679 1.194-3.723 1.187-4.571 0-.848-1.204-.169-3.135 1.511-4.314 1.671-1.195 3.723-1.195 4.57.008.84 1.179.162 3.118-1.51 4.306m-16.864 3.586c1.438-.599 3.029-2.342 3.821-4.233 1.034-.323 2.584-.451 3.666-.162.758 3.821 2.156 4.903 4.919 4.944 1.785.023 4.337-1.398 6.122-3.166.462 2.511-1.979 5.298-4.499 5.96-4.232-.266-15.556-1.438-21.193-1.155-1.592-.896-2.244-3.546-1.922-5.072 2.076 2.237 5.483 4.402 9.086 2.884m-10.371-7.084c.84 0 1.518.654 1.518 1.438 0 .782-.678 1.446-1.518 1.446-.831 0-1.511-.664-1.511-1.446 0-.784.68-1.438 1.511-1.438m6.979-1.114c2.358 0 4.28 1.331 4.28 2.972 0 1.648-1.922 2.98-4.28 2.98-2.365 0-4.29-1.332-4.29-2.98 0-1.641 1.925-2.972 4.29-2.972m-9.45 2.583c0 1.648-1.923 2.973-4.288 2.973-2.35 0-4.273-1.325-4.273-2.973 0-1.638 1.923-2.98 4.273-2.98 2.365 0 4.288 1.342 4.288 2.98m-.791-5.676c1.138-1.504 1.987-4.121 3.182-4.967 1.914 1.453 1.761 4.143 3.618 5.031-.653 1.082-1.172 1.809-2.099 2.931-.656-.177-2.068-.258-2.722-.104-.808-.817-1.729-1.624-1.979-2.891m14.028-37.753c8.957 4.411 15.477 10.468 17.438 19.273 1.414 6.363-2.81 12.914-.977 19.068-3.069.154-5.096 1.592-6.848 3.87-2.278-.258-4.306-.267-6.898-.267-1.664-1.438-3.336-3.199-6.607-3.998 12.656-7.116 3.514-25.539 3.892-37.946m-20.142-19.093 19.344.081c-.365 2.698-4.242 6.251-9.378 6.324-5.138.072-8.399-1.945-9.966-6.405m2.567 8.094c4.387 1.72 10.929 1.608 14.426-.961.42 15.765 3.553 30.651 3.053 39.042-.226 3.7-2.367 6.575-4.765 9.047-3.813-.769-2.941-4.693-5.985-7.059-1.818 2.261-2.674 5.935-5 6.784-2.665-.945-4.45-5.541-4.684-8.562-.824-9.982 2.955-22.381 2.955-38.291m-24.302 53.387c.695 0 1.252.54 1.252 1.196 0 .653-.557 1.188-1.252 1.188s-1.26-.535-1.26-1.188c0-.656.565-1.196 1.26-1.196m-2.608 3.498c-.961 1.22-3.295 1.22-5.194.007-1.898-1.22-2.665-3.189-1.713-4.402.962-1.211 3.287-1.219 5.195-.015 1.905 1.211 2.665 3.189 1.712 4.41m.202-4.798c-.849-.783-2.029-1.421-2.9-1.996-1.922-1.84-.365-5.087-.574-7.785 2.706 1.882 3.393 5.088 7.197 7.083-.033.744-.533 1.308-.703 2.132-.872-.097-2.101.162-3.02.566m-.09 21.468-11.098-3.683-.508-1.768c27.074-6.228 63.678-4.96 89.871-.194l-.549 2.528-10.17 3.19-.089 2.48 8.101 6.113-.879 2.754c-26.639-6.194-55.666-5.629-82.263-.654l-.807-2.899 8.601-5.056zm22.881 108.908c4.741-1.381 7.948-8.078 6.954-13.708-8.553-3.464-14.861-9.708-20.959-16.968 3.239-1.576 5.777-4.815 6.648-9.943-7.261-2.664-16.026-8.206-21.912-14.127 2.488-.573 6.082-2.268 7.405-4.95-6.833-2.9-17.099-8.158-19.811-12.803 8.916-3.892 12.3-9.247 12.453-17.744 23.876 8.966 54.609 7.705 77.992 1.147-.373 7.632 4.836 13.731 11.653 17.025-3.699 5.13-11.275 9.7-17.938 11.624.928 2.487 3.804 4.603 6.285 5.556-5.59 6.066-14.079 11.986-22.479 14.457.493 4.943 4.506 7.82 7.559 9.201-4.846 7.938-13.213 14.788-21.533 17.154-.354 7.439 2.269 11.857 7.334 14.021-1.76 5.502-4.474 10.645-9.66 15.137-4.74-4.395-8.012-9.758-9.991-15.079m-23.447-3.7c2.367 4.126 6.914 10.62 10.952 13.262 1.487.97 2.603.889 3.539.452-4.887-4.523-11.115-10.644-12.77-15.378 4.321 4.103 12.713 7.438 18.383 6.211 2.334 5.581 5.193 11.145 9.005 15.871-9.239 4.701-20.483 6.842-31.749 5.693 3.044-7.099 3.408-17.485 2.64-26.111m159.775-73.08c1.536 2.86 1.721 8.845.574 11.89-1.898-4.2-7.245-6.954-11.801-6.865-7.608.121-12.469 3.473-16.985 8.941-2.278 2.763-9.7 6.551-13.738 10.532.323 3.345 5.162 6.122 10.12 5.888 5.573-.234 7.705-4.846 12.406-3.627-.759 4.459-6.89 9.369-9.837 9.951-7.1 1.365-11.809-.081-18.124-3.909-4.945 2.996-9.37 10.071-9.411 19.658-3.076-.193-5.533-5.459-7.43-9.182-4.499 4.845-5.282 21.097-2.367 29.811-3.051-.726-6.38-3.255-8.473-4.919-.742 9.926-2.93 22.421-12.188 30.756-6.776-7.632-1.783-36.983-2.139-39.842-5.291 8.238-13.577 12.584-21.807 13.301-4.684.404-9.684-3.496-9.943-7.996 7.809-.37 21.047-13.818 23.414-21.5-1.905-1.728-5.079-3.27-6.8-5.757 8.585-2.674 17.203-10.12 22.832-16.881-2.132-.719-4.659-1.922-6.097-3.037 5.469-2.367 12.107-7.083 14.942-11.574 11.469 1.566 24.125-.59 32-6.858-.604 3.174 2.124 9.329 5.986 8.958 5.451-.542 7.407-5.461 6.227-9.378 8.011-4.757 22.921-9.053 28.639 1.639m9.515 21.307c5.194-.637 10.879-5.921 10.985-12.583 2.827 3.53 1.768 13.787-2.084 16.542-17.059 12.203-33.85-9.207-49.188 2.148-2.778 1.462-7.737-.743-7.931-2.577 17.542-13.883 33.219-1.672 48.218-3.53m-77.641 72.741c-2.65 1.647-7.917 3.924-11.534 3.537 3.101-3.893 4.724-8.191 6.049-12.584.663 2.6 3.538 7.164 5.485 9.047m40.148 64.735c6.527-9.652 19.223-1.139 28.965-9.983 3.892-3.546 3.311-8.545 3.942-13.498-.841-8.576-10.93-10.41-17.172-15.255-4.734-4.04-7.909-12.529-4.153-18.23 10.218-15.524 26.969-29.828 34.044-47.694 4.233 4.363 1.493 12.109 2.375 16.477 5.307-5.186 16.242-9.918 21.282-3.303 2.48 3.255-.784 13.391-9.038 18.382-.662 2.812 3.287 1.439 5.363.476 5.533-2.544 9.417-7.026 16.8-4.813 2.714.801 4.927 4.225 3.593 7.035-2.56 5.379-8.455 7.254-12.89 10.814 3.005 3.611 7.044-.928 11.235.267 3.037 1.179 6.881 2.997 5.653 7.561-1.994 7.349-10.111 6.954-18.841 9.262 3.189 4.517 4.513 1.916 8.618 2.682 2.858.8 5.265 3.449 5.015 6.785-.678 8.853-14.272 8.748-19.384 9.547 0 2.932 3.723 3.069 7.413 4.523 2.885 1.147 5.428 7.423 3.143 10.669-4.522 6.439-12.778 5.13-18.343 2.415-1.268 5.081 2.609 4.621 4.677 7.14 1.907 1.487 1.067 4.758.185 6.188-4.756 5.306-15.16 3.925-21.008-.905-1.227 5.557 5.469 5.895 7.344 8.601 2.196 3.119-1.1 8.554-4.573 9.782-8.546 3.037-13.56-1.811-16.92-2.94-2.044 2.003-.397 5.007.169 6.17 1.09 5.395 2.891 11.565-5.436 14.571-5.653 2.035-11.259-3.49-15.33-7.836-3.069 3.247-.177 4.281.049 7.964.542 3.329-2.157 6.301-4.984 7.35-3.149 1.18-5.508 1.18-7.656.565-1.34-3.391-2.446-9.66-3.142-12.502 2.099 1.034 4.144 5.331 6.285 1.745-4.113-2.455-5.315-4.992-8.094-8.691-.648-6.494-3.141-17.091-2.771-23.244 7.422-.905 11.527-5.009 13.585-8.077m94.531-227.758c11.438 14.473 12.421 42.031 10.516 63.799-1.526 10.879-2.964 25.846-11.551 33.09-.144-3.061-.338-9.224-1.025-12.124 4.015-12.599 6.583-24.439 6.583-37.991l-.879-2.263c-.994-.962-1.682 2.028-1.633 2.876.558 10.952-3.038 23.89-5.459 32.574-1.325-4.782-3.58-7.843-5.678-11.389 6.371-21.573 8.165-46.393 9.126-68.572m26.621 23.366c14.263 24.442 4.224 72.546-7.036 97.367-.797-3.401-1.614-6.648-4.053-8.231 5.298-11.308 9.142-22.568 10.492-36.16-.493-3.739-1.736-4.49-2.238-1.041-1.357 12.227-5.5 26.742-12.454 38.727.807-5.185 1.074-15.378-1.93-20.191 10.677-20.217 16.549-46.224 17.219-70.471m22.59 40.546c4.533 4.66 4.831 23.035 3.434 30.376-4.41 22.923-12.083 38.745-28.737 57.063 1.592-3.973 2.357-8.255 2.075-11.63 5.79-7.375 12.875-17.058 15.459-26.112 1.204-4.265-.178-4.273-.944-3.085-3.175 8.237-9.241 19.141-15.534 26.168-.523-1.608-.337-3.465-1.355-4.337-.823-.711-2.317-.316-4.475.153 16.946-20.023 24.957-45.771 30.077-68.596m15.314 41.483c2.093 26.951-16.112 53.523-40.237 69.79 1.543-3.537 2.066-7.786 1.954-10.185 6.817-4.99 13.52-10.411 18.068-16.233 1.202-2.003 2.494-4.483 1.178-4.25-5.951 6.099-11.509 12.286-19.707 18.004.072-4.862-.485-5.024-3.175-5.186 18.133-10.305 32.761-34.187 41.919-51.94m4.499 40.714c-.582 24.425-27.291 44.535-46.668 50.722.421-1.873.931-4.167.913-6.114 9.507-5.273 16.92-7.867 24.958-14.441.637-1.01 1.802-4.112.606-3.28-5.436 4.329-19.691 12.407-25.953 15.452.146-3.102-.215-3.828-5.183-3.192 1.591-1.331 3.037-2.479 4.02-3.989 17.842-6.097 34.756-20.102 47.307-35.158m4.783 30.361c.168-1.51-.058-3.521-1.81-1.874-8.578 5.911-23.286 18.634-36.991 20.878 21.363-11.064 36.675-27.46 36.619-51.012-.008-3.416-2.189-2.649-3.875-.855-10.17 12.518-25.516 27.355-41.194 33.703 12.165-8.472 23.617-19.409 31.088-32.266 7.019-12.076 10.209-25.983 9.094-40.207-.363-4.604-2.697-5.049-3.981-1.438-2.261 7.755-20.346 38.899-34.091 46.167 13.244-12.841 21.846-30.587 25.714-49.131 2.659-12.689 2.457-26.064-2.737-37.371-1.809-3.957-3.44-3.335-4.2-.404-4.135 14.433-11.252 43.897-26.572 62.135 10.088-20.555 14.684-38.915 15.75-55.941 1.372-22.001-2.496-37.807-8.166-47.021-2.431-3.951-4.207-4.387-3.846-.703-1.429 22.372-6.267 47.128-16.709 69.298 5.427-16.646 7.81-42.015 6.09-57.063-1.269-11.032-4.281-23.786-12.4-35.343-.516-.735-4.199-4.539-3.729.282-1.39 22.252-2.465 49.874-9.257 68.701-1.204-.759-2.238-1.647-3.586-2.253-4.32 21.759-14.241 45.561-29.133 62.748-.492-2.738-.801-7.195-4.62-10.459-2.868 6.987-11.057 19.668-15.685 26.145-12.14 16.928-23.664 21.791-22.865 38.502.986 20.483 22.517 15.136 20.604 29.585-1.244 9.473-13.514 8.278-22.663 8.658-10.897.397-8.877 13.148-18.287 12.455-1.066-14.854 3.271-27.349 10.032-37.533l-30.725-34.915c-1.317.815-2.366 1.638-3.698 1.832-3.828-4.578-7.569-11.348-6.826-17.276 3.045.25 5.355 2.496 9.338 3.15-1.157-6.889-3.91-19.755-2.053-26.823 1.93 3.005 5.524 5.533 9.321 5.654.614-6.663 2.076-14.668 6.139-19.602 4.611 4.094 12.236 5.242 17.55 3.618 9.668-2.956 13.036-8.262 15.46-13.925 10.522 4.547 28.543 9.055 38.17-.597 4.661-4.676 6.034-22.793-3.991-22.324 1.293 7.469-3.464 14.723-12.454 14.336-8.39-.355-19.641-4.919-29.537-2.513 1.907-4.005 6.292-5.524 9.92-7.049 5.719-1.722 12.009 2.471 15.248 7.243 4.74-6.711 3.926-17.098-2.48-23.083-4.199-3.926-11.33-4.167-19.893-1.849-4.967-15.41-30.392-10.218-37.58-4.021-7.988.879-16.122.418-23.44-5.696l2.051-6.444 5.937-2.44.339-2.875-3.52-3.345c-.032-1.533.549-3.157.962-4.449 2.776-2.39 5.999-5.105 9.982-6.599 3.537 1.615 7.245-.419 6.8-2.512 5.203.227 6.43-6.744 3.409-10.355 1.728-1.808 1.794-4.426 2.205-6.864 3.827-1.875 3.052-10.913-1.899-10.493-.306-2.56-1.542-5.541-4.094-7.996 1.083-5.621-2.101-9.643-8.248-8.713-2.648-2.481-5.693-3.911-9.045-5.59.153-4.048-4.644-6.261-7.899-4.006-4.402-1.922-8.99-2.973-13.472-3.062-4.54-2.318-9.362-4.369-14.966-5.864 2.214-2.995 3.343-6.703 2.415-11.25-.961-4.725-4.434-7.132-8.376-8.166l-.138-2.779 7.004 1.09-.162-10.16-6.259.696 1.171-5.646-12.14.056.776 5.629-5.807-.524.266 9.603 6.098-.946-.137 3.385c-4.774.299-8.805 4.305-9.233 9.239-.306 3.626.703 6.865 2.391 9.903-6.146.985-10.596 3.012-16.048 5.848-4.297-.453-8.158.622-12.245 2.64-3.747-2.9-9.103-.306-9.498 4.345-2.496.93-5.613 2.165-8.837 5.276-5.063-.824-8.738 3.294-7.599 8.254-1.946 1.728-3.644 4.885-4.241 7.825-6.929.76-5.363 9.184-2.488 9.912-.177 2.664.623 5.183 2.642 7.041-3.238 5.186-1.033 10.969 3.141 10.605.509 3.353 3.636 3.829 6.632 3.078 4.378 1.066 7.455 3.368 10.645 7.052l1.155 2.834-4.297 4.829.106 2.537 6.654 3.335 1.566 6.422c-2.123 1.171-13.165 5.629-21.015 5.807-17.962-10.589-38.857-11.074-41.441 2.746-6.115-1.841-16.599-2.561-22.082 3.239-4.071 4.321-5.694 15.233-1.93 21.549 5.079-5.88 8.94-10.073 14.731-8.028 5.177 1.832 8.861 4.079 12.1 8.48-15.622-3.812-27.566 5.517-35.604.525-6.219-3.86-7.946-9.756-7.413-15.474-8.473 5.798-8.811 19.27-3.66 24.439 8.877 8.925 26.541 4.264 37.356.872 7.268 13.134 19.197 18.853 33.461 11.17 3.926 5.534 5.55 11.139 6.542 18.715 3.378.113 7.237-1.43 9.337-4.329 2.035 8.812-.557 18.108-2.123 24.843 4.506.138 6.817-1.348 9.458-1.865.023 5.622-3.538 14.07-6.535 17.712-1.309-.784-2.892-1.244-4.635-2.432l-29.029 32.656v2.859c7.641 9.935 9.765 23.616 9.394 36.976-4.677-.663-6.874-3.724-8.465-5.186-4.005-14.32-19.094-3.57-30.061-11.324-8.626-15.589 11.42-16.009 16.469-26.378 2.616-5.985 4.11-14.854-.211-21.049-12.107-17.429-27.615-32.484-35.634-51.958-3.441 1.148-4.387 5.284-5.816 9.669-13.375-18.133-22.938-40.821-27.518-62.571-1.3.356-2.519 1.454-3.586 2.35-5.072-17.292-7.179-49.065-7.907-66.851.193-3.675-.532-5.048-2.092-4.272-15.087 19.076-16.808 45.415-14.514 70.048.575 7.447 3.505 15.549 4.66 22.414-10.152-20.676-14.303-44.212-15.063-68.636.13-.889-.775-2.343-2.003-1.123-19.82 24.253-8.488 81.381 4.556 105.967-11.913-8.836-23.616-52.741-25.386-62.845-.379-3.03-1.55-3.239-3.15-.687-9.248 14.699-6.905 34.342-2.139 50.48 4.499 15.25 13.512 28.834 21.396 37.67-12.464-8.698-24.74-30.047-33.293-47.014-.493-1.939-2.449-2.933-2.981 0-5.104 28.939 13.448 57.522 38.631 74.508-15.313-4.757-34.229-26.759-40.537-33.334-2.778-3.788-3.926-2.98-4.095 1.785-.703 20.525 15.894 39.213 34.495 49.536-12.059-2.779-25.384-12.745-33.8-20.192-1.656-2.213-3.433-2.019-3.135.524 1.987 17.026 9.839 23.608 21.016 32.848 7.996 6.6 27.72 14.717 40.069 18.424-19.836-1.939-36.845-11.21-51.102-19.36-3.012-3.183-4.207-1.746-3.158 3.409 2.392 11.888 9.506 20.966 18.205 26.272 11.002 6.713 27.583 8.781 39.181 9.862-6.824 3.465-29.221-1.728-41.2-5.113l-2.537-6.63-7.115 3.206-1.833-9.982-13.319 5.338 5.04 9.32-8.279 2.326 5.55 12.633 7.237-4.248 1.897 8.028c-2.155.291-5.783 2.293-6.985 4.587.023.71-.008 1.811.249 2.327 3.069 1.518 8.618 2.681 11.325 7.334 15.241 26.2 1.67 64.419 30.821 83.74-4.395 4.458-3.264 15.346 6.477 17.186-2.683 12.779-.153 27.768 11.194 35.926-.461.727-.76 2.003-.768 2.908-5.839.16-11.372 6.59-11.33 13.036.039 5.38 3.036 9.902 6.807 11.388-3.546 6.009-.137 15.072 11.13 15.991.921 9.112 7.875 13.199 17.656 7.982 3.869 5.62 3.142 15.701.88 22.663 3.563.112 7.133-1.423 9.41-2.989 4.37 1.131 4.968 4.458 10.507 5.912 1.471-2.617.897-9.401 1.535-12.454 4.112-.113 9.458-1.373 12.73-5.621-5.857-2.748-12.94-6.171-17.188-11.971 1.454-1.211 2.738-4.247 2.786-6.848 9.103-15.605 29.028-34.666 41.369-39.222.081 3.974.324 7.722 1.771 10.937 9.666-7.383 22.274-17.593 32.524-21.598.848 2.908 2.374 6.608 6.849 10.258 12.721-15.976 25.798-35.731 41.579-49.155 1.39.516 2.48.84 3.933 1.583-5.088 15.603-31.087 30.869-19.198 50.56-8.941 5.332-10.12 15.216-10.023 21.582-3.967 9.822-20.265 21.224-33.139 27.686-4.386 8.11 14.312 13.134 21.864 13.085-2.762 5.17-6.97 11.533-4.678 17.834 3.191 2.682 13.91-.033 19.628-2.989-1.058 4.734-4.297 18.318 2.455 16.3 5.727-3.071 10.686-5.59 17.841-7.012-.832 7.447-.226 16.896 6.074 22.632 5.847 5.379 6.195-8.254 12.866-10.759 2.569 10.291 5.622 21.824 15.961 28.964 11.436-8.094 14.481-18.577 15.846-29.303 5.694 3.328 8.125 14.975 12.754 11.89 6.687-4.976 7.721-14.636 6.646-22.842 6.939.469 12.633 3.942 18.39 6.962 5.671 1.244 2.053-10.548 2.675-15.266 7.607 2.166 15.564 4.847 19.27 2.198 1.301-6.463-1.445-14.473-5.088-18.609 6.914 1.825 17.405-1.648 21.282-7.171 2.343-3.328 1.721-5.461-3.771-7.335-12.221-6.945-20.2-12.633-28.35-24.94.316-5.783.138-15.46-8.658-21.938 8.683-25.198-14.958-33.437-19.547-51.529 1.076-.42 2.295-.711 3.668-1.712 14.288 13.729 33.825 38.429 41.523 50.059 3.416-2.988 5.839-6.704 6.582-10.353 12.737 6.234 24.409 14.294 32.987 21.839 1.218-1.777 1.969-5.67 1.373-8.691 13.358 5.201 26.532 8.19 36.401 17.155 15.218 14.118 30.66 3.989 54.995-3.102 13.794-4.006 34.543-10.886 36.765-19.545.985-3.877.485-9.693-2.487-12.212.873-6.849-.945-8.659-3.117-11.114 3.206-15.346-7.714-31.322-19.757-34.763l.202-8.4 5.936 2.779 4.508-11.968-7.125-1.245 3.626-7.318-14.95-4.119.202 9.095-7.736-3.507-2.942 12.924 7.86.193-3.408 7.399c-18.891-1.647-30.507 6.153-37.542 21.063-4.062 2.941-9.07 6.35-7.43 12.019-6.017 1.292-8.408 11.599-6.355 16.315 2.567 5.881 12.316 11.211 9.271 17.898-4.046 1.842-16.356-13.698-27.816-18.657 4.305-.355 8.56-1.34 10.476-3.892-5.841-1.098-10.106-3.586-14.538-8.66 4.668-1.712 7.478-3.261 10.216-6.88-6.324-2.099-15.508-3.587-23.342-7.302 2.754-1.68 5.218-4.119 6.01-7.334-13.611-2.439-35.288-9.401-38.851-25.846 6.211 9.208 16.865 12.486 25.91 6.559-3.221-4.862-6.492-8.821-7.422-13.698 6.195 8.028 15.21 12.955 24.449 13.328 6.365.257 13.472-1.875 19.199-5.268-2.875-2.213-6.825-5.815-7.528-9.158 14.312 7.914 34.48 2.875 43.494-9.078-6.332-.969-16.581-3.426-21.347-7.851 15.071 4.878 39.899 7.075 43.695-12.116-5.992-.823-13.019-2.682-16.686-5.298 17.275 1.792 39.697-2.939 39.147-23.454-8.788 1.791-21.379 3.068-30.821 1.516 27.025-1.678 42.799-6.153 47.903-26.717.494-2.011-.652-3.965-2.874-2.665-12.6 4.2-25.814 6.834-39.504 4.668 12.681-1.041 28.309-3.158 38.955-9.312 11.25-6.51 17.074-16.937 18.528-29.949.226-2.131-1.762-1.002-2.367-.621-14.36 9.005-34.367 18.446-50.916 19.456 17.875-6.873 56.861-18.061 60.472-49.583" fill="#fff"/><path d="M453.1392 301.9274c4.329.154 10.095 1.252 11.477-3.334-6.915 2.656-11.67-1.697-11.477 3.334" fill="#fff"/><path d="M304.2183 465.4425c2.487 4.265 7.132 10.58 9.377 15.604 4.612-.485-7.526-17.769-9.377-15.604" fill="#fff"/><path d="M239.6363 489.0587c3.247-2.682 6.116-9.158 6.116-13.745-5.162 2.082-4.2 9.158-6.116 13.745" fill="#fff"/><path d="M226.5933 480.0763c.452 4.233 5.388-9.399 10.039-13.681.589-4.071-10.612 6.478-10.039 13.681" fill="#fff"/><path d="M269.0284 489.9308c-.218 3.135-.017 6.883.452 10.29 2.907.437 1.431-7.285 2.512-10.936 1.034-3.521-2.762-2.422-2.964.646" fill="#fff"/><path d="M258.7295 482.9532c-3.051 2.278-3.012 8.271-3.65 11.193.484 4.83 7.673-11.226 3.65-11.193" fill="#fff"/><path d="M280.6914 484.0519c2.318 1.905 2.018 12.356 5.492 11.501-1.446-4.298.048-13.988-5.492-11.501" fill="#fff"/><path d="M149.9278 359.3458c-1.275-1.099-2.407-.679-3.529.291-2.334 3.553-6.277 3.393-9.006 5.233 3.965.937 9.838-1.389 12.535-5.524" fill="#fff"/><path d="M89.5298 204.983c-.727 3.368 3.659 7.187 7.399 11.453 1.639-2.505-4.055-6.64-7.399-11.453" fill="#fff"/><path d="M100.8873 189.6437c-1.681 4.2 5.564 8.683 8.116 13.19 2.836-2.536-5.557-9.814-8.116-13.19" fill="#fff"/><path d="M76.0582 276.2272c1.608 3.66 4.709 2.463 7.172 2.625-.21-3.028-4.184-2.028-7.172-2.625" fill="#fff"/><path d="M74.2403 234.7369c-1.146 2.665 3.345 4.87 6.082 7.156 1.365-2.269-3.675-4.724-6.082-7.156" fill="#fff"/><path d="M82.8023 261.2442c-3.626-1.525-7.349-6.259-10.952-8.019-.258 1.889 2.172 3.239 4.539 5.29 2.367 2.068 4.903 4.127 6.413 2.729" fill="#fff"/><path d="M79.0225 217.339c-.986 2.634 2.213 5.3 4.942 8.377 1.455-1.317-3.045-5.92-4.942-8.377" fill="#fff"/><path d="M481.7144 432.3917c1.333 0 2.415 1.003 2.415 2.229 0 1.228-1.082 2.23-2.415 2.23-1.316 0-2.399-1.002-2.399-2.23 0-1.226 1.083-2.229 2.399-2.229m-.443 7.562c2.558 0 4.633-2.069 4.633-4.621 0-2.521-2.075-4.588-4.633-4.588-2.553 0-4.637 2.067-4.637 4.588 0 2.552 2.084 4.621 4.637 4.621" fill="#fff"/><path d="M167.0269 372.171c-1.494-2.034-5.217 4.2-10.565 6.366 4.264 2.034 9.434-3.78 10.565-6.366" fill="#fff"/><path d="M136.2222 346.1642c-2.689-3.683-4.749 3.279-11.59 5.687 3.868 1.196 9.425-3.329 11.59-5.687" fill="#fff"/><path d="M120.811 333.6788c-1.502-.873-3.99-.146-5.96.936-1.22.678-7.06-.339-8.562 2.342 5.146.743 13.423 1.197 14.522-3.278" fill="#fff"/><path d="M251.5342 208.8434c-5.718-2.667-9.159-6.945-13.593-11.38l-.469 3.989c4.144 4.055 9.813 8.691 15.427 10.168.299-.839-.452-1.93-1.365-2.777" fill="#fff"/><path d="M107.0733 321.0773c-.162-4.458-6.526.381-14.886-1.309 1.607 3.765 10.832 1.673 14.886 1.309" fill="#fff"/><path d="M166.5987 325.7472c-3.32-3.772-6.574 4.635-11.679 7.43 4.313 1.97 8.456-4.459 11.679-7.43" fill="#fff"/><path d="M105.6436 236.1744c-1.898-2.213-6.519-4.556-9.62-3.884 3.054 1.914 6.324 5.548 9.781 6.501.84.226.403-1.954-.161-2.617" fill="#fff"/><path d="M208.3633 161.666c-1.519-.58-2.568.938-1.745 1.754 5.348 4.199 8.878 11.879 9.66 17.655-4.466-2.448-8.859-6.081-13.042-7.899-1.883-.824-3.676.105-3.385 1.139 7.019 5.71 15.031 10.193 21.33 16.307 2.431-3.36-4.483-19.974-12.818-28.956" fill="#fff"/><path d="M229.2832 227.3878c-.663-6.97-1.737-12.818-1.462-19.699l-3.36 1.793c.961 6.744 2.148 14.805 3.738 21.815.76.372 1.205-3.158 1.084-3.909" fill="#fff"/><path d="M106.208 251.416c-4.183.767-10.902-3.683-13.011.896.913.775 7.891.72 13.182 1.681.848.152 1.179-1.721-.171-2.577" fill="#fff"/><path d="M133.5494 301.815c1.283-.857 1.437-2.044.96-3.062-5.258.033-6.51 3.934-11.848 5.816 4.321 3.424 6.873-2.188 10.888-2.754" fill="#fff"/><path d="M121.208 223.4859c-1.592-2.793-5.646-7.996-9.176-6.106 2.9 1.656 5.484 8.787 9.176 6.106" fill="#fff"/><path d="M90.4429 300.2159c.227-5.015-4.572-.711-11.462-3.425 1.341 4.596 7.117 3.554 11.462 3.425" fill="#fff"/><path d="M143.7979 316.838c2.625-1.446 4.757-3.021 4.289-5.525-4.362.857-8.239 5.542-12.002 8.214 2.14.575 5.088-1.235 7.713-2.689" fill="#fff"/><path d="M111.1753 270.6944c-2.148-1.364-6.792.518-10.296.938 2.527 2.373 6.485 1.267 10.296 1.042Z" fill="#fff"/><path d="M108.0015 289.7799c2.77 1.285 9.119-.314 9.926-3.004-1.382-3.505-6.162 1.067-9.926 3.004" fill="#fff"/><path d="M340.9034 541.7032c-8.424-1.533-10.669-10.661-17.463-13.521-.297 1.001-.354 2.263-.523 3.392 5.12 4.427 15.273 13.424 17.986 10.129" fill="#fff"/><path d="M313.2725 287.1066c5.145-.645 7.002 1.292 10.743.938 1.089-.154 2.423-1.358 1.518-1.681-3.603 1.124-8.537-1.146-13.488.171-.356.258.751.556 1.227.572" fill="#fff"/><path d="M465.3267 219.1485c-1.923 2.44-6.461 6.996-5.023 8.327 2.761-3.044 5.976-5.693 5.023-8.327" fill="#fff"/><path d="M467.5709 260.3483c2.393-2.035 4.83-3.36 4.58-5.249-3.618 1.729-7.382 6.413-11.016 7.915 1.51 1.421 4.054-.622 6.436-2.666" fill="#fff"/><path d="M469.938 236.5865c-2.431 2.407-7.486 4.822-6.146 7.099 2.762-2.253 7.261-4.417 6.146-7.099" fill="#fff"/><path d="M447.4215 218.0753c3.787-4.233 8.205-8.004 7.511-11.381-3.393 4.783-9.119 8.868-7.511 11.381" fill="#fff"/><path d="M435.483 204.3688c2.584-4.482 9.87-8.908 8.229-13.125-2.591 3.359-11.047 10.556-8.229 13.125" fill="#fff"/><path d="M396.6343 360.7999c-1.123-.97-2.238-1.39-3.521-.308 2.656 4.152 8.487 6.543 12.469 5.639-2.697-1.874-6.639-1.745-8.948-5.331" fill="#fff"/><path d="M467.7506 278.069c-3.007.557-6.963-.492-7.214 2.543 2.471-.137 5.566 1.092 7.214-2.543" fill="#fff"/><path d="M259.8287 280.6935c0-1.737-1.365-3.141-3.069-3.141-1.672 0-3.054 1.404-3.054 3.141 0 1.745 1.382 3.151 3.054 3.151 1.704 0 3.069-1.406 3.069-3.151" fill="#fff"/><path d="M273.268 69.5348c1.859 0 3.37 1.308 3.37 2.891 0 1.6-1.511 2.9-3.37 2.9-1.857 0-3.359-1.3-3.359-2.9 0-1.583 1.502-2.891 3.359-2.891m-.144 9.651c3.334 0 6.049-2.462 6.049-5.507 0-3.029-2.715-5.492-6.049-5.492-3.345 0-6.059 2.463-6.059 5.492 0 3.045 2.714 5.507 6.059 5.507" fill="#fff"/><path d="M406.9224 347.4239c2.149 2.391 7.666 6.963 11.543 5.783-6.816-2.437-8.812-9.45-11.543-5.783" fill="#fff"/><path d="M311.9566 69.4308c1.639 0 2.989 1.275 2.989 2.833 0 1.56-1.35 2.827-2.989 2.827-1.631 0-2.981-1.267-2.981-2.827 0-1.558 1.35-2.833 2.981-2.833m-5.814 3.875c0 3.029 2.455 5.494 5.474 5.494 3.046 0 5.492-2.465 5.492-5.494 0-3.045-2.446-5.5-5.492-5.5-3.019 0-5.474 2.455-5.474 5.5" fill="#fff"/><path d="M305.8594 54.9073c1.421 0 2.576 1.09 2.576 2.448 0 1.34-1.155 2.447-2.576 2.447-1.423 0-2.569-1.107-2.569-2.447 0-1.358 1.146-2.448 2.569-2.448m0 8.279c2.625 0 4.749-2.244 4.749-5.024 0-2.77-2.124-5.023-4.749-5.023-2.617 0-4.742 2.253-4.742 5.023 0 2.78 2.125 5.024 4.742 5.024" fill="#fff"/><path d="M375.8765 373.1407c1.115 2.601 6.234 8.465 10.507 6.478-5.329-2.213-8.997-8.481-10.507-6.478" fill="#fff"/><path d="M303.646 199.402c-.809.953-3.765 5.048-5.049 5.872-3.19 2.051-7.446 3.754-8.214 5.903 6.001-1.349 13.868-4.854 16.3-10.75.362-2.084-1.882-2.39-3.037-1.025" fill="#fff"/><path d="M432.269 218.7286c-3.516-1.93-7.617 3.224-9.248 6.001 3.658 2.723 6.331-4.368 9.248-6.001" fill="#fff"/><path d="M206.7803 298.1808c-.661.274-.927.759-1.219 1.194-.63-.888-1.454-2.544-1.067-3.651.535.898 1.431 1.892 2.286 2.457m14.684-14.798c.582-.84.865-1.751 1.107-2.754.719.751.565 2.69.032 3.409-.282-.363-.574-.5-1.139-.655m-5.265-4.805c1.186.194 1.987 2.698 1.864 4.184-.726-.138-1.388-.015-2.068.266.389-1.098.558-3.368.204-4.45m-5.721 6.511c-.031-1.033-.37-2.278-.871-3.2 1.154-.176 2.23 1.253 2.883 2.682-.726-.04-1.389-.073-2.012.518m.236 1.639c.582-.703 1.502-.728 2.723-.493.678.541 1.291.549 2.002 1.583.581-2.132.088-.815.413-3.061.839-.615 1.485-.808 2.123-.388.734.574.76 1.026 1.397 2.035.235.38.42-.073.986-1.396.654-.194 1.574.193 1.671.928-.453 2.277-1.874 9.66-1.478 14.798.526 6.572 4.152 12.566 9.668 15.701-1.26 2.455-1.93 6.34-1.583 9.198-9.11 1.067-10.12-5.04-11.17-16.71-.323-3.521-1.93-3.651-4.007-3.602-4.474.121-6.76-2.811-6.581-4.508-.034-.541.396-1.172 1.188-1.317 2.486.986 5.66.68 6.105-1.88.661-3.853-4.37-4.113-3.457-10.888m61.657-2.011c.622-1.536.817-3.982.784-5.259 2.311-.403 5.363-.589 6.923 1.067-1.309 2.034-4.822 4.289-7.707 4.192m77.473 92.269h-18.456c6.187-11.081 6.196-21.871 3.401-33.859-1.414-6.073-11.687 1.099-14.206-7.915-.558-1.969-.388-4.07-.575-6.105 6.478-1.535 13.417-1.712 17.81-6.107 3.626-3.642 2.141-15.757-7.051-17.534-14.32-2.787-33.091-1.364-33.243-9.627-.073-4.241 2.681-3.983 6.766-4.079 3.853 1.549 8.562 2.737 12.391 2.697 7.552-.097 14.369-2.22 18.577-7.438.824-1.027.807-3.109-.323-4.96-6.502 3.812-13.957-2.189-21.17-.282-3.989 1.041-6.34 1.478-10.152 3.57-5.621 1.356-12.155 3.617-13.707 8.512-1.801 5.662 2.796 11.947 7.391 13.86 8.343 3.482 17.785 3.409 26.765 4.766 3.321.509 5.275 5.224 2.456 6.55-3.408 1.6-7.681 2.059-12.106 2.221-14.417-3.166-19.774-2.739-36.29-1.171-.84-2.81-2.285-6.115-3.658-8.166 3.804-.323 7.914-1.276 10.887-3.53-1.81-3.691-5.396-6.784-9.216-9.53 3.159-1.3 6.316-2.955 8.53-6.267-1.632-2.964-3.878-5.049-6.736-6.39 2.746-1.656 5.113-4.135 6.089-6.493-3.788-3.223-8.084-2.754-10.362-2.689.452-1.972.703-4.846-2.423-5.816-2.787-.969-6.065.373-9.271 1.956-2.69-.123-7.304-.672-9.508.499-2.649 2.109-8.682 3.91-12.93 5.048-2.932.776-2.374 4.58-.501 5.831.29.913.299 1.98.153 3.336-4.2-.12-4.369-5.2-7.22-6.494-4.298 2.23-1.356 10.8 2.39 12.254 1.955.766 3.715.83 5.759 1.688.34 4.11-.492 5.645 3.255 6.001 2.036.193 4.927-.017 5.678 1.453-1.179 3.522-8.158 1.987-11.574 4.2-2.964 1.922-3.02 4.789-6.679 7.147-9.7-7.026-7.682-17.413-7.035-28.47 1.276-2.648.661-7.147-1.624-8.763-.889 1.697-.889 4.823-2.528 6.227.252-2.286-1.785-7.47-5.379-7.817.905 3.141.663 6.808-.138 8.641-1.549-3.029-4.216-5.192-7.147-4.281.855 1.745 1.906 4.272 1.897 5.872-1.591 1.171-.992 3.634-.362 5.524.443 1.326 3.343 4.952 2.43 5.865-2.988 1.72-5.517-2.115-6.929-4.984-.743 2.051-2.617 4.604.686 8.933.412 4.064 3.32 7.187 7.688 7.075 2.424.112 1.98 7.349 2.731 10.846.696 3.225 3.32 10.283 5.685 10.702 1.6.712 6.26 1.003 9.305.841.162.937.535 2.101 1.075 2.794-2.398 2.537-4.111 6.06-2.391 12.536.759 0 2.989-.114 4.24-.629-.832 7.736-2.334 15.022-8.318 21.29-1.147 1.356-7.883.291-9.192 6.088-2.342.341-4.726 2.569-5.362 4.606h-18.497c-1.283-32.438 18.488-72.175.944-100.671l20.015-21.24c14.054 7.381 41.936 6.686 59.018-1.366 15.628 6.485 39.367 11.147 59.565 1.849l19.224 21.631c-18.44 29.253 2.892 62.287-.542 99.764m-125.811-.081-4.992-.016c.961-2.066 3.23-3.263 4.386-3.069.259.661.597 2.084.606 3.085m11.041-32.195c1.017-.21 1.986-.678 3.78-1.486.58 2.65 1.462 6.301 4.303 8.417-3.795 6.057-6.444 17.043-6.848 25.232l-10.467.209c-.226-4.812-1.115-6.849-7.382-2.94-.938-2.52.258-4.41 3.077-4.797 3.214-.436 3.908.048 5.952-2.278 4.596-5.234 6.487-14.521 7.585-22.357m36.806 28.238c-.009-.711-.179-1.291-.599-1.502 2.52-5.558 11.123 1.404 13.666-5.429 2.48-3.44 2.455-8.221-.25-10.807-1.235-1.179-3.813-.064-3.821-1.389-.249-3.051.93-7.397.421-9.983 4.264-2.067 11.243-.291 15.894-1.195-.023 1.487.073 4.394.582 5.88-2.326 1.423-4.079 2.844-5.581 4.313-1.349 1.309-.387 3.473 1.309 7.947 1.073 2.795.549 4.702-.751 6.931-1.382 2.357-4.095 6.881-6.567 9.078l-10.766.065c.299-3.054-.704-5.025-3.537-3.909m.395 1.162c1.471-.226 1.922.969 1.267 2.876l-3.076.033c.299-1.309.719-2.393 1.809-2.909m-2.641.55c-.614.581-1.146 1.566-1.188 2.359h-2.326c.219-1.535 1.446-3.231 2.9-4.2.485.614.776 1.048.614 1.841m-.21-3.555c-3.659 1.261-4.845 3.683-5.453 5.881h-23.212c.121-10.08 2.852-21.097 9.224-27.687 11.041.613 20.023-1.809 28.31-4.718 1.308 3.054-1.826 9.629.202 12.891 1.236.42 1.679.193 3.601 0 3.659 2.812 1.599 6.106-.824 9.305-1.978 1.066-3.982.21-6.921.258-2.521.032-3.813 2.198-4.927 4.07m39.641 5.881-3.998.033c.509-1.196 1.398-2.068 2.504-2.295 1.283-.21 1.81.743 1.494 2.262m-1.833-3.796c-2.214.081-4.113 1.664-4.88 3.715l-11.557.015c2.787-3.989 4.37-6.653 5.969-9.53 1.187-2.133 1.058-4.313-.621-7.77-1.826-3.763-2.247-5.056 2.196-8.206 3.836 3.603 10.935 8.95 17.228 8.175.622-3.166 1.121-4.62 3.424-3.087 3.222 1.423 2.964 3.813 1.777 7.528-2.077 4.847-9.152 3.005-10.588 5.137-1.35 1.293-1.544 2.455-2.948 4.023m10.006 3.796-3.795.033c.499-1.196 1.381-2.068 2.494-2.295 1.278-.21 1.843.775 1.301 2.262m-15.45-70.761c-4.847-1.583-9.643-4.255-10.04-8.868-.493-5.871 6.712-9.312 13.221-10.444 3.443-1.292 7.626-3.255 10.792-3.247 6.816.041 12.769 2.779 16.589 1.527.129 4.118-7.738 5.542-11.598 5.766-7.649.446-7.698-.224-15.783-1.703-6.759-.266-9.65 2.843-9.716 7.002-.032 2.254 2.156 4.984 4.039 5.718 11.009 4.305 19.004 2.496 31.539 5.864 7.819 3.014 7.1 11.178 4.483 13.246-4.483 3.53-9.352 4.039-16.186 5.517-.524-.953-1.462-2.318-2.463-3.045 6.825-.97 14.78-2.019 14.222-8.787-.58-7.142-19.399-5.38-29.099-8.546m-69.591 28.696c.897.485 1.438.582 2.028.857 2.545-1.567 4.354-3.538 6.405-5.41 1.623 2.76 2.867 7.817 6.34 9.4 2.287-1.455 3.685-4.232 4.783-6.203 1.154 2.844 3.723 5.735 6.404 6.882 2.228-1.309 3.586-5.832 5.242-7.432 1.477.872 2.39 1.196 4.531 1.39 1.575-2.294 2.633-6.155 2.664-8.707 3.385 1.05 6.172 1.373 8.312 1.179.421-1.137.298-2.908-.128-4.652 12.21-.952 23.761-1.963 34.931 1.915 2.358.807 3.457 3.965 3.449 6.388-.05 8.464 2.948 12.277 8.212 12.309 7.036-.064 5.786 1.357 6.576 5.96 1.559 9.03 1.155 20.725-6.186 28.253l-5.752.032c.194-4.459-4.822-5.863-8.392-1.453-.096-.743-.581-1.938-1.502-2.133 1.463-4.168 2.537-3.764 7.868-4.232 4.716-.387 6.687-6.525 6.444-10.435-.177-2.714-2.222-4.83-6.945-6.623-2.471-.937-3.926-1.551-4.862 2.923-4.507-1.243-11.235-4.264-11.898-9.61-.339-2.844-.484-8.013.179-12.002-6.89-.048-11.17.177-16.535 1.34-.798.195-2.834 1.633-1.445 1.761 5.177-.646 10.121-1.115 15.136-.824-.162.841-.363 2.132-.299 2.973-4.175 1.129-15.726.564-20.224 2.518-5.274 2.295-8.998 2.811-14.191 3.831-.203-.955-.016-3.233-.824-4.201-1.091 2.537-2.318 5.056-4.361 6.542-2.044-1.388-4.555-3.845-5.703-5.798-2.568 1.888-3.239 5.992-6.825 8.463-3.682-2.86-3.133-7.253-5.184-11.307-3.505 1.05-5.824 3.796-9.483 2.86-.751-1.955-.057-4.799 1.235-6.754m34.231-44.018c.709-1.728 1.76-3.11 4.853-3.942 4.371-.451 8.699 3.345 9.41 5.033-1.624 3.425-9.684 5.403-13.416 4.481.17-1.389.428-3.617-.847-5.572m-3.505-15.693c1.348-1.526 5.233-2.77 7.671-1.737.591.413.398 1.737-.153 2.65-2.107-.702-5.007.225-6.542 1.704-.129-.807-.348-2.083-.976-2.617m-27.704 16.219c-2.835-1.277-3.966-6.536-3.078-7.076 2.852 4.491 6.348 6.365 11.817 5.743 3.312.218 2.755 3.441-.21 3.562-3.496.145-6.107-1.124-8.529-2.229m22.05 23.826c-1.358 1.535-2.019 3.763-4.653 4.337-1.437-2.513-.339-5.161.145-7.584-2.585.589-5.209 3.545-7.632 3.617-.226-1.751-.226-3.48.219-5.095-3.175 1.293-8.458 5.338-12.131 5.266 4.102-7.617 5.726-8.262 12.462-9.038 4.805-.558 8.988-3.02 10.103-4.741-1.51-3.578-5.799-3.578-10.361-3.796-3.281-.163-2.958-.574-2.885-2.723 2.779.316 6.793-.216 6.115-4.11-.655-3.772-3.933-2.181-7.674-3.029.09-.493.057-1.962.09-2.77.888-.219 2.536.403 1.961-1.236-3.964-1.623-3.051-3.247-1.897-3.603 4.071-1.752 7.204-1.519 11.597-4.215 1.552-1.81 8.635-2.674 8.999.92.597 1.252.549 3.417.76 6.664.515.089 1.033-.42.985-2.537 1.178-2.527 3.166-4.821 7.058-3.836.889 2.165.88 5.267-1.477 7.915-3.037.453-5.137 2.933-5.799 4.516-1.398.468-2.811.597-4.37.905-.889.347-.816.815-.009 1.081 1.737.444 3.773.34 5.897.009 1.017 3.674-1.042 6.59-3.288 8.626-.363.323-.476 1.082.478.911 2.956-1.073 3.423-2.309 4.684-3.455 7.285-.501 11.387 4.814 14.214 8.092-2.931 3.062-7.592.453-11.734 2.973 2.673 3.255 6.962 8.52 6.831 12.938-2.681.759-3.836-1.146-7.979-1.824.33 3.182 1.058 6.363-.67 8.738-2.166-.484-4.628-2.359-6.397-3.829-.178 3.345-.88 8.385-2.843 10.517-3.828-.678-4.289-6.478-6.243-8.82-1.148 2.488-2.132 7.787-4.684 8.82-3.788-3.634-3.538-10.702-3.272-14.264-2.367 2.982-5.25 7.77-9.498 10.031-3.885-4.555-3.417-9.417-1.874-12.253 2.577-.436 6.833-2.599 9.329-4.644.185 1.423.331 2.885.976 3.919 2.303-.227 4.533-.832 6.825-1.924.187 2.594.631 5.388 2.538 7.286 3.972-1.753 5.564-4.668 6.97-7.763.395-2.009-1.027-1.913-1.866-.992m-44.642 61.699c.454-1.779 2.02-2.65 3.094-2.877.016.566 1.301.97 1.995 1.229-.331.468-.662 1.001-.766 1.519zm135.603 6.655-155.358-1.325c-.436-1.228-.913-2.649-.969-4.006l157.78.744c.049 1.76-.742 3.681-1.453 4.587m-77.336 60.348c-20.805-23.518-63.508-21.256-77.182-58.216l153.848.677c-11.648 35.701-53.188 34.441-76.666 57.539m83.554-167.649-21.468-25.24c-16.953 8.182-42.499 8.666-61.222-2.092-14.749 9.499-42.734 11.495-60.543 1.503l-22.649 25.031c23.569 34.026-10.742 76.986 3.765 114.399 13.941 34.551 55.02 33.033 78.499 57.668 18.705-18.9 46.545-21.243 66.398-39.188 41.192-37.994-9.498-90.275 17.22-132.081" fill="#fff"/><path d="M314.4688 232.9772c3.239-7.537 2.342-19.409 4.725-24.595l-3.886.291c.195 7.819-2.01 15.596-.839 24.304" fill="#fff"/><path d="M387.9996 334.001c-5.079-2.844-8.23-11.3-11.599-7.567 3.192 3.028 7.253 9.489 11.599 7.567" fill="#fff"/><path d="M421.4859 306.3375c-5.307-1.938-6.301-5.959-11.55-6.066-.501 1.011-.355 2.197.929 3.079 3.998.622 6.242 6.355 10.621 2.987" fill="#fff"/><path d="M443.2213 273.2316c-3.508-.469-8.57-2.529-10.735-1.187-.452.557-.13 1.922.534 1.986 4.264.339 8.867 1.535 10.201-.799" fill="#fff"/><path d="M273.1075 56.5314c1.679 0 3.054 1.3 3.054 2.9 0 1.592-1.375 2.9-3.054 2.9-1.681 0-3.054-1.308-3.054-2.9 0-1.6 1.373-2.9 3.054-2.9m-.138 9.652c3.046 0 5.484-2.471 5.484-5.507 0-3.038-2.438-5.495-5.484-5.495-3.028 0-5.499 2.457-5.499 5.495 0 3.036 2.471 5.507 5.499 5.507" fill="#fff"/><path d="M294.8658 108.3194c2.116 0 3.845 1.728 3.845 3.829 0 2.108-1.729 3.836-3.845 3.836-2.124 0-3.853-1.728-3.853-3.836 0-2.101 1.729-3.829 3.853-3.829m-.218 10.976c3.635 0 6.583-2.689 6.583-6.001 0-3.311-2.948-6.001-6.583-6.001-3.609 0-6.559 2.69-6.559 6.001 0 3.312 2.95 6.001 6.559 6.001" fill="#fff"/><path d="M272.897 44.7233c1.421 0 2.584 1.098 2.584 2.448 0 1.348-1.163 2.438-2.584 2.438-1.414 0-2.568-1.09-2.568-2.438 0-1.35 1.154-2.448 2.568-2.448m.413 8.15c2.544 0 4.611-2.068 4.611-4.62 0-2.544-2.067-4.612-4.611-4.612-2.545 0-4.621 2.068-4.621 4.612 0 2.552 2.076 4.62 4.621 4.62" fill="#fff"/><path d="M251.2266 108.1983c2.118 0 3.861 1.729 3.861 3.836 0 2.109-1.743 3.829-3.861 3.829-2.124 0-3.844-1.72-3.844-3.829 0-2.107 1.72-3.836 3.844-3.836m-.202 10.985c3.628 0 6.567-2.69 6.567-6.001 0-3.32-2.939-6.001-6.567-6.001-3.626 0-6.567 2.681-6.567 6.001 0 3.311 2.941 6.001 6.567 6.001" fill="#fff"/><path d="M425.5406 288.045c.775 2.704 7.099 4.385 9.886 3.124-3.74-1.986-8.465-6.606-9.886-3.124" fill="#fff"/><path d="m272.5982 107.77 8.304 4.135-8.296 3.368-7.139-3.497Zm.266 10.831 10.137-4.564-.096-2.657-10.299-4.935-9.829 4.975.008 2.262Z" fill="#fff"/><path d="M340.4356 173.2569c-4.29 1.421-7.706 6.026-13.157 7.69.153-5.953 5.242-10.865 8.885-15.306 1.389-1.713.467-2.932.848-3.852-9.725 4.942-14.394 19.222-15.605 29.955 7.059-4.579 16.177-11.34 22.211-17.615-.397-1.164-2.222-1.186-3.182-.872" fill="#fff"/><path d="M422.4468 335.083c1.059 4.507 9.338 4.104 14.507 3.44-1.487-2.729-7.334-1.759-8.554-2.438-1.946-1.098-4.434-1.843-5.953-1.002" fill="#fff"/><path d="M475.1968 455.2003c1.519 0 2.763 1.066 2.763 2.393 0 1.322-1.244 2.389-2.763 2.389s-2.763-1.067-2.763-2.389c0-1.327 1.244-2.393 2.763-2.393m-.558 7.803c2.85 0 5.153-2.213 5.153-4.927 0-2.73-2.303-4.943-5.153-4.943-2.843 0-5.152 2.213-5.152 4.943 0 2.714 2.309 4.927 5.152 4.927" fill="#fff"/><path d="M449.2613 448.5773c1.52 0 2.754 1.067 2.754 2.392s-1.234 2.39-2.754 2.39c-1.519 0-2.762-1.065-2.762-2.39 0-1.325 1.243-2.392 2.762-2.392m-.549 7.803c2.835 0 5.145-2.214 5.145-4.926 0-2.715-2.31-4.944-5.145-4.944-2.851 0-5.152 2.229-5.152 4.944 0 2.712 2.301 4.926 5.152 4.926" fill="#fff"/><path d="M436.3072 322.6202c4.045.404 13.261 2.569 14.901-1.162-8.376 1.607-14.7-3.287-14.901 1.162" fill="#fff"/><path d="M478.7906 443.7325c1.421 0 2.584 1.001 2.584 2.229 0 1.228-1.163 2.246-2.584 2.246-1.414 0-2.567-1.018-2.567-2.246s1.153-2.229 2.567-2.229m-.509 7.268c2.656 0 4.806-2.051 4.806-4.587 0-2.552-2.15-4.603-4.806-4.603-2.65 0-4.813 2.051-4.813 4.603 0 2.536 2.163 4.587 4.813 4.587" fill="#fff"/><path d="M462.2086 452.0343c1.519 0 2.754 1.066 2.754 2.393 0 1.322-1.235 2.406-2.754 2.406-1.527 0-2.763-1.084-2.763-2.406 0-1.327 1.236-2.393 2.763-2.393m-.549 7.818c2.844 0 5.138-2.213 5.138-4.941 0-2.715-2.294-4.944-5.138-4.944-2.851 0-5.161 2.229-5.161 4.944 0 2.728 2.31 4.941 5.161 4.941" fill="#fff"/></svg>
