<?xml version="1.0" encoding="UTF-8" standalone="no"?>
<svg viewBox="0 0 228 228" version="1.1" id="svg141" width="456" height="456" xmlns:xlink="http://www.w3.org/1999/xlink" xmlns="http://www.w3.org/2000/svg" xmlns:svg="http://www.w3.org/2000/svg">
  <defs id="defs141" />
  <path d="M 202.825,183.871 C 168.565,182.875 11.485,85.178 10.415,69.639 l 8.67,-14.374 c 15.59,22.512 176.17,117.54 191.94,114.123 z" style="fill:#fff200;stroke-width:1" id="path1" />
  <path d="m 17.265,53.273 c -3.07,8.238 41,35.371 94,67.486 53,32.114 98.71,51.966 102.12,49.117 0.562,-0.921 1.072,-1.872 1.53,-2.849 -0.64,0.996 -2.18,1.255 -4.59,0.558 -14.32,-4.114 -51.68,-21.197 -97.94,-49.137 -46.26,-27.941 -86.51,-53.7 -92.77,-64.637 -0.494,-0.999 -0.728,-2.105 -0.68,-3.218 h -0.15 l -1.33,2.321 -0.18,0.369 z m 186.38,131.057 c -0.58,1.055 -1.66,1.085 -3.72,0.856 -12.81,-1.414 -51.69,-20.24 -97.7,-47.673 C 48.695,105.638 4.475,76.512 9.285,68.902 l 1.31,-2.301 0.26,0.079 c -4.31,12.88 87.25,65.026 92.64,68.353 53,32.692 97.65,51.797 101.6,46.816 l -1.44,2.461 z" style="fill:#fff200;stroke:#231f20;stroke-width:0.648;stroke-linecap:round;stroke-linejoin:round" id="path2" />
  <path d="m 114.305,79.052 c 34.29,-0.269 76.6,-4.672 100.94,-14.334 l -5.27,-8.457 c -14.39,7.969 -56.93,13.149 -96,13.945 -46.19,-0.428 -78.8,-4.711 -95.13,-15.628 l -5,9.044 c 30,12.661 60.8,15.35 100.37,15.48 z" style="fill:#fff200;stroke-width:1" id="path3" />
  <path d="m 216.665,64.917 c -0.84,1.335 -16.72,6.794 -40.11,10.818 -20.647,3.058 -41.496,4.56 -62.37,4.492 -19.975,0.09 -39.934,-1.168 -59.74,-3.765 -24.56,-3.835 -37.23,-9.174 -41.92,-11.057 0.45,-0.886 0.74,-1.514 1.17,-2.341 13.239,5.215 27.047,8.859 41.14,10.858 19.652,2.596 39.457,3.858 59.28,3.775 20.729,0.01 41.43,-1.521 61.93,-4.582 24,-3.855 37.09,-8.815 38.93,-11.116 l 1.69,2.908 z m -4.61,-8.656 c -2.6,2.082 -15.55,6.654 -38.35,10.28 -19.627,2.798 -39.432,4.182 -59.26,4.144 -19.146,0.147 -38.279,-1.078 -57.25,-3.666 -23.15,-2.988 -35.47,-8.447 -39.91,-10.031 0.44,-0.757 0.89,-1.514 1.35,-2.271 3.46,1.733 15.35,6.544 38.81,9.852 18.895,2.492 37.941,3.67 57,3.526 19.686,0.029 39.347,-1.363 58.83,-4.164 22.91,-3.138 35.24,-8.965 37.11,-10.439 z" style="fill:#fff200;stroke:#231f20;stroke-width:0.65;stroke-linecap:round;stroke-linejoin:round" id="path4" />
  <path d="m 1.725,120.191 c 21.09,11.296 67.93,16.993 112.25,17.382 40.36,0.059 92.93,-6.216 112.59,-16.595 l -0.59,-11.296 c -6.15,9.572 -62.49,18.756 -112.49,18.388 -50,-0.369 -96.38,-8.059 -111.85,-18.02 l 0.09,10.161 z" style="fill:#fff200;stroke-width:1" id="path5" />
  <path d="m 227.645,118.567 v 2.7 c -3,3.516 -21.48,8.835 -44.72,12.58 -17.68,2.7 -40.74,4.742 -69.47,4.742 -27.29,0 -49.06,-1.933 -65.93,-4.523 -26.68,-3.864 -43.74,-10.648 -47.17,-12.67 v -3.148 c 10.29,6.814 38.17,11.804 47.53,13.328 16.77,2.57 38.4,4.493 65.56,4.493 28.59,0 51.52,-1.993 69.09,-4.712 16.67,-2.401 40.42,-8.636 45.09,-12.79 z m 0,-9.592 v 2.699 c -3,3.516 -21.48,8.836 -44.72,12.581 -17.67,2.729 -40.73,4.721 -69.45,4.721 -27.29,0 -49.06,-1.932 -65.93,-4.522 -26.68,-3.865 -43.74,-10.648 -47.17,-12.67 v -3.148 c 10.29,6.813 38.17,11.804 47.53,13.328 16.77,2.57 38.4,4.492 65.56,4.492 28.59,0 51.52,-1.992 69.09,-4.711 16.67,-2.401 40.42,-8.637 45.09,-12.79 z" style="fill:#fff200;stroke:#231f20;stroke-width:0.65;stroke-linecap:round;stroke-linejoin:round" id="path6" />
  <path d="m 113.875,181.939 c -48.5,-0.289 -90.06,-13.168 -98.83,-15.3 l 6.4,9.961 c 15.5,6.494 56,16.177 92.9,15.101 36.9,-1.076 69.07,-3.915 91.76,-14.942 l 6.56,-10.339 c -15.47,7.251 -68.11,15.399 -98.79,15.479 z" style="fill:#fff200;stroke-width:1" id="path7" />
  <path d="m 208.565,174.478 c -1,1.464 -1.95,2.919 -2.94,4.323 -11.33,3.75 -22.908,6.712 -34.65,8.866 -14.54,2.988 -37,5.189 -57,5.199 -43,-0.627 -78.13,-8.965 -94.68,-16.147 l -1.33,-2.291 0.22,-0.348 2.26,0.876 c 29.42,10.479 62.47,14.663 93.77,15.42 18.746,-0.078 37.448,-1.798 55.89,-5.14 24.69,-4.931 34.67,-8.636 37.73,-10.32 l 0.78,-0.438 z m 5.69,-9.343 0.07,0.089 c -0.72,1.216 -1.46,2.451 -2.23,3.686 -5.71,1.992 -21.21,6.544 -43.84,9.702 -14.91,1.992 -24.18,3.984 -53.84,4.562 -55.58,-1.404 -91.56,-12.232 -100.11,-14.941 l -1.25,-2.401 c 32.21,8.377 65.11,14.224 101.38,14.822 27.14,-0.578 38.68,-2.57 53.47,-4.572 26.39,-4.084 39.68,-8.417 43.67,-9.662 l -0.18,-0.229 2.86,-1.066 z" style="fill:#fff200;stroke:#231f20;stroke-width:0.65;stroke-linecap:round;stroke-linejoin:round" id="path8" />
  <path d="m 113.975,13.349 c -17.622,-0.014 -34.94,4.577 -50.224,13.315 -67.26,38.45 -67.51,135.009 -0.45,173.805 67.059,38.797 151.134,-9.267 151.334,-86.514 0,-55.503 -44.97,-100.606 -100.66,-100.606 z m 0,-9.961 c 61,0 110.79,49.586 110.79,110.378 0,60.792 -49.79,110.398 -110.79,110.398 -61,0 -110.83,-49.586 -110.83,-110.378 0,-60.792 49.76,-110.378 110.83,-110.378 z" style="fill:#fff200;stroke-width:1" id="path9" />
  <path d="m 113.975,4.544 c -60.17,0 -109.8,49.217 -109.8,109.371 0,60.155 49.56,109.382 109.8,109.382 60.24,0 109.8,-49.217 109.8,-109.372 0,-60.154 -49.59,-109.381 -109.8,-109.381 z m 0,-2.461 c 61.84,0 112.27,50.243 112.27,111.842 0,61.599 -50.4,111.832 -112.27,111.832 -61.87,0 -112.24,-50.243 -112.24,-111.842 0,-61.598 50.44,-111.832 112.24,-111.832 z" style="fill:#fff200;stroke:#231f20;stroke-width:0.65;stroke-linecap:round;stroke-linejoin:round" id="path10" />
  <path d="m 114.105,13.837 c -55.03,0 -100.37,44.974 -100.37,99.979 0,55.004 45.33,99.988 100.37,99.988 55.04,0 100.37,-45.004 100.37,-99.988 0,-54.985 -45.37,-99.979 -100.37,-99.979 z m 0,-2.46 c 56.39,0 102.84,46.099 102.84,102.439 0,56.339 -46.45,102.449 -102.84,102.449 -56.39,0 -102.84,-46.1 -102.84,-102.449 0,-56.35 46.45,-102.439 102.84,-102.439 z" style="fill:#fff200;stroke:#231f20;stroke-width:0.65;stroke-linecap:round;stroke-linejoin:round" id="path11" />
  <polygon points="187.132,79.77 196.902,79.77 196.902,304.799 187.132,304.799 " style="fill:#fff200;stroke-width:1" id="polygon11" transform="translate(-77.667,-78.215)" />
  <path d="m 110.735,1.635 h 6.82 m -6.81,224.71 h 6.86" style="fill:none;stroke:#231f20;stroke-width:0.65;stroke-linecap:round;stroke-linejoin:round" id="path12" />
  <path d="m 117.655,0.35 h 2.45 v 227.3 h -2.43 V 0.35 Z m -9.55,0 h 2.47 v 227.3 h -2.47 z" style="fill:#fff200;stroke:#231f20;stroke-width:0.65;stroke-linecap:round;stroke-linejoin:round" id="path13" />
  <path d="m 1.335,109.154 c 14.08,-12.949 66,-21.277 112.11,-21.068 46.11,0.21 100.67,9.653 112.53,20.799 l 0.12,9.632 c -9.94,-9.313 -52.35,-20.43 -112.57,-20.549 -60.22,-0.12 -103.93,11.286 -112.19,20.788 z" style="fill:#fff200;stroke-width:1" id="path14" />
  <path d="m 1.315,109.602 v 8.308 m 225.05,-7.969 v 8.307" style="fill:none;stroke:#231f20;stroke-width:0.651;stroke-linecap:round;stroke-linejoin:round" id="path15" />
  <path d="m 114.065,96.603 c 26.51,0 52.24,2.5 72.64,6.455 21.06,4.193 35.87,9.443 40.94,15.33 v 2.918 c -6.11,-7.331 -26,-12.7 -41.41,-15.778 -20.26,-3.924 -45.81,-6.435 -72.17,-6.435 -27.82,0.05 -53.73,2.68 -73.69,6.555 -16,3.167 -37.36,9.453 -40,15.648 v -3.038 c 1.46,-4.293 17.36,-10.708 39.67,-15.15 20.1,-3.905 46.06,-6.485 74,-6.535 z m 0,-9.592 c 26.51,0 52.24,2.5 72.64,6.454 21.06,4.194 35.87,9.443 40.94,15.33 v 2.919 c -6.11,-7.331 -26,-12.7 -41.41,-15.778 -20.25,-3.925 -45.8,-6.455 -72.17,-6.405 -27.82,0.05 -53.61,2.679 -73.56,6.554 -15.45,2.919 -37.68,9.453 -40.15,15.649 v -3.038 c 1.46,-4.244 17.69,-10.888 39.67,-15.151 20.1,-3.905 46.06,-6.485 74,-6.534 z" style="fill:#fff200;stroke:#231f20;stroke-width:0.65;stroke-linecap:round;stroke-linejoin:round" id="path16" />
  <path d="m 113.525,38.092 c 41.78,-0.209 78.23,5.817 94.9,14.324 l 6.08,10.479 c -14.49,-7.779 -53.81,-15.868 -100.92,-14.662 -38.39,0.239 -79.4,4.213 -100,15.15 l 7.27,-12.102 c 16.89,-8.726 56.72,-13.149 92.66,-13.199 z" style="fill:#fff200;stroke-width:1" id="path17" />
  <line x1="209.485" y1="54.109997" x2="213.62498" y2="60.734005" style="fill:none;stroke:#231f20;stroke-width:0.649;stroke-linecap:round;stroke-linejoin:round" id="line17" />
  <path d="m 114.075,46.748 c 23.83,-0.059 46.86,1.275 65.17,4.572 17.06,3.158 33.32,7.909 35.65,10.459 l 1.8,3.178 c -5.66,-3.676 -19.73,-7.77 -37.8,-11.186 -18.07,-3.417 -41.16,-4.522 -64.86,-4.463 -26.9,-0.089 -47.8,1.325 -65.73,4.433 -19,3.536 -32.13,8.586 -35.38,10.957 l 1.77,-3.357 c 6.28,-3.187 16.28,-7.072 33.13,-10.06 18.55,-3.377 39.67,-4.393 66.25,-4.533 z m 0,-9.582 c 22.81,-0.06 45.33,1.205 62.88,4.353 13.84,2.689 27.53,6.873 32.55,10.608 l 2.64,4.174 c -4.48,-4.981 -21.36,-9.662 -36.26,-12.302 -17.42,-2.988 -39,-4.174 -61.81,-4.363 -23.93,0.06 -46.05,1.524 -63.22,4.642 -16.38,3.098 -26.94,6.773 -31.41,9.642 l 2.32,-3.486 c 6.17,-3.237 16.14,-6.206 28.69,-8.636 17.29,-3.138 39.55,-4.562 63.62,-4.622 z" style="fill:#fff200;stroke:#231f20;stroke-width:0.65;stroke-linecap:round;stroke-linejoin:round" id="path18" />
  <path d="m 169.845,160.413 c -20.66,-3.845 -41.35,-4.402 -55.81,-4.233 -69.63,0.817 -92.12,14.244 -94.87,18.308 l -5.2,-8.447 c 17.73,-12.8 55.64,-19.982 100.45,-19.244 23.27,0.378 43.34,1.922 60.23,5.179 z" style="fill:#fff200;stroke-width:1" id="path19" />
  <line x1="15.114998" y1="167.207" x2="18.535004" y2="173.06401" style="fill:none;stroke:#231f20;stroke-width:0.65;stroke-linecap:round;stroke-linejoin:round" id="line19" />
  <path d="m 113.635,154.985 c 19.37,0.288 38.38,1.085 56.73,4.492 l -1.32,2.371 c -17,-3.138 -35.21,-4.333 -55.34,-4.234 -25.7,-0.199 -51.69,2.192 -74.32,8.656 -7.14,1.993 -19,6.555 -20.17,10.33 l -1.32,-2.172 c 0.38,-2.231 7.53,-6.863 20.88,-10.608 25.92,-7.391 50.16,-8.636 74.86,-8.806 z m 0.88,-9.712 c 20.07,0.368 40.79,1.294 60.94,5.269 l -1.38,2.43 c -18.19,-3.596 -35.57,-4.791 -59.43,-5.159 -25.78,0 -53.12,1.872 -78,9.074 -8,2.331 -21.88,7.361 -22.34,11.346 l -1.33,-2.311 c 0.3,-3.626 12.3,-8.348 23.08,-11.475 25.06,-7.252 52.47,-9.125 78.45,-9.164 z" style="fill:#fff200;stroke:#231f20;stroke-width:0.65;stroke-linecap:round;stroke-linejoin:round" id="path20" />
  <path d="m 93.725,152.046 c 0.013,-0.31 0.133,-0.606 0.34,-0.837 0.19,-0.204 0.451,-0.328 0.73,-0.348 0.172,-0.02 0.346,0.011 0.5,0.089 0.146,0.078 0.26,0.206 0.32,0.359 0.068,0.174 0.092,0.362 0.07,0.548 -0.013,0.202 -0.071,0.399 -0.17,0.578 -0.092,0.167 -0.226,0.308 -0.39,0.408 -0.154,0.096 -0.328,0.154 -0.51,0.169 -0.173,0.019 -0.347,-0.016 -0.5,-0.099 -0.141,-0.081 -0.251,-0.208 -0.31,-0.359 -0.063,-0.161 -0.087,-0.336 -0.07,-0.508 z m 0.28,0 c -0.034,0.205 0.021,0.414 0.15,0.578 0.123,0.131 0.302,0.194 0.48,0.169 0.201,-0.015 0.388,-0.108 0.52,-0.259 0.157,-0.176 0.245,-0.402 0.25,-0.637 0.033,-0.145 0.033,-0.294 0,-0.439 -0.04,-0.112 -0.117,-0.207 -0.22,-0.269 -0.109,-0.06 -0.235,-0.085 -0.36,-0.069 -0.193,0.016 -0.374,0.1 -0.51,0.239 -0.166,0.19 -0.258,0.434 -0.26,0.687 z m 2.65,0.329 0.25,-0.05 c -0.004,0.086 0.029,0.169 0.09,0.229 0.074,0.057 0.168,0.082 0.26,0.07 0.093,0.001 0.184,-0.027 0.26,-0.08 0.055,-0.041 0.091,-0.102 0.1,-0.169 0.008,-0.052 -0.015,-0.103 -0.06,-0.13 -0.079,-0.036 -0.163,-0.059 -0.25,-0.069 -0.126,-0.021 -0.25,-0.055 -0.37,-0.1 -0.061,-0.029 -0.111,-0.078 -0.14,-0.14 -0.019,-0.064 -0.019,-0.134 0,-0.199 0.009,-0.068 0.033,-0.132 0.07,-0.189 0.037,-0.059 0.084,-0.11 0.14,-0.149 0.053,-0.035 0.11,-0.062 0.17,-0.08 0.073,-0.01 0.147,-0.01 0.22,0 0.099,-0.019 0.201,-0.019 0.3,0 0.074,0.021 0.137,0.067 0.18,0.129 0.04,0.07 0.06,0.149 0.06,0.229 h -0.25 c 0.002,-0.068 -0.027,-0.134 -0.08,-0.179 -0.064,-0.044 -0.143,-0.062 -0.22,-0.05 -0.088,-0.002 -0.175,0.023 -0.25,0.07 -0.048,0.032 -0.08,0.083 -0.09,0.14 -0.01,0.028 -0.01,0.06 0,0.089 0.024,0.029 0.055,0.05 0.09,0.06 l 0.21,0.05 0.36,0.099 c 0.064,0.025 0.117,0.071 0.15,0.13 0.025,0.071 0.025,0.148 0,0.219 -0.01,0.091 -0.044,0.176 -0.1,0.249 -0.059,0.082 -0.138,0.146 -0.23,0.189 -0.1,0.047 -0.209,0.075 -0.32,0.08 -0.147,0.02 -0.297,-0.016 -0.42,-0.1 -0.097,-0.089 -0.151,-0.216 -0.15,-0.348 z m 2.55,-0.18 h 0.25 c -0.052,0.147 -0.146,0.274 -0.27,0.369 -0.127,0.094 -0.281,0.145 -0.44,0.149 -0.182,0.023 -0.365,-0.043 -0.49,-0.179 -0.116,-0.161 -0.16,-0.363 -0.12,-0.558 0.017,-0.223 0.109,-0.433 0.26,-0.597 0.136,-0.145 0.322,-0.23 0.52,-0.239 0.174,-0.02 0.346,0.047 0.46,0.179 0.117,0.165 0.16,0.37 0.12,0.568 v 0.069 l -1.1,0.05 c -0.018,0.13 0.014,0.262 0.09,0.369 0.072,0.084 0.18,0.129 0.29,0.119 0.088,-0.006 0.171,-0.037 0.24,-0.089 0.079,-0.064 0.141,-0.146 0.18,-0.239 z m -0.77,-0.368 h 0.82 c 0.011,-0.097 -0.01,-0.195 -0.06,-0.279 -0.066,-0.092 -0.177,-0.14 -0.29,-0.13 -0.112,0.005 -0.219,0.051 -0.3,0.13 -0.09,0.085 -0.149,0.197 -0.17,0.319 z m 1.24,0.926 h 0.24 c -0.005,0.06 0.017,0.118 0.06,0.16 0.074,0.049 0.163,0.07 0.25,0.059 0.1,0.002 0.197,-0.026 0.28,-0.079 0.07,-0.054 0.123,-0.127 0.15,-0.209 0.031,-0.108 0.051,-0.218 0.06,-0.329 -0.107,0.128 -0.262,0.208 -0.43,0.219 -0.176,0.026 -0.351,-0.052 -0.45,-0.199 -0.095,-0.159 -0.13,-0.346 -0.1,-0.528 0.016,-0.14 0.056,-0.274 0.12,-0.399 0.062,-0.116 0.151,-0.216 0.26,-0.289 0.104,-0.071 0.225,-0.112 0.35,-0.119 0.164,-0.015 0.322,0.062 0.41,0.199 v -0.179 h 0.23 l -0.15,1.305 c -0.012,0.172 -0.056,0.341 -0.13,0.498 -0.06,0.099 -0.147,0.182 -0.25,0.239 -0.117,0.062 -0.247,0.097 -0.38,0.099 -0.144,0.016 -0.289,-0.018 -0.41,-0.099 -0.101,-0.09 -0.144,-0.228 -0.11,-0.359 z m 0.31,-0.916 c -0.031,0.146 -0.006,0.299 0.07,0.428 0.063,0.085 0.166,0.13 0.27,0.12 0.116,-0.009 0.224,-0.062 0.3,-0.15 0.101,-0.121 0.16,-0.271 0.17,-0.428 0.031,-0.14 0.006,-0.286 -0.07,-0.408 -0.061,-0.087 -0.163,-0.136 -0.27,-0.13 -0.116,0.007 -0.224,0.061 -0.3,0.149 -0.096,0.12 -0.152,0.266 -0.16,0.419 z m 1.31,0.707 0.2,-1.504 h 0.22 v 0.209 c 0.057,-0.074 0.129,-0.134 0.21,-0.179 0.082,-0.049 0.175,-0.076 0.27,-0.08 0.091,-0.009 0.183,0.012 0.26,0.06 0.064,0.045 0.107,0.112 0.12,0.189 0.112,-0.163 0.293,-0.267 0.49,-0.279 0.118,-0.016 0.237,0.025 0.32,0.11 0.076,0.11 0.101,0.248 0.07,0.378 l -0.14,0.996 h -0.25 l 0.13,-0.996 c 0.012,-0.072 0.012,-0.146 0,-0.219 -0.007,-0.045 -0.033,-0.083 -0.07,-0.109 -0.045,-0.014 -0.094,-0.014 -0.14,0 -0.1,0.002 -0.196,0.04 -0.27,0.109 -0.087,0.093 -0.14,0.212 -0.15,0.339 l -0.12,0.876 h -0.25 l 0.13,-0.996 c 0.027,-0.08 0.027,-0.168 0,-0.249 -0.042,-0.061 -0.116,-0.092 -0.19,-0.079 -0.07,0.002 -0.139,0.023 -0.2,0.059 -0.065,0.041 -0.117,0.1 -0.15,0.17 -0.043,0.101 -0.07,0.209 -0.08,0.319 l -0.1,0.786 z m 3.45,-0.627 h 0.25 c -0.052,0.146 -0.146,0.273 -0.27,0.368 -0.128,0.09 -0.282,0.139 -0.44,0.14 -0.184,0.021 -0.368,-0.049 -0.49,-0.19 -0.115,-0.165 -0.155,-0.371 -0.11,-0.567 0.02,-0.225 0.115,-0.435 0.27,-0.598 0.137,-0.141 0.324,-0.223 0.52,-0.229 0.173,-0.016 0.341,0.056 0.45,0.189 0.116,0.169 0.156,0.379 0.11,0.578 v 0.069 h -1.1 c -0.021,0.134 0.011,0.269 0.09,0.379 0.072,0.085 0.18,0.129 0.29,0.12 0.087,-0.002 0.17,-0.03 0.24,-0.08 0.083,-0.063 0.149,-0.145 0.19,-0.239 z m -0.76,-0.389 h 0.82 c 0.011,-0.097 -0.01,-0.195 -0.06,-0.279 -0.064,-0.095 -0.175,-0.148 -0.29,-0.139 -0.116,0.003 -0.226,0.048 -0.31,0.129 -0.09,0.085 -0.149,0.197 -0.17,0.319 z m 1.28,0.857 0.2,-1.504 h 0.22 v 0.209 c 0.117,-0.161 0.302,-0.256 0.5,-0.259 0.079,-0.018 0.161,-0.018 0.24,0 0.062,0.022 0.115,0.065 0.15,0.119 0.032,0.059 0.049,0.124 0.05,0.19 0.007,0.082 0.007,0.166 0,0.249 l -0.12,0.926 h -0.25 l 0.12,-0.916 c 0.013,-0.076 0.013,-0.154 0,-0.23 -0.012,-0.05 -0.044,-0.093 -0.09,-0.119 -0.055,-0.018 -0.114,-0.018 -0.17,0 -0.106,0.003 -0.208,0.041 -0.29,0.109 -0.103,0.108 -0.164,0.25 -0.17,0.399 l -0.11,0.827 z m 2.16,-0.289 v 0.229 h -0.19 c -0.065,0.018 -0.134,0.018 -0.2,0 -0.043,-0.024 -0.075,-0.063 -0.09,-0.11 -0.016,-0.098 -0.016,-0.2 0,-0.298 l 0.13,-0.867 h -0.18 v -0.199 h 0.18 l 0.06,-0.379 0.27,-0.159 -0.08,0.528 h 0.25 v 0.199 h -0.25 l -0.13,0.886 c -0.007,0.046 -0.007,0.094 0,0.14 h 0.08 z m 0.23,-0.548 c 0.013,-0.253 0.129,-0.49 0.32,-0.657 0.14,-0.111 0.312,-0.171 0.49,-0.17 0.177,-0.011 0.348,0.063 0.46,0.199 0.115,0.162 0.155,0.365 0.11,0.558 -0.016,0.162 -0.068,0.318 -0.15,0.458 -0.073,0.11 -0.172,0.199 -0.29,0.259 -0.113,0.063 -0.24,0.097 -0.37,0.1 -0.18,0.014 -0.355,-0.06 -0.47,-0.199 -0.112,-0.171 -0.148,-0.38 -0.1,-0.578 z m 0.26,0 c -0.035,0.145 -0.014,0.298 0.06,0.428 0.066,0.094 0.176,0.147 0.29,0.14 0.126,-0.003 0.246,-0.057 0.33,-0.15 0.11,-0.125 0.176,-0.283 0.19,-0.448 0.034,-0.142 0.013,-0.292 -0.06,-0.418 -0.065,-0.094 -0.175,-0.147 -0.29,-0.14 -0.125,0.003 -0.245,0.057 -0.33,0.15 -0.109,0.121 -0.175,0.276 -0.19,0.438 z m 3.17,0.239 h 0.25 c -0.057,0.143 -0.154,0.268 -0.28,0.359 -0.129,0.087 -0.283,0.132 -0.44,0.129 -0.183,0.016 -0.362,-0.059 -0.48,-0.199 -0.111,-0.167 -0.147,-0.373 -0.1,-0.568 0.023,-0.225 0.122,-0.436 0.28,-0.598 0.141,-0.14 0.332,-0.219 0.53,-0.219 0.174,-0.013 0.343,0.062 0.45,0.2 0.111,0.171 0.148,0.379 0.1,0.577 v 0.07 h -1.1 c -0.023,0.131 0.006,0.267 0.08,0.379 0.07,0.088 0.178,0.136 0.29,0.129 0.087,-0.002 0.17,-0.03 0.24,-0.08 0.083,-0.062 0.148,-0.144 0.19,-0.239 z m -0.76,-0.398 h 0.82 c 0.014,-0.096 -0.004,-0.194 -0.05,-0.279 -0.064,-0.096 -0.175,-0.149 -0.29,-0.14 -0.114,0 -0.225,0.043 -0.31,0.12 -0.093,0.083 -0.157,0.195 -0.18,0.319 z m 1.23,0.846 0.35,-2.082 h 0.25 l -0.35,2.082 z m 0.94,-1.793 v -0.299 h 0.25 v 0.299 z m -0.3,1.783 0.25,-1.504 h 0.25 l -0.25,1.504 z m 0.63,0 0.25,-1.504 h 0.22 v 0.209 c 0.057,-0.073 0.129,-0.134 0.21,-0.179 0.083,-0.046 0.176,-0.07 0.27,-0.07 0.092,-0.007 0.184,0.018 0.26,0.07 0.062,0.049 0.102,0.121 0.11,0.199 0.117,-0.16 0.302,-0.256 0.5,-0.259 0.119,-0.009 0.234,0.039 0.31,0.13 0.068,0.114 0.086,0.251 0.05,0.378 l -0.17,0.996 h -0.25 l 0.16,-0.996 c 0.012,-0.072 0.012,-0.146 0,-0.219 -0.008,-0.044 -0.033,-0.082 -0.07,-0.109 -0.045,-0.014 -0.094,-0.014 -0.14,0 -0.1,0.001 -0.197,0.04 -0.27,0.109 -0.09,0.091 -0.147,0.211 -0.16,0.339 l -0.15,0.876 h -0.25 l 0.16,-0.996 c 0.029,-0.083 0.029,-0.175 0,-0.259 -0.037,-0.061 -0.107,-0.096 -0.18,-0.089 -0.07,0.002 -0.139,0.023 -0.2,0.059 -0.069,0.039 -0.124,0.099 -0.16,0.17 -0.046,0.1 -0.076,0.208 -0.09,0.319 l -0.13,0.786 z m 2.66,-1.783 v -0.299 h 0.25 v 0.299 z m -0.3,1.783 0.25,-1.504 h 0.25 l -0.25,1.504 z m 0.63,0 0.28,-1.504 h 0.22 v 0.209 c 0.122,-0.156 0.312,-0.245 0.51,-0.239 0.08,-0.001 0.158,0.017 0.23,0.05 0.06,0.027 0.109,0.072 0.14,0.13 0.014,0.061 0.014,0.126 0,0.189 0.007,0.083 0.007,0.166 0,0.249 l -0.17,0.926 h -0.25 l 0.17,-0.916 c 0.014,-0.08 0.014,-0.161 0,-0.239 -0.008,-0.052 -0.037,-0.099 -0.08,-0.13 -0.047,-0.033 -0.102,-0.049 -0.16,-0.049 -0.105,-0.001 -0.207,0.033 -0.29,0.099 -0.108,0.103 -0.175,0.24 -0.19,0.389 l -0.15,0.826 z m 2.55,-0.129 c -0.09,0.071 -0.192,0.128 -0.3,0.169 -0.092,0.016 -0.187,0.016 -0.28,0 -0.13,0.009 -0.257,-0.038 -0.35,-0.129 -0.07,-0.087 -0.096,-0.201 -0.07,-0.309 0.015,-0.073 0.045,-0.141 0.09,-0.199 0.041,-0.056 0.092,-0.104 0.15,-0.14 0.06,-0.036 0.124,-0.063 0.19,-0.079 h 0.23 c 0.156,-0.012 0.31,-0.038 0.46,-0.08 v -0.07 c 0.033,-0.07 0.033,-0.149 0,-0.219 -0.073,-0.067 -0.171,-0.1 -0.27,-0.09 -0.094,-0.007 -0.187,0.014 -0.27,0.06 -0.073,0.057 -0.128,0.133 -0.16,0.219 h -0.24 c 0.036,-0.096 0.09,-0.184 0.16,-0.259 0.07,-0.069 0.156,-0.121 0.25,-0.149 0.113,-0.019 0.228,-0.019 0.34,0 0.103,-0.003 0.205,0.014 0.3,0.05 0.062,0.024 0.114,0.064 0.15,0.119 0.016,0.059 0.016,0.121 0,0.179 0.006,0.08 0.006,0.16 0,0.24 l -0.06,0.338 c -0.032,0.148 -0.055,0.298 -0.07,0.448 -0.01,0.059 -0.01,0.12 0,0.18 h -0.26 c -0.011,-0.063 -0.011,-0.127 0,-0.19 z m 0.08,-0.568 c -0.136,0.045 -0.277,0.075 -0.42,0.09 h -0.23 c -0.087,0.033 -0.151,0.107 -0.17,0.199 -0.026,0.053 -0.026,0.115 0,0.169 0.057,0.052 0.134,0.078 0.21,0.07 0.094,0.003 0.187,-0.017 0.27,-0.06 0.081,-0.038 0.15,-0.096 0.2,-0.169 0.047,-0.08 0.078,-0.167 0.09,-0.259 v -0.09 z m 1.45,0.767 v -0.189 c -0.104,0.142 -0.273,0.224 -0.45,0.219 -0.109,-0.002 -0.215,-0.041 -0.3,-0.11 -0.095,-0.084 -0.155,-0.202 -0.17,-0.328 -0.028,-0.135 -0.028,-0.274 0,-0.409 0.026,-0.143 0.077,-0.282 0.15,-0.408 0.064,-0.116 0.157,-0.211 0.27,-0.279 0.103,-0.061 0.221,-0.092 0.34,-0.09 0.078,-0.001 0.154,0.02 0.22,0.06 0.06,0.037 0.108,0.088 0.14,0.149 l 0.14,-0.747 h 0.25 l -0.38,2.082 z m -0.64,-0.767 c -0.053,0.141 -0.053,0.297 0,0.438 0.051,0.091 0.146,0.148 0.25,0.15 0.114,0 0.223,-0.047 0.3,-0.13 0.106,-0.116 0.172,-0.263 0.19,-0.418 0.054,-0.149 0.054,-0.31 0,-0.458 -0.052,-0.095 -0.152,-0.152 -0.26,-0.15 -0.114,-0.001 -0.223,0.046 -0.3,0.13 -0.105,0.123 -0.171,0.277 -0.19,0.438 z m 1.32,0 c 0.034,-0.24 0.155,-0.46 0.34,-0.618 0.141,-0.107 0.314,-0.164 0.49,-0.159 0.181,-0.008 0.354,0.074 0.46,0.219 0.11,0.169 0.142,0.375 0.09,0.568 -0.023,0.163 -0.081,0.319 -0.17,0.458 -0.149,0.215 -0.397,0.342 -0.66,0.339 -0.178,0.009 -0.349,-0.07 -0.46,-0.209 -0.107,-0.177 -0.135,-0.39 -0.08,-0.588 z m 0.25,0 c -0.055,0.141 -0.055,0.298 0,0.438 0.061,0.096 0.167,0.153 0.28,0.15 0.125,0 0.244,-0.051 0.33,-0.14 0.111,-0.121 0.181,-0.275 0.2,-0.438 0.055,-0.137 0.055,-0.291 0,-0.428 -0.06,-0.096 -0.166,-0.153 -0.28,-0.15 -0.124,0 -0.243,0.051 -0.33,0.14 -0.11,0.118 -0.18,0.268 -0.2,0.428 z m 2,0.817 0.28,-1.504 h 0.22 v 0.229 c 0.054,-0.082 0.121,-0.153 0.2,-0.209 0.056,-0.016 0.115,-0.016 0.17,0 0.088,0.003 0.172,0.035 0.24,0.089 l -0.13,0.239 c -0.049,-0.036 -0.108,-0.057 -0.17,-0.059 -0.052,-0.016 -0.107,-0.016 -0.16,0 -0.051,0.034 -0.093,0.082 -0.12,0.139 -0.047,0.095 -0.08,0.195 -0.1,0.299 l -0.15,0.787 z m 2,-0.428 h 0.25 c -0.064,0.142 -0.168,0.263 -0.3,0.348 -0.131,0.081 -0.285,0.12 -0.44,0.11 -0.185,0.007 -0.362,-0.079 -0.47,-0.229 -0.101,-0.176 -0.127,-0.384 -0.07,-0.578 0.033,-0.225 0.143,-0.433 0.31,-0.588 0.145,-0.13 0.336,-0.198 0.53,-0.189 0.177,-0.003 0.342,0.084 0.44,0.229 0.102,0.178 0.127,0.391 0.07,0.588 v 0.069 h -1.09 c -0.031,0.133 -0.009,0.271 0.06,0.389 0.062,0.095 0.168,0.15 0.28,0.149 0.088,0.007 0.175,-0.014 0.25,-0.059 0.085,-0.059 0.154,-0.138 0.2,-0.23 z m -0.73,-0.449 h 0.81 c 0.031,-0.093 0.031,-0.195 0,-0.289 -0.056,-0.101 -0.164,-0.162 -0.28,-0.159 -0.113,-0.004 -0.224,0.035 -0.31,0.11 -0.095,0.079 -0.161,0.188 -0.19,0.308 z m 1.19,0.468 h 0.25 c -0.011,0.086 0.014,0.173 0.07,0.24 0.068,0.062 0.158,0.094 0.25,0.089 0.095,0.011 0.19,-0.01 0.27,-0.06 0.062,-0.037 0.105,-0.099 0.12,-0.169 0.025,-0.043 0.025,-0.097 0,-0.139 -0.071,-0.044 -0.149,-0.078 -0.23,-0.1 -0.121,-0.035 -0.238,-0.082 -0.35,-0.139 -0.059,-0.033 -0.105,-0.086 -0.13,-0.15 -0.018,-0.065 -0.018,-0.134 0,-0.199 0.012,-0.069 0.04,-0.134 0.08,-0.189 0.04,-0.056 0.091,-0.104 0.15,-0.14 0.053,-0.032 0.111,-0.055 0.17,-0.07 0.073,-0.01 0.147,-0.01 0.22,0 0.1,0.001 0.199,0.021 0.29,0.06 0.069,0.03 0.126,0.083 0.16,0.15 0.02,0.078 0.02,0.16 0,0.239 h -0.25 c 0.009,-0.069 -0.013,-0.138 -0.06,-0.19 -0.058,-0.048 -0.133,-0.073 -0.21,-0.069 -0.081,-0.024 -0.168,-0.024 -0.25,0 -0.049,0.028 -0.085,0.074 -0.1,0.129 -0.01,0.029 -0.01,0.061 0,0.09 0.019,0.031 0.047,0.056 0.08,0.07 l 0.2,0.069 0.34,0.13 c 0.062,0.029 0.111,0.079 0.14,0.139 0.023,0.071 0.023,0.148 0,0.219 -0.018,0.089 -0.06,0.172 -0.12,0.239 -0.064,0.076 -0.147,0.134 -0.24,0.17 -0.105,0.021 -0.214,0.021 -0.32,0 -0.149,0.008 -0.296,-0.042 -0.41,-0.14 -0.089,-0.101 -0.132,-0.234 -0.12,-0.368 z m 1.3,1.086 0.42,-2.082 h 0.22 v 0.2 c 0.059,-0.07 0.13,-0.127 0.21,-0.17 0.083,-0.02 0.168,-0.02 0.25,0 0.235,-0.003 0.436,0.168 0.47,0.399 0.027,0.131 0.027,0.267 0,0.398 -0.027,0.145 -0.081,0.283 -0.16,0.409 -0.07,0.116 -0.17,0.212 -0.29,0.278 -0.103,0.06 -0.22,0.091 -0.34,0.09 -0.142,-0.004 -0.272,-0.084 -0.34,-0.209 l -0.15,0.737 z m 0.49,-1.315 c -0.052,0.142 -0.052,0.297 0,0.439 0.051,0.09 0.146,0.147 0.25,0.149 0.117,0.002 0.23,-0.045 0.31,-0.129 0.113,-0.122 0.187,-0.275 0.21,-0.439 0.052,-0.141 0.052,-0.297 0,-0.438 -0.044,-0.094 -0.136,-0.154 -0.24,-0.159 -0.118,0.001 -0.231,0.051 -0.31,0.139 -0.113,0.122 -0.186,0.274 -0.21,0.438 z m 2.28,0.359 h 0.25 c -0.064,0.142 -0.168,0.264 -0.3,0.349 -0.131,0.081 -0.285,0.119 -0.44,0.109 -0.183,0.01 -0.36,-0.073 -0.47,-0.219 -0.101,-0.175 -0.127,-0.383 -0.07,-0.578 0.033,-0.225 0.143,-0.433 0.31,-0.587 0.145,-0.131 0.336,-0.199 0.53,-0.19 0.177,-0.003 0.342,0.084 0.44,0.229 0.103,0.179 0.128,0.391 0.07,0.588 v 0.07 h -1.09 c -0.031,0.132 -0.009,0.271 0.06,0.388 0.062,0.095 0.168,0.151 0.28,0.15 0.088,0.007 0.175,-0.014 0.25,-0.06 0.085,-0.059 0.154,-0.137 0.2,-0.229 z m -0.73,-0.448 h 0.81 c 0.03,-0.094 0.03,-0.196 0,-0.289 -0.056,-0.102 -0.164,-0.163 -0.28,-0.16 -0.113,-0.004 -0.224,0.035 -0.31,0.11 -0.095,0.08 -0.162,0.188 -0.19,0.309 z m 1.55,-0.837 0.06,-0.299 h 0.25 l -0.06,0.299 z m -0.36,1.783 0.3,-1.504 h 0.25 l -0.3,1.504 z m 1.21,-0.179 v 0.229 h -0.19 c -0.07,0.003 -0.139,-0.015 -0.2,-0.05 -0.04,-0.029 -0.069,-0.072 -0.08,-0.12 -0.015,-0.099 -0.015,-0.2 0,-0.298 l 0.17,-0.867 h -0.18 v -0.199 h 0.18 l 0.08,-0.379 0.28,-0.139 -0.11,0.528 h 0.25 v 0.199 h -0.25 l -0.18,0.877 c -0.006,0.045 -0.006,0.092 0,0.139 -0.004,0.016 -0.004,0.034 0,0.05 h 0.08 z m 1.14,0.089 c -0.091,0.068 -0.192,0.122 -0.3,0.16 -0.092,0.016 -0.187,0.016 -0.28,0 -0.128,0.004 -0.251,-0.047 -0.34,-0.14 -0.073,-0.088 -0.099,-0.207 -0.07,-0.318 0.015,-0.073 0.046,-0.141 0.09,-0.2 0.044,-0.056 0.098,-0.104 0.16,-0.139 0.06,-0.036 0.124,-0.063 0.19,-0.08 h 0.23 c 0.156,-0.008 0.31,-0.032 0.46,-0.07 v -0.069 c 0.033,-0.07 0.033,-0.15 0,-0.219 -0.069,-0.068 -0.163,-0.104 -0.26,-0.1 -0.093,-0.011 -0.187,0.007 -0.27,0.05 -0.076,0.055 -0.135,0.131 -0.17,0.219 h -0.23 c 0.036,-0.097 0.09,-0.184 0.16,-0.259 0.071,-0.067 0.157,-0.115 0.25,-0.14 0.113,-0.018 0.228,-0.018 0.34,0 0.1,10e-4 0.198,0.022 0.29,0.06 0.062,0.024 0.114,0.065 0.15,0.12 0.016,0.059 0.016,0.12 0,0.179 0.007,0.08 0.007,0.159 0,0.239 l -0.07,0.339 c -0.035,0.147 -0.062,0.297 -0.08,0.448 -0.01,0.059 -0.01,0.12 0,0.179 h -0.26 c -0.011,-0.062 -0.011,-0.126 0,-0.189 z m 0.09,-0.567 c -0.136,0.041 -0.277,0.067 -0.42,0.079 h -0.23 c -0.087,0.033 -0.151,0.108 -0.17,0.199 -0.025,0.054 -0.025,0.116 0,0.17 0.053,0.053 0.126,0.081 0.2,0.08 0.093,0.005 0.186,-0.011 0.27,-0.05 0.081,-0.038 0.15,-0.097 0.2,-0.17 0.046,-0.076 0.076,-0.161 0.09,-0.249 v -0.089 z m 1.31,0.089 c 0.039,-0.238 0.164,-0.454 0.35,-0.607 0.141,-0.105 0.315,-0.158 0.49,-0.15 0.177,-0.005 0.346,0.077 0.45,0.219 0.105,0.171 0.134,0.376 0.08,0.568 -0.026,0.163 -0.088,0.32 -0.18,0.458 -0.154,0.214 -0.405,0.338 -0.67,0.329 -0.177,0.005 -0.345,-0.077 -0.45,-0.219 -0.102,-0.178 -0.127,-0.391 -0.07,-0.588 z m 0.25,0 c -0.054,0.141 -0.054,0.297 0,0.439 0.058,0.099 0.165,0.16 0.28,0.159 0.127,0.006 0.25,-0.041 0.34,-0.13 0.114,-0.12 0.188,-0.274 0.21,-0.438 0.055,-0.137 0.055,-0.291 0,-0.428 -0.057,-0.1 -0.164,-0.161 -0.28,-0.16 -0.126,-0.007 -0.25,0.041 -0.34,0.13 -0.113,0.116 -0.187,0.267 -0.21,0.428 z m 1.9,1.425 0.45,-2.082 h 0.22 v 0.199 c 0.063,-0.067 0.137,-0.121 0.22,-0.159 0.083,-0.02 0.168,-0.02 0.25,0 0.115,0.003 0.224,0.044 0.31,0.119 0.081,0.077 0.134,0.178 0.15,0.289 0.027,0.132 0.027,0.267 0,0.398 -0.03,0.146 -0.088,0.284 -0.17,0.409 -0.071,0.112 -0.171,0.205 -0.29,0.269 -0.104,0.057 -0.221,0.083 -0.34,0.08 -0.075,-0.003 -0.148,-0.027 -0.21,-0.07 -0.055,-0.039 -0.099,-0.09 -0.13,-0.15 l -0.16,0.737 z m 0.51,-1.305 c -0.052,0.141 -0.052,0.297 0,0.438 0.046,0.092 0.138,0.152 0.24,0.159 0.118,0.003 0.23,-0.043 0.31,-0.129 0.113,-0.122 0.186,-0.275 0.21,-0.438 0.052,-0.142 0.052,-0.297 0,-0.439 -0.044,-0.093 -0.136,-0.154 -0.24,-0.159 -0.118,0.001 -0.231,0.052 -0.31,0.139 -0.116,0.121 -0.192,0.273 -0.22,0.439 z m 1.17,0.827 0.33,-1.505 h 0.22 v 0.23 c 0.054,-0.078 0.122,-0.146 0.2,-0.2 0.056,-0.016 0.115,-0.016 0.17,0 0.086,0.008 0.166,0.043 0.23,0.1 l -0.14,0.229 c -0.047,-0.041 -0.107,-0.066 -0.17,-0.07 -0.052,-0.017 -0.108,-0.017 -0.16,0 -0.05,0.032 -0.091,0.077 -0.12,0.13 -0.05,0.093 -0.087,0.194 -0.11,0.299 l -0.17,0.787 z m 1,-0.688 c 0.042,-0.24 0.17,-0.455 0.36,-0.607 0.143,-0.102 0.316,-0.151 0.49,-0.14 0.176,10e-4 0.34,0.086 0.44,0.229 0.105,0.175 0.13,0.384 0.07,0.578 -0.028,0.16 -0.089,0.313 -0.18,0.448 -0.155,0.212 -0.407,0.332 -0.67,0.319 -0.178,0.003 -0.347,-0.084 -0.45,-0.229 -0.101,-0.182 -0.123,-0.399 -0.06,-0.598 z m 0.25,0 c -0.053,0.142 -0.053,0.297 0,0.438 0.056,0.097 0.159,0.157 0.27,0.16 0.127,0.006 0.25,-0.041 0.34,-0.13 0.118,-0.119 0.195,-0.273 0.22,-0.438 0.055,-0.137 0.055,-0.291 0,-0.428 -0.055,-0.097 -0.158,-0.158 -0.27,-0.16 -0.126,-0.007 -0.25,0.041 -0.34,0.13 -0.117,0.115 -0.194,0.266 -0.22,0.428 z m 1.61,-0.916 0.06,-0.299 h 0.25 l -0.06,0.299 z m -0.83,2.351 0.09,-0.21 h 0.11 c 0.039,0.017 0.082,0.017 0.12,0 0.05,-0.078 0.081,-0.167 0.09,-0.259 l 0.35,-1.583 h 0.25 l -0.35,1.583 c -0.02,0.136 -0.071,0.265 -0.15,0.379 -0.081,0.095 -0.205,0.143 -0.33,0.129 h -0.19 z m 2.16,-0.997 h 0.25 c -0.064,0.143 -0.168,0.264 -0.3,0.349 -0.132,0.078 -0.286,0.113 -0.44,0.1 -0.182,0.004 -0.354,-0.082 -0.46,-0.229 -0.097,-0.177 -0.119,-0.386 -0.06,-0.578 0.038,-0.223 0.151,-0.427 0.32,-0.578 0.146,-0.127 0.337,-0.192 0.53,-0.179 0.173,-0.001 0.335,0.085 0.43,0.229 0.098,0.18 0.12,0.391 0.06,0.588 v 0.069 l -1.08,-0.059 c -0.034,0.131 -0.016,0.27 0.05,0.388 0.06,0.092 0.161,0.148 0.27,0.15 0.088,0.006 0.176,-0.014 0.25,-0.06 0.085,-0.059 0.154,-0.138 0.2,-0.229 z m -0.72,-0.458 h 0.81 c 0.03,-0.093 0.03,-0.195 0,-0.289 -0.051,-0.101 -0.155,-0.167 -0.27,-0.169 -0.112,-0.008 -0.223,0.028 -0.31,0.1 -0.098,0.078 -0.168,0.187 -0.2,0.308 z" style="fill:#231f20;stroke-width:1" id="path21" />
  <line x1="175.34499" y1="150.80101" x2="169.215" y2="161.629" style="fill:none;stroke:#ed1b2e;stroke-width:1.059;stroke-linecap:round;stroke-linejoin:round" id="line22" />
  <path d="m 19.885,51.141 c 34.49,-0.448 193.79,96.96 194.26,114.9 l -9.87,15.071 C 199.825,160.284 38.185,65.495 11.515,67.288 l 8.37,-16.137 z" style="fill:#fff200;stroke-width:1" id="path23" />
  <path d="m 213.425,167.316 -8.37,12.95 M 19.625,51.988 11.845,66.352" style="fill:none;stroke:#231f20;stroke-width:0.648;stroke-linecap:round;stroke-linejoin:round" id="path24" />
  <path d="m 10.525,66.7 c 6.4,-4.323 53.45,16.555 102.68,46.12 49.23,29.564 96,63.162 91.78,69.428 l -1.39,2.181 -0.64,0.498 c 0.14,-0.099 0.84,-0.996 -0.07,-3.277 -2.09,-6.853 -35.37,-33.309 -90.59,-66.519 C 58.465,83.156 13.595,63.891 9.115,69.39 l 1.41,-2.7 z m 204.61,100.437 c 4,-7.969 -39.59,-40.711 -93.7,-72.596 C 66.085,63.294 26.195,44.906 18.905,50.384 l -1.62,2.939 c 0,0.159 0.06,-0.2 0.4,-0.459 1.33,-1.155 3.52,-1.075 4.51,-1.095 12.55,0.189 48.38,16.615 98.66,45.322 22,12.78 93.06,58.153 92.79,70.913 0,1.095 0.09,1.324 -0.32,1.862 l 1.81,-2.739 z" style="fill:#fff200;stroke:#231f20;stroke-width:0.648;stroke-linecap:round;stroke-linejoin:round" id="path25" />
  <path d="m 46.755,126.237 c 0.31,36.858 30.218,66.667 67.22,66.998 37.147,-0.005 67.294,-29.936 67.42,-66.938 V 36.857 L 46.755,36.698 Z" style="fill:#ffffff;stroke:#231f20;stroke-width:0.76;stroke-miterlimit:2.6131" id="path26" />
  <path d="m 49.275,126.367 c 0.031,16.985 6.871,33.254 19,45.193 25.152,25.135 66.004,25.18 91.21,0.099 12.116,-11.954 18.935,-28.235 18.94,-45.223 V 39.706 H 49.345 l -0.08,86.661 z m 103.21,-60.703 v 55.224 5.837 c 10e-4,1.598 -0.089,3.194 -0.27,4.781 -1.024,8.449 -4.903,16.301 -11,22.263 -7.235,7.196 -17.045,11.234 -27.27,11.226 C 92.8,164.667 75.77,147.61 75.555,126.546 V 65.525 l 77,0.139 z" style="fill:#ed1c24;stroke:#231f20;stroke-width:0.574;stroke-miterlimit:2.6131" id="path27" />
  <g id="g154">
    <path d="m 105.765,116.515 c -0.023,2.401 0.875,4.721 2.51,6.485 3.206,3.55 8.794,3.55 12,0 1.621,-1.753 2.514,-4.052 2.5,-6.435 v -12.192 h -17 v 12.162 z" style="fill:#2e2c70;stroke-width:1" id="path28" />
    <path d="m 119.085,107.311 c -1.293,0.008 -2.093,1.407 -1.439,2.519 0.653,1.112 2.269,1.102 2.909,-0.018 0.145,-0.252 0.22,-0.538 0.22,-0.827 -0.005,-0.927 -0.76,-1.674 -1.69,-1.674 z" style="fill:#ffffff;stroke-width:1" id="path29" />
    <path d="m 114.365,111.824 c -1.293,0 -2.101,1.394 -1.455,2.51 0.647,1.115 2.264,1.115 2.91,0 0.148,-0.254 0.225,-0.543 0.225,-0.837 -0.005,-0.922 -0.754,-1.669 -1.68,-1.673 z" style="fill:#ffffff;stroke-width:1" id="path30" />
    <path d="m 119.075,116.535 c -1.293,0.008 -2.093,1.407 -1.439,2.519 0.653,1.112 2.269,1.102 2.909,-0.018 0.145,-0.252 0.22,-0.538 0.22,-0.827 -0.005,-0.927 -0.76,-1.674 -1.69,-1.674 z" style="fill:#ffffff;stroke-width:1" id="path31" />
    <path d="m 109.875,116.545 c -1.293,0 -2.101,1.395 -1.455,2.51 0.647,1.116 2.264,1.116 2.91,0 0.148,-0.254 0.225,-0.543 0.225,-0.837 -0.005,-0.922 -0.754,-1.668 -1.68,-1.673 z" style="fill:#ffffff;stroke-width:1" id="path32" />
    <path d="m 109.865,107.311 c -1.293,0 -2.101,1.395 -1.455,2.51 0.647,1.116 2.264,1.116 2.91,0 0.148,-0.254 0.225,-0.543 0.225,-0.836 -0.005,-0.923 -0.754,-1.669 -1.68,-1.674 z" style="fill:#ffffff;stroke-width:1" id="path33" />
  </g>
  <use x="0" y="0" xlink:href="#g154" id="use155" transform="translate(0,29.116)" />
  <use x="0" y="0" xlink:href="#g154" id="use156" transform="translate(-23.59)" />
  <use x="0" y="0" xlink:href="#g154" id="use157" transform="translate(23.53)" />
  <use x="0" y="0" xlink:href="#g154" id="use158" transform="translate(0,-29.385)" />
  <g id="g145">
    <path d="m 57.635,62.337 c 0.15,-6.235 4.6,-7.71 4.63,-7.729 0.03,-0.02 4.8,1.593 4.78,7.789 z" style="fill:#fff200;stroke-width:1" id="path58" />
    <path d="m 53.795,54.717 -0.77,7.162 h 4.69 c 0,-5.977 4.51,-6.913 4.61,-6.893 0.1,0.02 4.52,1.315 4.64,6.893 h 4.71 l -0.85,-7.222 h -17 z" style="fill:#fff200;stroke:#231f20;stroke-width:0.566;stroke-miterlimit:2.6131" id="path59" />
    <path d="m 52.715,61.919 h 19.26 c 0.447,0.047 0.775,0.44 0.74,0.886 0.035,0.447 -0.293,0.84 -0.74,0.887 h -19.26 c -0.447,-0.047 -0.775,-0.44 -0.74,-0.887 -0.035,-0.446 0.293,-0.839 0.74,-0.886 z" style="fill:#fff200;stroke:#231f20;stroke-width:0.566;stroke-miterlimit:2.6131" id="path60" />
    <path d="m 59.705,61.889 c 0,-3.745 2.56,-4.801 2.58,-4.801 1.779,0.92 2.834,2.81 2.68,4.801 z" style="fill:#fff200;stroke:#231f20;stroke-width:0.566;stroke-miterlimit:2.6131" id="path61" />
    <path d="m 53.115,51.749 h 18.42 c 0.416,0.027 0.733,0.382 0.71,0.797 0.023,0.414 -0.294,0.77 -0.71,0.797 h -18.42 c -0.416,-0.027 -0.732,-0.383 -0.71,-0.797 -0.022,-0.415 0.294,-0.77 0.71,-0.797 z" style="fill:#fff200;stroke:#231f20;stroke-width:0.566;stroke-miterlimit:2.6131" id="path62" />
    <path d="m 53.505,53.343 h 17.62 c 0.407,0.036 0.709,0.391 0.68,0.796 0.029,0.406 -0.273,0.76 -0.68,0.797 h -17.62 c -0.406,-0.037 -0.708,-0.391 -0.68,-0.797 -0.028,-0.405 0.274,-0.76 0.68,-0.796 z" style="fill:#fff200;stroke:#231f20;stroke-width:0.566;stroke-miterlimit:2.6131" id="path63" />
    <path d="m 59.185,41.389 h 1.41 v 0.996 h 1 v -0.996 h 1.43 v 0.996 h 1 v -0.996 h 1.43 v 2.271 c 0.001,0.337 -0.282,0.605 -0.62,0.588 h -5 c -0.342,0.006 -0.628,-0.257 -0.65,-0.598 z" style="fill:#fff200;stroke:#231f20;stroke-width:0.566;stroke-miterlimit:2.6131" id="path64" />
    <polygon points="137.542,129.914 137.862,122.622 142.112,122.642 142.422,129.934 " style="fill:#fff200;stroke:#231f20;stroke-width:0.566;stroke-miterlimit:2.6131" id="polygon64" transform="translate(-77.667,-78.215)" />
    <path d="m 65.235,44.945 h 1.38 v 0.996 h 1 v -0.996 h 1.36 v 0.996 h 1 v -0.996 h 1.4 v 2.271 c 0.001,0.333 -0.276,0.599 -0.61,0.588 h -4.9 c -0.336,0 -0.614,-0.263 -0.63,-0.597 z" style="fill:#fff200;stroke:#231f20;stroke-width:0.566;stroke-miterlimit:2.6131" id="path65" />
    <polygon points="143.652,129.934 143.782,126.009 148.182,126.009 148.332,129.934 " style="fill:#fff200;stroke:#231f20;stroke-width:0.566;stroke-miterlimit:2.6131" id="polygon65" transform="translate(-77.667,-78.215)" />
    <path d="m 53.235,44.965 h 1.35 v 0.996 h 1 v -0.996 h 1.39 v 0.996 h 1 v -0.996 h 1.4 v 2.271 c 10e-4,0.333 -0.276,0.599 -0.61,0.588 h -4.9 c -0.336,0 -0.614,-0.263 -0.63,-0.598 z" style="fill:#fff200;stroke:#231f20;stroke-width:0.566;stroke-miterlimit:2.6131" id="path66" />
    <polygon points="131.622,129.944 131.752,126.019 136.152,126.019 136.302,129.944 " style="fill:#fff200;stroke:#231f20;stroke-width:0.566;stroke-miterlimit:2.6131" id="polygon66" transform="translate(-77.667,-78.215)" />
    <path d="m 61.835,46.728 c 0,-0.383 0.417,-0.623 0.75,-0.431 0.155,0.089 0.25,0.253 0.25,0.431 v 1.734 h -1 z" style="fill:#231f20;stroke-width:1" id="path67" />
    <path d="m 67.855,49.288 c 0,-0.36 0.392,-0.585 0.705,-0.405 0.146,0.084 0.235,0.238 0.235,0.405 v 1.345 h -0.94 z" style="fill:#231f20;stroke-width:1" id="path68" />
    <path d="m 55.795,49.288 c 0,-0.36 0.392,-0.585 0.705,-0.405 0.146,0.084 0.235,0.238 0.235,0.405 v 1.345 h -0.94 z" style="fill:#231f20;stroke-width:1" id="path69" />
  </g>
  <use x="0" y="0" xlink:href="#g145" id="use149" transform="translate(51.83)" />
  <use x="0" y="0" xlink:href="#g145" id="use150" transform="translate(103.03)" />
  <use x="0" y="0" xlink:href="#g145" id="use151" transform="translate(103.03,52.315)" />
  <use x="0" y="0" xlink:href="#g145" id="use152" transform="rotate(45,-20.549843,215.95075)" />
  <use x="0" y="0" xlink:href="#g145" id="use153" transform="rotate(-45,196.67286,91.04128)" />
  <use x="0" y="0" xlink:href="#g145" id="use154" transform="translate(0,52.306)" />
</svg>
