<?xml version="1.0" encoding="UTF-8" standalone="no"?>
<!-- Created with Sodipodi ("http://www.sodipodi.com/") -->

<svg
   xmlns:dc="http://purl.org/dc/elements/1.1/"
   xmlns:cc="http://creativecommons.org/ns#"
   xmlns:rdf="http://www.w3.org/1999/02/22-rdf-syntax-ns#"
   xmlns:svg="http://www.w3.org/2000/svg"
   xmlns="http://www.w3.org/2000/svg"
   xmlns:sodipodi="http://sodipodi.sourceforge.net/DTD/sodipodi-0.dtd"
   xmlns:inkscape="http://www.inkscape.org/namespaces/inkscape"
   xml:space="preserve"
   width="400"
   height="500"
   style="fill-rule:evenodd"
   viewBox="0 0 210 297"
   id="svg2"
   sodipodi:version="0.34"
   inkscape:version="0.47 r22583"
   version="1.1"
   sodipodi:docname="State_military_crest_of_North_Dakota.svg"><metadata
     id="metadata19"><rdf:RDF><cc:Work
         rdf:about=""><dc:format>image/svg+xml</dc:format><dc:type
           rdf:resource="http://purl.org/dc/dcmitype/StillImage" /><dc:title /></cc:Work></rdf:RDF></metadata><sodipodi:namedview
     inkscape:window-height="1004"
     inkscape:window-width="1280"
     inkscape:pageshadow="2"
     inkscape:pageopacity="0.0"
     borderopacity="1.0"
     bordercolor="#666666"
     pagecolor="#ffffff"
     id="base"
     showgrid="false"
     inkscape:zoom="0.813"
     inkscape:cx="281.15275"
     inkscape:cy="158.02617"
     inkscape:window-x="-8"
     inkscape:window-y="-8"
     inkscape:window-maximized="1"
     inkscape:current-layer="g3608" /><defs
     id="defs4"><inkscape:perspective
       sodipodi:type="inkscape:persp3d"
       inkscape:vp_x="0 : 250 : 1"
       inkscape:vp_y="0 : 1000 : 0"
       inkscape:vp_z="400 : 250 : 1"
       inkscape:persp3d-origin="200 : 166.66667 : 1"
       id="perspective11" /><style
       type="text/css"
       id="style6">

    .fil2 {fill:#0037A5}
    .fil0 {fill:#CD1228}
    .fil1 {fill:white}
   
  </style></defs><g
     id="g3608"
     transform="matrix(0.98642894,0,0,0.98721649,-0.33281092,0.14850018)"><path
       sodipodi:nodetypes="cccc"
       id="path919"
       class="fil0"
       d="M 106.78194,298.76302 C 244.12346,232.22526 229.1064,122.01733 220.04466,1.7819999 l -226.5254454,0 C -15.542525,122.01733 -30.559375,232.22526 106.78194,298.76302"
       style="fill:none;fill-opacity:1;stroke:#575755;stroke-width:4.815455;stroke-miterlimit:4;stroke-opacity:1;stroke-dasharray:none" /><path
       id="path3412"
       d="m 88.720671,13.160896 c 2.819724,14.109332 5.457375,28.771651 5.457375,43.157813 l 0,1.85625 -3.434062,0 c -14.453327,0 -29.186137,-2.632519 -43.362,-5.438813 4.195903,13.76639 4.195903,22.188122 0,35.955563 14.175863,-2.807131 28.908673,-5.438813 43.362,-5.438813 l 3.434062,0 0,29.013184 -15.908062,0 c -14.453535,0 -29.186137,-2.63189 -43.362,-5.43881 4.195903,13.76723 4.195903,22.1704 0,35.937 14.175863,-2.80629 28.908465,-5.43881 43.362,-5.43881 l 15.908062,0 0,43.13925 c 3.939949,-1.40523 8.181094,-2.17181 12.603934,-2.17181 4.41764,0 8.64941,0.76974 12.58538,2.17181 l 0,-43.13925 15.92662,0 c 14.4527,0 29.18615,2.63252 43.362,5.43881 -4.19589,-13.7666 -4.19589,-22.16977 0,-35.937 -14.17585,2.80692 -28.9093,5.43881 -43.362,5.43881 l -15.92662,0 0,-29.013184 3.45262,0 c 14.45353,0 29.18615,2.631682 43.362,5.438813 -4.19589,-13.767441 -4.19589,-22.189173 0,-35.955563 -14.17585,2.806294 -28.90847,5.438813 -43.362,5.438813 l -3.45262,0 0,-1.85625 c 0,-14.386162 2.65621,-29.048481 5.47594,-43.157813 -13.83084,4.175754 -22.29181,4.175754 -36.122629,0 z"
       style="fill:none;stroke:#575755;stroke-width:2.4077275;stroke-miterlimit:4;stroke-opacity:1;stroke-dasharray:none" /><path
       id="path13976"
       d="m 106.78198,178.2929 c -16.815132,0 -31.060713,11.06625 -35.807059,26.26593 -5.370805,-5.51279 -12.898686,-8.94712 -21.216937,-8.94712 -16.278853,0 -29.458688,13.12545 -29.458688,29.32875 0,1.23535 0.203044,2.40607 0.352688,3.60112 3.73701,5.5194 7.906624,10.88891 12.492562,16.13082 17.46897,20.16576 41.197215,38.39287 73.637434,54.10968 31.27477,-15.15216 54.44702,-32.63162 71.7255,-51.93787 0.24539,-0.27126 0.48089,-0.54481 0.72394,-0.81675 0.63963,-0.72351 1.2886,-1.44326 1.91194,-2.17181 4.3242,-4.9982 8.27159,-10.1174 11.82431,-15.36975 0.1444,-1.17658 0.35269,-2.33024 0.35269,-3.54544 0,-16.2033 -13.23573,-29.32875 -29.51438,-29.32875 -8.33433,0 -15.85928,3.45284 -21.21693,8.98425 C 137.8551,189.3762 123.61151,178.2929 106.78198,178.2929 z"
       style="fill:none;stroke:#575755;stroke-width:2.4077275;stroke-miterlimit:4;stroke-opacity:1;stroke-dasharray:none" /></g></svg>