<svg width="660" height="922" xmlns="http://www.w3.org/2000/svg" xmlns:xlink="http://www.w3.org/1999/xlink"><path d="m5 5h650v689c0 48-29 97-76 117l-251 105-251-105c-44-20-76-65-72-117z" fill="#005bbb" stroke="#ffd500" stroke-width="10"/><path id="a" d="m329 53c-6 4-2 396 0 401 12 43 29 81 48 112-104 31-63 146-48 287 7-12 17-21 28-28 43-34 70-81 79-132h133v-580c-148 88-132 213-148 361 59-10 75 76-3 83-92-149-59-257-59-419 0-37-9-62-30-85zm200 143v297h-22c-6-23-21-41-42-51 8-85 10-189 64-246zm-22 337h22v120h-89c0-19-3-39-8-58 36-4 68-29 75-62zm-114 71c4 16 6 33 6 49h-50c1-27 19-44 44-49zm-44 89h46c-7 31-23 61-46 85z" fill="#ffd500"/><use transform="matrix(-1 0 0 1 658 0)" xlink:href="#a"/></svg>
