<?xml version="1.0" encoding="UTF-8"?>
<svg width="64" height="64" id="logo" xmlns="http://www.w3.org/2000/svg" xmlns:xlink="http://www.w3.org/1999/xlink" viewBox="0 0 596.01 476.01">
  <defs>
    <style>
      .cls-1 {
        fill: #363936;
      }

      .cls-2 {
        fill: url(#red_to_magenta);
      }

      .cls-3 {
        fill: url(#red_to_magenta-2);
      }
    </style>
    <linearGradient id="red_to_magenta" data-name="red to magenta" x1="195.32" y1="90.35" x2="402.12" y2="297.15" gradientUnits="userSpaceOnUse">
      <stop offset="0" stop-color="#dd342b"/>
      <stop offset="1" stop-color="#d82eb4"/>
    </linearGradient>
    <linearGradient id="red_to_magenta-2" data-name="red to magenta" x1="281.58" y1="176.34" x2="315.83" y2="210.58" xlink:href="#red_to_magenta"/>
  </defs>
  <g>
    <path class="cls-2" d="m380.55,275.58c-13.47-13.47-33.71-17.02-51.26-9.62-31.11,13.12-69.03,5.3-92.02-23.46-22.6-28.28-22.6-69.24,0-97.52,22.99-28.76,60.91-36.58,92.01-23.45,17.55,7.4,37.79,3.85,51.26-9.61l21.57-21.57c-59.46-59.46-157.8-56.91-213.93,7.65-47.38,54.49-47.38,137.01,0,191.51,56.13,64.56,154.47,67.11,213.93,7.65l-21.57-21.57Z"/>
    <path class="cls-3" d="m274.48,193.46c0,13.36,10.87,24.23,24.23,24.23s24.23-10.87,24.23-24.23-10.87-24.23-24.23-24.23-24.23,10.87-24.23,24.23Z"/>
  </g>
  <g>
    <path class="cls-1" d="m48.45,418.26v-24.66l9.3-9.3h34.14v8.7h-30.9l-3.54,3.54v18.78l3.54,3.54h30.9v8.7h-34.14l-9.3-9.3Z"/>
    <path class="cls-1" d="m104.96,384.3h44.57v43.26h-44.57v-43.26Zm35.58,34.56v-25.86h-26.58v25.86h26.58Z"/>
    <path class="cls-1" d="m166.04,384.3h35.04l8.82,9.18v18.12h-11.94l16.08,15.96h-11.4l-15.84-15.78h-11.88v15.78h-8.88v-43.26Zm35.22,18.42v-6.84l-2.46-2.58h-23.88v9.42h26.34Z"/>
    <path class="cls-1" d="m226.51,384.3h42.84v8.88h-33.54v8.52h25.62v8.46h-25.62v8.4h33.54v9h-42.84v-43.26Z"/>
    <path class="cls-1" d="m284.96,384.3h48.83l9,9.24v34.02h-8.64v-30.96l-3.54-3.42h-12.3v34.38h-8.7v-34.38h-15.96v34.38h-8.7v-43.26Z"/>
    <path class="cls-1" d="m359.05,384.3h42.84v8.88h-33.54v8.52h25.62v8.46h-25.62v8.4h33.54v9h-42.84v-43.26Z"/>
    <path class="cls-1" d="m416.64,384.3h36.96l9.3,9.3v24.66l-9.3,9.3h-36.96v-43.26Zm33.72,34.56l3.54-3.54v-18.78l-3.54-3.54h-24.72v25.86h24.72Z"/>
    <path class="cls-1" d="m477.65,384.3h9v43.26h-9v-43.26Z"/>
    <path class="cls-1" d="m503.15,384.3h35.1l9.3,9.3v33.96h-8.7v-16.62h-27v16.62h-8.7v-43.26Zm35.7,18v-6.42l-2.82-2.88h-24.18v9.3h27Z"/>
  </g>
</svg>
