<svg xmlns="http://www.w3.org/2000/svg" viewBox="0 0 255.118 272.126">
  <defs>
    <linearGradient id="linear-gradient" x1="87.439" y1="135.116" x2="87.439" y2="116.934"
                    gradientUnits="userSpaceOnUse">
      <stop offset="0.282" stop-color="#0069af" />
      <stop offset="0.687" stop-color="#87cde1" />
    </linearGradient>
    <linearGradient id="linear-gradient-2" x1="87.547" y1="97.64" x2="105.602" y2="97.64"
                    gradientUnits="userSpaceOnUse">
      <stop offset="0.202" stop-color="#87cde1" />
      <stop offset="0.877" stop-color="#75ae1d" />
    </linearGradient>
    <linearGradient id="linear-gradient-3" x1="139.318" y1="75.637" x2="157.743" y2="75.637"
                    gradientUnits="userSpaceOnUse">
      <stop offset="0.258" stop-color="#cc0" />
      <stop offset="0.742" stop-color="#87cde1" />
    </linearGradient>
    <linearGradient id="linear-gradient-4" x1="127.742" y1="39.725" x2="127.742" y2="45.86"
                    gradientUnits="userSpaceOnUse">
      <stop offset="0.27" stop-color="#75ae1d" />
      <stop offset="0.81" stop-color="#cc0" />
    </linearGradient>
    <linearGradient id="linear-gradient-5" x1="116.576" y1="44.146" x2="123.424" y2="44.146"
                    gradientUnits="userSpaceOnUse">
      <stop offset="0.215" stop-color="#cc0" />
      <stop offset="0.804" stop-color="#75ae1d" />
    </linearGradient>
    <linearGradient id="linear-gradient-6" x1="132.921" y1="48.015" x2="149.634" y2="48.015"
                    gradientTransform="translate(-7.711 -5.247) rotate(-1.524)" gradientUnits="userSpaceOnUse">
      <stop offset="0.245" stop-color="#75ae1d" />
      <stop offset="0.73" stop-color="#87cde1" />
    </linearGradient>
    <linearGradient id="linear-gradient-7" x1="135.026" y1="46.887" x2="140.912" y2="41.001"
                    gradientUnits="userSpaceOnUse">
      <stop offset="0.19" stop-color="#cc0" />
      <stop offset="0.816" stop-color="#87cde1" />
    </linearGradient>
    <linearGradient id="linear-gradient-8" x1="134.079" y1="49.74" x2="141.899" y2="57.56"
                    gradientUnits="userSpaceOnUse">
      <stop offset="0.196" stop-color="#cc0" />
      <stop offset="0.853" stop-color="#0069af" />
    </linearGradient>
    <linearGradient id="linear-gradient-9" x1="148.097" y1="62.465" x2="153.969" y2="72.636"
                    gradientUnits="userSpaceOnUse">
      <stop offset="0.19" stop-color="#0069af" />
      <stop offset="0.81" stop-color="#87cde1" />
    </linearGradient>
    <linearGradient id="linear-gradient-10" x1="121.814" y1="58.627" x2="145.26" y2="58.627"
                    gradientUnits="userSpaceOnUse">
      <stop offset="0.319" stop-color="#87cde1" />
      <stop offset="0.755" stop-color="#0069af" />
    </linearGradient>
    <linearGradient id="linear-gradient-11" x1="115.105" y1="71.283" x2="122.969" y2="57.662"
                    gradientUnits="userSpaceOnUse">
      <stop offset="0.374" stop-color="#cc0" />
      <stop offset="0.724" stop-color="#87cde1" />
    </linearGradient>
    <linearGradient id="linear-gradient-12" x1="109.408" y1="76.386" x2="112.365" y2="73.43"
                    gradientTransform="translate(53.089 -45.784) rotate(30.371)" gradientUnits="userSpaceOnUse">
      <stop offset="0.239" stop-color="#75ae1d" />
      <stop offset="0.761" stop-color="#cc0" />
    </linearGradient>
    <linearGradient id="linear-gradient-13" x1="115.708" y1="71.788" x2="115.708" y2="94.119"
                    gradientUnits="userSpaceOnUse">
      <stop offset="0.307" stop-color="#cc0" />
      <stop offset="0.644" stop-color="#87cde1" />
    </linearGradient>
    <linearGradient id="linear-gradient-14" x1="114.639" y1="71.291" x2="132.208" y2="71.291"
                    gradientUnits="userSpaceOnUse">
      <stop offset="0.123" stop-color="#87cde1" />
      <stop offset="0.871" stop-color="#cc0" />
    </linearGradient>
    <linearGradient id="linear-gradient-15" x1="109.618" y1="81.173" x2="109.618" y2="90.111"
                    gradientTransform="translate(61.545 -44.894) rotate(31.783)" gradientUnits="userSpaceOnUse">
      <stop offset="0.245" stop-color="#75ae1d" />
      <stop offset="0.773" stop-color="#87cde1" />
    </linearGradient>
    <linearGradient id="linear-gradient-16" x1="105.411" y1="122.085" x2="105.411" y2="106.062"
                    gradientUnits="userSpaceOnUse">
      <stop offset="0.209" stop-color="#cc0" />
      <stop offset="0.718" stop-color="#75ae1d" />
    </linearGradient>
    <linearGradient id="linear-gradient-17" x1="87.859" y1="119.415" x2="101.995" y2="119.415"
                    gradientUnits="userSpaceOnUse">
      <stop offset="0.331" stop-color="#87cde1" />
      <stop offset="0.791" stop-color="#cc0" />
    </linearGradient>
    <linearGradient id="linear-gradient-18" x1="90.307" y1="119.472" x2="105.446" y2="104.334"
                    gradientUnits="userSpaceOnUse">
      <stop offset="0.282" stop-color="#87cde1" />
      <stop offset="0.748" stop-color="#75ae1d" />
    </linearGradient>
    <linearGradient id="linear-gradient-19" x1="87.961" y1="130.467" x2="103.091" y2="124.659"
                    gradientUnits="userSpaceOnUse">
      <stop offset="0.104" stop-color="#0069af" />
      <stop offset="0.65" stop-color="#cc0" />
    </linearGradient>
    <linearGradient id="linear-gradient-20" x1="78.055" y1="135.897" x2="116.049" y2="135.394"
                    gradientTransform="translate(1.691 -1.937) rotate(0.756)" gradientUnits="userSpaceOnUse">
      <stop offset="0.123" stop-color="#cc0" />
      <stop offset="0.791" stop-color="#87cde1" />
    </linearGradient>
    <linearGradient id="linear-gradient-21" x1="79.332" y1="147.879" x2="100.684" y2="147.879"
                    gradientTransform="translate(5.101 -4.003) rotate(2.258)" gradientUnits="userSpaceOnUse">
      <stop offset="0.166" stop-color="#cc0" />
      <stop offset="0.804" stop-color="#75ae1d" />
    </linearGradient>
    <linearGradient id="linear-gradient-22" x1="94.405" y1="137.93" x2="107.28" y2="130.793"
                    gradientUnits="userSpaceOnUse">
      <stop offset="0.282" stop-color="#75ae1d" />
      <stop offset="0.791" stop-color="#cc0" />
    </linearGradient>
    <linearGradient id="linear-gradient-23" x1="146.293" y1="113.411" x2="153.235" y2="113.411"
                    gradientTransform="matrix(1, -0.021, 0.021, 1, -2.12, 3.427)" gradientUnits="userSpaceOnUse">
      <stop offset="0.166" stop-color="#87cde1" />
      <stop offset="0.828" stop-color="#0069af" />
    </linearGradient>
    <linearGradient id="linear-gradient-24" x1="159.198" y1="108.329" x2="159.198" y2="99.302"
                    gradientUnits="userSpaceOnUse">
      <stop offset="0.172" stop-color="#0069af" />
      <stop offset="0.804" stop-color="#cc0" />
    </linearGradient>
    <linearGradient id="linear-gradient-25" x1="146.625" y1="93.317" x2="156.057" y2="93.317"
                    gradientTransform="translate(232.991 -64.625) rotate(85.679)" gradientUnits="userSpaceOnUse">
      <stop offset="0.141" stop-color="#0069af" />
      <stop offset="0.81" stop-color="#cc0" />
    </linearGradient>
    <linearGradient id="linear-gradient-26" x1="143.727" y1="83.482" x2="157.707" y2="83.482"
                    gradientTransform="translate(-1.578 3.663) rotate(-1.266)" gradientUnits="userSpaceOnUse">
      <stop offset="0.184" stop-color="#0069af" />
      <stop offset="0.706" stop-color="#87cde1" />
    </linearGradient>
    <linearGradient id="linear-gradient-27" x1="140.03" y1="72.057" x2="144.486" y2="64.338"
                    gradientUnits="userSpaceOnUse">
      <stop offset="0.196" stop-color="#cc0" />
      <stop offset="0.859" stop-color="#0069af" />
    </linearGradient>
    <linearGradient id="linear-gradient-28" x1="168.228" y1="93.773" x2="167.999" y2="127.103"
                    gradientTransform="translate(-0.371 1.269) rotate(-0.395)" gradientUnits="userSpaceOnUse">
      <stop offset="0.282" stop-color="#cc0" />
      <stop offset="0.706" stop-color="#87cde1" />
    </linearGradient>
    <linearGradient id="linear-gradient-29" x1="174.519" y1="133.785" x2="182.069" y2="137.8"
                    gradientUnits="userSpaceOnUse">
      <stop offset="0.178" stop-color="#87cde1" />
      <stop offset="0.816" stop-color="#75ae1d" />
    </linearGradient>
    <linearGradient id="linear-gradient-30" x1="169.454" y1="143.616" x2="177.266" y2="143.616"
                    gradientTransform="matrix(0.186, 0.982, -0.982, 0.186, 282.087, -53.545)"
                    gradientUnits="userSpaceOnUse">
      <stop offset="0.166" stop-color="#cc0" />
      <stop offset="0.828" stop-color="#75ae1d" />
    </linearGradient>
    <linearGradient id="linear-gradient-31" x1="166.874" y1="136.615" x2="173.038" y2="130.452"
                    gradientUnits="userSpaceOnUse">
      <stop offset="0.172" stop-color="#cc0" />
      <stop offset="0.798" stop-color="#87cde1" />
    </linearGradient>
    <linearGradient id="linear-gradient-32" x1="152.01" y1="124.524" x2="169.804" y2="124.524"
                    gradientTransform="translate(263.273 -51.313) rotate(82.47)" gradientUnits="userSpaceOnUse">
      <stop offset="0.258" stop-color="#cc0" />
      <stop offset="0.318" stop-color="#c3cc1d" />
      <stop offset="0.503" stop-color="#aacc70" />
      <stop offset="0.654" stop-color="#97cdad" />
      <stop offset="0.764" stop-color="#8bcdd3" />
      <stop offset="0.822" stop-color="#87cde1" />
    </linearGradient>
    <linearGradient id="linear-gradient-33" x1="145.76" y1="117.814" x2="149.539" y2="121.593"
                    gradientUnits="userSpaceOnUse">
      <stop offset="0.178" stop-color="#87cde1" />
      <stop offset="0.816" stop-color="#cc0" />
    </linearGradient>
    <linearGradient id="linear-gradient-34" x1="138.398" y1="122.003" x2="139.673" y2="119.354"
                    gradientTransform="translate(-1.468 1.562) rotate(-0.711)" gradientUnits="userSpaceOnUse">
      <stop offset="0.215" stop-color="#75ae1d" />
      <stop offset="0.847" stop-color="#87cde1" />
    </linearGradient>
    <linearGradient id="linear-gradient-35" x1="115.513" y1="123.508" x2="133.729" y2="123.508"
                    gradientUnits="userSpaceOnUse">
      <stop offset="0.362" stop-color="#87cde1" />
      <stop offset="0.736" stop-color="#75ae1d" />
    </linearGradient>
    <linearGradient id="linear-gradient-36" x1="111.775" y1="108.061" x2="111.775" y2="117.607"
                    gradientUnits="userSpaceOnUse">
      <stop offset="0.233" stop-color="#75ae1d" />
      <stop offset="0.724" stop-color="#87cde1" />
    </linearGradient>
  </defs>
  <title>ABLE-Group_Logo_RGB_large</title>
  <g id="punkte">
    <rect width="255.118" height="272.126" style="fill:transparent" />
    <path
      d="M66.007,189.8,62.6,199.025a16.571,16.571,0,0,0-1.174,3.7c0,1.586,1.527,2.174,4.758,2.174h.94v1.116H53.552V204.9c3.819-.059,4.465-.706,6.345-5.817l10.692-29.2-.528-1.292h5.111L87.451,201.2c1.174,3.114,2.408,3.7,5.345,3.7v1.116H76.641V204.9h1.527c3.349,0,4.583-.353,4.583-2a6.531,6.531,0,0,0-.647-2.408L78.168,189.8ZM72,173.528l-4.993,13.689H77.169Z"
      style="fill:#ffffff" />
    <path
      d="M100.2,175.7c0-3.348-.411-5.111-4.523-5.111H93.622v-1.116c1.646-.058,5.7-.294,7.4-.352,3.232-.118,7.7-.177,8.813-.177,5.17,0,9.694.764,11.809,2.291a7.464,7.464,0,0,1,3.583,6.522c0,3.349-2.761,6.462-6.7,7.167v.117c5.522,1.646,8.753,5.229,8.753,9.812,0,4.641-3.231,11.162-12.69,11.162h-21.5V204.9h1.351c4.817,0,5.757-1.117,5.757-4.818Zm4.877,9.047h6.4c5.641,0,8.46-2.232,8.46-6.814,0-4.112-2.468-7.872-9.694-7.872-1.292,0-3.7.117-5.169.176Zm0,13.63c0,4.465,1.762,6.052,6.7,6.052,7.756,0,9.988-4.818,9.988-9.4,0-4.524-3.467-9.164-10.34-9.164h-6.344Z"
      style="fill:#ffffff" />
    <path
      d="M157.838,206.017H131.577V204.9h1.939c2.7,0,3.7-.881,3.7-3.877V175c0-3.113-.939-4.406-4.641-4.406h-.822v-1.116h17.331v1.116h-2.174c-3.818,0-4.818.412-4.818,4.054v27.084c0,1.586.647,2.174,2.351,2.174h8.635c3.467,0,4.524-1.352,8.225-6.464h1.058Z"
      style="fill:#ffffff" />
    <path
      d="M190.094,192.8h-1.117c-.469-4.172-1.586-4.641-3.994-4.641h-9.929v12.513c0,2.7,1,3.232,3.173,3.232h9.047c4.112,0,5.346-1.587,6.815-6.639h1.057l-.94,8.753H163.011V204.9h1.645c4.7,0,5.522-1.293,5.522-4.818V175.292c0-3.291-.764-4.7-4.7-4.7h-1.293v-1.116h28.2l.47,8.167H191.8c-.764-5-2.233-6.051-4.348-6.051h-12.4v14.451H185.57c2.114,0,3.114-1,3.407-4.406h1.117Z"
      style="fill:#ffffff" />
    <path
      d="M62.54,230.084c-1.293.184-1.557.87-1.557,2.851v.053c0,1.531.422,1.927,1.452,2.27v.528a17.543,17.543,0,0,1-6.89,1.372c-5.888,0-10.191-3.168-10.191-9.371,0-5.782,4.356-9.372,10.111-9.372a11.459,11.459,0,0,1,5.861,1.4l.317,3.643H60.93l-.344-.766c-1.055-2.376-2.481-3.379-5.517-3.379-4.25,0-6.784,3.406-6.784,8.1,0,5.861,2.56,8.843,7.5,8.843,2.059,0,2.851-.659,2.851-2.586V233.2c0-2.271-.291-2.931-1.8-3.115l-1.082-.132v-.74c.554,0,3.062.054,4.065.054s2.957-.054,3.538-.054v.766Z"
      style="fill:#ffffff" />
    <path
      d="M98.732,236.947c-2.534,0-3.748-1-5.068-2.983l-3.59-5.306h-2.3v3.907c0,2.614.29,3.221,1.8,3.406l1.082.132v.739c-.527,0-3.088-.052-4.092-.052s-3.246.052-3.828.052V236.1l.978-.132c1.266-.185,1.557-.713,1.557-3.406v-9.582c0-2.667-.317-3.222-1.557-3.38l-.978-.131v-.74c.582,0,2.825.053,3.828.053s2.957-.027,4.2-.027c3.907,0,6.415,1.69,6.415,4.594,0,2.428-1.848,4.145-4.541,4.884l3.591,5.253c1.531,2.244,2.376,2.746,4.2,2.614l.106.687A9.41,9.41,0,0,1,98.732,236.947Zm-8.342-17.4a7.864,7.864,0,0,0-2.613.369v7.947h2.164c3.169,0,4.436-1.636,4.436-4.224C94.377,220.474,92.608,219.55,90.39,219.55Z"
      style="fill:#ffffff" />
    <path
      d="M127.691,237.158c-5.2,0-9-3.537-9-9.371a8.938,8.938,0,0,1,9-9.372c5.2,0,9,3.538,9,9.372A8.938,8.938,0,0,1,127.691,237.158Zm-.4-17.845c-3.59,0-5.676,2.877-5.676,7.708,0,5.413,2.244,9.239,6.467,9.239,3.591,0,5.677-2.876,5.677-7.708C133.763,223.141,131.519,219.313,127.3,219.313Z"
      style="fill:#ffffff" />
    <path
      d="M175.128,219.6c-1.266.185-1.556.687-1.556,3.406v7.55c0,3.96-2.693,6.547-7.445,6.547-4.831,0-7.524-2.323-7.524-6.283v-7.84c0-2.614-.291-3.222-1.558-3.38l-.976-.131v-.74c.58,0,2.8.053,3.8.053s3.564-.053,4.119-.053v.74l-1.083.131c-1.5.212-1.8.819-1.8,3.38v7.259c0,3.748,2.006,5.517,5.439,5.517,3.272,0,5.622-1.662,5.622-4.777v-8c0-2.561-.291-3.195-1.795-3.38l-1.082-.131v-.74c.527,0,2.507.053,3.511.053s2.719-.053,3.3-.053v.74Z"
      style="fill:#ffffff" />
    <path
      d="M202.794,229.5l-.132-.686c2.957-.448,4.3-1.716,4.3-4.7,0-3.274-2.059-4.568-4.382-4.568a5.974,5.974,0,0,0-2.217.317v12.7c0,2.587.316,3.248,1.795,3.406l1.214.132v.739c-.527,0-3.22-.052-4.225-.052s-3.246.052-3.826.052V236.1l.977-.132c1.266-.185,1.556-.713,1.556-3.406v-9.582c0-2.667-.316-3.222-1.556-3.38l-.977-.131v-.74c.58,0,2.824.053,3.826.053s2.561-.027,3.8-.027c4.039,0,6.812,1.769,6.812,5.2C209.764,227.471,206.806,229.159,202.794,229.5Z"
      style="fill:#ffffff" />
    <polygon points="161.223 94.506 139.017 76.63 139.688 75.795 161.894 93.672 161.223 94.506 161.223 94.506"
             style="fill:#cc0" />
    <polygon points="115.762 122.38 115.505 121.34 142.218 114.732 142.475 115.772 115.762 122.38 115.762 122.38"
             style="fill:#87cde1" />
    <polygon points="87.375 135.116 86.306 135.045 87.503 116.934 88.572 117.005 87.375 135.116 87.375 135.116"
             style="fill:url(#linear-gradient)" />
    <polygon points="88.528 117.187 87.547 116.754 104.621 78.093 105.602 78.526 88.528 117.187 88.528 117.187"
             style="fill:url(#linear-gradient-2)" />
    <polygon points="163.348 142.654 151.625 123.64 152.537 123.077 164.261 142.091 163.348 142.654 163.348 142.654"
             style="fill:#cc0" />
    <polygon points="139.385 76.747 139.318 75.678 157.676 74.527 157.743 75.596 139.385 76.747 139.385 76.747"
             style="fill:url(#linear-gradient-3)" />
    <polygon points="129.373 45.86 125.255 40.37 126.111 39.725 130.229 45.216 129.373 45.86"
             style="fill:url(#linear-gradient-4)" />
    <polygon points="117.422 48.347 116.576 47.688 122.578 39.945 123.424 40.604 117.422 48.347"
             style="fill:url(#linear-gradient-5)" />
    <polygon points="143.082 40.016 126.429 39.036 126.49 37.967 143.145 38.946 143.082 40.016 143.082 40.016"
             style="fill:url(#linear-gradient-6)" />
    <polygon points="134.787 46.647 134.212 45.743 141.151 41.24 141.726 42.144 134.787 46.647"
             style="fill:url(#linear-gradient-7)" />
    <polygon points="141.726 57.734 133.537 50.364 134.252 49.567 142.442 56.936 141.726 57.734"
             style="fill:url(#linear-gradient-8)" />
    <polygon points="154.235 72.482 147.008 63.308 147.831 62.619 155.058 71.794 154.235 72.482"
             style="fill:url(#linear-gradient-9)" />
    <polygon points="145.124 60.657 121.814 57.66 121.952 56.597 145.26 59.594 145.124 60.657 145.124 60.657"
             style="fill:url(#linear-gradient-10)" />
    <polygon points="115.221 50.921 115.068 49.86 131.627 47.487 131.779 48.548 115.221 50.921 115.221 50.921"
             style="fill:#cc0" />
    <polygon points="115.658 71.843 114.61 50.417 115.679 50.364 116.727 71.79 115.658 71.843 115.658 71.843"
             style="fill:#cc0" />
    <polygon points="116.691 72.01 115.693 71.623 121.382 56.936 122.383 57.323 116.691 72.01 116.691 72.01"
             style="fill:url(#linear-gradient-11)" />
    <rect x="108.865" y="74.372" width="4.043" height="1.072" transform="translate(-22.656 66.343) rotate(-30.371)"
          style="fill:url(#linear-gradient-12)" />
    <polygon points="115.516 94.119 114.446 94.061 115.901 71.788 116.97 71.847 115.516 94.119 115.516 94.119"
             style="fill:url(#linear-gradient-13)" />
    <polygon points="115.65 94.743 114.639 94.383 131.198 47.839 132.208 48.199 115.65 94.743 115.65 94.743"
             style="fill:url(#linear-gradient-14)" />
    <rect x="109.083" y="80.716" width="1.07" height="9.852" transform="translate(-28.671 70.578) rotate(-31.783)"
          style="fill:url(#linear-gradient-15)" />
    <polygon points="108.475 106.361 104.581 78.383 105.642 78.235 109.536 106.212 108.475 106.361 108.475 106.361"
             style="fill:#75ae1d" />
    <polygon points="102.303 122.085 101.33 121.635 108.519 106.062 109.492 106.512 102.303 122.085 102.303 122.085"
             style="fill:url(#linear-gradient-16)" />
    <polygon points="101.637 122.365 87.859 117.475 88.216 116.465 101.995 121.355 101.637 122.365 101.637 122.365"
             style="fill:url(#linear-gradient-17)" />
    <polygon points="88.281 117.446 87.794 116.492 107.473 106.361 107.958 107.315 88.281 117.446 88.281 117.446"
             style="fill:url(#linear-gradient-18)" />
    <polygon points="89.591 133.669 88.882 132.865 101.461 121.457 102.171 122.261 89.591 133.669"
             style="fill:url(#linear-gradient-19)" />
    <polygon points="78.559 148.53 77.945 147.653 115.325 121.422 115.941 122.298 78.559 148.53 78.559 148.53"
             style="fill:url(#linear-gradient-20)" />
    <polygon points="78.574 148.278 78.53 147.209 99.846 146.33 99.891 147.399 78.574 148.278 78.574 148.278"
             style="fill:url(#linear-gradient-21)" />
    <polygon points="100.402 146.907 99.335 146.824 101.281 121.817 102.351 121.901 100.402 146.907 100.402 146.907"
             style="fill:url(#linear-gradient-22)" />
    <polygon points="146.8 114.875 146.574 113.827 153.282 112.346 153.508 113.394 146.8 114.875"
             style="fill:url(#linear-gradient-23)" />
    <polygon points="158.661 108.329 157.621 108.074 159.735 99.302 160.775 99.558 158.661 108.329"
             style="fill:url(#linear-gradient-24)" />
    <rect x="150.805" y="88.628" width="1.072" height="9.377" transform="translate(46.887 237.198) rotate(-85.679)"
          style="fill:url(#linear-gradient-25)" />
    <polygon points="145.031 93.126 144.154 92.51 156.876 74.469 157.752 75.085 145.031 93.126 145.031 93.126"
             style="fill:url(#linear-gradient-26)" />
    <polygon points="141.241 72.541 140.232 72.174 143.276 63.854 144.282 64.22 141.241 72.541"
             style="fill:url(#linear-gradient-27)" />
    <polygon points="174.959 127.213 161.065 94.298 162.052 93.881 175.945 126.796 174.959 127.213 174.959 127.213"
             style="fill:url(#linear-gradient-28)" />
    <polygon points="179.46 141.114 176.106 130.8 177.127 130.471 180.482 140.785 179.46 141.114"
             style="fill:url(#linear-gradient-29)" />
    <rect x="172.787" y="139.683" width="1.071" height="7.747" transform="translate(1.928 289.41) rotate(-80.031)"
          style="fill:url(#linear-gradient-30)" />
    <polygon points="167.82 137.291 166.939 136.68 172.092 129.776 172.973 130.387 167.82 137.291"
             style="fill:url(#linear-gradient-31)" />
    <rect x="160.371" y="115.62" width="1.072" height="17.808" transform="translate(16.372 267.726) rotate(-82.47)"
          style="fill:url(#linear-gradient-32)" />
    <polygon points="149.326 121.806 145.288 118.424 145.973 117.602 150.012 120.984 149.326 121.806"
             style="fill:url(#linear-gradient-33)" />
    <polygon points="138.754 121.988 137.848 121.417 139.346 119.02 140.253 119.59 138.754 121.988"
             style="fill:url(#linear-gradient-34)" />
    <polygon points="133.489 125.677 115.513 122.382 115.754 121.338 133.729 124.633 133.489 125.677"
             style="fill:url(#linear-gradient-35)" />
    <polygon points="156.769 112.611 144.143 93.108 145.043 92.525 157.667 112.028 156.769 112.611 156.769 112.611"
             style="fill:#0069af" />
    <polygon points="109.341 108.482 110.327 108.061 114.208 117.187 113.222 117.607 109.341 108.482"
             style="fill:url(#linear-gradient-36)" />
    <path d="M121.033,38.413a3.445,3.445,0,1,1,3.445,3.445A3.445,3.445,0,0,1,121.033,38.413Z" style="fill:#75ae1d" />
    <path d="M140.1,39.544a4.494,4.494,0,1,1,4.494,4.493A4.493,4.493,0,0,1,140.1,39.544Z" style="fill:#87cde1" />
    <path d="M127.971,48.018a3.894,3.894,0,1,1,3.894,3.894A3.894,3.894,0,0,1,127.971,48.018Z" style="fill:#cc0" />
    <circle cx="115.144" cy="50.392" r="3.744" style="fill:#cc0" />
    <path d="M118.888,57.13a2.995,2.995,0,1,1,2.995,2.994A2.995,2.995,0,0,1,118.888,57.13Z" style="fill:#87cde1" />
    <path d="M140.1,60.124a5.092,5.092,0,1,1,5.091,5.092A5.092,5.092,0,0,1,140.1,60.124Z" style="fill:#0069af" />
    <path d="M152.86,75.063a4.193,4.193,0,1,1,4.193,4.193A4.193,4.193,0,0,1,152.86,75.063Z" style="fill:#87cde1" />
    <circle cx="144.594" cy="92.818" r="3.144" style="fill:#0069af" />
    <circle cx="152.08" cy="123.357" r="3.744" style="fill:#cc0" />
    <circle cx="157.054" cy="112.066" r="4.642" style="fill:#0069af" />
    <circle cx="175.225" cy="126.37" r="5.99" style="fill:#87cde1" />
    <path d="M157.055,141.846a6.751,6.751,0,1,1,6.751,6.751A6.753,6.753,0,0,1,157.055,141.846Z" style="fill:#cc0" />
    <path d="M176.421,145.006a4.943,4.943,0,1,1,4.943,4.943A4.944,4.944,0,0,1,176.421,145.006Z" style="fill:#75ae1d" />
    <path d="M137.255,115.252a5.092,5.092,0,1,1,5.092,5.092A5.092,5.092,0,0,1,137.255,115.252Z" style="fill:#87cde1" />
    <path d="M109.494,121.86A6.139,6.139,0,1,1,115.633,128,6.139,6.139,0,0,1,109.494,121.86Z" style="fill:#87cde1" />
    <path d="M95.377,146.866a4.492,4.492,0,1,1,4.492,4.493A4.494,4.494,0,0,1,95.377,146.866Z" style="fill:#75ae1d" />
    <path d="M74.262,147.836a4.341,4.341,0,1,1,4.341,4.342A4.342,4.342,0,0,1,74.262,147.836Z" style="fill:#cc0" />
    <path d="M82.946,135.079a3.894,3.894,0,1,1,3.894,3.9A3.9,3.9,0,0,1,82.946,135.079Z" style="fill:#0069af" />
    <path d="M98.522,121.86a3.294,3.294,0,1,1,3.294,3.3A3.3,3.3,0,0,1,98.522,121.86Z" style="fill:#cc0" />
    <path d="M84.3,116.97a3.744,3.744,0,1,1,3.744,3.745A3.746,3.746,0,0,1,84.3,116.97Z" style="fill:#87cde1" />
    <path d="M105.112,106.287a3.893,3.893,0,1,1,3.893,3.894A3.895,3.895,0,0,1,105.112,106.287Z" style="fill:#75ae1d" />
    <path d="M109.341,94.089a5.541,5.541,0,1,1,5.541,5.543A5.543,5.543,0,0,1,109.341,94.089Z" style="fill:#87cde1" />
    <path d="M99.869,78.308a5.242,5.242,0,1,1,5.241,5.244A5.243,5.243,0,0,1,99.869,78.308Z" style="fill:#75ae1d" />
    <path d="M111.476,71.842a4.988,4.988,0,1,1,4.987,4.989A4.988,4.988,0,0,1,111.476,71.842Z" style="fill:#cc0" />
    <path d="M130.666,125.6a5.092,5.092,0,1,1,5.092,5.092A5.093,5.093,0,0,1,130.666,125.6Z" style="fill:#75ae1d" />
    <path d="M134.11,76.214a5.242,5.242,0,1,1,5.242,5.241A5.243,5.243,0,0,1,134.11,76.214Z" style="fill:#cc0" />
    <circle cx="161.557" cy="94.09" r="6.66" style="fill:#cc0" />
  </g>
</svg>
