<?xml version="1.0" encoding="utf-8"?>
<!-- Generator: Adobe Illustrator 22.1.0, SVG Export Plug-In . SVG Version: 6.00 Build 0)  -->
<svg version="1.1" id="Ebene_1" xmlns="http://www.w3.org/2000/svg" xmlns:xlink="http://www.w3.org/1999/xlink" x="0px" y="0px"
	 viewBox="0 0 538.6 170.1" style="enable-background:new 0 0 538.6 170.1;" xml:space="preserve">
<style type="text/css">
	.st0{fill:#010000;}
</style>
<path class="st0" d="M48,49.3l-9.7,1c-8.8,0.9-12.7,3.3-12.7,8.1c0,4.4,3.5,7.5,9,7.5C41.4,66,48,62.1,48,52.5V49.3z M15.3,38.1
	c0.7-10.2,9-16.8,22.5-16.8c14.9,0,21.3,5.3,21.3,19.7c0,3.3-0.2,11.9-0.2,14.8c0,6.6,0.3,11.9,1,18.1H49l-0.3-6.2
	c-3.3,4.8-8.3,7.4-16.6,7.4c-11.8,0-18.5-8-18.5-16.7c0-5,2.3-8.8,5.7-11.1c4.6-3.1,10.9-4.4,18.7-5.3l9.6-1v-1.8
	c0-7-4.2-9.1-10.4-9.1c-6.6,0-10.6,3-11.1,8.5L15.3,38.1z M212.2,106c-1.2-5-5.8-8.1-12.2-8.1c-5.2,0-9.6,1.9-9.6,5.3
	c0,3.2,3.1,5,8,6.1l6.1,1.3c10.5,2.3,19.4,5.2,19.4,15.3c0,10.9-10.3,16.8-22.4,16.8c-13.5,0-22.2-7.6-23.2-17l11.3-1.7
	c0.9,5.5,4.9,9.8,12.4,9.8c6.4,0,10.6-2.3,10.6-6.5c0-4.2-4.5-5.6-9.8-6.8l-6.8-1.5c-9-1.9-16.3-5.6-16.3-15.2
	c0-9.2,9.7-14.9,21.5-14.9c10.8,0,20.3,5.3,22.3,15.4L212.2,106z M255.1,133.4c7.9,0,13.2-5.9,13.2-17.5s-5.3-17.5-13.2-17.5
	c-7.7,0-13.2,5.9-13.2,17.5S247.4,133.4,255.1,133.4 M255.1,89.2c13.2,0,25.1,8.4,25.1,26.8c0,18.4-11.9,26.8-25.1,26.8
	c-13.2,0-25.1-8.4-25.1-26.8C230,97.5,241.9,89.2,255.1,89.2 M289.8,72h11.6v69.5h-11.6V72z M346.1,135.1c-3,4.6-8.2,7.6-15.5,7.6
	c-6.3,0-10.7-2.1-13.7-5.9c-2.5-3.2-3.8-8-3.8-14.8V90.2h11.6v29.3c0,4.5,0.3,7.6,1.7,9.8c1.6,2.5,4.1,3.8,8.1,3.8
	c8.6,0,11.6-7,11.6-16.3V90.2h11.6v51.3h-11.6V135.1z M373.3,75.4h11.6v14.9h10.5v8.9h-10.5v26.6c0,5.3,1.3,6.6,6.2,6.6h4.2v9.2
	h-8.5c-11.2,0-13.5-3-13.5-13.7V99.1h-7.7v-8.9h7.7V75.4z M435.2,106c-1.2-5-5.8-8.1-12.2-8.1c-5.2,0-9.6,1.9-9.6,5.3
	c0,3.2,3.1,5,8,6.1l6.1,1.3c10.5,2.3,19.4,5.2,19.4,15.3c0,10.9-10.3,16.8-22.4,16.8c-13.5,0-22.2-7.6-23.2-17l11.3-1.7
	c0.9,5.5,4.9,9.8,12.4,9.8c6.4,0,10.6-2.3,10.6-6.5c0-4.2-4.5-5.6-9.8-6.8l-6.8-1.5c-9-1.9-16.3-5.6-16.3-15.2
	c0-9.2,9.7-14.9,21.5-14.9c10.8,0,20.3,5.3,22.3,15.4L435.2,106z M487.5,79.3l-27.4,69.5H449l27.4-69.5H487.5z M129,137.9h41.5v10.5
	H129V137.9z M512.1,79.3v10.8l10.2-3.9l2.8,7.2L514.7,97l6.2,8.7l-6,4.6l-6.7-9l-6.1,9l-6.6-4.5l6.3-8.7l-10.3-3.7l2.7-7.2l10,3.9
	V79.3H512.1z M187.4,61.9h13.2v13.2h-13.2V61.9z M187.4,23.8h13.2V37h-13.2V23.8z M82,48.4c0,11.3,5.3,17.4,13.1,17.4
	c8.1,0,12.4-6.9,12.4-17.5c0-10.6-4.3-17.5-12.4-17.5C87.5,30.9,82,36.9,82,48.4 M82.5,91.9H70.9V22.6h11.2l0.1,6.3
	c3.3-4.8,8.4-7.3,15.3-7.3c12.8,0,22,10,22,26.9c0,16.4-9.7,26.7-22.8,26.7c-6.7,0-11.3-2.8-14.1-6.5V91.9z M140.1,48.4
	c0,11.3,5.3,17.4,13.1,17.4c8.1,0,12.4-6.9,12.4-17.5c0-10.6-4.3-17.5-12.4-17.5C145.5,30.9,140.1,36.9,140.1,48.4 M140.6,91.9H129
	V22.6h11.2l0.1,6.3c3.3-4.8,8.4-7.3,15.3-7.3c12.8,0,22,10,22,26.9c0,16.4-9.7,26.7-22.8,26.7c-6.7,0-11.3-2.8-14.1-6.5V91.9z"/>
</svg>
