<?xml version="1.0" encoding="UTF-8"?>
<svg version="1.1" xmlns="http://www.w3.org/2000/svg" width="1181" height="796">
<path d="M0 0 C1.74796875 0.49306641 1.74796875 0.49306641 3.53125 0.99609375 C25.30281597 7.95625145 42.36636576 24.17578251 52.82299805 44.24145508 C58.8821965 56.43631298 62.74307796 69.59298627 65 83 C65.20496094 84.20785156 65.40992188 85.41570312 65.62109375 86.66015625 C71.05005887 122.61970456 66.55646994 163.94114162 45.0546875 194.26953125 C44.03761719 195.62111328 44.03761719 195.62111328 43 197 C42.30132812 197.93199219 41.60265625 198.86398437 40.8828125 199.82421875 C25.3643936 219.62262863 4.65512946 232.05014858 -20.0625 236.55859375 C-45.83254867 239.44749802 -68.14016632 235.65296047 -89 220 C-89.33 219.67 -89.66 219.34 -90 219 C-90.33 247.71 -90.66 276.42 -91 306 C-85.06 306.33 -79.12 306.66 -73 307 C-69.40891234 307.45778066 -65.92404788 307.93024599 -62.375 308.5625 C-58.229375 309.2740625 -58.229375 309.2740625 -54 310 C-54 319.24 -54 328.48 -54 338 C-91.95 338 -129.9 338 -169 338 C-169 328.76 -169 319.52 -169 310 C-156.35108356 307.49202519 -145.11276957 306.65563848 -132 306 C-132 215.91 -132 125.82 -132 33 C-139.92 32.67 -147.84 32.34 -156 32 C-160.29 31.67 -164.58 31.34 -169 31 C-169 21.76 -169 12.52 -169 3 C-164.3903125 2.5359375 -164.3903125 2.5359375 -159.6875 2.0625 C-158.76412842 1.96718994 -157.84075684 1.87187988 -156.8894043 1.77368164 C-140.71092027 0.19225304 -124.5565158 -0.14360531 -108.3125 -0.0625 C-106.52018357 -0.05746403 -104.72786574 -0.05290491 -102.93554688 -0.04882812 C-98.62363267 -0.03887908 -94.31192193 -0.01927834 -90 0 C-90.33 8.58 -90.66 17.16 -91 26 C-89.47375 24.370625 -87.9475 22.74125 -86.375 21.0625 C-64.01075358 -1.75372101 -30.35307918 -8.59771853 0 0 Z M-84 51 C-84.57965075 51.51457197 -85.15930149 52.02914394 -85.75651741 52.55930901 C-90.68723654 57.4155908 -91.82140324 61.07263528 -91.94869995 67.92483521 C-91.93453033 69.06483978 -91.92036072 70.20484436 -91.90576172 71.37939453 C-91.91802795 72.59987488 -91.93029419 73.82035522 -91.94293213 75.07781982 C-91.96836129 78.40517136 -91.96255461 81.72945225 -91.94027853 85.05662775 C-91.922469 88.54787261 -91.93901524 92.03899253 -91.94998169 95.53024292 C-91.9626887 101.38937763 -91.94600576 107.24789307 -91.91259766 113.10693359 C-91.87446966 119.87167226 -91.88687306 126.63493509 -91.92538249 133.3996383 C-91.95718789 139.22078011 -91.96161335 145.04147871 -91.94331181 150.86267936 C-91.93242403 154.3338508 -91.93087174 157.80432916 -91.95406723 161.27545547 C-91.97811709 165.14401543 -91.94475302 169.01093207 -91.90576172 172.87939453 C-91.91993134 174.02344757 -91.93410095 175.16750061 -91.94869995 176.34622192 C-91.93590219 182.05422738 -91.93590219 182.05422738 -89.47638321 187.01751328 C-87.71922685 188.55419488 -85.99878159 189.80071289 -84 191 C-83.10796875 191.58007812 -82.2159375 192.16015625 -81.296875 192.7578125 C-63.39423642 202.36812462 -43.09480623 206.42804284 -23.12890625 201.10546875 C-4.84008539 194.64387536 6.16493192 182.11102105 14.3984375 164.9296875 C27.07001918 135.35254654 26.62726749 96.90584316 15.22998047 66.97802734 C9.47115018 53.21120986 0.41114577 41.41754693 -13.53515625 35.5 C-39.27311864 25.97343558 -64.21150313 32.18037612 -84 51 Z " fill="#FFFFFF" transform="translate(169,458)"/>
<path d="M0 0 C0 27.39 0 54.78 0 83 C18.81 83 37.62 83 57 83 C57 92.57 57 102.14 57 112 C48.05274371 113.26612117 39.21499809 114.20853142 30.1875 114.625 C29.3610498 114.66488037 28.53459961 114.70476074 27.68310547 114.74584961 C21.49392094 114.99967769 15.31156774 115.01828579 9.1184082 115.00927734 C8.23974342 115.00860764 7.36107864 115.00793793 6.45578766 115.00724792 C4.30385778 115.00551091 2.15192869 115.00284906 0 115 C0.03723409 133.84617904 0.09719374 152.69215673 0.18390274 171.53817463 C0.2236423 180.28953149 0.25606054 189.04079908 0.27099609 197.79223633 C0.28403904 205.42366515 0.31107083 213.05489715 0.35461307 220.6862151 C0.37716873 224.72365616 0.39291424 228.76085499 0.39188385 232.79836464 C0.39113372 236.60620221 0.40922431 240.41350555 0.44116783 244.22120476 C0.44961871 245.61142155 0.4514498 247.00169861 0.44580269 248.39192963 C0.41117438 258.23542215 1.6614076 266.39593419 6.75 274.9375 C13.42265844 281.05410357 20.9471063 282.31747137 29.71484375 282.2109375 C38.74684687 281.63099913 46.09168724 278.81060369 53.8203125 274.20703125 C56 273 56 273 58 273 C59.72130684 276.60551218 61.42983327 280.2167776 63.12695312 283.83374023 C63.70553606 285.06225819 64.28753066 286.2891756 64.87304688 287.5144043 C65.71608305 289.28004894 66.54569896 291.0520814 67.375 292.82421875 C67.87773438 293.88729248 68.38046875 294.95036621 68.8984375 296.0456543 C69.99024092 298.97382654 70.34031689 300.91215493 70 304 C61.62924117 313.35861236 42.05118898 316.41274469 30.15527344 317.18457031 C10.79884497 318.03198561 -7.89746468 316.84748933 -23.25 303.75 C-34.50115962 293.06227873 -40.36864033 279.01205967 -41.18027115 263.57021523 C-41.24480678 259.64531376 -41.24798914 255.72320743 -41.22705078 251.7980957 C-41.22648544 250.29895536 -41.22680563 248.79981446 -41.22793579 247.30067444 C-41.22850549 243.26421493 -41.21681371 239.22787626 -41.20278788 235.19144464 C-41.1902162 230.96074058 -41.18910497 226.73003321 -41.18673706 222.49931335 C-41.1805411 214.50272779 -41.16415599 206.50619744 -41.14403808 198.5096361 C-41.12162018 189.39952585 -41.11067088 180.28941284 -41.10064721 171.17928183 C-41.07978793 152.45282335 -41.0446489 133.72641613 -41 115 C-45.17791923 114.85788783 -49.35590239 114.71786974 -53.53395081 114.57962036 C-54.94910989 114.53251879 -56.36425151 114.48488884 -57.77937317 114.43667603 C-66.83197258 114.12869209 -75.87894992 113.90843373 -84.9375 113.875 C-85.88170807 113.87098175 -86.82591614 113.8669635 -87.79873657 113.86282349 C-89.53268183 113.86587639 -91.26675778 113.90392449 -92.99951172 113.96826172 C-96 114 -96 114 -99.61376953 113.62939453 C-107.90925916 113.22666106 -112.45724706 114.64763499 -118.67784119 120.28982544 C-122.58044126 124.12045527 -126.301076 128.0987446 -130 132.125 C-131.5419006 133.75088635 -133.08745307 135.3733176 -134.63671875 136.9921875 C-136.82746765 139.28151776 -139.01217372 141.57374647 -141.16772461 143.89627075 C-144.94895263 147.96024527 -148.85056856 151.70142877 -153.06665039 155.31103516 C-156.15151152 158.00595488 -159.0240166 160.90031577 -161.90625 163.80859375 C-162.51641968 164.42017838 -163.12658936 165.031763 -163.75524902 165.66188049 C-165.67256165 167.58471802 -167.58633702 169.51103094 -169.5 171.4375 C-170.81226585 172.75479059 -172.12476395 174.07184986 -173.4375 175.38867188 C-176.62768506 178.5897861 -179.81470651 181.79401865 -183 185 C-181.72485338 187.76981025 -180.38093254 189.89611337 -178.296875 192.1171875 C-177.73935547 192.71337891 -177.18183594 193.30957031 -176.60742188 193.92382812 C-175.99447266 194.56771484 -175.38152344 195.21160156 -174.75 195.875 C-174.10611328 196.55755859 -173.46222656 197.24011719 -172.79882812 197.94335938 C-165.90305353 205.19902529 -158.80227731 212.25356741 -151.67871094 219.28466797 C-147.88356763 223.04356937 -144.12052583 226.77514105 -140.65625 230.84375 C-135.46793231 236.9018919 -129.66902226 242.39748582 -124 248 C-106.6002992 265.19557023 -106.6002992 265.19557023 -102.04296875 271.86328125 C-97.84902297 277.39928968 -94.51974944 279.15186646 -87.75 280.265625 C-82.11343244 280.98226136 -76.46783936 281.44741421 -70.7956543 281.76977539 C-68 282 -68 282 -63 283 C-63 292.24 -63 301.48 -63 311 C-97.98 311 -132.96 311 -169 311 C-169 301.76 -169 292.52 -169 283 C-158.605 281.515 -158.605 281.515 -148 280 C-147.78447906 277.95164237 -147.78447906 277.95164237 -149.17407227 276.61474609 C-149.98702759 275.82704834 -149.98702759 275.82704834 -150.81640625 275.0234375 C-151.41646484 274.43433594 -152.01652344 273.84523438 -152.63476562 273.23828125 C-153.58899414 272.31595703 -153.58899414 272.31595703 -154.5625 271.375 C-158.33898842 267.70641125 -162.02800962 264.03129527 -165.46484375 260.0390625 C-169.1073121 255.81177306 -173.01812236 251.90559645 -177 248 C-181.60802955 243.48024688 -186.01017797 238.89067773 -190.22265625 234 C-193.32386585 230.51028722 -196.66834132 227.2678338 -200 224 C-203.9622084 220.11369597 -207.85636444 216.22967604 -211.4765625 212.01953125 C-215.87995159 206.90474852 -220.7267266 202.257883 -225.56640625 197.56054688 C-226.25347656 196.88443359 -226.94054687 196.20832031 -227.6484375 195.51171875 C-228.26895996 194.90803467 -228.88948242 194.30435059 -229.52880859 193.68237305 C-231 192 -231 192 -232 189 C-231.49138428 188.49662109 -230.98276855 187.99324219 -230.45874023 187.47460938 C-228.11559272 185.15248022 -225.77653398 182.8262723 -223.4375 180.5 C-222.63763672 179.70851563 -221.83777344 178.91703125 -221.01367188 178.1015625 C-220.22412109 177.31523438 -219.43457031 176.52890625 -218.62109375 175.71875 C-217.9036499 175.00654297 -217.18620605 174.29433594 -216.44702148 173.56054688 C-214.51702632 171.54101287 -212.69650395 169.4972124 -210.88061523 167.37841797 C-206.72704313 162.6000245 -202.26606414 158.15214801 -197.77144241 153.69627762 C-196.25593044 152.19371351 -194.74372675 150.68788583 -193.23226929 149.1812439 C-190.03268041 145.99297458 -186.82912311 142.80871163 -183.625 139.625 C-179.88840107 135.9120346 -176.15346369 132.19742776 -172.4226799 128.47861862 C-170.93287534 126.99529352 -169.44009415 125.515009 -167.94717407 124.03482056 C-167.04888885 123.13983856 -166.15060364 122.24485657 -165.22509766 121.32275391 C-164.43124664 120.53413971 -163.63739563 119.74552551 -162.81948853 118.93301392 C-160.94243089 117.12435805 -160.94243089 117.12435805 -160 115 C-163.31026609 114.02700338 -166.41709908 113.80653218 -169.859375 113.68359375 C-170.86452148 113.64548584 -171.86966797 113.60737793 -172.90527344 113.56811523 C-174.80841309 113.50346069 -174.80841309 113.50346069 -176.75 113.4375 C-180.7925 113.293125 -184.835 113.14875 -189 113 C-189 103.1 -189 93.2 -189 83 C-140.16 83 -91.32 83 -41 83 C-41 60.23 -41 37.46 -41 14 C-34.956875 11.875625 -28.91375 9.75125 -22.6875 7.5625 C-20.78315186 6.8929126 -18.87880371 6.2233252 -16.91674805 5.53344727 C-15.40674501 5.00274778 -13.89673567 4.47206622 -12.38671875 3.94140625 C-11.60317017 3.66582886 -10.81962158 3.39025146 -10.0123291 3.10632324 C-1.17147418 0 -1.17147418 0 0 0 Z " fill="#FFFFFF" transform="translate(1111,378)"/>
<path d="M0 0 C13.36256962 11.16956115 18.95315087 27.48063175 21.66186523 44.20996094 C22.03455347 49.18369408 22.04363245 54.12407378 22.00244141 59.10986328 C22.00159249 60.54048138 22.00207541 61.97110079 22.00376892 63.40171814 C22.00462001 67.23766197 21.98714038 71.07331701 21.96604705 74.90919447 C21.94713009 78.93567357 21.9455181 82.96216129 21.94197083 86.98867798 C21.93269403 94.59208288 21.90814024 102.1953564 21.87792236 109.79870379 C21.84424134 118.46389938 21.8278581 127.12910168 21.81283605 135.79434657 C21.7815861 153.59962549 21.7289118 171.4047826 21.66186523 189.20996094 C22.74798096 189.20234741 23.83409668 189.19473389 24.953125 189.18688965 C26.39900642 189.18073072 27.84488864 189.17475922 29.29077148 189.16894531 C30.00414673 189.16344666 30.71752197 189.157948 31.45251465 189.15228271 C37.29655833 189.13469531 42.90391199 189.70624312 48.66186523 190.70996094 C53.11686523 191.45246094 53.11686523 191.45246094 57.66186523 192.20996094 C57.66186523 201.44996094 57.66186523 210.68996094 57.66186523 220.20996094 C20.37186523 220.20996094 -16.91813477 220.20996094 -55.33813477 220.20996094 C-55.33813477 210.96996094 -55.33813477 201.72996094 -55.33813477 192.20996094 C-52.36813477 191.71496094 -49.39813477 191.21996094 -46.33813477 190.70996094 C-44.99041992 190.4750293 -44.99041992 190.4750293 -43.61547852 190.23535156 C-38.03120762 189.35436058 -32.60533135 189.12548568 -26.96704102 189.16894531 C-25.86253601 189.17338654 -25.86253601 189.17338654 -24.73571777 189.17791748 C-22.93650806 189.18558146 -21.1373166 189.19734891 -19.33813477 189.20996094 C-19.37544749 172.01471982 -19.43552083 154.81972467 -19.52203751 137.62466431 C-19.56169707 129.6390961 -19.59415551 121.65362456 -19.60913086 113.66796875 C-19.62221574 106.7004653 -19.64935243 99.73317575 -19.69274783 92.76579285 C-19.71521058 89.08309783 -19.73105471 85.4006651 -19.73001862 81.71789551 C-18.8342523 53.48432623 -18.8342523 53.48432623 -31.33813477 29.20996094 C-39.44936464 22.12981961 -50.23686675 20.5856761 -60.67016602 20.87011719 C-83.77629307 23.01094046 -101.00922366 36.81274647 -116.33813477 53.20996094 C-117.03658508 53.82840378 -117.7350354 54.44684662 -118.45465088 55.08403015 C-121.45777364 60.06817361 -120.90783385 65.09232383 -120.8840332 70.80297852 C-120.89953972 72.72065033 -120.89953972 72.72065033 -120.9153595 74.67706299 C-120.94319389 78.17467561 -120.94662478 81.67193444 -120.94563961 85.16964173 C-120.94877096 88.82791181 -120.97439374 92.48602307 -120.99761963 96.14421082 C-121.03816631 103.06786381 -121.05851715 109.99142266 -121.07159352 116.91517609 C-121.08746813 124.79914421 -121.12588564 132.68295221 -121.16618681 140.56682742 C-121.24856747 156.7811592 -121.30267095 172.99545722 -121.33813477 189.20996094 C-120.25201904 189.20234741 -119.16590332 189.19473389 -118.046875 189.18688965 C-116.60099358 189.18073072 -115.15511136 189.17475922 -113.70922852 189.16894531 C-112.99585327 189.16344666 -112.28247803 189.157948 -111.54748535 189.15228271 C-105.70344167 189.13469531 -100.09608801 189.70624312 -94.33813477 190.70996094 C-89.88313477 191.45246094 -89.88313477 191.45246094 -85.33813477 192.20996094 C-85.33813477 201.44996094 -85.33813477 210.68996094 -85.33813477 220.20996094 C-122.95813477 220.20996094 -160.57813477 220.20996094 -199.33813477 220.20996094 C-199.33813477 210.96996094 -199.33813477 201.72996094 -199.33813477 192.20996094 C-196.20313477 191.71496094 -193.06813477 191.21996094 -189.83813477 190.70996094 C-188.88745117 190.55333984 -187.93676758 190.39671875 -186.95727539 190.23535156 C-178.49979047 188.96773487 -171.20598029 189.20996094 -162.33813477 189.20996094 C-162.33813477 134.09996094 -162.33813477 78.98996094 -162.33813477 22.20996094 C-180.65313477 21.21996094 -180.65313477 21.21996094 -199.33813477 20.20996094 C-199.33813477 10.96996094 -199.33813477 1.72996094 -199.33813477 -7.79003906 C-194.72844727 -8.25410156 -194.72844727 -8.25410156 -190.02563477 -8.72753906 C-189.10226318 -8.82284912 -188.1788916 -8.91815918 -187.22753906 -9.01635742 C-171.04905503 -10.59778603 -154.89465057 -10.93364437 -138.65063477 -10.85253906 C-136.85831834 -10.8475031 -135.06600051 -10.84294398 -133.27368164 -10.83886719 C-128.96179674 -10.82805268 -124.64998223 -10.81090957 -120.33813477 -10.79003906 C-120.28554142 -2.12309319 -120.33970472 6.49229055 -120.83813477 15.14746094 C-120.88583008 16.03369141 -120.93352539 16.91992188 -120.98266602 17.83300781 C-121.09757669 19.95885533 -121.2172931 22.08444231 -121.33813477 24.20996094 C-120.80446289 23.5203125 -120.27079102 22.83066406 -119.72094727 22.12011719 C-104.71494918 3.193867 -85.07434626 -9.12467659 -61.17797852 -13.34863281 C-39.55423249 -15.83437371 -17.63325847 -13.78111784 0 0 Z " fill="#FFFFFF" transform="translate(722.338134765625,468.7900390625)"/>
<path d="M0 0 C-0.02922924 0.61289981 -0.05845848 1.22579962 -0.08857346 1.85727215 C-0.94098225 20.26746396 -1.17755658 38.65799975 -1.20018864 57.08399224 C-1.20316828 59.39687524 -1.20727995 61.70975382 -1.21169281 64.02263451 C-1.22525033 71.30385692 -1.23498314 78.58506867 -1.2388947 85.86630279 C-1.24339888 94.19502724 -1.26110465 102.52358953 -1.2898953 110.8522647 C-1.31158056 117.35570165 -1.32160201 123.85909302 -1.32293582 130.3625657 C-1.32397549 134.22083811 -1.32970689 138.07895556 -1.34775543 141.9371891 C-1.36436471 145.55481496 -1.36633028 149.17217096 -1.35761642 152.78982162 C-1.35649427 154.72536456 -1.37009588 156.66089914 -1.3843689 158.59638977 C-1.32839598 170.49139367 0.15256881 182.56256641 8 192 C16.15319844 199.2472875 26.25658761 201.98575144 37 202 C60.06334286 200.41834931 79.95602968 186.88719551 95 170 C95.74103564 169.23799034 95.74103564 169.23799034 96.4970417 168.46058655 C101.79126383 162.41504013 101.8539218 157.05169298 101.77294922 149.25 C101.78357895 147.99062119 101.79420868 146.73124237 101.80516052 145.43370056 C101.83345614 142.00215952 101.82529222 138.57158375 101.81029272 135.13999557 C101.80087852 131.54578534 101.82539463 127.9518053 101.84622192 124.35766602 C101.88049476 117.5615191 101.88450976 110.76570898 101.87749684 103.96949291 C101.87099361 96.22811956 101.89846084 88.48698138 101.92869925 80.74567795 C101.99010954 64.83035716 102.00464356 48.91545942 102 33 C91.44 32.34 80.88 31.68 70 31 C70 21.76 70 12.52 70 3 C95.10682737 0.48931726 119.7881493 -0.13252226 145 0 C145.02801619 2.16658569 145.04683164 4.33328983 145.0625 6.5 C145.07410156 7.7065625 145.08570313 8.913125 145.09765625 10.15625 C145.0693274 14.19112656 144.78788657 18.18965786 144.50099182 22.21386719 C143.92392976 30.95515615 143.86540467 39.66474806 143.88647461 48.421875 C143.88675755 50.09909056 143.88659667 51.77630624 143.8860321 53.45352173 C143.8857483 57.95244193 143.89157688 62.4513348 143.89860606 66.95024872 C143.90490973 71.67207191 143.9054489 76.39389591 143.90663147 81.11572266 C143.90972429 90.03293634 143.91790972 98.95013758 143.92798096 107.86734581 C143.93920616 118.02955324 143.94466861 128.19176129 143.94967639 138.35397339 C143.96009432 159.23599072 143.97841395 180.11799102 144 201 C155.88 201.66 167.76 202.32 180 203 C180.0309375 209.8990625 180.0309375 209.8990625 180.0625 216.9375 C180.071604 218.39019287 180.08070801 219.84288574 180.09008789 221.33959961 C180.09383423 223.04128296 180.09383423 223.04128296 180.09765625 224.77734375 C180.10289307 225.94515381 180.10812988 227.11296387 180.11352539 228.31616211 C180 231 180 231 179 232 C155.27764457 235.2024522 130.86636511 234.22414589 107 234 C105.70145799 229.08710459 104.68412077 224.37714181 104.1484375 219.3125 C104.01953125 218.12011719 103.890625 216.92773438 103.7578125 215.69921875 C103.63148438 214.47847656 103.50515625 213.25773438 103.375 212 C103.17390625 210.12248047 103.17390625 210.12248047 102.96875 208.20703125 C102.64081716 205.13851681 102.31804539 202.06955231 102 199 C101.10812988 200.00232666 101.10812988 200.00232666 100.19824219 201.02490234 C99.40579102 201.91129395 98.61333984 202.79768555 97.796875 203.7109375 C97.01666992 204.58540527 96.23646484 205.45987305 95.43261719 206.36083984 C87.89172871 214.54199244 79.6668326 220.52934225 70 226 C69.19046875 226.47308594 68.3809375 226.94617188 67.546875 227.43359375 C48.40843756 237.88161827 23.05489473 240.41869863 2.0625 234.96875 C-13.02687282 230.19558105 -26.11430949 222.39887306 -34.01660156 208.16943359 C-35.02502232 206.19680363 -35.96483501 204.20726464 -36.875 202.1875 C-37.28637207 201.28354492 -37.28637207 201.28354492 -37.70605469 200.36132812 C-42.46537347 188.97443624 -43.44249183 177.12008818 -43.34057617 164.91650391 C-43.33972731 163.46618162 -43.34021009 162.01585805 -43.34190369 160.5655365 C-43.34275496 156.67587707 -43.32527216 152.78650229 -43.30418181 148.89690828 C-43.28526811 144.81437452 -43.28365311 140.73183229 -43.28010559 136.64926147 C-43.27082786 128.93960955 -43.24627276 121.23008716 -43.21605712 113.52049196 C-43.18237906 104.73437941 -43.1659936 95.94826028 -43.15097082 87.16209912 C-43.11971872 69.107978 -43.06476098 51.05403416 -43 33 C-53.56 32.34 -64.12 31.68 -75 31 C-75 21.76 -75 12.52 -75 3 C-49.88943179 0.48894318 -25.2160191 -0.12545111 0 0 Z " fill="#FFFFFF" transform="translate(322,458)"/>
<path d="M0 0 C1.41408966 1.18691641 2.8110171 2.39466876 4.1875 3.625 C4.81398438 4.17027344 5.44046875 4.71554688 6.0859375 5.27734375 C19.05847098 17.31517504 24.48121904 35.6236067 25.34988022 52.84404373 C25.58693664 61.36393241 25.54280295 69.88515303 25.49168181 78.40719533 C25.47268938 82.11734784 25.47114708 85.82751084 25.46760559 89.53770447 C25.4583504 96.53540229 25.43382695 103.53295637 25.40355712 110.53059143 C25.36980747 118.50904803 25.35347588 126.48751218 25.33847082 134.46602261 C25.30727002 150.85243201 25.25463935 167.23869755 25.1875 183.625 C19.99419917 185.48442385 14.79805968 187.33559713 9.59912109 189.17919922 C7.83106414 189.80747409 6.06380281 190.43799269 4.29736328 191.07080078 C1.75759623 191.98020585 -0.78492651 192.88149296 -3.328125 193.78125 C-4.51115204 194.2077887 -4.51115204 194.2077887 -5.71807861 194.64294434 C-6.45854431 194.90321411 -7.19901001 195.16348389 -7.96191406 195.43164062 C-8.61033264 195.66258423 -9.25875122 195.89352783 -9.92681885 196.13146973 C-11.8125 196.625 -11.8125 196.625 -15.8125 196.625 C-15.81488835 195.90938526 -15.81727671 195.19377052 -15.81973743 194.45647049 C-15.8790068 177.00234632 -15.95463271 159.54836864 -16.04821491 142.09439468 C-16.09308169 133.65360009 -16.13251711 125.21284682 -16.15893555 116.77197266 C-16.18198977 109.41047247 -16.21546993 102.0491041 -16.26120156 94.68770862 C-16.28503423 90.79391481 -16.30382792 86.90025075 -16.31011391 83.0063858 C-16.31621024 79.33240416 -16.33637147 75.65875403 -16.36677551 71.98489571 C-16.37959832 70.01199846 -16.37799832 68.03902348 -16.3757782 66.06608582 C-16.50759013 53.42023938 -18.55065813 41.31791011 -27.5234375 31.8125 C-36.04945106 24.61755184 -47.21116432 22.90752825 -58.04296875 23.2421875 C-73.93060812 24.85564725 -86.09391697 32.22889029 -97.8125 42.625 C-98.44929687 43.18960938 -99.08609375 43.75421875 -99.7421875 44.3359375 C-101.44954058 45.90577765 -101.44954058 45.90577765 -102.94081116 47.60675049 C-104.8125 49.625 -104.8125 49.625 -107.07225037 51.57684326 C-117.02817012 61.77983586 -115.06831317 75.53432641 -114.92697453 88.89058018 C-114.89861351 92.47408787 -114.92158235 96.057282 -114.93882751 99.64080811 C-114.96374078 106.40874513 -114.94329218 113.17573381 -114.90605396 119.94358325 C-114.86586377 127.65601865 -114.8769902 135.36812234 -114.89217007 143.08061647 C-114.92222696 158.92905518 -114.88867632 174.77669395 -114.8125 190.625 C-114.20073851 190.62198915 -113.58897701 190.61897829 -112.95867729 190.6158762 C-112.1528628 190.61353442 -111.3470483 190.61119265 -110.51681519 190.60877991 C-109.71942869 190.60576905 -108.9220422 190.6027582 -108.10049248 190.59965611 C-105.22639686 190.63149221 -102.42273417 190.89920292 -99.5703125 191.24609375 C-98.48492188 191.37693359 -97.39953125 191.50777344 -96.28125 191.64257812 C-95.1778125 191.78115234 -94.074375 191.91972656 -92.9375 192.0625 C-91.81085938 192.19720703 -90.68421875 192.33191406 -89.5234375 192.47070312 C-81.22189126 193.48853625 -81.22189126 193.48853625 -77.8125 194.625 C-77.8125 203.865 -77.8125 213.105 -77.8125 222.625 C-115.7625 222.625 -153.7125 222.625 -192.8125 222.625 C-192.8125 213.385 -192.8125 204.145 -192.8125 194.625 C-180.16358356 192.11702519 -168.92526957 191.28063848 -155.8125 190.625 C-155.8125 135.515 -155.8125 80.405 -155.8125 23.625 C-160.1025 23.625 -164.3925 23.625 -168.8125 23.625 C-170.98622346 23.5707615 -173.15979959 23.50333298 -175.33203125 23.40625 C-176.74512573 23.3453418 -176.74512573 23.3453418 -178.18676758 23.28320312 C-179.32138428 23.23099609 -180.45600098 23.17878906 -181.625 23.125 C-185.316875 22.96 -189.00875 22.795 -192.8125 22.625 C-192.8125 13.385 -192.8125 4.145 -192.8125 -5.375 C-181.32934651 -6.97417527 -169.96782865 -7.88235645 -158.38745117 -8.38037109 C-155.64521721 -8.49912449 -152.90373228 -8.62968105 -150.16210938 -8.76171875 C-137.70581017 -9.33688815 -125.28085466 -9.47522409 -112.8125 -9.375 C-112.84537613 -8.70532196 -112.87825226 -8.03564392 -112.91212463 -7.34567261 C-113.72462474 8.63151793 -113.72462474 8.63151793 -113.8125 24.625 C-113.05066406 23.779375 -112.28882813 22.93375 -111.50390625 22.0625 C-84.63808174 -7.55856942 -36.58122412 -27.55950331 0 0 Z " fill="#FFFFFF" transform="translate(846.8125,123.375)"/>
<path d="M0 0 C0.68309235 0.00021149 1.36618469 0.00042297 2.06997681 0.00064087 C12.83552988 0.03388004 22.6775078 0.84110123 32.875 4.375 C33.96167969 4.74882813 35.04835938 5.12265625 36.16796875 5.5078125 C56.20017385 13.17539924 71.03792284 27.91514457 80.05078125 47.140625 C84.31295416 56.71446171 87.33039519 67.01177936 88.875 77.375 C88.98585938 78.08785156 89.09671875 78.80070312 89.2109375 79.53515625 C90.33789837 88.41378037 89.95752646 97.44380334 89.875 106.375 C80.27614982 111.06872267 70.30872559 114.57539296 60.25 118.125 C58.40349257 118.78039647 56.55705883 119.43600058 54.71069336 120.09179688 C37.57743383 126.16629874 20.40305482 132.12333067 3.22177124 138.06037903 C2.20886017 138.41041489 1.1959491 138.76045074 0.15234375 139.12109375 C-0.85742523 139.47004196 -1.86719421 139.81899017 -2.90756226 140.17851257 C-10.17387504 142.69251556 -17.43056265 145.23311437 -24.68359375 147.78515625 C-26.69277148 148.49093732 -28.70196709 149.19666749 -30.71118164 149.90234375 C-33.58379978 150.91137212 -36.45584764 151.92187716 -39.32614136 152.9375 C-41.93216394 153.85953142 -44.54007538 154.77601843 -47.1484375 155.69140625 C-47.91784164 155.9654982 -48.68724579 156.23959015 -49.47996521 156.52198792 C-52.48888982 157.5732243 -54.91282551 158.375 -58.125 158.375 C-53.78473041 168.32529891 -49.60170328 177.33901577 -42.125 185.375 C-41.51140625 186.07882812 -40.8978125 186.78265625 -40.265625 187.5078125 C-28.49464773 200.30023821 -11.97629467 204.93923947 4.875 206.375 C25.75108333 207.18832255 45.51075993 200.7743825 63.1875 189.9765625 C65.875 188.375 65.875 188.375 68.875 187.375 C70.90266976 191.13887865 72.91424354 194.91078473 74.91137695 198.69091797 C75.59289125 199.9754662 76.27873873 201.25772525 76.96899414 202.53759766 C77.96089475 204.37857661 78.93688007 206.22724708 79.91015625 208.078125 C80.79779663 209.74343262 80.79779663 209.74343262 81.70336914 211.44238281 C82.875 214.375 82.875 214.375 82.72705078 216.64794922 C81.28030336 219.58041089 78.46514835 220.76102379 75.6875 222.25 C75.0574707 222.59587158 74.42744141 222.94174316 73.77832031 223.2980957 C58.53311846 231.51449307 42.06336826 237.02865132 24.875 239.375 C24.10414063 239.48585938 23.33328125 239.59671875 22.5390625 239.7109375 C-9.78639397 243.48394031 -41.50993409 238.00332331 -68.09765625 218.77734375 C-90.12266729 201.29943177 -103.02440705 174.66301847 -106.82421875 147.06640625 C-106.92347656 146.17824219 -107.02273437 145.29007813 -107.125 144.375 C-107.23457031 143.47652344 -107.34414062 142.57804688 -107.45703125 141.65234375 C-111.07602351 106.57224548 -105.33555866 67.27175156 -83 38.9375 C-81.71290905 37.41279226 -80.42173181 35.89151687 -79.125 34.375 C-78.6815625 33.7871875 -78.238125 33.199375 -77.78125 32.59375 C-59.81785671 9.37277818 -28.04157081 -0.0359661 0 0 Z M-45.7265625 52.3359375 C-62.06543106 73.03893382 -64.39685021 97.88149183 -64.125 123.375 C-60.71367184 124.51210939 -60.04563721 124.25316156 -56.77270508 123.10595703 C-55.88506973 122.79976944 -54.99743439 122.49358185 -54.082901 122.17811584 C-53.11323898 121.83316574 -52.14357697 121.48821564 -51.14453125 121.1328125 C-50.12383041 120.77767075 -49.10312958 120.42252899 -48.05149841 120.05662537 C-44.6770138 118.87989104 -41.30728981 117.69010539 -37.9375 116.5 C-35.60343412 115.68281508 -33.26912134 114.86633502 -30.93457031 114.05053711 C-24.87058854 111.92840012 -18.81088908 109.79432211 -12.75274658 107.65557861 C-9.20011835 106.40151645 -5.64679399 105.1494471 -2.09326172 103.89794922 C8.41612664 100.19553385 18.92226558 96.48397052 29.421875 92.75390625 C30.26553116 92.4546373 31.10918732 92.15536835 31.97840881 91.84703064 C36.96369405 90.07321871 41.9254046 88.24616257 46.875 86.375 C47.74384053 72.18393794 43.51540682 58.31951349 35.0625 46.93359375 C26.85220641 37.91937558 15.51847892 33.94776065 3.6328125 33.16015625 C-15.08701117 32.63900303 -32.90802191 38.36257344 -45.7265625 52.3359375 Z " fill="#FFFFFF" transform="translate(359.125,111.625)"/>
<path d="M0 0 C0 103.62 0 207.24 0 314 C5.94 314.33 11.88 314.66 18 315 C22.68673086 315.9012944 27.36414719 316.86569559 32 318 C32 327.24 32 336.48 32 346 C-3.97 346 -39.94 346 -77 346 C-77 336.76 -77 327.52 -77 318 C-67.99001427 315.74750357 -67.99001427 315.74750357 -64.125 315.3671875 C-62.86429688 315.24150391 -62.86429688 315.24150391 -61.578125 315.11328125 C-60.72734375 315.03464844 -59.8765625 314.95601563 -59 314.875 C-58.14921875 314.78863281 -57.2984375 314.70226562 -56.421875 314.61328125 C-51.20629897 314.10932222 -46.29556852 314 -41 314 C-41 226.88 -41 139.76 -41 50 C-58.325 55.445 -58.325 55.445 -76 61 C-76.66 61 -77.32 61 -78 61 C-78 50.11 -78 39.22 -78 28 C-57.82480248 18.59502071 -37.14169504 10.99187513 -16.0625 3.875 C-14.33858032 3.28912109 -14.33858032 3.28912109 -12.57983398 2.69140625 C-11.51321533 2.33691406 -10.44659668 1.98242188 -9.34765625 1.6171875 C-7.94012085 1.14708252 -7.94012085 1.14708252 -6.50415039 0.66748047 C-4 0 -4 0 0 0 Z " fill="#FFFFFF" transform="translate(78,0)"/>
<path d="M0 0 C0 103.62 0 207.24 0 314 C4.62 314 9.24 314 14 314 C17.36879864 314.41675859 20.56360732 314.86150096 23.875 315.5 C27.896875 316.2425 27.896875 316.2425 32 317 C32 326.24 32 335.48 32 345 C-3.97 345 -39.94 345 -77 345 C-77 335.76 -77 326.52 -77 317 C-74.03 316.505 -71.06 316.01 -68 315.5 C-66.65228516 315.26506836 -66.65228516 315.26506836 -65.27734375 315.02539062 C-56.9273845 313.70807652 -49.80246415 314 -41 314 C-41 226.88 -41 139.76 -41 50 C-51.89 53.63 -62.78 57.26 -74 61 C-75.32 61 -76.64 61 -78 61 C-78 50.44 -78 39.88 -78 29 C-68.85638434 24.42819217 -60.13548523 20.27526467 -50.625 16.75 C-49.40635254 16.29326904 -48.18770508 15.83653809 -46.93212891 15.3659668 C-37.12860328 11.71096027 -27.26206878 8.23409234 -17.375 4.8125 C-16.67256165 4.56826294 -15.97012329 4.32402588 -15.24639893 4.0723877 C-13.25723575 3.38264582 -11.26586011 2.6997923 -9.2734375 2.01953125 C-8.13310059 1.62870361 -6.99276367 1.23787598 -5.81787109 0.83520508 C-3 0 -3 0 0 0 Z " fill="#FFFFFF" transform="translate(872,344)"/>
<path d="M0 0 C0.73806885 0.04447266 1.4761377 0.08894531 2.23657227 0.13476562 C8.71200924 0.60586129 14.77974207 1.82737104 20.625 4.75 C19.12487401 12.83763578 17.17808359 20.78678458 15.125 28.75 C14.81691406 29.97589844 14.50882813 31.20179688 14.19140625 32.46484375 C13.89105469 33.63144531 13.59070313 34.79804688 13.28125 36 C13.01119141 37.05703125 12.74113281 38.1140625 12.46289062 39.203125 C11.625 41.75 11.625 41.75 9.625 43.75 C8.42875 43.275625 7.2325 42.80125 6 42.3125 C-7.06219352 37.99271947 -19.10429654 39.40788897 -31.25 45.1875 C-45.03505515 52.17905583 -58.33990315 65.2536396 -64.375 79.75 C-64.68342981 82.2121788 -64.68342981 82.2121788 -64.6534729 84.90057373 C-64.66463638 85.94101334 -64.67579987 86.98145294 -64.68730164 88.05342102 C-64.68946182 89.18918076 -64.69162201 90.32494049 -64.69384766 91.49511719 C-64.70389328 92.69539047 -64.7139389 93.89566376 -64.72428894 95.13230896 C-64.74987601 98.41916551 -64.7667342 101.70592797 -64.77971697 104.99285412 C-64.7953535 108.42955115 -64.82214204 111.8661608 -64.8477478 115.30279541 C-64.89452638 121.80854251 -64.93127491 128.31430607 -64.96442068 134.82013535 C-65.00264859 142.22763813 -65.05205699 149.63505313 -65.10240483 157.0424819 C-65.20571098 172.27825781 -65.29497562 187.51408295 -65.375 202.75 C-64.72670227 202.77505615 -64.07840454 202.8001123 -63.41046143 202.82592773 C-60.42454451 202.94319196 -57.43884455 203.06531755 -54.453125 203.1875 C-53.4336377 203.22681641 -52.41415039 203.26613281 -51.36376953 203.30664062 C-31.18931935 204.14522688 -31.18931935 204.14522688 -23.375 206.75 C-23.375 215.99 -23.375 225.23 -23.375 234.75 C-62.975 234.75 -102.575 234.75 -143.375 234.75 C-143.375 225.51 -143.375 216.27 -143.375 206.75 C-130.72608356 204.24202519 -119.48776957 203.40563848 -106.375 202.75 C-106.375 147.64 -106.375 92.53 -106.375 35.75 C-110.665 35.75 -114.955 35.75 -119.375 35.75 C-121.54872346 35.6957615 -123.72229959 35.62833298 -125.89453125 35.53125 C-127.30762573 35.4703418 -127.30762573 35.4703418 -128.74926758 35.40820312 C-129.88388428 35.35599609 -131.01850098 35.30378906 -132.1875 35.25 C-135.879375 35.085 -139.57125 34.92 -143.375 34.75 C-143.375 25.51 -143.375 16.27 -143.375 6.75 C-131.73154029 5.11991564 -120.21143432 4.23580095 -108.46777344 3.74462891 C-105.64214754 3.6257216 -102.81722977 3.49526047 -99.9921875 3.36328125 C-87.77435093 2.81458555 -75.60541378 2.67231135 -63.375 2.75 C-63.705 15.29 -64.035 27.83 -64.375 40.75 C-61.735 36.46 -59.095 32.17 -56.375 27.75 C-43.8960698 12.84461115 -30.38851119 2.13383726 -10.45458984 -0.1003418 C-6.95075782 -0.35249594 -3.50235321 -0.22127721 0 0 Z " fill="#FFFFFF" transform="translate(613.375,111.25)"/>
<path d="M0 0 C37.62 0 75.24 0 114 0 C114 9.9 114 19.8 114 30 C110.08381649 30.97904588 107.25491559 31.02693625 103.25 30.89453125 C87.01649857 29.79471354 87.01649857 29.79471354 72.92773438 36.01831055 C71.21868623 38.02962061 69.69630697 40.14772561 68.24842834 42.35379028 C66.78579056 44.28246207 65.16244242 45.69580739 63.31030273 47.25341797 C59.25694034 50.73789393 55.4712885 54.41530449 51.71875 58.21875 C51.06096558 58.88032104 50.40318115 59.54189209 49.72546387 60.22351074 C47.64782726 62.31322735 45.57349373 64.40617315 43.5 66.5 C40.7634185 69.263417 38.02337737 72.02333722 35.28125 74.78125 C34.66954956 75.40124878 34.05784912 76.02124756 33.4276123 76.66003418 C29.6762797 80.43222023 25.79208975 83.98358998 21.76623535 87.46084595 C19.82242378 89.15474561 17.97053453 90.91436418 16.15625 92.74609375 C15.24746094 93.6597168 15.24746094 93.6597168 14.3203125 94.59179688 C13.71960938 95.20087891 13.11890625 95.80996094 12.5 96.4375 C11.86835938 97.07365234 11.23671875 97.70980469 10.5859375 98.36523438 C9.05494226 99.90782806 7.52712333 101.45357314 6 103 C9.98546575 107.73931362 14.11319851 112.18168622 18.55859375 116.49609375 C20.46781257 118.45418858 22.23324758 120.4261532 24.00390625 122.50390625 C29.18326183 128.47398188 34.88060704 133.94939588 40.5 139.5 C52.7519613 151.60198101 52.7519613 151.60198101 56.46875 155.96875 C61.60334149 161.99358813 67.37402 167.44002312 73 173 C86.57098597 186.41177328 86.57098597 186.41177328 91.73046875 192.51171875 C94.83957164 196.15654399 96.68877979 196.4317751 101.43359375 197.03515625 C102.72201172 197.20466797 104.01042969 197.37417969 105.33789062 197.54882812 C106.70436867 197.72051761 108.07090593 197.89173644 109.4375 198.0625 C112.10342123 198.40345679 114.76852381 198.75003843 117.43359375 199.09765625 C118.62009521 199.24726807 119.80659668 199.39687988 121.02905273 199.55102539 C124 200 124 200 127 201 C127 210.24 127 219.48 127 229 C92.02 229 57.04 229 21 229 C21 219.76 21 210.52 21 201 C26.42357835 199.79476037 31.60416958 198.67938554 37.0625 197.875 C38.18785156 197.70742188 39.31320313 197.53984375 40.47265625 197.3671875 C41.30667969 197.24601563 42.14070313 197.12484375 43 197 C42.35933594 196.3709375 41.71867187 195.741875 41.05859375 195.09375 C40.19363281 194.2378125 39.32867187 193.381875 38.4375 192.5 C37.59058594 191.6646875 36.74367188 190.829375 35.87109375 189.96875 C33.70202206 187.77601015 31.67284232 185.49304655 29.66015625 183.15625 C25.96864824 178.89716572 22.02200887 174.94495889 18 171 C13.39197045 166.48024688 8.98982203 161.89067773 4.77734375 157 C1.67613415 153.51028722 -1.66834132 150.2678338 -5 147 C-8.96785486 143.10815768 -12.86752559 139.21724578 -16.49609375 135.00390625 C-20.14636242 130.76578598 -24.07140928 126.85264227 -28.0625 122.9375 C-32.9583061 118.13432978 -37.60684652 113.27041345 -42 108 C-40.61314913 104.8724595 -39.00755292 102.76687824 -36.5793457 100.36816406 C-35.53234245 99.32622894 -35.53234245 99.32622894 -34.46418762 98.26324463 C-33.70901352 97.52153015 -32.95383942 96.77981567 -32.17578125 96.015625 C-31.39615524 95.24120056 -30.61652924 94.46677612 -29.8132782 93.66888428 C-27.31771638 91.19113021 -24.81559722 88.72013957 -22.3125 86.25 C-19.82808268 83.79333479 -17.34518253 81.33518545 -14.86528015 78.8739624 C-13.32318699 77.34397601 -11.77842961 75.81666847 -10.23054504 74.2925415 C-6.20148939 70.30035161 -2.38320188 66.20811555 1.31748962 61.91082764 C4.01929522 58.84238606 6.90571443 55.97063308 9.80859375 53.09375 C10.42017838 52.48358032 11.031763 51.87341064 11.66188049 51.24475098 C13.58471802 49.32743835 15.51103094 47.41366298 17.4375 45.5 C18.75479059 44.18773415 20.07184986 42.87523605 21.38867188 41.5625 C24.5897861 38.37231494 27.79401865 35.18529349 31 32 C29.80455566 31.96241577 29.80455566 31.96241577 28.58496094 31.92407227 C24.97314778 31.80801211 21.36158898 31.68533069 17.75 31.5625 C16.49574219 31.52318359 15.24148437 31.48386719 13.94921875 31.44335938 C12.74394531 31.40146484 11.53867188 31.35957031 10.296875 31.31640625 C9.18666992 31.27974854 8.07646484 31.24309082 6.93261719 31.20532227 C4 31 4 31 0 30 C0 20.1 0 10.2 0 0 Z " fill="#FFFFFF" transform="translate(127,117)"/>
<path d="M0 0 C0.86625 0.5775 1.7325 1.155 2.625 1.75 C10.56060439 9.267941 16.93485959 20.23198947 17.23828125 31.34375 C17.56169198 46.2554501 15.66557658 57.14521162 6 69 C5.24976563 69.95519531 5.24976563 69.95519531 4.484375 70.9296875 C-3.12500014 79.5767047 -15.53158044 84.36042705 -26.79296875 85.2109375 C-41.13040207 85.69317976 -53.67146479 81.23161321 -64.25 71.5 C-73.40430879 61.79176807 -77.92760859 50.0382758 -78.0234375 36.75 C-77.42023654 23.28909433 -72.2160761 10.55574766 -62.3125 1.1875 C-43.92173617 -13.66795194 -18.73669547 -14.38851719 0 0 Z " fill="#FED302" transform="translate(1098,86)"/>
</svg>
