<?xml version="1.0" encoding="UTF-8"?>
<svg version="1.1" xmlns="http://www.w3.org/2000/svg" width="500" height="337">
<path d="M0 0 C10.89932367 8.19904078 15.82949907 19.01472417 18.1640625 32.26953125 C19.38358743 49.82900811 18.60693616 65.49601707 8.1640625 80.26953125 C7.4215625 81.32140625 6.6790625 82.37328125 5.9140625 83.45703125 C-2.90464429 92.47616319 -12.93817351 97.06368704 -25.5234375 97.51953125 C-34.23857317 97.41437124 -40.60379932 95.0909567 -47.8359375 90.26953125 C-48.1659375 101.81953125 -48.4959375 113.36953125 -48.8359375 125.26953125 C-44.5459375 125.59953125 -40.2559375 125.92953125 -35.8359375 126.26953125 C-34.8459375 126.59953125 -33.8559375 126.92953125 -32.8359375 127.26953125 C-32.8359375 131.22953125 -32.8359375 135.18953125 -32.8359375 139.26953125 C-49.0059375 139.26953125 -65.1759375 139.26953125 -81.8359375 139.26953125 C-81.8359375 135.30953125 -81.8359375 131.34953125 -81.8359375 127.26953125 C-76.2891049 125.71252561 -72.86387263 125.26953125 -66.8359375 125.26953125 C-66.8359375 87.31953125 -66.8359375 49.36953125 -66.8359375 10.26953125 C-71.7859375 10.26953125 -76.7359375 10.26953125 -81.8359375 10.26953125 C-81.8359375 5.97953125 -81.8359375 1.68953125 -81.8359375 -2.73046875 C-71.00168666 -5.43903146 -58.94988011 -4.88675857 -47.8359375 -4.73046875 C-47.3409375 -0.77046875 -47.3409375 -0.77046875 -46.8359375 3.26953125 C-46.0625 2.78742188 -45.2890625 2.3053125 -44.4921875 1.80859375 C-30.13256028 -6.89959602 -15.09337584 -9.20986983 0 0 Z M-47.52041626 19.25460815 C-50.24917037 23.43411474 -49.75020203 28.40094768 -49.73828125 33.23828125 C-49.75113663 34.3919519 -49.763992 35.54562256 -49.77723694 36.73425293 C-49.79443112 39.16831567 -49.79599357 41.60253253 -49.78295898 44.03662109 C-49.77346473 47.75885646 -49.84390059 51.47395987 -49.91992188 55.1953125 C-49.9267404 57.56379307 -49.92885154 59.93229285 -49.92578125 62.30078125 C-49.95341049 63.41030151 -49.98103973 64.51982178 -50.00950623 65.66296387 C-49.96301199 71.53713165 -49.96301199 71.53713165 -46.89968872 76.30834961 C-38.76352349 81.93337333 -30.44421245 81.96886772 -20.8359375 81.26953125 C-14.20887707 79.65392801 -9.43740879 74.90939873 -5.8359375 69.26953125 C0.83992388 54.03642938 0.50512452 38.46048783 -4.64453125 22.8125 C-6.97051478 17.4058805 -10.82970637 14.24037478 -15.8359375 11.26953125 C-27.40091785 7.4145378 -39.11134848 10.68851159 -47.52041626 19.25460815 Z " fill="#131721" transform="translate(81.8359375,197.73046875)"/>
<path d="M0 0 C0 11.55 0 23.1 0 35 C7.92 35 15.84 35 24 35 C24 39.29 24 43.58 24 48 C18.63510405 48.90483637 13.49682543 49.12303662 8.0625 49.0625 C7.28326172 49.05798828 6.50402344 49.05347656 5.70117188 49.04882812 C3.80074732 49.03716908 1.90036294 49.01923877 0 49 C0.01488392 57.25857771 0.05651622 65.51640662 0.13209057 73.77463055 C0.16634911 77.60951714 0.19146865 81.44400588 0.19555664 85.27905273 C0.19984225 88.98174943 0.22832454 92.68354882 0.27343178 96.38596535 C0.28639877 97.79686057 0.29071721 99.20786323 0.28615379 100.61881065 C0.28124337 102.59840848 0.31022294 104.57800184 0.34057617 106.55737305 C0.35056892 108.24614815 0.35056892 108.24614815 0.36076355 109.96903992 C1.20045612 113.95046913 2.88602515 115.46729611 6 118 C12.41927603 119.43912973 18.30844554 118.03549571 24 115 C24.87144869 116.5529276 25.72153657 118.11785436 26.5625 119.6875 C27.03816406 120.55761719 27.51382813 121.42773438 28.00390625 122.32421875 C29.17082209 125.45887501 29.22824112 126.89790384 28 130 C20.88676545 135.09157841 11.44681454 135.67176434 3 135 C-3.86667814 133.79244706 -9.52557656 131.4978288 -14 126 C-17.98850265 119.21468147 -19.12975179 112.54036243 -19.11352539 104.71923828 C-19.11341209 102.88801926 -19.11341209 102.88801926 -19.11329651 101.01980591 C-19.10813522 99.71647308 -19.10297394 98.41314026 -19.09765625 97.0703125 C-19.09578901 95.71125338 -19.09436655 94.35219358 -19.09336853 92.99313354 C-19.08956748 89.43231314 -19.07975802 85.87153413 -19.06866455 82.31072998 C-19.05839835 78.67070068 -19.05385979 75.03066463 -19.04882812 71.390625 C-19.03813339 64.26039983 -19.02108622 57.13020263 -19 50 C-20.88914638 49.83391704 -22.77851397 49.67034932 -24.66796875 49.5078125 C-25.72008545 49.4164502 -26.77220215 49.32508789 -27.85620117 49.23095703 C-39.83505336 48.10058709 -39.83505336 48.10058709 -50.7109375 51.90625 C-51.59007812 52.7621875 -52.46921875 53.618125 -53.375 54.5 C-53.86323242 54.96833252 -54.35146484 55.43666504 -54.85449219 55.91918945 C-56.58802604 57.59499205 -58.29442016 59.29575612 -60 61 C-61.09199707 62.081604 -61.09199707 62.081604 -62.20605469 63.18505859 C-67.16425773 68.09687512 -72.09344401 73.03661469 -77 78 C-75.46607212 81.65464986 -73.2737222 83.94394 -70.45703125 86.703125 C-69.54759766 87.60160156 -68.63816406 88.50007813 -67.70117188 89.42578125 C-66.73865469 90.36756931 -65.77576181 91.30897355 -64.8125 92.25 C-50.76176045 106.03892453 -50.76176045 106.03892453 -45.62084961 112.81884766 C-42.34141091 117.13144148 -38.89779581 117.61190191 -33.625 118.375 C-31.41912425 118.60791856 -29.21117044 118.82431797 -27 119 C-27 123.29 -27 127.58 -27 132 C-42.18 132 -57.36 132 -73 132 C-73 120 -73 120 -72 119 C-69.67182036 118.63239269 -67.3381615 118.29758419 -65 118 C-70.10109406 110.66772415 -76.20745499 104.59360226 -82.5625 98.375 C-84.11338387 96.85197052 -85.66266262 95.32739018 -87.20896912 93.79971313 C-88.60804676 92.41824763 -90.01200235 91.04172729 -91.41625977 89.66552734 C-94.11426413 86.88211889 -96.5556594 84.00609031 -99 81 C-97.35113455 76.71255941 -94.11409446 73.87934952 -90.8984375 70.73828125 C-90.30197418 70.1470195 -89.70551086 69.55575775 -89.0909729 68.94657898 C-87.19034491 67.06373059 -85.28314825 65.18772428 -83.375 63.3125 C-81.46061383 61.42568828 -79.54768941 59.5374514 -77.63760376 57.64628601 C-76.44954361 56.47053168 -75.25882178 55.29745998 -74.0652771 54.12727356 C-72.69143924 52.77023468 -71.34283661 51.38772289 -70 50 C-70 49.67 -70 49.34 -70 49 C-73.63 48.67 -77.26 48.34 -81 48 C-81 43.71 -81 39.42 -81 35 C-60.54 35 -40.08 35 -19 35 C-19 25.43 -19 15.86 -19 6 C-4 0 -4 0 0 0 Z " fill="#131721" transform="translate(471,160)"/>
<path d="M0 0 C7.81365837 6.32603025 10.3912254 13.80034455 11.73828125 23.5234375 C11.9876048 27.93562594 11.97246266 32.33195141 11.93359375 36.75 C11.93076385 37.97882904 11.92793396 39.20765808 11.92501831 40.47372437 C11.91390022 44.36539808 11.88881101 48.25683435 11.86328125 52.1484375 C11.85324064 54.80077791 11.84411669 57.45312195 11.8359375 60.10546875 C11.81398832 66.57820484 11.78059482 73.0508042 11.73828125 79.5234375 C12.68703125 79.4821875 13.63578125 79.4409375 14.61328125 79.3984375 C17.73828125 79.5234375 17.73828125 79.5234375 19.73828125 81.5234375 C22.05593854 82.24271045 24.38923999 82.9144268 26.73828125 83.5234375 C26.73828125 87.4834375 26.73828125 91.4434375 26.73828125 95.5234375 C10.56828125 95.5234375 -5.60171875 95.5234375 -22.26171875 95.5234375 C-22.26171875 91.2334375 -22.26171875 86.9434375 -22.26171875 82.5234375 C-21.27171875 82.3584375 -20.28171875 82.1934375 -19.26171875 82.0234375 C-18.70484375 81.930625 -18.14796875 81.8378125 -17.57421875 81.7421875 C-14.13517029 81.41687211 -10.71582574 81.51118889 -7.26171875 81.5234375 C-7.2998975 73.96868601 -7.35943486 66.41435253 -7.44562149 58.86000061 C-7.48499191 55.35147334 -7.51723082 51.8431931 -7.53271484 48.33447266 C-7.55087219 44.29289192 -7.60086828 40.25223226 -7.65234375 36.2109375 C-7.65357239 34.9616748 -7.65480103 33.71241211 -7.65606689 32.42529297 C-7.7736973 25.38236793 -8.2690558 20.42517505 -12.26171875 14.5234375 C-17.51264771 11.3559559 -23.33185853 11.86684398 -29.26171875 12.5234375 C-36.33971675 14.74088023 -42.15168886 19.226618 -47.26171875 24.5234375 C-48.53890681 27.07781362 -48.4213334 28.93932531 -48.46704102 31.79931641 C-48.48698624 32.9003067 -48.50693146 34.001297 -48.52748108 35.13565063 C-48.55254982 36.92475357 -48.55254982 36.92475357 -48.578125 38.75 C-48.5989061 39.96795258 -48.61968719 41.18590515 -48.64109802 42.44076538 C-48.70664459 46.3432637 -48.7655023 50.245831 -48.82421875 54.1484375 C-48.8673991 56.78906972 -48.91101323 59.42969489 -48.95507812 62.0703125 C-49.06233119 68.55461393 -49.16408804 75.03898444 -49.26171875 81.5234375 C-47.98941406 81.51892578 -46.71710938 81.51441406 -45.40625 81.50976562 C-42.64104524 81.49995993 -39.99587024 81.56774559 -37.26171875 82.0234375 C-36.27171875 82.1884375 -35.28171875 82.3534375 -34.26171875 82.5234375 C-34.26171875 86.8134375 -34.26171875 91.1034375 -34.26171875 95.5234375 C-50.43171875 95.5234375 -66.60171875 95.5234375 -83.26171875 95.5234375 C-83.26171875 91.5634375 -83.26171875 87.6034375 -83.26171875 83.5234375 C-77.36640826 81.51652329 -73.9298432 81.5234375 -67.26171875 81.5234375 C-67.26171875 58.4234375 -67.26171875 35.3234375 -67.26171875 11.5234375 C-72.54171875 11.5234375 -77.82171875 11.5234375 -83.26171875 11.5234375 C-83.26171875 7.2334375 -83.26171875 2.9434375 -83.26171875 -1.4765625 C-79.24323913 -2.48118241 -75.43492053 -2.81680073 -71.32421875 -3.0390625 C-70.5772876 -3.081521 -69.83035645 -3.12397949 -69.06079102 -3.16772461 C-62.45110519 -3.51775272 -55.88176723 -3.55265501 -49.26171875 -3.4765625 C-48.76671875 2.9584375 -48.76671875 2.9584375 -48.26171875 9.5234375 C-47.31296875 8.4715625 -46.36421875 7.4196875 -45.38671875 6.3359375 C-34.0544873 -4.97340056 -13.89313983 -9.07013274 0 0 Z " fill="#131721" transform="translate(304.26171875,196.4765625)"/>
<path d="M0 0 C1.16479385 0.00165665 2.32958771 0.00331329 3.52967834 0.00502014 C4.85678078 0.0082151 4.85678078 0.0082151 6.21069336 0.01147461 C6.20403152 0.93553604 6.19736969 1.85959747 6.19050598 2.81166077 C6.13030075 11.53612598 6.08467111 20.26052103 6.05525684 28.98514652 C6.0396261 33.47016858 6.01843538 37.95501844 5.984375 42.43994141 C5.95168883 46.77120587 5.93382086 51.10230508 5.92606163 55.4336834 C5.9205347 57.08303871 5.90974196 58.73238537 5.89350319 60.38167 C5.87160537 62.6986532 5.86873151 65.0149606 5.87011719 67.33203125 C5.86345535 68.64885391 5.85679352 69.96567657 5.84992981 71.32240295 C6.26927808 75.61054627 7.22985003 78.20583513 9.21069336 82.01147461 C14.24588445 85.91374771 20.11554332 85.75955439 26.21069336 85.01147461 C34.27015968 82.80268123 42.73095631 77.12773294 47.21069336 70.01147461 C47.67945195 67.39248377 47.67945195 67.39248377 47.64306641 64.50854492 C47.66286057 63.40770569 47.68265472 62.30686646 47.70304871 61.17266846 C47.70943863 59.99025574 47.71582855 58.80784302 47.72241211 57.58959961 C47.74933891 55.76691559 47.74933891 55.76691559 47.77680969 53.90740967 C47.83100194 50.02546664 47.86483806 46.1436472 47.89819336 42.26147461 C47.93135844 39.62994696 47.96584733 36.99843564 48.00170898 34.36694336 C48.08673405 27.91520949 48.1535034 21.46351285 48.21069336 15.01147461 C43.92069336 15.01147461 39.63069336 15.01147461 35.21069336 15.01147461 C35.21069336 10.72147461 35.21069336 6.43147461 35.21069336 2.01147461 C38.96871159 1.07197005 42.29330865 0.70380959 46.14819336 0.44897461 C47.3534668 0.36518555 48.55874023 0.28139648 49.80053711 0.19506836 C55.5992227 -0.04632953 61.40698528 0.01147461 67.21069336 0.01147461 C67.21069336 28.39147461 67.21069336 56.77147461 67.21069336 86.01147461 C70.84069336 86.01147461 74.47069336 86.01147461 78.21069336 86.01147461 C80.19069336 86.50647461 80.19069336 86.50647461 82.21069336 87.01147461 C82.21069336 90.97147461 82.21069336 94.93147461 82.21069336 99.01147461 C78.83162108 100.70101075 74.99670692 100.40115929 71.27319336 100.57397461 C70.41814209 100.61643311 69.56309082 100.6588916 68.68212891 100.70263672 C62.51867657 100.99241402 56.3814117 101.10090531 50.21069336 101.01147461 C49.22069336 94.08147461 49.22069336 94.08147461 48.21069336 87.01147461 C46.93194336 88.22834961 45.65319336 89.44522461 44.33569336 90.69897461 C35.54500047 98.496057 25.54976268 102.56421875 13.78881836 102.25756836 C5.79716361 101.49472859 -1.18210618 98.84909592 -6.78930664 93.01147461 C-12.85193943 84.14799986 -13.61285619 75.78933321 -13.37524414 65.40209961 C-13.3640223 63.93953207 -13.35549628 62.47694163 -13.34951782 61.01434326 C-13.32685306 57.20637257 -13.26813299 53.39982442 -13.20129395 49.59240723 C-13.13938036 45.69062534 -13.11239934 41.78860848 -13.08227539 37.88647461 C-13.01835879 30.26075784 -12.9130277 22.63649856 -12.78930664 15.01147461 C-17.40930664 15.01147461 -22.02930664 15.01147461 -26.78930664 15.01147461 C-26.78930664 10.72147461 -26.78930664 6.43147461 -26.78930664 2.01147461 C-22.93056778 1.04678989 -19.29647944 0.68012258 -15.35180664 0.44897461 C-14.0537207 0.36518555 -12.75563477 0.28139648 -11.41821289 0.19506836 C-7.61023036 0.00440128 -3.81247798 -0.00704377 0 0 Z " fill="#131721" transform="translate(130.789306640625,192.988525390625)"/>
<path d="M0 0 C6.79686545 4.94675343 9.96919593 11.64965968 11.53831482 19.7940979 C11.97978374 22.85962001 12.12052535 25.72779594 12.11352539 28.82177734 C12.11341209 30.50284073 12.11341209 30.50284073 12.11329651 32.21786499 C12.10813522 33.41182892 12.10297394 34.60579285 12.09765625 35.8359375 C12.0962413 37.07042633 12.09482635 38.30491516 12.09336853 39.57681274 C12.08778272 43.50956675 12.07523275 47.44226328 12.0625 51.375 C12.05691912 54.04557208 12.05292058 56.71614363 12.04882812 59.38671875 C12.03781792 65.92449869 12.02109385 72.46224524 12 79 C9.39802798 80.00605593 6.79370638 81.00502525 4.1875 82 C3.44951172 82.28617187 2.71152344 82.57234375 1.95117188 82.8671875 C0.88286133 83.27324219 0.88286133 83.27324219 -0.20703125 83.6875 C-0.8616333 83.93886719 -1.51623535 84.19023437 -2.19067383 84.44921875 C-4 85 -4 85 -7 85 C-7.00586624 84.22405487 -7.01173248 83.44810974 -7.01777649 82.64865112 C-7.07577718 75.32166551 -7.14789562 67.99501709 -7.23571491 60.66833305 C-7.2803658 56.90195751 -7.3196332 53.13568882 -7.34643555 49.36914062 C-7.37252177 45.7314476 -7.41296081 42.09416689 -7.46318626 38.45672989 C-7.47981923 37.07178009 -7.49135572 35.68675902 -7.49761391 34.30172348 C-7.50729302 32.35581826 -7.53708156 30.410045 -7.56762695 28.46435547 C-7.57873001 27.35849091 -7.58983307 26.25262634 -7.60127258 25.11325073 C-8.16952659 20.67634186 -9.65495063 17.25827199 -12.9375 14.1875 C-17.19377934 11.73691493 -21.12422233 11.60679212 -26 12 C-34.69226381 14.35385937 -42.1193211 19.3333933 -47 27 C-47.46875859 29.61899084 -47.46875859 29.61899084 -47.43237305 32.50292969 C-47.45216721 33.60376892 -47.47196136 34.70460815 -47.49235535 35.83880615 C-47.50194023 37.61242523 -47.50194023 37.61242523 -47.51171875 39.421875 C-47.52966995 40.63699768 -47.54762115 41.85212036 -47.56611633 43.10406494 C-47.62030858 46.98600797 -47.6541447 50.86782741 -47.6875 54.75 C-47.72066508 57.38152765 -47.75515397 60.01303897 -47.79101562 62.64453125 C-47.8760404 69.09624335 -47.94435271 75.54797127 -48 82 C-47.26394531 81.98839844 -46.52789062 81.97679687 -45.76953125 81.96484375 C-44.79371094 81.95582031 -43.81789063 81.94679688 -42.8125 81.9375 C-41.84957031 81.92589844 -40.88664062 81.91429687 -39.89453125 81.90234375 C-37 82 -37 82 -32 83 C-32 87.29 -32 91.58 -32 96 C-48.17 96 -64.34 96 -81 96 C-81 91.71 -81 87.42 -81 83 C-77 82 -77 82 -66 82 C-66 58.9 -66 35.8 -66 12 C-70.95 11.67 -75.9 11.34 -81 11 C-81 6.71 -81 2.42 -81 -2 C-69.64404669 -3.09454972 -58.39916865 -3.09687679 -47 -3 C-47 1.29 -47 5.58 -47 10 C-45.88625 8.783125 -44.7725 7.56625 -43.625 6.3125 C-32.49449604 -4.85761429 -13.85942235 -8.49204606 0 0 Z " fill="#131721" transform="translate(358,51)"/>
<path d="M0 0 C8.70191053 6.1043253 13.61102094 15.1755637 15.54296875 25.52734375 C16.03941092 30.19000646 16.34722448 34.84298098 16.54296875 39.52734375 C10.93852124 42.45827464 5.37800252 44.7968593 -0.6015625 46.83984375 C-1.45199631 47.13544189 -2.30243011 47.43104004 -3.17863464 47.7355957 C-5.87386239 48.67128832 -8.57157052 49.59956452 -11.26953125 50.52734375 C-13.95035027 51.45471518 -16.63063425 52.38361681 -19.3107605 53.31298828 C-21.03171187 53.9091732 -22.7531604 54.50392513 -24.47512817 55.09716797 C-29.80996355 56.93842644 -35.10919552 58.85300478 -40.36987305 60.8984375 C-42.45703125 61.52734375 -42.45703125 61.52734375 -46.45703125 61.52734375 C-42.45827093 70.03985626 -38.58747815 76.02847329 -29.6875 79.65625 C-19.5668467 82.38527743 -8.76686312 81.19005686 0.54296875 76.52734375 C1.42597656 75.98722656 2.30898437 75.44710937 3.21875 74.890625 C5.54296875 73.52734375 5.54296875 73.52734375 7.54296875 73.52734375 C9.52296875 77.81734375 11.50296875 82.10734375 13.54296875 86.52734375 C-1.5269715 96.76352958 -18.425397 98.79377027 -36.25390625 95.9140625 C-47.98084953 92.39287715 -57.11438716 84.5939871 -62.85546875 73.9296875 C-70.18970792 58.85846192 -70.91610862 40.3934263 -65.45703125 24.52734375 C-60.27198743 11.92416939 -53.14188647 2.90613467 -40.51953125 -2.80078125 C-27.05043164 -7.58231161 -12.3924065 -7.4275632 0 0 Z M-41.45703125 16.52734375 C-46.23679085 23.80814035 -48.67594493 30.67148794 -49.08203125 39.40234375 C-49.12070313 40.09070313 -49.159375 40.7790625 -49.19921875 41.48828125 C-49.29251291 43.16757621 -49.37581363 44.84742142 -49.45703125 46.52734375 C-43.27482765 45.29091444 -37.4142939 43.61839119 -31.484375 41.48828125 C-30.67585587 41.20256256 -29.86733673 40.91684387 -29.03431702 40.62246704 C-26.48595229 39.72065943 -23.94023118 38.81164296 -21.39453125 37.90234375 C-19.65316543 37.28467496 -17.91163038 36.66748307 -16.16992188 36.05078125 C-11.93031748 34.54846856 -7.69306592 33.03969109 -3.45703125 31.52734375 C-3.44027344 30.26567383 -3.42351562 29.00400391 -3.40625 27.70410156 C-3.39682373 26.99441223 -3.38739746 26.2847229 -3.37768555 25.55352783 C-3.5579115 20.95125023 -5.81406866 17.1848421 -8.45703125 13.52734375 C-13.3469726 9.12300859 -19.22957269 8.97181563 -25.5546875 9.203125 C-31.75376624 9.89561966 -37.04555654 11.99663999 -41.45703125 16.52734375 Z " fill="#131721" transform="translate(174.45703125,52.47265625)"/>
<path d="M0 0 C0 43.56 0 87.12 0 132 C4.29 132.66 8.58 133.32 13 134 C13 138.29 13 142.58 13 147 C-2.51 147 -18.02 147 -34 147 C-34 143.04 -34 139.08 -34 135 C-28.79114138 133.37223168 -24.64021306 132.70502663 -19 132 C-19 96.03 -19 60.06 -19 23 C-25.435 24.98 -25.435 24.98 -32 27 C-32.66 27 -33.32 27 -34 27 C-34 22.05 -34 17.1 -34 12 C-4.52427184 0 -4.52427184 0 0 0 Z " fill="#131721" transform="translate(370,145)"/>
<path d="M0 0 C0 43.89 0 87.78 0 133 C3.3 133 6.6 133 10 133 C11.32 133.33 12.64 133.66 14 134 C14 138.29 14 142.58 14 147 C-1.51 147 -17.02 147 -33 147 C-33 142.71 -33 138.42 -33 134 C-29 133 -29 133 -18 133 C-18 96.37 -18 59.74 -18 22 C-24.435 23.98 -24.435 23.98 -31 26 C-31.66 26 -32.32 26 -33 26 C-33 21.05 -33 16.1 -33 11 C-29.85547591 9.72584731 -26.70945984 8.45561155 -23.5625 7.1875 C-22.68400391 6.83107422 -21.80550781 6.47464844 -20.90039062 6.10742188 C-5.71588303 0 -5.71588303 0 0 0 Z " fill="#131721" transform="translate(33,0)"/>
<path d="M0 0 C1.22589844 -0.01417969 2.45179688 -0.02835938 3.71484375 -0.04296875 C7.0625 0.1875 7.0625 0.1875 11.0625 2.1875 C9.7425 7.7975 8.4225 13.4075 7.0625 19.1875 C5.4125 18.8575 3.7625 18.5275 2.0625 18.1875 C-3.8529057 17.79960454 -8.65399039 18.34073096 -13.9375 21.1875 C-14.46730469 21.71730469 -14.99710938 22.24710938 -15.54296875 22.79296875 C-16.00316406 23.25316406 -16.46335938 23.71335937 -16.9375 24.1875 C-17.5975 24.1875 -18.2575 24.1875 -18.9375 24.1875 C-19.205625 24.765 -19.47375 25.3425 -19.75 25.9375 C-20.9375 28.1875 -20.9375 28.1875 -22.48469543 29.9899292 C-24.28565727 32.71413673 -24.33193422 34.35106963 -24.36987305 37.59863281 C-24.38966721 38.67945129 -24.40946136 39.76026978 -24.42985535 40.87384033 C-24.43624527 42.03437927 -24.44263519 43.19491821 -24.44921875 44.390625 C-24.46716995 45.58355164 -24.48512115 46.77647827 -24.50361633 48.0055542 C-24.55780371 51.81616683 -24.5916431 55.62665359 -24.625 59.4375 C-24.65816551 62.02085088 -24.69265445 64.60418513 -24.72851562 67.1875 C-24.81353522 73.52072047 -24.88184958 79.85395706 -24.9375 86.1875 C-23.72513672 86.17009766 -23.72513672 86.17009766 -22.48828125 86.15234375 C-21.41964844 86.14332031 -20.35101563 86.13429688 -19.25 86.125 C-18.19425781 86.11339844 -17.13851562 86.10179687 -16.05078125 86.08984375 C-12.9375 86.1875 -12.9375 86.1875 -7.9375 87.1875 C-7.9375 91.4775 -7.9375 95.7675 -7.9375 100.1875 C-24.7675 100.1875 -41.5975 100.1875 -58.9375 100.1875 C-58.9375 95.8975 -58.9375 91.6075 -58.9375 87.1875 C-54.9375 86.1875 -54.9375 86.1875 -43.9375 86.1875 C-43.9375 63.0875 -43.9375 39.9875 -43.9375 16.1875 C-48.8875 15.8575 -53.8375 15.5275 -58.9375 15.1875 C-58.9375 10.8975 -58.9375 6.6075 -58.9375 2.1875 C-47.58154669 1.09295028 -36.33666865 1.09062321 -24.9375 1.1875 C-24.4425 7.1275 -24.4425 7.1275 -23.9375 13.1875 C-22.9784375 11.888125 -22.9784375 11.888125 -22 10.5625 C-16.11381085 3.46196811 -9.10572613 0.04777401 0 0 Z M-25.9375 15.1875 C-24.9375 17.1875 -24.9375 17.1875 -24.9375 17.1875 Z " fill="#131721" transform="translate(257.9375,46.8125)"/>
<path d="M0 0 C16.17 0 32.34 0 49 0 C49 4.62 49 9.24 49 14 C46.855 13.835 44.71 13.67 42.5 13.5 C35.90075302 13.53372574 32.25724597 15.89750647 27.61328125 20.45117188 C24.98249303 23.23980739 22.4262981 26.08679845 19.89501953 28.96582031 C17.46750475 31.57159887 14.82779163 33.83152176 12.07006836 36.07958984 C9.11161514 38.82415795 6.57980423 41.90235931 4 45 C4.87213135 45.86689453 5.7442627 46.73378906 6.64282227 47.62695312 C9.90877402 50.87466792 13.17130299 54.12580327 16.43286133 57.37792969 C17.83917075 58.77924133 19.24638022 60.17965036 20.65454102 61.57910156 C22.69009656 63.60239038 24.72228531 65.62901128 26.75390625 67.65625 C27.37399063 68.2711731 27.99407501 68.88609619 28.63294983 69.51965332 C32.42888851 73.31511422 35.96067545 77.23059193 39.35766602 81.38916016 C42.05943059 84.03911447 44.76931302 84.22051909 48.4375 84.5 C50.29181641 84.67015625 50.29181641 84.67015625 52.18359375 84.84375 C53.57771484 84.92109375 53.57771484 84.92109375 55 85 C55 89.29 55 93.58 55 98 C39.82 98 24.64 98 9 98 C9 93.71 9 89.42 9 85 C12.96 84.01 12.96 84.01 17 83 C17 82.34 17 81.68 17 81 C16.34 81 15.68 81 15 81 C13.80078125 79.77734375 13.80078125 79.77734375 12.3125 77.9375 C8.59908626 73.55176293 4.5840866 69.53522316 0.5 65.5 C-4.07210016 60.97362642 -8.56734719 56.45187593 -12.703125 51.515625 C-14.06261413 49.92682445 -15.50441849 48.46039136 -17 47 C-15.34265313 42.65078402 -12.08848455 39.9086249 -8.8125 36.75 C-4.54439506 32.56601868 -0.43707171 28.34849299 3.43359375 23.7890625 C6.13264102 20.70636013 9.06420518 17.85548433 12 15 C11.21753906 14.93941406 10.43507813 14.87882812 9.62890625 14.81640625 C8.61699219 14.73261719 7.60507812 14.64882813 6.5625 14.5625 C5.04849609 14.44068359 5.04849609 14.44068359 3.50390625 14.31640625 C1 14 1 14 0 13 C0 8.71 0 4.42 0 0 Z " fill="#131721" transform="translate(53,49)"/>
<path d="M0 0 C5.42417231 4.03659335 10.58638102 9.11800639 11.6875 16 C11.86559827 23.028945 10.48386933 28.72282103 5.6875 34 C-0.02409719 38.47575453 -4.96415762 40.48185852 -12.3125 40 C-17.94043713 38.64374191 -21.50502432 36.4601858 -25.3125 32 C-26.1478125 31.13375 -26.1478125 31.13375 -27 30.25 C-29.78102463 25.4825292 -30.86379575 20.23595211 -29.6875 14.8125 C-27.57129699 8.03256297 -23.5279325 3.5679163 -17.5234375 -0.08984375 C-12.15685507 -2.29905525 -5.44529364 -1.64386223 0 0 Z " fill="#FEC800" transform="translate(461.3125,33)"/>
<path d="M0 0 C3.63 0 7.26 0 11 0 C11 37.29 11 74.58 11 113 C9.35 113 7.7 113 6 113 C7.98 112.505 7.98 112.505 10 112 C10 75.37 10 38.74 10 1 C6.7 1 3.4 1 0 1 C0 0.67 0 0.34 0 0 Z " fill="#131721" transform="translate(3,209)"/>
<path d="M0 0 C0.66 0 1.32 0 2 0 C2 35.97 2 71.94 2 109 C-0.97 109 -3.94 109 -7 109 C-7 108.67 -7 108.34 -7 108 C-4.36 108 -1.72 108 1 108 C0.67 72.36 0.34 36.72 0 0 Z " fill="#131721" transform="translate(12,23)"/>
<path d="M0 0 C0.66 0 1.32 0 2 0 C2 35.64 2 71.28 2 108 C0.35 108 -1.3 108 -3 108 C-1.02 107.505 -1.02 107.505 1 107 C0.505 54.035 0.505 54.035 0 0 Z " fill="#131721" transform="translate(348,169)"/>
<path d="M0 0 C0.33 0 0.66 0 1 0 C1 30.03 1 60.06 1 91 C0.67 91 0.34 91 0 91 C0 60.97 0 30.94 0 0 Z " fill="#131721" transform="translate(371,146)"/>
<path d="M0 0 C3.3 0 6.6 0 10 0 C10 22.44 10 44.88 10 68 C8.02 68 6.04 68 4 68 C4 67.67 4 67.34 4 67 C5.65 67 7.3 67 9 67 C9 45.22 9 23.44 9 1 C6.03 1 3.06 1 0 1 C0 0.67 0 0.34 0 0 Z " fill="#131721" transform="translate(226,209)"/>
<path d="M0 0 C0.66 0 1.32 0 2 0 C2 22.44 2 44.88 2 68 C-0.97 68 -3.94 68 -7 68 C-7 67.67 -7 67.34 -7 67 C-4.36 67 -1.72 67 1 67 C0.67 44.89 0.34 22.78 0 0 Z " fill="#131721" transform="translate(289,64)"/>
<path d="M0 0 C0.66 0 1.32 0 2 0 C2 22.44 2 44.88 2 68 C-0.97 68 -3.94 68 -7 68 C-7 67.67 -7 67.34 -7 67 C-4.36 67 -1.72 67 1 67 C0.67 44.89 0.34 22.78 0 0 Z " fill="#131721" transform="translate(211,64)"/>
<path d="M0 0 C4.95 0 9.9 0 15 0 C15 0.33 15 0.66 15 1 C10.38 1 5.76 1 1 1 C1 21.13 1 41.26 1 62 C0.67 62 0.34 62 0 62 C0 41.54 0 21.08 0 0 Z " fill="#131721" transform="translate(472,210)"/>
<path d="M0 0 C0.33 0 0.66 0 1 0 C1 22.11 1 44.22 1 67 C0.67 67 0.34 67 0 67 C0 44.89 0 22.78 0 0 Z " fill="#131721" transform="translate(137,200)"/>
<path d="M0 0 C0.33 0 0.66 0 1 0 C1 21.78 1 43.56 1 66 C0.67 66 0.34 66 0 66 C0 44.22 0 22.44 0 0 Z " fill="#131721" transform="translate(198,209)"/>
<path d="M0 0 C0.33 0 0.66 0 1 0 C1 19.14 1 38.28 1 58 C-0.98 58 -2.96 58 -5 58 C-5 57.67 -5 57.34 -5 57 C-3.35 57 -1.7 57 0 57 C0 38.19 0 19.38 0 0 Z " fill="#131721" transform="translate(295,219)"/>
<path d="M0 0 C2.64 0 5.28 0 8 0 C8 17.82 8 35.64 8 54 C7.67 54 7.34 54 7 54 C7 36.51 7 19.02 7 1 C4.69 1 2.38 1 0 1 C0 0.67 0 0.34 0 0 Z " fill="#131721" transform="translate(170,209)"/>
<path d="M0 0 C0.495 0.99 0.495 0.99 1 2 C-18.8 2 -38.6 2 -59 2 C-59 1.67 -59 1.34 -59 1 C-39.53 0.67 -20.06 0.34 0 0 Z " fill="#131721" transform="translate(450,192)"/>
<path d="M0 0 C0.33 0 0.66 0 1 0 C1 17.49 1 34.98 1 53 C2.65 53 4.3 53 6 53 C6 53.33 6 53.66 6 54 C4.02 54 2.04 54 0 54 C0 36.18 0 18.36 0 0 Z " fill="#131721" transform="translate(256,223)"/>
<path d="M0 0 C0.33 0 0.66 0 1 0 C1 10.56 1 21.12 1 32 C7.93 32 14.86 32 22 32 C22 32.33 22 32.66 22 33 C14.74 33 7.48 33 0 33 C0 22.11 0 11.22 0 0 Z " fill="#131721" transform="translate(472,161)"/>
<path d="M0 0 C0.33 0 0.66 0 1 0 C1 17.82 1 35.64 1 54 C0.67 54 0.34 54 0 54 C0 36.18 0 18.36 0 0 Z " fill="#131721" transform="translate(371,75)"/>
<path d="M0 0 C0.33 0 0.66 0 1 0 C1 17.49 1 34.98 1 53 C0.67 53 0.34 53 0 53 C0 35.51 0 18.02 0 0 Z " fill="#131721" transform="translate(34,219)"/>
<path d="M0 0 C16.83 0 33.66 0 51 0 C51 0.33 51 0.66 51 1 C34.17 1 17.34 1 0 1 C0 0.67 0 0.34 0 0 Z " fill="#131722" transform="translate(199,148)"/>
<path d="M0 0 C16.17 0 32.34 0 49 0 C49 0.33 49 0.66 49 1 C32.83 1 16.66 1 0 1 C0 0.67 0 0.34 0 0 Z " fill="#131721" transform="translate(221,293)"/>
<path d="M0 0 C16.17 0 32.34 0 49 0 C49 0.33 49 0.66 49 1 C32.83 1 16.66 1 0 1 C0 0.67 0 0.34 0 0 Z " fill="#131721" transform="translate(277,148)"/>
<path d="M0 0 C15.84 0 31.68 0 48 0 C48 0.33 48 0.66 48 1 C32.16 1 16.32 1 0 1 C0 0.67 0 0.34 0 0 Z " fill="#131721" transform="translate(282,293)"/>
<path d="M0 0 C15.84 0 31.68 0 48 0 C48 0.33 48 0.66 48 1 C32.16 1 16.32 1 0 1 C0 0.67 0 0.34 0 0 Z " fill="#141822" transform="translate(54,47)"/>
<path d="M0 0 C15.51 0 31.02 0 47 0 C47 0.33 47 0.66 47 1 C31.49 1 15.98 1 0 1 C0 0.67 0 0.34 0 0 Z " fill="#131721" transform="translate(336,293)"/>
<path d="M0 0 C15.51 0 31.02 0 47 0 C47 0.33 47 0.66 47 1 C31.49 1 15.98 1 0 1 C0 0.67 0 0.34 0 0 Z " fill="#131721" transform="translate(0,148)"/>
<path d="M0 0 C14.85 0 29.7 0 45 0 C45 0.33 45 0.66 45 1 C30.15 1 15.3 1 0 1 C0 0.67 0 0.34 0 0 Z " fill="#131721" transform="translate(399,293)"/>
<path d="M0 0 C14.85 0 29.7 0 45 0 C45 0.33 45 0.66 45 1 C30.15 1 15.3 1 0 1 C0 0.67 0 0.34 0 0 Z " fill="#131721" transform="translate(62,148)"/>
<path d="M0 0 C2.42248355 3.63372533 2.17281207 6.12080842 1.9765625 10.29296875 C1.95153656 10.99899734 1.92651062 11.70502594 1.90072632 12.43244934 C1.81863741 14.68462949 1.72200748 16.93591791 1.625 19.1875 C1.56674891 20.71545852 1.50944586 22.24345349 1.453125 23.77148438 C1.3130757 27.51483461 1.15998394 31.25745088 1 35 C2.32 35.33 3.64 35.66 5 36 C3.35 36 1.7 36 0 36 C0 24.12 0 12.24 0 0 Z " fill="#131721" transform="translate(371,241)"/>
<path d="M0 0 C0.33 0 0.66 0 1 0 C1 10.56 1 21.12 1 32 C2.32 32.33 3.64 32.66 5 33 C3.35 33 1.7 33 0 33 C0 22.11 0 11.22 0 0 Z " fill="#131721" transform="translate(34,289)"/>
<path d="M0 0 C0.33 0 0.66 0 1 0 C1 7.26 1 14.52 1 22 C0.67 22 0.34 22 0 22 C0 14.74 0 7.48 0 0 Z " fill="#131721" transform="translate(101,231)"/>
<path d="M0 0 C6.6 0 13.2 0 20 0 C20 0.33 20 0.66 20 1 C13.4 1 6.8 1 0 1 C0 0.67 0 0.34 0 0 Z " fill="#131721" transform="translate(291,46)"/>
<path d="M0 0 C6.6 0 13.2 0 20 0 C20 0.33 20 0.66 20 1 C13.4 1 6.8 1 0 1 C0 0.67 0 0.34 0 0 Z " fill="#131721" transform="translate(213,46)"/>
<path d="M0 0 C0.33 0 0.66 0 1 0 C1 5.61 1 11.22 1 17 C0.67 17 0.34 17 0 17 C0 11.39 0 5.78 0 0 Z " fill="#131721" transform="translate(104,91)"/>
<path d="M0 0 C5.28 0 10.56 0 16 0 C16 0.33 16 0.66 16 1 C10.72 1 5.44 1 0 1 C0 0.67 0 0.34 0 0 Z " fill="#131721" transform="translate(144,45)"/>
<path d="M0 0 C4.95 0 9.9 0 15 0 C15 0.33 15 0.66 15 1 C10.05 1 5.1 1 0 1 C0 0.67 0 0.34 0 0 Z " fill="#131721" transform="translate(46,277)"/>
<path d="M0 0 C4.95 0 9.9 0 15 0 C15 0.33 15 0.66 15 1 C10.05 1 5.1 1 0 1 C0 0.67 0 0.34 0 0 Z " fill="#131721" transform="translate(87,64)"/>
<path d="M0 0 C4.62 0 9.24 0 14 0 C14 0.33 14 0.66 14 1 C9.38 1 4.76 1 0 1 C0 0.67 0 0.34 0 0 Z " fill="#131721" transform="translate(196,294)"/>
<path d="M0 0 C0.33 0 0.66 0 1 0 C1 2.64 1 5.28 1 8 C1.66 8.33 2.32 8.66 3 9 C2.01 9.66 1.02 10.32 0 11 C0 7.37 0 3.74 0 0 Z " fill="#131721" transform="translate(256,194)"/>
<path d="M0 0 C4.62 0 9.24 0 14 0 C14 0.33 14 0.66 14 1 C9.38 1 4.76 1 0 1 C0 0.67 0 0.34 0 0 Z " fill="#131721" transform="translate(4,192)"/>
<path d="M0 0 C4.62 0 9.24 0 14 0 C14 0.33 14 0.66 14 1 C9.38 1 4.76 1 0 1 C0 0.67 0 0.34 0 0 Z " fill="#131721" transform="translate(333,45)"/>
<path d="M0 0 C0.33 0 0.66 0 1 0 C1 4.29 1 8.58 1 13 C0.67 13 0.34 13 0 13 C0 8.71 0 4.42 0 0 Z " fill="#131721" transform="translate(388,195)"/>
<path d="M0 0 C4.29 0 8.58 0 13 0 C13 0.33 13 0.66 13 1 C8.71 1 4.42 1 0 1 C0 0.67 0 0.34 0 0 Z " fill="#131721" transform="translate(226,192)"/>
<path d="M0 0 C4.29 0 8.58 0 13 0 C13 0.33 13 0.66 13 1 C8.71 1 4.42 1 0 1 C0 0.67 0 0.34 0 0 Z " fill="#131721" transform="translate(170,192)"/>
<path d="M0 0 C4.29 0 8.58 0 13 0 C13 0.33 13 0.66 13 1 C8.71 1 4.42 1 0 1 C0 0.67 0 0.34 0 0 Z " fill="#131721" transform="translate(109,192)"/>
<path d="M0 0 C0.33 0 0.66 0 1 0 C1 4.29 1 8.58 1 13 C0.67 13 0.34 13 0 13 C0 8.71 0 4.42 0 0 Z " fill="#131721" transform="translate(334,158)"/>
<path d="M0 0 C0.33 0 0.66 0 1 0 C1 4.29 1 8.58 1 13 C0.67 13 0.34 13 0 13 C0 8.71 0 4.42 0 0 Z " fill="#131721" transform="translate(60,134)"/>
<path d="M0 0 C0.33 0 0.66 0 1 0 C1 4.29 1 8.58 1 13 C0.67 13 0.34 13 0 13 C0 8.71 0 4.42 0 0 Z " fill="#131721" transform="translate(48,134)"/>
<path d="M0 0 C0.33 0 0.66 0 1 0 C1.33 3.3 1.66 6.6 2 10 C1.01 10.495 1.01 10.495 0 11 C0 7.37 0 3.74 0 0 Z " fill="#131721" transform="translate(234,48)"/>
<path d="M0 0 C0.33 0 0.66 0 1 0 C1 3.96 1 7.92 1 12 C0.67 12 0.34 12 0 12 C0 8.04 0 4.08 0 0 Z " fill="#131721" transform="translate(50,325)"/>
<path d="M0 0 C0.33 0 0.66 0 1 0 C1 3.96 1 7.92 1 12 C0.67 12 0.34 12 0 12 C0 8.04 0 4.08 0 0 Z " fill="#131721" transform="translate(384,280)"/>
<path d="M0 0 C0.33 0 0.66 0 1 0 C1 3.96 1 7.92 1 12 C0.67 12 0.34 12 0 12 C0 8.04 0 4.08 0 0 Z " fill="#131721" transform="translate(332,280)"/>
<path d="M0 0 C0.33 0 0.66 0 1 0 C1 3.96 1 7.92 1 12 C0.67 12 0.34 12 0 12 C0 8.04 0 4.08 0 0 Z " fill="#131721" transform="translate(214,280)"/>
<path d="M0 0 C0.33 0 0.66 0 1 0 C1 3.96 1 7.92 1 12 C0.67 12 0.34 12 0 12 C0 8.04 0 4.08 0 0 Z " fill="#131721" transform="translate(396,280)"/>
<path d="M0 0 C0.33 0 0.66 0 1 0 C1 3.96 1 7.92 1 12 C0.67 12 0.34 12 0 12 C0 8.04 0 4.08 0 0 Z " fill="#131721" transform="translate(334,280)"/>
<path d="M0 0 C0.33 0 0.66 0 1 0 C1 3.96 1 7.92 1 12 C0.67 12 0.34 12 0 12 C0 8.04 0 4.08 0 0 Z " fill="#131722" transform="translate(280,280)"/>
<path d="M0 0 C0.33 0 0.66 0 1 0 C1 3.96 1 7.92 1 12 C0.67 12 0.34 12 0 12 C0 8.04 0 4.08 0 0 Z " fill="#131721" transform="translate(219,280)"/>
<path d="M0 0 C0.33 0 0.66 0 1 0 C1 3.96 1 7.92 1 12 C0.67 12 0.34 12 0 12 C0 8.04 0 4.08 0 0 Z " fill="#141822" transform="translate(445,280)"/>
<path d="M0 0 C0.33 0 0.66 0 1 0 C1 3.96 1 7.92 1 12 C0.67 12 0.34 12 0 12 C0 8.04 0 4.08 0 0 Z " fill="#141822" transform="translate(271,280)"/>
<path d="M0 0 C0.33 0 0.66 0 1 0 C1 3.96 1 7.92 1 12 C0.67 12 0.34 12 0 12 C0 8.04 0 4.08 0 0 Z " fill="#131721" transform="translate(219,195)"/>
<path d="M0 0 C0.33 0 0.66 0 1 0 C1 3.96 1 7.92 1 12 C0.67 12 0.34 12 0 12 C0 8.04 0 4.08 0 0 Z " fill="#131721" transform="translate(102,195)"/>
<path d="M0 0 C0.33 0 0.66 0 1 0 C1 3.96 1 7.92 1 12 C0.67 12 0.34 12 0 12 C0 8.04 0 4.08 0 0 Z " fill="#131721" transform="translate(199,194)"/>
<path d="M0 0 C0.33 0 0.66 0 1 0 C1 3.96 1 7.92 1 12 C0.67 12 0.34 12 0 12 C0 8.04 0 4.08 0 0 Z " fill="#141822" transform="translate(496,195)"/>
<path d="M0 0 C0.33 0 0.66 0 1 0 C1 3.96 1 7.92 1 12 C0.67 12 0.34 12 0 12 C0 8.04 0 4.08 0 0 Z " fill="#131721" transform="translate(251,135)"/>
<path d="M0 0 C0.33 0 0.66 0 1 0 C1 3.96 1 7.92 1 12 C0.67 12 0.34 12 0 12 C0 8.04 0 4.08 0 0 Z " fill="#131721" transform="translate(327,135)"/>
<path d="M0 0 C0.33 0 0.66 0 1 0 C1 3.96 1 7.92 1 12 C0.67 12 0.34 12 0 12 C0 8.04 0 4.08 0 0 Z " fill="#131721" transform="translate(109,135)"/>
<path d="M0 0 C3.63 0.33 7.26 0.66 11 1 C11 1.33 11 1.66 11 2 C7.37 2 3.74 2 0 2 C0 1.34 0 0.68 0 0 Z " fill="#131721" transform="translate(234,130)"/>
<path d="M0 0 C3.96 0 7.92 0 12 0 C12 0.33 12 0.66 12 1 C8.04 1 4.08 1 0 1 C0 0.67 0 0.34 0 0 Z " fill="#131721" transform="translate(146,63)"/>
<path d="M0 0 C0.33 0 0.66 0 1 0 C1.33 3.3 1.66 6.6 2 10 C1.01 10.495 1.01 10.495 0 11 C0 7.37 0 3.74 0 0 Z " fill="#131721" transform="translate(312,48)"/>
<path d="M0 0 C0.33 0 0.66 0 1 0 C1 3.96 1 7.92 1 12 C0.67 12 0.34 12 0 12 C0 8.04 0 4.08 0 0 Z " fill="#131721" transform="translate(197,50)"/>
<path d="M0 0 C3.96 0 7.92 0 12 0 C12 0.33 12 0.66 12 1 C8.04 1 4.08 1 0 1 C0 0.67 0 0.34 0 0 Z " fill="#131721" transform="translate(252,45)"/>
<path d="M0 0 C3.63 0 7.26 0 11 0 C11 0.33 11 0.66 11 1 C7.37 1 3.74 1 0 1 C0 0.67 0 0.34 0 0 Z " fill="#131721" transform="translate(146,277)"/>
<path d="M0 0 C3.63 0 7.26 0 11 0 C11 0.33 11 0.66 11 1 C7.37 1 3.74 1 0 1 C0 0.67 0 0.34 0 0 Z " fill="#131721" transform="translate(440,210)"/>
<path d="M0 0 C0.33 0 0.66 0 1 0 C1 3.63 1 7.26 1 11 C0.67 11 0.34 11 0 11 C0 7.37 0 3.74 0 0 Z " fill="#131721" transform="translate(197,135)"/>
<path d="M0 0 C3.3 0 6.6 0 10 0 C9.34 0.66 8.68 1.32 8 2 C5.27130593 1.96712417 2.7033382 1.43602229 0 1 C0 0.67 0 0.34 0 0 Z " fill="#131721" transform="translate(54,64)"/>
<path d="M0 0 C3.63 0 7.26 0 11 0 C11 0.33 11 0.66 11 1 C7.37 1 3.74 1 0 1 C0 0.67 0 0.34 0 0 Z " fill="#FFC800" transform="translate(447,30)"/>
<path d="M0 0 C3.3 0 6.6 0 10 0 C10 0.33 10 0.66 10 1 C6.7 1 3.4 1 0 1 C0 0.67 0 0.34 0 0 Z " fill="#131721" transform="translate(477,277)"/>
<path d="M0 0 C0.33 0 0.66 0 1 0 C1 3.3 1 6.6 1 10 C0.67 10 0.34 10 0 10 C0 6.7 0 3.4 0 0 Z " fill="#131721" transform="translate(79,238)"/>
<path d="M0 0 C3.3 0 6.6 0 10 0 C10 0.33 10 0.66 10 1 C6.7 1 3.4 1 0 1 C0 0.67 0 0.34 0 0 Z " fill="#131721" transform="translate(245,191)"/>
<path d="M0 0 C3.3 0 6.6 0 10 0 C10 0.33 10 0.66 10 1 C6.7 1 3.4 1 0 1 C0 0.67 0 0.34 0 0 Z " fill="#131721" transform="translate(23,191)"/>
<path d="M0 0 C3.3 0 6.6 0 10 0 C10 0.33 10 0.66 10 1 C6.7 1 3.4 1 0 1 C0 0.67 0 0.34 0 0 Z " fill="#131721" transform="translate(281,190)"/>
<path d="M0 0 C3.3 0 6.6 0 10 0 C10 0.33 10 0.66 10 1 C6.7 1 3.4 1 0 1 C0 0.67 0 0.34 0 0 Z " fill="#131721" transform="translate(311,131)"/>
<path d="M0 0 C0 0.99 0 1.98 0 3 C-2 4.6875 -2 4.6875 -4 6 C-2.84826645 3.53199953 -1.95216435 1.95216435 0 0 Z " fill="#131721" transform="translate(39,88)"/>
<path d="M0 0 C3.3 0 6.6 0 10 0 C10 0.33 10 0.66 10 1 C6.7 1 3.4 1 0 1 C0 0.67 0 0.34 0 0 Z " fill="#131721" transform="translate(277,63)"/>
<path d="M0 0 C3.3 0 6.6 0 10 0 C10 0.33 10 0.66 10 1 C6.7 1 3.4 1 0 1 C0 0.67 0 0.34 0 0 Z " fill="#131721" transform="translate(199,63)"/>
<path d="M0 0 C2.97 0 5.94 0 9 0 C9 0.33 9 0.66 9 1 C6.03 1 3.06 1 0 1 C0 0.67 0 0.34 0 0 Z " fill="#131721" transform="translate(52,296)"/>
<path d="M0 0 C0.33 0 0.66 0 1 0 C1 2.64 1 5.28 1 8 C0.67 8 0.34 8 0 8 C-0.38063221 5.6739143 -0.71269945 3.33944736 -1 1 C-0.67 0.67 -0.34 0.34 0 0 Z " fill="#131721" transform="translate(178,281)"/>
<path d="M0 0 C2.97 0 5.94 0 9 0 C9 0.33 9 0.66 9 1 C6.03 1 3.06 1 0 1 C0 0.67 0 0.34 0 0 Z " fill="#131721" transform="translate(199,277)"/>
<path d="M0 0 C2.97 0 5.94 0 9 0 C9 0.33 9 0.66 9 1 C6.03 1 3.06 1 0 1 C0 0.67 0 0.34 0 0 Z " fill="#131721" transform="translate(108,209)"/>
<path d="M0 0 C2.97 0 5.94 0 9 0 C9 0.33 9 0.66 9 1 C6.03 1 3.06 1 0 1 C0 0.67 0 0.34 0 0 Z " fill="#131721" transform="translate(189,191)"/>
<path d="M0 0 C2.97 0 5.94 0 9 0 C9 0.33 9 0.66 9 1 C6.03 1 3.06 1 0 1 C0 0.67 0 0.34 0 0 Z " fill="#131721" transform="translate(127,191)"/>
<path d="M0 0 C2.97 0 5.94 0 9 0 C9 0.33 9 0.66 9 1 C6.03 1 3.06 1 0 1 C0 0.67 0 0.34 0 0 Z " fill="#131721" transform="translate(56,190)"/>
<path d="M0 0 C2.97 0 5.94 0 9 0 C9 0.33 9 0.66 9 1 C6.03 1 3.06 1 0 1 C0 0.67 0 0.34 0 0 Z " fill="#131721" transform="translate(34,131)"/>
<path d="M0 0 C2.97 0 5.94 0 9 0 C9 0.33 9 0.66 9 1 C6.03 1 3.06 1 0 1 C0 0.67 0 0.34 0 0 Z " fill="#131721" transform="translate(278,47)"/>
<path d="M0 0 C2.97 0 5.94 0 9 0 C9 0.33 9 0.66 9 1 C6.03 1 3.06 1 0 1 C0 0.67 0 0.34 0 0 Z " fill="#131721" transform="translate(200,47)"/>
<path d="M0 0 C2.64 0 5.28 0 8 0 C8 0.33 8 0.66 8 1 C5.36 1 2.72 1 0 1 C0 0.67 0 0.34 0 0 Z " fill="#131721" transform="translate(475,296)"/>
<path d="M0 0 C2.64 0 5.28 0 8 0 C8 0.33 8 0.66 8 1 C5.36 1 2.72 1 0 1 C0 0.67 0 0.34 0 0 Z " fill="#131721" transform="translate(143,296)"/>
<path d="M0 0 C0.66 0.66 1.32 1.32 2 2 C-0.31 2 -2.62 2 -5 2 C-5 1.67 -5 1.34 -5 1 C-2.625 0.375 -2.625 0.375 0 0 Z " fill="#131721" transform="translate(404,276)"/>
<path d="M0 0 C2.64 0 5.28 0 8 0 C8 0.33 8 0.66 8 1 C5.36 1 2.72 1 0 1 C0 0.67 0 0.34 0 0 Z " fill="#131721" transform="translate(156,150)"/>
<path d="M0 0 C2.64 0 5.28 0 8 0 C8 0.33 8 0.66 8 1 C5.36 1 2.72 1 0 1 C0 0.67 0 0.34 0 0 Z " fill="#131721" transform="translate(143,150)"/>
<path d="M0 0 C2.64 0 5.28 0 8 0 C8 0.33 8 0.66 8 1 C5.36 1 2.72 1 0 1 C0 0.67 0 0.34 0 0 Z " fill="#131721" transform="translate(95,131)"/>
<path d="M0 0 C0.33 0 0.66 0 1 0 C1 2.31 1 4.62 1 7 C0.67 7 0.34 7 0 7 C0 4.69 0 2.38 0 0 Z " fill="#131721" transform="translate(127,85)"/>
<path d="M0 0 C0.33 0 0.66 0 1 0 C1 2.31 1 4.62 1 7 C0.67 7 0.34 7 0 7 C0 4.69 0 2.38 0 0 Z " fill="#131721" transform="translate(191,78)"/>
<path d="M0 0 C0.33 0 0.66 0 1 0 C1 2.31 1 4.62 1 7 C0.67 7 0.34 7 0 7 C0 4.69 0 2.38 0 0 Z " fill="#131721" transform="translate(169,76)"/>
<path d="M0 0 C2.31 0 4.62 0 7 0 C7 0.33 7 0.66 7 1 C4.69 1 2.38 1 0 1 C0 0.67 0 0.34 0 0 Z " fill="#131721" transform="translate(252,65)"/>
<path d="M0 0 C1.98 0 3.96 0 6 0 C6 0.33 6 0.66 6 1 C4.02 1 2.04 1 0 1 C0 0.67 0 0.34 0 0 Z " fill="#131721" transform="translate(40,322)"/>
<path d="M0 0 C1.98 0 3.96 0 6 0 C6 0.33 6 0.66 6 1 C4.02 1 2.04 1 0 1 C0 0.67 0 0.34 0 0 Z " fill="#131721" transform="translate(2,322)"/>
<path d="M0 0 C1.98 0 3.96 0 6 0 C6 0.33 6 0.66 6 1 C4.02 1 2.04 1 0 1 C0 0.67 0 0.34 0 0 Z " fill="#131721" transform="translate(337,277)"/>
<path d="M0 0 C1.98 0 3.96 0 6 0 C6 0.33 6 0.66 6 1 C4.02 1 2.04 1 0 1 C0 0.67 0 0.34 0 0 Z " fill="#131721" transform="translate(324,277)"/>
<path d="M0 0 C1.98 0 3.96 0 6 0 C6 0.33 6 0.66 6 1 C4.02 1 2.04 1 0 1 C0 0.67 0 0.34 0 0 Z " fill="#131721" transform="translate(222,277)"/>
<path d="M0 0 C1.98 0 3.96 0 6 0 C6 0.33 6 0.66 6 1 C4.02 1 2.04 1 0 1 C0 0.67 0 0.34 0 0 Z " fill="#131721" transform="translate(430,276)"/>
<path d="M0 0 C0.33 0 0.66 0 1 0 C1 1.98 1 3.96 1 6 C0.67 6 0.34 6 0 6 C0 4.02 0 2.04 0 0 Z " fill="#131721" transform="translate(116,267)"/>
<path d="M0 0 C0.33 0 0.66 0 1 0 C1 1.98 1 3.96 1 6 C0.67 6 0.34 6 0 6 C0 4.02 0 2.04 0 0 Z " fill="#131721" transform="translate(78,249)"/>
<path d="M0 0 C0.33 0 0.66 0 1 0 C1 1.98 1 3.96 1 6 C0.67 6 0.34 6 0 6 C0 4.02 0 2.04 0 0 Z " fill="#131721" transform="translate(78,230)"/>
<path d="M0 0 C0.33 0 0.66 0 1 0 C1 1.98 1 3.96 1 6 C0.67 6 0.34 6 0 6 C0 4.02 0 2.04 0 0 Z " fill="#131721" transform="translate(316,213)"/>
<path d="M0 0 C1.98 0 3.96 0 6 0 C6 0.33 6 0.66 6 1 C4.02 1 2.04 1 0 1 C0 0.67 0 0.34 0 0 Z " fill="#131721" transform="translate(423,210)"/>
<path d="M0 0 C1.98 0 3.96 0 6 0 C6 0.33 6 0.66 6 1 C4.02 1 2.04 1 0 1 C0 0.67 0 0.34 0 0 Z " fill="#131721" transform="translate(158,132)"/>
<path d="M0 0 C1.98 0 3.96 0 6 0 C6 0.33 6 0.66 6 1 C4.02 1 2.04 1 0 1 C0 0.67 0 0.34 0 0 Z " fill="#131721" transform="translate(148,132)"/>
<path d="M0 0 C1.98 0 3.96 0 6 0 C6 0.33 6 0.66 6 1 C4.02 1 2.04 1 0 1 C0 0.67 0 0.34 0 0 Z " fill="#FFC900" transform="translate(449,74)"/>
<path d="M0 0 C0.33 0 0.66 0 1 0 C1 1.98 1 3.96 1 6 C0.67 6 0.34 6 0 6 C0 4.02 0 2.04 0 0 Z " fill="#131721" transform="translate(349,73)"/>
<path d="M0 0 C1.98 0 3.96 0 6 0 C6 0.33 6 0.66 6 1 C4.02 1 2.04 1 0 1 C0 0.67 0 0.34 0 0 Z " fill="#131721" transform="translate(333,63)"/>
<path d="M0 0 C1.65 0 3.3 0 5 0 C5 0.33 5 0.66 5 1 C3.35 1 1.7 1 0 1 C0 0.67 0 0.34 0 0 Z " fill="#131721" transform="translate(469,295)"/>
<path d="M0 0 C1.65 0 3.3 0 5 0 C5 0.33 5 0.66 5 1 C3.35 1 1.7 1 0 1 C0 0.67 0 0.34 0 0 Z " fill="#131721" transform="translate(137,295)"/>
<path d="M0 0 C1.65 0 3.3 0 5 0 C5 0.33 5 0.66 5 1 C3.35 1 1.7 1 0 1 C0 0.67 0 0.34 0 0 Z " fill="#131721" transform="translate(46,295)"/>
<path d="M0 0 C1.65 0 3.3 0 5 0 C5 0.33 5 0.66 5 1 C3.35 1 1.7 1 0 1 C0 0.67 0 0.34 0 0 Z " fill="#131721" transform="translate(438,277)"/>
<path d="M0 0 C1.65 0 3.3 0 5 0 C5 0.33 5 0.66 5 1 C3.35 1 1.7 1 0 1 C0 0.67 0 0.34 0 0 Z " fill="#131721" transform="translate(377,277)"/>
<path d="M0 0 C1.65 0 3.3 0 5 0 C5 0.33 5 0.66 5 1 C3.35 1 1.7 1 0 1 C0 0.67 0 0.34 0 0 Z " fill="#131721" transform="translate(283,277)"/>
<path d="M0 0 C1.65 0 3.3 0 5 0 C5 0.33 5 0.66 5 1 C3.35 1 1.7 1 0 1 C0 0.67 0 0.34 0 0 Z " fill="#131721" transform="translate(264,277)"/>
<path d="M0 0 C0.33 0 0.66 0 1 0 C1 1.65 1 3.3 1 5 C0.67 5 0.34 5 0 5 C0 3.35 0 1.7 0 0 Z " fill="#131721" transform="translate(451,272)"/>
<path d="M0 0 C0 0.99 0 1.98 0 3 C-0.66 2.67 -1.32 2.34 -2 2 C-1.34 1.34 -0.68 0.68 0 0 Z " fill="#131721" transform="translate(173,266)"/>
<path d="M0 0 C1.65 0 3.3 0 5 0 C5 0.33 5 0.66 5 1 C3.35 1 1.7 1 0 1 C0 0.67 0 0.34 0 0 Z " fill="#131721" transform="translate(489,209)"/>
<path d="M0 0 C1.65 0 3.3 0 5 0 C5 0.33 5 0.66 5 1 C3.35 1 1.7 1 0 1 C0 0.67 0 0.34 0 0 Z " fill="#131721" transform="translate(390,209)"/>
<path d="M0 0 C1.65 0 3.3 0 5 0 C5 0.33 5 0.66 5 1 C3.35 1 1.7 1 0 1 C0 0.67 0 0.34 0 0 Z " fill="#131721" transform="translate(283,209)"/>
<path d="M0 0 C1.65 0 3.3 0 5 0 C5 0.33 5 0.66 5 1 C3.35 1 1.7 1 0 1 C0 0.67 0 0.34 0 0 Z " fill="#131721" transform="translate(275,209)"/>
<path d="M0 0 C1.65 0 3.3 0 5 0 C5 0.33 5 0.66 5 1 C3.35 1 1.7 1 0 1 C0 0.67 0 0.34 0 0 Z " fill="#131721" transform="translate(58,209)"/>
<path d="M0 0 C1.65 0 3.3 0 5 0 C5 0.33 5 0.66 5 1 C3.35 1 1.7 1 0 1 C0 0.67 0 0.34 0 0 Z " fill="#131721" transform="translate(49,209)"/>
<path d="M0 0 C0.33 0 0.66 0 1 0 C1 1.65 1 3.3 1 5 C0.67 5 0.34 5 0 5 C0 3.35 0 1.7 0 0 Z " fill="#131721" transform="translate(35,194)"/>
<path d="M0 0 C0.33 0 0.66 0 1 0 C1 1.65 1 3.3 1 5 C0.67 5 0.34 5 0 5 C0 3.35 0 1.7 0 0 Z " fill="#131721" transform="translate(105,109)"/>
<path d="M0 0 C0.33 0 0.66 0 1 0 C1 1.65 1 3.3 1 5 C0.67 5 0.34 5 0 5 C0 3.35 0 1.7 0 0 Z " fill="#131721" transform="translate(105,84)"/>
<path d="M0 0 C0.33 0 0.66 0 1 0 C1 1.65 1 3.3 1 5 C0.67 5 0.34 5 0 5 C0 3.35 0 1.7 0 0 Z " fill="#131721" transform="translate(370,68)"/>
<path d="M0 0 C0.33 0 0.66 0 1 0 C1 1.65 1 3.3 1 5 C0.67 5 0.34 5 0 5 C0 3.35 0 1.7 0 0 Z " fill="#FFC900" transform="translate(430,53)"/>
<path d="M0 0 C0.33 0 0.66 0 1 0 C1 1.65 1 3.3 1 5 C0.67 5 0.34 5 0 5 C0 3.35 0 1.7 0 0 Z " fill="#FFC900" transform="translate(474,50)"/>
<path d="M0 0 C0.33 0 0.66 0 1 0 C1 1.65 1 3.3 1 5 C0.67 5 0.34 5 0 5 C0 3.35 0 1.7 0 0 Z " fill="#FEC900" transform="translate(430,46)"/>
<path d="M0 0 C4 1 4 1 4 1 Z " fill="#131722" transform="translate(485,295)"/>
<path d="M0 0 C4 1 4 1 4 1 Z " fill="#131721" transform="translate(152,295)"/>
<path d="M0 0 C4 1 4 1 4 1 Z " fill="#131721" transform="translate(62,295)"/>
<path d="M0 0 C1 4 1 4 1 4 Z " fill="#131721" transform="translate(179,289)"/>
<path d="M0 0 C1 4 1 4 1 4 Z " fill="#131721" transform="translate(100,254)"/>
<path d="M0 0 C0.99 0.495 0.99 0.495 2 1 C1.67 1.66 1.34 2.32 1 3 C0.67 2.01 0.34 1.02 0 0 Z " fill="#131721" transform="translate(394,238)"/>
<path d="M0 0 C1 4 1 4 1 4 Z " fill="#131721" transform="translate(100,225)"/>
<path d="M0 0 C1 4 1 4 1 4 Z " fill="#131721" transform="translate(99,221)"/>
<path d="M0 0 C0.66 0.33 1.32 0.66 2 1 C1.01 1 0.02 1 -1 1 C-0.67 0.67 -0.34 0.34 0 0 Z " fill="#131721" transform="translate(412,220)"/>
<path d="M0 0 C0 3 0 3 0 3 Z " fill="#131721" transform="translate(259,219)"/>
<path d="M0 0 C0.66 0.33 1.32 0.66 2 1 C1.01 1 0.02 1 -1 1 C-0.67 0.67 -0.34 0.34 0 0 Z " fill="#131721" transform="translate(262,216)"/>
<path d="M0 0 C4 1 4 1 4 1 Z " fill="#131721" transform="translate(221,193)"/>
<path d="M0 0 C4 1 4 1 4 1 Z " fill="#131721" transform="translate(104,193)"/>
<path d="M0 0 C4 1 4 1 4 1 Z " fill="#131721" transform="translate(276,191)"/>
<path d="M0 0 C4 1 4 1 4 1 Z " fill="#131721" transform="translate(67,191)"/>
<path d="M0 0 C4 1 4 1 4 1 Z " fill="#131721" transform="translate(50,191)"/>
<path d="M0 0 C4 1 4 1 4 1 Z " fill="#131721" transform="translate(165,149)"/>
<path d="M0 0 C4 1 4 1 4 1 Z " fill="#131721" transform="translate(277,132)"/>
<path d="M0 0 C4 1 4 1 4 1 Z " fill="#131721" transform="translate(246,132)"/>
<path d="M0 0 C4 1 4 1 4 1 Z " fill="#131722" transform="translate(199,132)"/>
<path d="M0 0 C4 1 4 1 4 1 Z " fill="#131721" transform="translate(62,132)"/>
<path d="M0 0 C4 1 4 1 4 1 Z " fill="#131721" transform="translate(43,132)"/>
<path d="M0 0 C4 1 4 1 4 1 Z " fill="#131722" transform="translate(0,132)"/>
<path d="M0 0 C0.99 0.495 0.99 0.495 2 1 C1.67 1.66 1.34 2.32 1 3 C0.67 2.01 0.34 1.02 0 0 Z " fill="#131721" transform="translate(61,123)"/>
<path d="M0 0 C0.66 0 1.32 0 2 0 C1.67 0.99 1.34 1.98 1 3 C0.67 2.01 0.34 1.02 0 0 Z " fill="#131721" transform="translate(129,115)"/>
<path d="M0 0 C0.99 0.495 0.99 0.495 2 1 C1.67 1.66 1.34 2.32 1 3 C0.67 2.01 0.34 1.02 0 0 Z " fill="#131721" transform="translate(38,99)"/>
<path d="M0 0 C0.66 0.33 1.32 0.66 2 1 C1.01 1 0.02 1 -1 1 C-0.67 0.67 -0.34 0.34 0 0 Z " fill="#131721" transform="translate(61,89)"/>
<path d="M0 0 C1 4 1 4 1 4 Z " fill="#131721" transform="translate(106,80)"/>
<path d="M0 0 C4 1 4 1 4 1 Z " fill="#131721" transform="translate(339,64)"/>
<path d="M0 0 C4 1 4 1 4 1 Z " fill="#131721" transform="translate(328,64)"/>
<path d="M0 0 C4 1 4 1 4 1 Z " fill="#131721" transform="translate(329,46)"/>
<path d="M0 0 C3 1 3 1 3 1 Z " fill="#131721" transform="translate(490,294)"/>
<path d="M0 0 C3 1 3 1 3 1 Z " fill="#131721" transform="translate(466,294)"/>
<path d="M0 0 C3 1 3 1 3 1 Z " fill="#131721" transform="translate(157,294)"/>
<path d="M0 0 C3 1 3 1 3 1 Z " fill="#131721" transform="translate(67,294)"/>
<path d="" fill="#131721" transform="translate(0,0)"/>
<path d="M0 0 C3 1 3 1 3 1 Z " fill="#131721" transform="translate(157,276)"/>
<path d="M0 0 C3 1 3 1 3 1 Z " fill="#131721" transform="translate(143,276)"/>
<path d="M0 0 C3 1 3 1 3 1 Z " fill="#131721" transform="translate(61,276)"/>
<path d="M0 0 C3 1 3 1 3 1 Z " fill="#131721" transform="translate(43,276)"/>
<path d="" fill="#131721" transform="translate(0,0)"/>
<path d="M0 0 C0.66 0.66 1.32 1.32 2 2 C1.34 2 0.68 2 0 2 C0 1.34 0 0.68 0 0 Z " fill="#131721" transform="translate(425,270)"/>
<path d="" fill="#131721" transform="translate(0,0)"/>
<path d="" fill="#131721" transform="translate(0,0)"/>
<path d="" fill="#131721" transform="translate(0,0)"/>
<path d="" fill="#131721" transform="translate(0,0)"/>
<path d="" fill="#131721" transform="translate(0,0)"/>
<path d="" fill="#131721" transform="translate(0,0)"/>
<path d="M0 0 C0.66 0 1.32 0 2 0 C1.67 0.66 1.34 1.32 1 2 C0.67 1.34 0.34 0.68 0 0 Z " fill="#131721" transform="translate(70,214)"/>
<path d="" fill="#141822" transform="translate(0,0)"/>
<path d="M0 0 C3 1 3 1 3 1 Z " fill="#131721" transform="translate(63,210)"/>
<path d="" fill="#131721" transform="translate(0,0)"/>
<path d="M0 0 C3 1 3 1 3 1 Z " fill="#131721" transform="translate(166,193)"/>
<path d="M0 0 C3 1 3 1 3 1 Z " fill="#131721" transform="translate(0,193)"/>
<path d="M0 0 C3 1 3 1 3 1 Z " fill="#131721" transform="translate(71,192)"/>
<path d="M0 0 C3 1 3 1 3 1 Z " fill="#131722" transform="translate(293,191)"/>
<path d="M0 0 C3 1 3 1 3 1 Z " fill="#131721" transform="translate(459,161)"/>
<path d="M0 0 C3 1 3 1 3 1 Z " fill="#131721" transform="translate(462,160)"/>
<path d="M0 0 C3 1 3 1 3 1 Z " fill="#131721" transform="translate(465,159)"/>
<path d="M0 0 C3 1 3 1 3 1 Z " fill="#131721" transform="translate(139,149)"/>
<path d="M0 0 C3 1 3 1 3 1 Z " fill="#131721" transform="translate(353,148)"/>
<path d="M0 0 C3 1 3 1 3 1 Z " fill="#131721" transform="translate(170,148)"/>
<path d="M0 0 C3 1 3 1 3 1 Z " fill="#131721" transform="translate(135,148)"/>
<path d="M0 0 C3 1 3 1 3 1 Z " fill="#131721" transform="translate(356,147)"/>
<path d="M0 0 C3 1 3 1 3 1 Z " fill="#131721" transform="translate(173,147)"/>
<path d="M0 0 C3 1 3 1 3 1 Z " fill="#131721" transform="translate(365,144)"/>
<path d="M0 0 C3 1 3 1 3 1 Z " fill="#131721" transform="translate(354,136)"/>
<path d="M0 0 C3 1 3 1 3 1 Z " fill="#131721" transform="translate(357,135)"/>
<path d="M0 0 C3 1 3 1 3 1 Z " fill="#141822" transform="translate(322,132)"/>
<path d="M0 0 C3 1 3 1 3 1 Z " fill="#141822" transform="translate(104,132)"/>
<path d="M0 0 C3 1 3 1 3 1 Z " fill="#131722" transform="translate(165,131)"/>
<path d="M0 0 C3 1 3 1 3 1 Z " fill="#131721" transform="translate(168,130)"/>
<path d="" fill="#131721" transform="translate(0,0)"/>
<path d="" fill="#131721" transform="translate(0,0)"/>
<path d="M0 0 C3 1 3 1 3 1 Z " fill="#131721" transform="translate(137,112)"/>
<path d="M0 0 C3 1 3 1 3 1 Z " fill="#131721" transform="translate(140,111)"/>
<path d="M0 0 C3 1 3 1 3 1 Z " fill="#131721" transform="translate(143,110)"/>
<path d="M0 0 C3 1 3 1 3 1 Z " fill="#131721" transform="translate(146,109)"/>
<path d="M0 0 C3 1 3 1 3 1 Z " fill="#131721" transform="translate(149,108)"/>
<path d="M0 0 C3 1 3 1 3 1 Z " fill="#131721" transform="translate(166,102)"/>
<path d="M0 0 C3 1 3 1 3 1 Z " fill="#131721" transform="translate(169,101)"/>
<path d="M0 0 C3 1 3 1 3 1 Z " fill="#131721" transform="translate(172,100)"/>
<path d="M0 0 C0.66 0.66 1.32 1.32 2 2 C1.34 2 0.68 2 0 2 C0 1.34 0 0.68 0 0 Z " fill="#131721" transform="translate(61,96)"/>
<path d="M0 0 C0.66 0.66 1.32 1.32 2 2 C1.34 2 0.68 2 0 2 C0 1.34 0 0.68 0 0 Z " fill="#131721" transform="translate(35,96)"/>
<path d="M0 0 C3 1 3 1 3 1 Z " fill="#131721" transform="translate(131,95)"/>
<path d="M0 0 C3 1 3 1 3 1 Z " fill="#131721" transform="translate(134,94)"/>
<path d="M0 0 C3 1 3 1 3 1 Z " fill="#131721" transform="translate(137,93)"/>
<path d="M0 0 C3 1 3 1 3 1 Z " fill="#131721" transform="translate(154,87)"/>
<path d="M0 0 C3 1 3 1 3 1 Z " fill="#131721" transform="translate(157,86)"/>
<path d="M0 0 C3 1 3 1 3 1 Z " fill="#131721" transform="translate(160,85)"/>
<path d="" fill="#131721" transform="translate(0,0)"/>
<path d="" fill="#131721" transform="translate(0,0)"/>
<path d="" fill="#131722" transform="translate(0,0)"/>
<path d="" fill="#131721" transform="translate(0,0)"/>
<path d="M0 0 C3 1 3 1 3 1 Z " fill="#FFC800" transform="translate(456,73)"/>
<path d="M0 0 C3 1 3 1 3 1 Z " fill="#FFC900" transform="translate(445,73)"/>
<path d="M0 0 C3 1 3 1 3 1 Z " fill="#131721" transform="translate(260,66)"/>
<path d="M0 0 C3 1 3 1 3 1 Z " fill="#131721" transform="translate(248,66)"/>
<path d="M0 0 C3 1 3 1 3 1 Z " fill="#131721" transform="translate(158,64)"/>
<path d="M0 0 C3 1 3 1 3 1 Z " fill="#131721" transform="translate(143,64)"/>
<path d="" fill="#131721" transform="translate(0,0)"/>
<path d="" fill="#FFC900" transform="translate(0,0)"/>
<path d="" fill="#131722" transform="translate(0,0)"/>
<path d="" fill="#131721" transform="translate(0,0)"/>
<path d="" fill="#FFC900" transform="translate(0,0)"/>
<path d="M0 0 C3 1 3 1 3 1 Z " fill="#131721" transform="translate(165,47)"/>
<path d="M0 0 C3 1 3 1 3 1 Z " fill="#131721" transform="translate(136,47)"/>
<path d="M0 0 C3 1 3 1 3 1 Z " fill="#141822" transform="translate(348,46)"/>
<path d="M0 0 C3 1 3 1 3 1 Z " fill="#131721" transform="translate(265,46)"/>
<path d="M0 0 C3 1 3 1 3 1 Z " fill="#141822" transform="translate(161,46)"/>
<path d="M0 0 C3 1 3 1 3 1 Z " fill="#141822" transform="translate(140,46)"/>
<path d="M0 0 C3 1 3 1 3 1 Z " fill="#131721" transform="translate(9,24)"/>
<path d="M0 0 C3 1 3 1 3 1 Z " fill="#131721" transform="translate(20,1)"/>
<path d="M0 0 C3 1 3 1 3 1 Z " fill="#131721" transform="translate(23,0)"/>
<path d="M0 0 C2 1 2 1 2 1 Z " fill="#131721" transform="translate(47,323)"/>
<path d="M0 0 C2 1 2 1 2 1 Z " fill="#131721" transform="translate(0,323)"/>
<path d="M0 0 C2 1 2 1 2 1 Z " fill="#131721" transform="translate(134,294)"/>
<path d="M0 0 C2 1 2 1 2 1 Z " fill="#131721" transform="translate(43,294)"/>
<path d="M0 0 C2 1 2 1 2 1 Z " fill="#141822" transform="translate(493,293)"/>
<path d="M0 0 C2 1 2 1 2 1 Z " fill="#131721" transform="translate(464,293)"/>
<path d="M0 0 C2 1 2 1 2 1 Z " fill="#141822" transform="translate(160,293)"/>
<path d="M0 0 C2 1 2 1 2 1 Z " fill="#131721" transform="translate(132,293)"/>
<path d="M0 0 C2 1 2 1 2 1 Z " fill="#131721" transform="translate(70,293)"/>
<path d="M0 0 C2 1 2 1 2 1 Z " fill="#131721" transform="translate(163,292)"/>
<path d="M0 0 C2 1 2 1 2 1 Z " fill="#131721" transform="translate(130,292)"/>
<path d="M0 0 C2 1 2 1 2 1 Z " fill="#131722" transform="translate(168,289)"/>
<path d="M0 0 C2 1 2 1 2 1 Z " fill="#131721" transform="translate(78,289)"/>
<path d="M0 0 C2 1 2 1 2 1 Z " fill="#131721" transform="translate(171,287)"/>
<path d="M0 0 C2 1 2 1 2 1 Z " fill="#131721" transform="translate(82,286)"/>
<path d="" fill="#131721" transform="translate(0,0)"/>
<path d="" fill="#131721" transform="translate(0,0)"/>
<path d="" fill="#141822" transform="translate(0,0)"/>
<path d="" fill="#131721" transform="translate(0,0)"/>
<path d="" fill="#131721" transform="translate(0,0)"/>
<path d="" fill="#131721" transform="translate(0,0)"/>
<path d="" fill="#131721" transform="translate(0,0)"/>
<path d="" fill="#131721" transform="translate(0,0)"/>
<path d="M0 0 C2 1 2 1 2 1 Z " fill="#131722" transform="translate(488,276)"/>
<path d="M0 0 C2 1 2 1 2 1 Z " fill="#131721" transform="translate(475,276)"/>
<path d="" fill="#131721" transform="translate(0,0)"/>
<path d="M0 0 C2 1 2 1 2 1 Z " fill="#131721" transform="translate(64,275)"/>
<path d="M0 0 C2 1 2 1 2 1 Z " fill="#141822" transform="translate(40,275)"/>
<path d="M0 0 C2 1 2 1 2 1 Z " fill="#131721" transform="translate(492,274)"/>
<path d="" fill="#141822" transform="translate(0,0)"/>
<path d="M0 0 C2 1 2 1 2 1 Z " fill="#131721" transform="translate(66,274)"/>
<path d="M0 0 C2 1 2 1 2 1 Z " fill="#131721" transform="translate(38,274)"/>
<path d="" fill="#131721" transform="translate(0,0)"/>
<path d="M0 0 C2 1 2 1 2 1 Z " fill="#131721" transform="translate(166,272)"/>
<path d="" fill="#131721" transform="translate(0,0)"/>
<path d="M0 0 C2 1 2 1 2 1 Z " fill="#131721" transform="translate(35,272)"/>
<path d="" fill="#131721" transform="translate(0,0)"/>
<path d="" fill="#131721" transform="translate(0,0)"/>
<path d="" fill="#131721" transform="translate(0,0)"/>
<path d="" fill="#131721" transform="translate(0,0)"/>
<path d="" fill="#131721" transform="translate(0,0)"/>
<path d="" fill="#141822" transform="translate(0,0)"/>
<path d="" fill="#131721" transform="translate(0,0)"/>
<path d="" fill="#131722" transform="translate(0,0)"/>
<path d="" fill="#141822" transform="translate(0,0)"/>
<path d="" fill="#141822" transform="translate(0,0)"/>
<path d="" fill="#131721" transform="translate(0,0)"/>
<path d="" fill="#131721" transform="translate(0,0)"/>
<path d="" fill="#131721" transform="translate(0,0)"/>
<path d="M0 0 C2 1 2 1 2 1 Z " fill="#131722" transform="translate(266,213)"/>
<path d="M0 0 C2 1 2 1 2 1 Z " fill="#131721" transform="translate(40,213)"/>
<path d="M0 0 C2 1 2 1 2 1 Z " fill="#131721" transform="translate(268,212)"/>
<path d="M0 0 C2 1 2 1 2 1 Z " fill="#131721" transform="translate(42,212)"/>
<path d="M0 0 C2 1 2 1 2 1 Z " fill="#141822" transform="translate(290,211)"/>
<path d="M0 0 C2 1 2 1 2 1 Z " fill="#131721" transform="translate(270,211)"/>
<path d="M0 0 C2 1 2 1 2 1 Z " fill="#131721" transform="translate(66,211)"/>
<path d="M0 0 C2 1 2 1 2 1 Z " fill="#131721" transform="translate(44,211)"/>
<path d="M0 0 C2 1 2 1 2 1 Z " fill="#131721" transform="translate(288,210)"/>
<path d="M0 0 C2 1 2 1 2 1 Z " fill="#141822" transform="translate(272,210)"/>
<path d="M0 0 C2 1 2 1 2 1 Z " fill="#141822" transform="translate(46,210)"/>
<path d="M0 0 C2 1 2 1 2 1 Z " fill="#131721" transform="translate(436,209)"/>
<path d="" fill="#131721" transform="translate(0,0)"/>
<path d="" fill="#131721" transform="translate(0,0)"/>
<path d="" fill="#131721" transform="translate(0,0)"/>
<path d="M0 0 C2 1 2 1 2 1 Z " fill="#131721" transform="translate(83,198)"/>
<path d="M0 0 C2 1 2 1 2 1 Z " fill="#131721" transform="translate(263,197)"/>
<path d="M0 0 C2 1 2 1 2 1 Z " fill="#131721" transform="translate(80,196)"/>
<path d="M0 0 C2 1 2 1 2 1 Z " fill="#131721" transform="translate(303,195)"/>
<path d="" fill="#131721" transform="translate(0,0)"/>
<path d="M0 0 C2 1 2 1 2 1 Z " fill="#131721" transform="translate(268,194)"/>
<path d="M0 0 C2 1 2 1 2 1 Z " fill="#131721" transform="translate(77,194)"/>
<path d="M0 0 C2 1 2 1 2 1 Z " fill="#131721" transform="translate(43,194)"/>
<path d="M0 0 C2 1 2 1 2 1 Z " fill="#131721" transform="translate(270,193)"/>
<path d="M0 0 C2 1 2 1 2 1 Z " fill="#131721" transform="translate(74,193)"/>
<path d="M0 0 C2 1 2 1 2 1 Z " fill="#131721" transform="translate(45,193)"/>
<path d="M0 0 C2 1 2 1 2 1 Z " fill="#141822" transform="translate(297,192)"/>
<path d="M0 0 C2 1 2 1 2 1 Z " fill="#131721" transform="translate(273,192)"/>
<path d="M0 0 C2 1 2 1 2 1 Z " fill="#141822" transform="translate(48,192)"/>
<path d="M0 0 C2 1 2 1 2 1 Z " fill="#141822" transform="translate(336,173)"/>
<path d="M0 0 C2 1 2 1 2 1 Z " fill="#141822" transform="translate(339,172)"/>
<path d="M0 0 C2 1 2 1 2 1 Z " fill="#141822" transform="translate(342,171)"/>
<path d="M0 0 C2 1 2 1 2 1 Z " fill="#131721" transform="translate(345,170)"/>
<path d="M0 0 C2 1 2 1 2 1 Z " fill="#141822" transform="translate(454,163)"/>
<path d="M0 0 C2 1 2 1 2 1 Z " fill="#141822" transform="translate(457,162)"/>
<path d="M0 0 C2 1 2 1 2 1 Z " fill="#141822" transform="translate(468,158)"/>
<path d="M0 0 C2 1 2 1 2 1 Z " fill="#131721" transform="translate(336,155)"/>
<path d="M0 0 C2 1 2 1 2 1 Z " fill="#131721" transform="translate(338,154)"/>
<path d="M0 0 C2 1 2 1 2 1 Z " fill="#141822" transform="translate(341,153)"/>
<path d="M0 0 C2 1 2 1 2 1 Z " fill="#131721" transform="translate(343,152)"/>
<path d="M0 0 C2 1 2 1 2 1 Z " fill="#131722" transform="translate(346,151)"/>
<path d="M0 0 C2 1 2 1 2 1 Z " fill="#141822" transform="translate(348,150)"/>
<path d="M0 0 C2 1 2 1 2 1 Z " fill="#141822" transform="translate(351,149)"/>
<path d="M0 0 C2 1 2 1 2 1 Z " fill="#141822" transform="translate(133,147)"/>
<path d="M0 0 C2 1 2 1 2 1 Z " fill="#141822" transform="translate(359,146)"/>
<path d="M0 0 C2 1 2 1 2 1 Z " fill="#131721" transform="translate(176,146)"/>
<path d="M0 0 C2 1 2 1 2 1 Z " fill="#131721" transform="translate(130,146)"/>
<path d="M0 0 C2 1 2 1 2 1 Z " fill="#141822" transform="translate(362,145)"/>
<path d="M0 0 C2 1 2 1 2 1 Z " fill="#131721" transform="translate(178,145)"/>
<path d="M0 0 C2 1 2 1 2 1 Z " fill="#131721" transform="translate(125,143)"/>
<path d="M0 0 C2 1 2 1 2 1 Z " fill="#131721" transform="translate(184,142)"/>
<path d="M0 0 C2 1 2 1 2 1 Z " fill="#131721" transform="translate(352,137)"/>
<path d="M0 0 C2 1 2 1 2 1 Z " fill="#141822" transform="translate(360,134)"/>
<path d="" fill="#131721" transform="translate(0,0)"/>
<path d="M0 0 C2 1 2 1 2 1 Z " fill="#131721" transform="translate(363,133)"/>
<path d="M0 0 C2 1 2 1 2 1 Z " fill="#141822" transform="translate(366,132)"/>
<path d="" fill="#131721" transform="translate(0,0)"/>
<path d="M0 0 C2 1 2 1 2 1 Z " fill="#131721" transform="translate(145,131)"/>
<path d="" fill="#131721" transform="translate(0,0)"/>
<path d="M0 0 C2 1 2 1 2 1 Z " fill="#141822" transform="translate(142,130)"/>
<path d="" fill="#131721" transform="translate(0,0)"/>
<path d="M0 0 C2 1 2 1 2 1 Z " fill="#131721" transform="translate(171,129)"/>
<path d="M0 0 C2 1 2 1 2 1 Z " fill="#141822" transform="translate(140,129)"/>
<path d="" fill="#131721" transform="translate(0,0)"/>
<path d="M0 0 C2 1 2 1 2 1 Z " fill="#131721" transform="translate(173,128)"/>
<path d="M0 0 C2 1 2 1 2 1 Z " fill="#131721" transform="translate(175,127)"/>
<path d="M0 0 C2 1 2 1 2 1 Z " fill="#131721" transform="translate(137,127)"/>
<path d="M0 0 C2 1 2 1 2 1 Z " fill="#141822" transform="translate(177,126)"/>
<path d="" fill="#131721" transform="translate(0,0)"/>
<path d="" fill="#131721" transform="translate(0,0)"/>
<path d="" fill="#141822" transform="translate(0,0)"/>
<path d="M0 0 C2 1 2 1 2 1 Z " fill="#141822" transform="translate(132,114)"/>
<path d="M0 0 C2 1 2 1 2 1 Z " fill="#131721" transform="translate(135,113)"/>
<path d="M0 0 C2 1 2 1 2 1 Z " fill="#131721" transform="translate(152,107)"/>
<path d="M0 0 C2 1 2 1 2 1 Z " fill="#141822" transform="translate(155,106)"/>
<path d="M0 0 C2 1 2 1 2 1 Z " fill="#141822" transform="translate(158,105)"/>
<path d="M0 0 C2 1 2 1 2 1 Z " fill="#131721" transform="translate(161,104)"/>
<path d="M0 0 C2 1 2 1 2 1 Z " fill="#131722" transform="translate(164,103)"/>
<path d="M0 0 C2 1 2 1 2 1 Z " fill="#141822" transform="translate(175,99)"/>
<path d="" fill="#131721" transform="translate(0,0)"/>
<path d="M0 0 C2 1 2 1 2 1 Z " fill="#141822" transform="translate(178,98)"/>
<path d="M0 0 C2 1 2 1 2 1 Z " fill="#131721" transform="translate(181,97)"/>
<path d="M0 0 C2 1 2 1 2 1 Z " fill="#141822" transform="translate(126,97)"/>
<path d="M0 0 C2 1 2 1 2 1 Z " fill="#131721" transform="translate(183,96)"/>
<path d="M0 0 C2 1 2 1 2 1 Z " fill="#131721" transform="translate(129,96)"/>
<path d="M0 0 C2 1 2 1 2 1 Z " fill="#131721" transform="translate(186,95)"/>
<path d="" fill="#131721" transform="translate(0,0)"/>
<path d="M0 0 C2 1 2 1 2 1 Z " fill="#141822" transform="translate(188,94)"/>
<path d="" fill="#131721" transform="translate(0,0)"/>
<path d="M0 0 C2 1 2 1 2 1 Z " fill="#131721" transform="translate(140,92)"/>
<path d="M0 0 C2 1 2 1 2 1 Z " fill="#141822" transform="translate(143,91)"/>
<path d="M0 0 C2 1 2 1 2 1 Z " fill="#141822" transform="translate(146,90)"/>
<path d="M0 0 C2 1 2 1 2 1 Z " fill="#131721" transform="translate(149,89)"/>
<path d="M0 0 C2 1 2 1 2 1 Z " fill="#141822" transform="translate(152,88)"/>
<path d="M0 0 C2 1 2 1 2 1 Z " fill="#141822" transform="translate(163,84)"/>
<path d="M0 0 C2 1 2 1 2 1 Z " fill="#141822" transform="translate(166,83)"/>
<path d="" fill="#131721" transform="translate(0,0)"/>
<path d="" fill="#131722" transform="translate(0,0)"/>
<path d="" fill="#141822" transform="translate(0,0)"/>
<path d="" fill="#141822" transform="translate(0,0)"/>
<path d="" fill="#131721" transform="translate(0,0)"/>
<path d="" fill="#131721" transform="translate(0,0)"/>
<path d="M0 0 C2 1 2 1 2 1 Z " fill="#FFC800" transform="translate(443,72)"/>
<path d="" fill="#131721" transform="translate(0,0)"/>
<path d="" fill="#131721" transform="translate(0,0)"/>
<path d="M0 0 C2 1 2 1 2 1 Z " fill="#FFC800" transform="translate(441,71)"/>
<path d="" fill="#141822" transform="translate(0,0)"/>
<path d="" fill="#131721" transform="translate(0,0)"/>
<path d="M0 0 C2 1 2 1 2 1 Z " fill="#FFC900" transform="translate(463,70)"/>
<path d="M0 0 C2 1 2 1 2 1 Z " fill="#131721" transform="translate(318,70)"/>
<path d="M0 0 C2 1 2 1 2 1 Z " fill="#FFC900" transform="translate(438,69)"/>
<path d="" fill="#131721" transform="translate(0,0)"/>
<path d="" fill="#131721" transform="translate(0,0)"/>
<path d="M0 0 C2 1 2 1 2 1 Z " fill="#131721" transform="translate(322,67)"/>
<path d="M0 0 C2 1 2 1 2 1 Z " fill="#131722" transform="translate(246,67)"/>
<path d="" fill="#141822" transform="translate(0,0)"/>
<path d="" fill="#131721" transform="translate(0,0)"/>
<path d="M0 0 C2 1 2 1 2 1 Z " fill="#141822" transform="translate(138,66)"/>
<path d="" fill="#131721" transform="translate(0,0)"/>
<path d="" fill="#FFC900" transform="translate(0,0)"/>
<path d="M0 0 C2 1 2 1 2 1 Z " fill="#131722" transform="translate(343,65)"/>
<path d="M0 0 C2 1 2 1 2 1 Z " fill="#131721" transform="translate(326,65)"/>
<path d="" fill="#131722" transform="translate(0,0)"/>
<path d="M0 0 C2 1 2 1 2 1 Z " fill="#131722" transform="translate(161,65)"/>
<path d="M0 0 C2 1 2 1 2 1 Z " fill="#141822" transform="translate(140,65)"/>
<path d="" fill="#FFC900" transform="translate(0,0)"/>
<path d="" fill="#141822" transform="translate(0,0)"/>
<path d="" fill="#131721" transform="translate(0,0)"/>
<path d="" fill="#131721" transform="translate(0,0)"/>
<path d="" fill="#FFC900" transform="translate(0,0)"/>
<path d="" fill="#131721" transform="translate(0,0)"/>
<path d="" fill="#131722" transform="translate(0,0)"/>
<path d="" fill="#FFC900" transform="translate(0,0)"/>
<path d="" fill="#FFC900" transform="translate(0,0)"/>
<path d="" fill="#131721" transform="translate(0,0)"/>
<path d="" fill="#131721" transform="translate(0,0)"/>
<path d="M0 0 C2 1 2 1 2 1 Z " fill="#131721" transform="translate(122,55)"/>
<path d="M0 0 C2 1 2 1 2 1 Z " fill="#131721" transform="translate(176,53)"/>
<path d="M0 0 C2 1 2 1 2 1 Z " fill="#131721" transform="translate(360,52)"/>
<path d="M0 0 C2 1 2 1 2 1 Z " fill="#131721" transform="translate(126,52)"/>
<path d="M0 0 C2 1 2 1 2 1 Z " fill="#131721" transform="translate(319,51)"/>
<path d="M0 0 C2 1 2 1 2 1 Z " fill="#131721" transform="translate(240,51)"/>
<path d="" fill="#131721" transform="translate(0,0)"/>
<path d="M0 0 C2 1 2 1 2 1 Z " fill="#131721" transform="translate(356,49)"/>
<path d="M0 0 C2 1 2 1 2 1 Z " fill="#141822" transform="translate(170,49)"/>
<path d="M0 0 C2 1 2 1 2 1 Z " fill="#141822" transform="translate(354,48)"/>
<path d="M0 0 C2 1 2 1 2 1 Z " fill="#131721" transform="translate(324,48)"/>
<path d="M0 0 C2 1 2 1 2 1 Z " fill="#131721" transform="translate(168,48)"/>
<path d="M0 0 C2 1 2 1 2 1 Z " fill="#131721" transform="translate(134,48)"/>
<path d="M0 0 C2 1 2 1 2 1 Z " fill="#131721" transform="translate(352,47)"/>
<path d="M0 0 C2 1 2 1 2 1 Z " fill="#141822" transform="translate(327,47)"/>
<path d="M0 0 C2 1 2 1 2 1 Z " fill="#131721" transform="translate(246,47)"/>
<path d="M0 0 C2 1 2 1 2 1 Z " fill="#141822" transform="translate(249,46)"/>
<path d="" fill="#FFC900" transform="translate(0,0)"/>
<path d="" fill="#FFC900" transform="translate(0,0)"/>
<path d="" fill="#FFC900" transform="translate(0,0)"/>
<path d="" fill="#FFC900" transform="translate(0,0)"/>
<path d="M0 0 C2 1 2 1 2 1 Z " fill="#FFC900" transform="translate(465,35)"/>
<path d="M0 0 C2 1 2 1 2 1 Z " fill="#FEC800" transform="translate(440,33)"/>
<path d="M0 0 C2 1 2 1 2 1 Z " fill="#FFC900" transform="translate(442,32)"/>
<path d="M0 0 C2 1 2 1 2 1 Z " fill="#FFC900" transform="translate(458,31)"/>
<path d="M0 0 C2 1 2 1 2 1 Z " fill="#FFC900" transform="translate(444,31)"/>
<path d="M0 0 C2 1 2 1 2 1 Z " fill="#141822" transform="translate(0,27)"/>
<path d="M0 0 C2 1 2 1 2 1 Z " fill="#131721" transform="translate(3,26)"/>
<path d="M0 0 C2 1 2 1 2 1 Z " fill="#141822" transform="translate(6,25)"/>
<path d="M0 0 C2 1 2 1 2 1 Z " fill="#131721" transform="translate(0,9)"/>
<path d="M0 0 C2 1 2 1 2 1 Z " fill="#141822" transform="translate(5,7)"/>
<path d="M0 0 C2 1 2 1 2 1 Z " fill="#131721" transform="translate(7,6)"/>
<path d="M0 0 C2 1 2 1 2 1 Z " fill="#131722" transform="translate(10,5)"/>
<path d="M0 0 C2 1 2 1 2 1 Z " fill="#131721" transform="translate(12,4)"/>
<path d="M0 0 C2 1 2 1 2 1 Z " fill="#141822" transform="translate(15,3)"/>
<path d="M0 0 C2 1 2 1 2 1 Z " fill="#131721" transform="translate(18,2)"/>
<path d="" fill="#141822" transform="translate(0,0)"/>
<path d="" fill="#141822" transform="translate(0,0)"/>
<path d="" fill="#141822" transform="translate(0,0)"/>
<path d="" fill="#131721" transform="translate(0,0)"/>
<path d="" fill="#131721" transform="translate(0,0)"/>
<path d="" fill="#131721" transform="translate(0,0)"/>
<path d="" fill="#141822" transform="translate(0,0)"/>
<path d="" fill="#141822" transform="translate(0,0)"/>
<path d="" fill="#141822" transform="translate(0,0)"/>
<path d="" fill="#141822" transform="translate(0,0)"/>
<path d="" fill="#141822" transform="translate(0,0)"/>
<path d="" fill="#131721" transform="translate(0,0)"/>
<path d="" fill="#141822" transform="translate(0,0)"/>
<path d="" fill="#131721" transform="translate(0,0)"/>
<path d="" fill="#141822" transform="translate(0,0)"/>
<path d="" fill="#141822" transform="translate(0,0)"/>
<path d="" fill="#141822" transform="translate(0,0)"/>
<path d="" fill="#141822" transform="translate(0,0)"/>
<path d="" fill="#141822" transform="translate(0,0)"/>
<path d="" fill="#141822" transform="translate(0,0)"/>
<path d="" fill="#131722" transform="translate(0,0)"/>
<path d="" fill="#141822" transform="translate(0,0)"/>
<path d="" fill="#131722" transform="translate(0,0)"/>
<path d="" fill="#131722" transform="translate(0,0)"/>
<path d="" fill="#131722" transform="translate(0,0)"/>
<path d="" fill="#141822" transform="translate(0,0)"/>
<path d="" fill="#131722" transform="translate(0,0)"/>
<path d="" fill="#131722" transform="translate(0,0)"/>
<path d="" fill="#131722" transform="translate(0,0)"/>
<path d="" fill="#141822" transform="translate(0,0)"/>
<path d="" fill="#141822" transform="translate(0,0)"/>
<path d="" fill="#141822" transform="translate(0,0)"/>
<path d="" fill="#141822" transform="translate(0,0)"/>
<path d="" fill="#141822" transform="translate(0,0)"/>
<path d="" fill="#141822" transform="translate(0,0)"/>
<path d="" fill="#131722" transform="translate(0,0)"/>
<path d="" fill="#141822" transform="translate(0,0)"/>
<path d="" fill="#141822" transform="translate(0,0)"/>
<path d="" fill="#131722" transform="translate(0,0)"/>
<path d="" fill="#141822" transform="translate(0,0)"/>
<path d="" fill="#141822" transform="translate(0,0)"/>
<path d="" fill="#141822" transform="translate(0,0)"/>
<path d="" fill="#141822" transform="translate(0,0)"/>
<path d="" fill="#141822" transform="translate(0,0)"/>
<path d="" fill="#131722" transform="translate(0,0)"/>
<path d="" fill="#141822" transform="translate(0,0)"/>
<path d="" fill="#131722" transform="translate(0,0)"/>
<path d="" fill="#131822" transform="translate(0,0)"/>
<path d="" fill="#131722" transform="translate(0,0)"/>
<path d="" fill="#141822" transform="translate(0,0)"/>
<path d="" fill="#141822" transform="translate(0,0)"/>
<path d="" fill="#131722" transform="translate(0,0)"/>
<path d="" fill="#141822" transform="translate(0,0)"/>
<path d="" fill="#141822" transform="translate(0,0)"/>
<path d="" fill="#141822" transform="translate(0,0)"/>
<path d="" fill="#141822" transform="translate(0,0)"/>
<path d="" fill="#141822" transform="translate(0,0)"/>
<path d="" fill="#131721" transform="translate(0,0)"/>
<path d="" fill="#141822" transform="translate(0,0)"/>
<path d="" fill="#131722" transform="translate(0,0)"/>
<path d="" fill="#141822" transform="translate(0,0)"/>
<path d="" fill="#131822" transform="translate(0,0)"/>
<path d="" fill="#141822" transform="translate(0,0)"/>
<path d="" fill="#141822" transform="translate(0,0)"/>
<path d="" fill="#141822" transform="translate(0,0)"/>
<path d="" fill="#131722" transform="translate(0,0)"/>
<path d="" fill="#141822" transform="translate(0,0)"/>
<path d="" fill="#131722" transform="translate(0,0)"/>
<path d="" fill="#131722" transform="translate(0,0)"/>
<path d="" fill="#141822" transform="translate(0,0)"/>
<path d="" fill="#141822" transform="translate(0,0)"/>
<path d="" fill="#131722" transform="translate(0,0)"/>
<path d="" fill="#131721" transform="translate(0,0)"/>
<path d="" fill="#141822" transform="translate(0,0)"/>
<path d="" fill="#141822" transform="translate(0,0)"/>
<path d="" fill="#131721" transform="translate(0,0)"/>
<path d="" fill="#131721" transform="translate(0,0)"/>
<path d="" fill="#131721" transform="translate(0,0)"/>
<path d="" fill="#141822" transform="translate(0,0)"/>
<path d="" fill="#131721" transform="translate(0,0)"/>
<path d="" fill="#131721" transform="translate(0,0)"/>
<path d="" fill="#141822" transform="translate(0,0)"/>
<path d="" fill="#141822" transform="translate(0,0)"/>
<path d="" fill="#131721" transform="translate(0,0)"/>
<path d="" fill="#131721" transform="translate(0,0)"/>
<path d="" fill="#131722" transform="translate(0,0)"/>
<path d="" fill="#131722" transform="translate(0,0)"/>
<path d="" fill="#141822" transform="translate(0,0)"/>
<path d="" fill="#141822" transform="translate(0,0)"/>
<path d="" fill="#131722" transform="translate(0,0)"/>
<path d="" fill="#141822" transform="translate(0,0)"/>
<path d="" fill="#141822" transform="translate(0,0)"/>
<path d="" fill="#141822" transform="translate(0,0)"/>
<path d="" fill="#131722" transform="translate(0,0)"/>
<path d="" fill="#141822" transform="translate(0,0)"/>
<path d="" fill="#131722" transform="translate(0,0)"/>
<path d="" fill="#141822" transform="translate(0,0)"/>
<path d="" fill="#131722" transform="translate(0,0)"/>
<path d="" fill="#141822" transform="translate(0,0)"/>
<path d="" fill="#131822" transform="translate(0,0)"/>
<path d="" fill="#131722" transform="translate(0,0)"/>
<path d="" fill="#131722" transform="translate(0,0)"/>
<path d="" fill="#131722" transform="translate(0,0)"/>
<path d="" fill="#131722" transform="translate(0,0)"/>
<path d="" fill="#131722" transform="translate(0,0)"/>
<path d="" fill="#131722" transform="translate(0,0)"/>
<path d="" fill="#131722" transform="translate(0,0)"/>
<path d="" fill="#131722" transform="translate(0,0)"/>
<path d="" fill="#131722" transform="translate(0,0)"/>
<path d="" fill="#131722" transform="translate(0,0)"/>
<path d="" fill="#131722" transform="translate(0,0)"/>
<path d="" fill="#131722" transform="translate(0,0)"/>
<path d="" fill="#131722" transform="translate(0,0)"/>
<path d="" fill="#131722" transform="translate(0,0)"/>
<path d="" fill="#131722" transform="translate(0,0)"/>
<path d="" fill="#141822" transform="translate(0,0)"/>
<path d="" fill="#131822" transform="translate(0,0)"/>
<path d="" fill="#141822" transform="translate(0,0)"/>
<path d="" fill="#131722" transform="translate(0,0)"/>
<path d="" fill="#141822" transform="translate(0,0)"/>
<path d="" fill="#131722" transform="translate(0,0)"/>
<path d="" fill="#141822" transform="translate(0,0)"/>
<path d="" fill="#131722" transform="translate(0,0)"/>
<path d="" fill="#131721" transform="translate(0,0)"/>
<path d="" fill="#131722" transform="translate(0,0)"/>
<path d="" fill="#131721" transform="translate(0,0)"/>
<path d="" fill="#141822" transform="translate(0,0)"/>
<path d="" fill="#131721" transform="translate(0,0)"/>
<path d="" fill="#141822" transform="translate(0,0)"/>
<path d="" fill="#141822" transform="translate(0,0)"/>
<path d="" fill="#131721" transform="translate(0,0)"/>
<path d="" fill="#141822" transform="translate(0,0)"/>
<path d="" fill="#131722" transform="translate(0,0)"/>
<path d="" fill="#141822" transform="translate(0,0)"/>
<path d="" fill="#131722" transform="translate(0,0)"/>
<path d="" fill="#141822" transform="translate(0,0)"/>
<path d="" fill="#131722" transform="translate(0,0)"/>
<path d="" fill="#141822" transform="translate(0,0)"/>
<path d="" fill="#131722" transform="translate(0,0)"/>
<path d="" fill="#131722" transform="translate(0,0)"/>
<path d="" fill="#131822" transform="translate(0,0)"/>
<path d="" fill="#131722" transform="translate(0,0)"/>
<path d="" fill="#131722" transform="translate(0,0)"/>
<path d="" fill="#131722" transform="translate(0,0)"/>
<path d="" fill="#131722" transform="translate(0,0)"/>
<path d="" fill="#131722" transform="translate(0,0)"/>
<path d="" fill="#131722" transform="translate(0,0)"/>
<path d="" fill="#131722" transform="translate(0,0)"/>
<path d="" fill="#131722" transform="translate(0,0)"/>
<path d="" fill="#131722" transform="translate(0,0)"/>
<path d="" fill="#141822" transform="translate(0,0)"/>
<path d="" fill="#131722" transform="translate(0,0)"/>
<path d="" fill="#141822" transform="translate(0,0)"/>
<path d="" fill="#131722" transform="translate(0,0)"/>
<path d="" fill="#141822" transform="translate(0,0)"/>
<path d="" fill="#131722" transform="translate(0,0)"/>
<path d="" fill="#131722" transform="translate(0,0)"/>
<path d="" fill="#131722" transform="translate(0,0)"/>
<path d="" fill="#141822" transform="translate(0,0)"/>
<path d="" fill="#131722" transform="translate(0,0)"/>
<path d="" fill="#131722" transform="translate(0,0)"/>
<path d="" fill="#131722" transform="translate(0,0)"/>
<path d="" fill="#131721" transform="translate(0,0)"/>
<path d="" fill="#131722" transform="translate(0,0)"/>
<path d="" fill="#141822" transform="translate(0,0)"/>
<path d="" fill="#131722" transform="translate(0,0)"/>
<path d="" fill="#131822" transform="translate(0,0)"/>
<path d="" fill="#131721" transform="translate(0,0)"/>
<path d="" fill="#131722" transform="translate(0,0)"/>
<path d="" fill="#141822" transform="translate(0,0)"/>
<path d="" fill="#131721" transform="translate(0,0)"/>
<path d="" fill="#131722" transform="translate(0,0)"/>
<path d="" fill="#141822" transform="translate(0,0)"/>
<path d="" fill="#131822" transform="translate(0,0)"/>
<path d="" fill="#131721" transform="translate(0,0)"/>
<path d="" fill="#131722" transform="translate(0,0)"/>
<path d="" fill="#131722" transform="translate(0,0)"/>
<path d="" fill="#131722" transform="translate(0,0)"/>
<path d="" fill="#141822" transform="translate(0,0)"/>
<path d="" fill="#131722" transform="translate(0,0)"/>
<path d="" fill="#141822" transform="translate(0,0)"/>
<path d="" fill="#131722" transform="translate(0,0)"/>
<path d="" fill="#141822" transform="translate(0,0)"/>
<path d="" fill="#131722" transform="translate(0,0)"/>
<path d="" fill="#141822" transform="translate(0,0)"/>
<path d="" fill="#131722" transform="translate(0,0)"/>
<path d="" fill="#141822" transform="translate(0,0)"/>
<path d="" fill="#131722" transform="translate(0,0)"/>
<path d="" fill="#131722" transform="translate(0,0)"/>
<path d="" fill="#131722" transform="translate(0,0)"/>
<path d="" fill="#141822" transform="translate(0,0)"/>
<path d="" fill="#131722" transform="translate(0,0)"/>
<path d="" fill="#141822" transform="translate(0,0)"/>
<path d="" fill="#131721" transform="translate(0,0)"/>
<path d="" fill="#141822" transform="translate(0,0)"/>
<path d="" fill="#141822" transform="translate(0,0)"/>
<path d="" fill="#141822" transform="translate(0,0)"/>
<path d="" fill="#141822" transform="translate(0,0)"/>
<path d="" fill="#131722" transform="translate(0,0)"/>
<path d="" fill="#141822" transform="translate(0,0)"/>
<path d="" fill="#141822" transform="translate(0,0)"/>
<path d="" fill="#131722" transform="translate(0,0)"/>
<path d="" fill="#141822" transform="translate(0,0)"/>
<path d="" fill="#141822" transform="translate(0,0)"/>
<path d="" fill="#131721" transform="translate(0,0)"/>
<path d="" fill="#141822" transform="translate(0,0)"/>
<path d="" fill="#141822" transform="translate(0,0)"/>
<path d="" fill="#141822" transform="translate(0,0)"/>
<path d="" fill="#131721" transform="translate(0,0)"/>
<path d="" fill="#141822" transform="translate(0,0)"/>
<path d="" fill="#141822" transform="translate(0,0)"/>
<path d="" fill="#141822" transform="translate(0,0)"/>
<path d="" fill="#141822" transform="translate(0,0)"/>
<path d="" fill="#141822" transform="translate(0,0)"/>
<path d="" fill="#131722" transform="translate(0,0)"/>
<path d="" fill="#141822" transform="translate(0,0)"/>
<path d="" fill="#141822" transform="translate(0,0)"/>
<path d="" fill="#131722" transform="translate(0,0)"/>
<path d="" fill="#131721" transform="translate(0,0)"/>
<path d="" fill="#131722" transform="translate(0,0)"/>
<path d="" fill="#141822" transform="translate(0,0)"/>
<path d="" fill="#141822" transform="translate(0,0)"/>
<path d="" fill="#131721" transform="translate(0,0)"/>
<path d="" fill="#141822" transform="translate(0,0)"/>
<path d="" fill="#141822" transform="translate(0,0)"/>
<path d="" fill="#131722" transform="translate(0,0)"/>
<path d="" fill="#131722" transform="translate(0,0)"/>
<path d="" fill="#141822" transform="translate(0,0)"/>
<path d="" fill="#141822" transform="translate(0,0)"/>
<path d="" fill="#141822" transform="translate(0,0)"/>
<path d="" fill="#141822" transform="translate(0,0)"/>
<path d="" fill="#141822" transform="translate(0,0)"/>
<path d="" fill="#131721" transform="translate(0,0)"/>
<path d="" fill="#141822" transform="translate(0,0)"/>
<path d="" fill="#131721" transform="translate(0,0)"/>
<path d="" fill="#131721" transform="translate(0,0)"/>
<path d="" fill="#131721" transform="translate(0,0)"/>
<path d="" fill="#131721" transform="translate(0,0)"/>
<path d="" fill="#131721" transform="translate(0,0)"/>
<path d="" fill="#131721" transform="translate(0,0)"/>
<path d="" fill="#131721" transform="translate(0,0)"/>
<path d="" fill="#131721" transform="translate(0,0)"/>
<path d="" fill="#131722" transform="translate(0,0)"/>
<path d="" fill="#141822" transform="translate(0,0)"/>
<path d="" fill="#141822" transform="translate(0,0)"/>
<path d="" fill="#131721" transform="translate(0,0)"/>
<path d="" fill="#141822" transform="translate(0,0)"/>
<path d="" fill="#131722" transform="translate(0,0)"/>
<path d="" fill="#131722" transform="translate(0,0)"/>
<path d="" fill="#141822" transform="translate(0,0)"/>
<path d="" fill="#141822" transform="translate(0,0)"/>
<path d="" fill="#141822" transform="translate(0,0)"/>
<path d="" fill="#141822" transform="translate(0,0)"/>
<path d="" fill="#141822" transform="translate(0,0)"/>
<path d="" fill="#141822" transform="translate(0,0)"/>
<path d="" fill="#141822" transform="translate(0,0)"/>
<path d="" fill="#141822" transform="translate(0,0)"/>
<path d="" fill="#141822" transform="translate(0,0)"/>
<path d="" fill="#141822" transform="translate(0,0)"/>
<path d="" fill="#141822" transform="translate(0,0)"/>
<path d="" fill="#141822" transform="translate(0,0)"/>
<path d="" fill="#131822" transform="translate(0,0)"/>
<path d="" fill="#131721" transform="translate(0,0)"/>
<path d="" fill="#141822" transform="translate(0,0)"/>
<path d="" fill="#131721" transform="translate(0,0)"/>
<path d="" fill="#141822" transform="translate(0,0)"/>
<path d="" fill="#141822" transform="translate(0,0)"/>
<path d="" fill="#141822" transform="translate(0,0)"/>
<path d="" fill="#131721" transform="translate(0,0)"/>
<path d="" fill="#141822" transform="translate(0,0)"/>
<path d="" fill="#141822" transform="translate(0,0)"/>
<path d="" fill="#131721" transform="translate(0,0)"/>
<path d="" fill="#131722" transform="translate(0,0)"/>
<path d="" fill="#141822" transform="translate(0,0)"/>
<path d="" fill="#141822" transform="translate(0,0)"/>
<path d="" fill="#131721" transform="translate(0,0)"/>
<path d="" fill="#141822" transform="translate(0,0)"/>
<path d="" fill="#131722" transform="translate(0,0)"/>
<path d="" fill="#141822" transform="translate(0,0)"/>
<path d="" fill="#141822" transform="translate(0,0)"/>
<path d="" fill="#141822" transform="translate(0,0)"/>
<path d="" fill="#141822" transform="translate(0,0)"/>
<path d="" fill="#141822" transform="translate(0,0)"/>
<path d="" fill="#131722" transform="translate(0,0)"/>
<path d="" fill="#131722" transform="translate(0,0)"/>
<path d="" fill="#141822" transform="translate(0,0)"/>
<path d="" fill="#141822" transform="translate(0,0)"/>
<path d="" fill="#141822" transform="translate(0,0)"/>
<path d="" fill="#131722" transform="translate(0,0)"/>
<path d="" fill="#141822" transform="translate(0,0)"/>
<path d="" fill="#141822" transform="translate(0,0)"/>
<path d="" fill="#131722" transform="translate(0,0)"/>
<path d="" fill="#141822" transform="translate(0,0)"/>
<path d="" fill="#131722" transform="translate(0,0)"/>
<path d="" fill="#131722" transform="translate(0,0)"/>
<path d="" fill="#131722" transform="translate(0,0)"/>
<path d="" fill="#131722" transform="translate(0,0)"/>
<path d="" fill="#131722" transform="translate(0,0)"/>
<path d="" fill="#131722" transform="translate(0,0)"/>
<path d="" fill="#131822" transform="translate(0,0)"/>
<path d="" fill="#131722" transform="translate(0,0)"/>
<path d="" fill="#131722" transform="translate(0,0)"/>
<path d="" fill="#131722" transform="translate(0,0)"/>
<path d="" fill="#131722" transform="translate(0,0)"/>
<path d="" fill="#131722" transform="translate(0,0)"/>
<path d="" fill="#131722" transform="translate(0,0)"/>
<path d="" fill="#131722" transform="translate(0,0)"/>
<path d="" fill="#131722" transform="translate(0,0)"/>
<path d="" fill="#131822" transform="translate(0,0)"/>
<path d="" fill="#131722" transform="translate(0,0)"/>
<path d="" fill="#131722" transform="translate(0,0)"/>
<path d="" fill="#141822" transform="translate(0,0)"/>
<path d="" fill="#131722" transform="translate(0,0)"/>
<path d="" fill="#141822" transform="translate(0,0)"/>
<path d="" fill="#131822" transform="translate(0,0)"/>
<path d="" fill="#141822" transform="translate(0,0)"/>
<path d="" fill="#131722" transform="translate(0,0)"/>
<path d="" fill="#141822" transform="translate(0,0)"/>
<path d="" fill="#131721" transform="translate(0,0)"/>
<path d="" fill="#131722" transform="translate(0,0)"/>
<path d="" fill="#131722" transform="translate(0,0)"/>
<path d="" fill="#141822" transform="translate(0,0)"/>
<path d="" fill="#141822" transform="translate(0,0)"/>
<path d="" fill="#131721" transform="translate(0,0)"/>
<path d="" fill="#131722" transform="translate(0,0)"/>
<path d="" fill="#131721" transform="translate(0,0)"/>
<path d="" fill="#131722" transform="translate(0,0)"/>
<path d="" fill="#131722" transform="translate(0,0)"/>
<path d="" fill="#141822" transform="translate(0,0)"/>
<path d="" fill="#131721" transform="translate(0,0)"/>
<path d="" fill="#141822" transform="translate(0,0)"/>
<path d="" fill="#141822" transform="translate(0,0)"/>
<path d="" fill="#131721" transform="translate(0,0)"/>
<path d="" fill="#131721" transform="translate(0,0)"/>
<path d="" fill="#131721" transform="translate(0,0)"/>
<path d="" fill="#131721" transform="translate(0,0)"/>
<path d="" fill="#131721" transform="translate(0,0)"/>
<path d="" fill="#141822" transform="translate(0,0)"/>
<path d="" fill="#131721" transform="translate(0,0)"/>
<path d="" fill="#141822" transform="translate(0,0)"/>
<path d="" fill="#131721" transform="translate(0,0)"/>
<path d="" fill="#141822" transform="translate(0,0)"/>
<path d="" fill="#141822" transform="translate(0,0)"/>
<path d="" fill="#141822" transform="translate(0,0)"/>
<path d="" fill="#141822" transform="translate(0,0)"/>
<path d="" fill="#141822" transform="translate(0,0)"/>
<path d="" fill="#141822" transform="translate(0,0)"/>
<path d="" fill="#141822" transform="translate(0,0)"/>
<path d="" fill="#141822" transform="translate(0,0)"/>
<path d="" fill="#141822" transform="translate(0,0)"/>
<path d="" fill="#141822" transform="translate(0,0)"/>
<path d="" fill="#131721" transform="translate(0,0)"/>
<path d="" fill="#131722" transform="translate(0,0)"/>
<path d="" fill="#141822" transform="translate(0,0)"/>
<path d="" fill="#141822" transform="translate(0,0)"/>
<path d="" fill="#131722" transform="translate(0,0)"/>
<path d="" fill="#141822" transform="translate(0,0)"/>
<path d="" fill="#141822" transform="translate(0,0)"/>
<path d="" fill="#141822" transform="translate(0,0)"/>
<path d="" fill="#141822" transform="translate(0,0)"/>
<path d="" fill="#141822" transform="translate(0,0)"/>
<path d="" fill="#141822" transform="translate(0,0)"/>
<path d="" fill="#141822" transform="translate(0,0)"/>
<path d="" fill="#131722" transform="translate(0,0)"/>
<path d="" fill="#131721" transform="translate(0,0)"/>
<path d="" fill="#141822" transform="translate(0,0)"/>
<path d="" fill="#131722" transform="translate(0,0)"/>
<path d="" fill="#141822" transform="translate(0,0)"/>
<path d="" fill="#141822" transform="translate(0,0)"/>
<path d="" fill="#141822" transform="translate(0,0)"/>
<path d="" fill="#141822" transform="translate(0,0)"/>
<path d="" fill="#131722" transform="translate(0,0)"/>
<path d="" fill="#141822" transform="translate(0,0)"/>
<path d="" fill="#FFC900" transform="translate(0,0)"/>
<path d="" fill="#141822" transform="translate(0,0)"/>
<path d="" fill="#141822" transform="translate(0,0)"/>
<path d="" fill="#131722" transform="translate(0,0)"/>
<path d="" fill="#131722" transform="translate(0,0)"/>
<path d="" fill="#141822" transform="translate(0,0)"/>
<path d="" fill="#FFC900" transform="translate(0,0)"/>
<path d="" fill="#141822" transform="translate(0,0)"/>
<path d="" fill="#141822" transform="translate(0,0)"/>
<path d="" fill="#141822" transform="translate(0,0)"/>
<path d="" fill="#131722" transform="translate(0,0)"/>
<path d="" fill="#141822" transform="translate(0,0)"/>
<path d="" fill="#FFC900" transform="translate(0,0)"/>
<path d="" fill="#131722" transform="translate(0,0)"/>
<path d="" fill="#141822" transform="translate(0,0)"/>
<path d="" fill="#131722" transform="translate(0,0)"/>
<path d="" fill="#141822" transform="translate(0,0)"/>
<path d="" fill="#FFC900" transform="translate(0,0)"/>
<path d="" fill="#141822" transform="translate(0,0)"/>
<path d="" fill="#131722" transform="translate(0,0)"/>
<path d="" fill="#131722" transform="translate(0,0)"/>
<path d="" fill="#141822" transform="translate(0,0)"/>
<path d="" fill="#141822" transform="translate(0,0)"/>
<path d="" fill="#131722" transform="translate(0,0)"/>
<path d="" fill="#131722" transform="translate(0,0)"/>
<path d="" fill="#FFC900" transform="translate(0,0)"/>
<path d="" fill="#FFC900" transform="translate(0,0)"/>
<path d="" fill="#131722" transform="translate(0,0)"/>
<path d="" fill="#141822" transform="translate(0,0)"/>
<path d="" fill="#131722" transform="translate(0,0)"/>
<path d="" fill="#141822" transform="translate(0,0)"/>
<path d="" fill="#131722" transform="translate(0,0)"/>
<path d="" fill="#141822" transform="translate(0,0)"/>
<path d="" fill="#FFC900" transform="translate(0,0)"/>
<path d="" fill="#FFC900" transform="translate(0,0)"/>
<path d="" fill="#131822" transform="translate(0,0)"/>
<path d="" fill="#131721" transform="translate(0,0)"/>
<path d="" fill="#141822" transform="translate(0,0)"/>
<path d="" fill="#131722" transform="translate(0,0)"/>
<path d="" fill="#141822" transform="translate(0,0)"/>
<path d="" fill="#131722" transform="translate(0,0)"/>
<path d="" fill="#131722" transform="translate(0,0)"/>
<path d="" fill="#FFC900" transform="translate(0,0)"/>
<path d="" fill="#FFC900" transform="translate(0,0)"/>
<path d="" fill="#131822" transform="translate(0,0)"/>
<path d="" fill="#131722" transform="translate(0,0)"/>
<path d="" fill="#131722" transform="translate(0,0)"/>
<path d="" fill="#131722" transform="translate(0,0)"/>
<path d="" fill="#131722" transform="translate(0,0)"/>
<path d="" fill="#FFC900" transform="translate(0,0)"/>
<path d="" fill="#131722" transform="translate(0,0)"/>
<path d="" fill="#141822" transform="translate(0,0)"/>
<path d="" fill="#FFC900" transform="translate(0,0)"/>
<path d="" fill="#131722" transform="translate(0,0)"/>
<path d="" fill="#FFC900" transform="translate(0,0)"/>
<path d="" fill="#141822" transform="translate(0,0)"/>
<path d="" fill="#131721" transform="translate(0,0)"/>
<path d="" fill="#141822" transform="translate(0,0)"/>
<path d="" fill="#141822" transform="translate(0,0)"/>
<path d="" fill="#141822" transform="translate(0,0)"/>
<path d="" fill="#131721" transform="translate(0,0)"/>
<path d="" fill="#141822" transform="translate(0,0)"/>
<path d="" fill="#141822" transform="translate(0,0)"/>
<path d="" fill="#141822" transform="translate(0,0)"/>
<path d="" fill="#141822" transform="translate(0,0)"/>
<path d="" fill="#141822" transform="translate(0,0)"/>
<path d="" fill="#131721" transform="translate(0,0)"/>
<path d="" fill="#141822" transform="translate(0,0)"/>
<path d="" fill="#141822" transform="translate(0,0)"/>
<path d="" fill="#141822" transform="translate(0,0)"/>
<path d="" fill="#131722" transform="translate(0,0)"/>
<path d="" fill="#141822" transform="translate(0,0)"/>
<path d="" fill="#131722" transform="translate(0,0)"/>
<path d="" fill="#141822" transform="translate(0,0)"/>
<path d="" fill="#141822" transform="translate(0,0)"/>
<path d="" fill="#131722" transform="translate(0,0)"/>
<path d="" fill="#131721" transform="translate(0,0)"/>
<path d="" fill="#131722" transform="translate(0,0)"/>
<path d="" fill="#131722" transform="translate(0,0)"/>
<path d="" fill="#141822" transform="translate(0,0)"/>
<path d="" fill="#141822" transform="translate(0,0)"/>
<path d="" fill="#141822" transform="translate(0,0)"/>
<path d="" fill="#131722" transform="translate(0,0)"/>
<path d="" fill="#131721" transform="translate(0,0)"/>
<path d="" fill="#141822" transform="translate(0,0)"/>
<path d="" fill="#141822" transform="translate(0,0)"/>
<path d="" fill="#141822" transform="translate(0,0)"/>
<path d="" fill="#131721" transform="translate(0,0)"/>
<path d="" fill="#131722" transform="translate(0,0)"/>
<path d="" fill="#131722" transform="translate(0,0)"/>
<path d="" fill="#141822" transform="translate(0,0)"/>
<path d="" fill="#141822" transform="translate(0,0)"/>
<path d="" fill="#141822" transform="translate(0,0)"/>
<path d="" fill="#141822" transform="translate(0,0)"/>
<path d="" fill="#141822" transform="translate(0,0)"/>
<path d="" fill="#FFC900" transform="translate(0,0)"/>
<path d="" fill="#FFC900" transform="translate(0,0)"/>
<path d="" fill="#FFC900" transform="translate(0,0)"/>
<path d="" fill="#FFC900" transform="translate(0,0)"/>
<path d="" fill="#FFC900" transform="translate(0,0)"/>
<path d="" fill="#FEC900" transform="translate(0,0)"/>
<path d="" fill="#FFC900" transform="translate(0,0)"/>
<path d="" fill="#FEC900" transform="translate(0,0)"/>
<path d="" fill="#FFC900" transform="translate(0,0)"/>
<path d="" fill="#FFC900" transform="translate(0,0)"/>
<path d="" fill="#FFC900" transform="translate(0,0)"/>
<path d="" fill="#FFC900" transform="translate(0,0)"/>
<path d="" fill="#FFC900" transform="translate(0,0)"/>
<path d="" fill="#FFC900" transform="translate(0,0)"/>
<path d="" fill="#141822" transform="translate(0,0)"/>
</svg>
